G04 #@! TF.GenerationSoftware,KiCad,Pcbnew,(5.1.5)-3*
G04 #@! TF.CreationDate,2020-11-04T23:27:45+03:00*
G04 #@! TF.ProjectId,non contact ac tester,6e6f6e20-636f-46e7-9461-637420616320,rev?*
G04 #@! TF.SameCoordinates,Original*
G04 #@! TF.FileFunction,Legend,Top*
G04 #@! TF.FilePolarity,Positive*
%FSLAX46Y46*%
G04 Gerber Fmt 4.6, Leading zero omitted, Abs format (unit mm)*
G04 Created by KiCad (PCBNEW (5.1.5)-3) date 2020-11-04 23:27:45*
%MOMM*%
%LPD*%
G04 APERTURE LIST*
%ADD10C,0.120000*%
%ADD11C,0.150000*%
G04 APERTURE END LIST*
D10*
X87664214Y-75750000D02*
G75*
G03X87664214Y-75750000I-1414214J0D01*
G01*
X83130000Y-72780000D02*
X83130000Y-78720000D01*
X89370000Y-72780000D02*
X89370000Y-78720000D01*
X84910000Y-72630000D02*
X87590000Y-72630000D01*
X87590000Y-78870000D02*
X84910000Y-78870000D01*
X76001958Y-69690001D02*
G75*
G03X74360488Y-75290000I-1958J-3039999D01*
G01*
X75998042Y-69690001D02*
G75*
G02X77639512Y-75290000I1958J-3039999D01*
G01*
X78500000Y-72730000D02*
G75*
G03X78500000Y-72730000I-2500000J0D01*
G01*
X74360000Y-75290000D02*
X77640000Y-75290000D01*
X60170000Y-77830000D02*
X62830000Y-77830000D01*
X60170000Y-77770000D02*
X60170000Y-77830000D01*
X62830000Y-77770000D02*
X62830000Y-77830000D01*
X60170000Y-77770000D02*
X62830000Y-77770000D01*
X60170000Y-76500000D02*
X60170000Y-75170000D01*
X60170000Y-75170000D02*
X61500000Y-75170000D01*
X97960000Y-81120000D02*
X97960000Y-70960000D01*
X96690000Y-81120000D02*
X104310000Y-81120000D01*
X104310000Y-81120000D02*
X104310000Y-70960000D01*
X104310000Y-70960000D02*
X96690000Y-70960000D01*
X96690000Y-70960000D02*
X96690000Y-81120000D01*
X65400000Y-70470000D02*
X65400000Y-74070000D01*
X65411522Y-70431522D02*
G75*
G02X69850000Y-72270000I1838478J-1838478D01*
G01*
X65411522Y-74108478D02*
G75*
G03X69850000Y-72270000I1838478J1838478D01*
G01*
X68161522Y-82108478D02*
G75*
G03X72600000Y-80270000I1838478J1838478D01*
G01*
X68161522Y-78431522D02*
G75*
G02X72600000Y-80270000I1838478J-1838478D01*
G01*
X68150000Y-78470000D02*
X68150000Y-82070000D01*
X76650000Y-78470000D02*
X76650000Y-82070000D01*
X76661522Y-78431522D02*
G75*
G02X81100000Y-80270000I1838478J-1838478D01*
G01*
X76661522Y-82108478D02*
G75*
G03X81100000Y-80270000I1838478J1838478D01*
G01*
X95220000Y-71730000D02*
X91780000Y-71730000D01*
X91780000Y-71730000D02*
X91780000Y-80970000D01*
X91780000Y-80970000D02*
X95220000Y-80970000D01*
X95220000Y-80970000D02*
X95220000Y-71730000D01*
X93500000Y-71040000D02*
X93500000Y-71730000D01*
X93500000Y-81660000D02*
X93500000Y-80970000D01*
D11*
X84666666Y-81404761D02*
X84809523Y-81452380D01*
X85047619Y-81452380D01*
X85142857Y-81404761D01*
X85190476Y-81357142D01*
X85238095Y-81261904D01*
X85238095Y-81166666D01*
X85190476Y-81071428D01*
X85142857Y-81023809D01*
X85047619Y-80976190D01*
X84857142Y-80928571D01*
X84761904Y-80880952D01*
X84714285Y-80833333D01*
X84666666Y-80738095D01*
X84666666Y-80642857D01*
X84714285Y-80547619D01*
X84761904Y-80500000D01*
X84857142Y-80452380D01*
X85095238Y-80452380D01*
X85238095Y-80500000D01*
X85571428Y-80452380D02*
X85809523Y-81452380D01*
X86000000Y-80738095D01*
X86190476Y-81452380D01*
X86428571Y-80452380D01*
X87333333Y-81452380D02*
X86761904Y-81452380D01*
X87047619Y-81452380D02*
X87047619Y-80452380D01*
X86952380Y-80595238D01*
X86857142Y-80690476D01*
X86761904Y-80738095D01*
X75761904Y-68952380D02*
X75761904Y-67952380D01*
X76000000Y-67952380D01*
X76142857Y-68000000D01*
X76238095Y-68095238D01*
X76285714Y-68190476D01*
X76333333Y-68380952D01*
X76333333Y-68523809D01*
X76285714Y-68714285D01*
X76238095Y-68809523D01*
X76142857Y-68904761D01*
X76000000Y-68952380D01*
X75761904Y-68952380D01*
X77285714Y-68952380D02*
X76714285Y-68952380D01*
X77000000Y-68952380D02*
X77000000Y-67952380D01*
X76904761Y-68095238D01*
X76809523Y-68190476D01*
X76714285Y-68238095D01*
X78857142Y-68952380D02*
X78380952Y-68952380D01*
X78380952Y-67952380D01*
X79190476Y-68428571D02*
X79523809Y-68428571D01*
X79666666Y-68952380D02*
X79190476Y-68952380D01*
X79190476Y-67952380D01*
X79666666Y-67952380D01*
X80095238Y-68952380D02*
X80095238Y-67952380D01*
X80333333Y-67952380D01*
X80476190Y-68000000D01*
X80571428Y-68095238D01*
X80619047Y-68190476D01*
X80666666Y-68380952D01*
X80666666Y-68523809D01*
X80619047Y-68714285D01*
X80571428Y-68809523D01*
X80476190Y-68904761D01*
X80333333Y-68952380D01*
X80095238Y-68952380D01*
X61166666Y-73622380D02*
X61166666Y-74336666D01*
X61119047Y-74479523D01*
X61023809Y-74574761D01*
X60880952Y-74622380D01*
X60785714Y-74622380D01*
X62166666Y-74622380D02*
X61595238Y-74622380D01*
X61880952Y-74622380D02*
X61880952Y-73622380D01*
X61785714Y-73765238D01*
X61690476Y-73860476D01*
X61595238Y-73908095D01*
X58738095Y-78996666D02*
X59214285Y-78996666D01*
X58642857Y-79282380D02*
X58976190Y-78282380D01*
X59309523Y-79282380D01*
X59642857Y-78615714D02*
X59642857Y-79282380D01*
X59642857Y-78710952D02*
X59690476Y-78663333D01*
X59785714Y-78615714D01*
X59928571Y-78615714D01*
X60023809Y-78663333D01*
X60071428Y-78758571D01*
X60071428Y-79282380D01*
X60404761Y-78615714D02*
X60785714Y-78615714D01*
X60547619Y-78282380D02*
X60547619Y-79139523D01*
X60595238Y-79234761D01*
X60690476Y-79282380D01*
X60785714Y-79282380D01*
X61500000Y-79234761D02*
X61404761Y-79282380D01*
X61214285Y-79282380D01*
X61119047Y-79234761D01*
X61071428Y-79139523D01*
X61071428Y-78758571D01*
X61119047Y-78663333D01*
X61214285Y-78615714D01*
X61404761Y-78615714D01*
X61500000Y-78663333D01*
X61547619Y-78758571D01*
X61547619Y-78853809D01*
X61071428Y-78949047D01*
X61976190Y-78615714D02*
X61976190Y-79282380D01*
X61976190Y-78710952D02*
X62023809Y-78663333D01*
X62119047Y-78615714D01*
X62261904Y-78615714D01*
X62357142Y-78663333D01*
X62404761Y-78758571D01*
X62404761Y-79282380D01*
X62880952Y-78615714D02*
X62880952Y-79282380D01*
X62880952Y-78710952D02*
X62928571Y-78663333D01*
X63023809Y-78615714D01*
X63166666Y-78615714D01*
X63261904Y-78663333D01*
X63309523Y-78758571D01*
X63309523Y-79282380D01*
X64214285Y-79282380D02*
X64214285Y-78758571D01*
X64166666Y-78663333D01*
X64071428Y-78615714D01*
X63880952Y-78615714D01*
X63785714Y-78663333D01*
X64214285Y-79234761D02*
X64119047Y-79282380D01*
X63880952Y-79282380D01*
X63785714Y-79234761D01*
X63738095Y-79139523D01*
X63738095Y-79044285D01*
X63785714Y-78949047D01*
X63880952Y-78901428D01*
X64119047Y-78901428D01*
X64214285Y-78853809D01*
X99666666Y-69452380D02*
X99666666Y-70166666D01*
X99619047Y-70309523D01*
X99523809Y-70404761D01*
X99380952Y-70452380D01*
X99285714Y-70452380D01*
X100095238Y-69547619D02*
X100142857Y-69500000D01*
X100238095Y-69452380D01*
X100476190Y-69452380D01*
X100571428Y-69500000D01*
X100619047Y-69547619D01*
X100666666Y-69642857D01*
X100666666Y-69738095D01*
X100619047Y-69880952D01*
X100047619Y-70452380D01*
X100666666Y-70452380D01*
X65904761Y-69047619D02*
X65809523Y-69000000D01*
X65714285Y-68904761D01*
X65571428Y-68761904D01*
X65476190Y-68714285D01*
X65380952Y-68714285D01*
X65428571Y-68952380D02*
X65333333Y-68904761D01*
X65238095Y-68809523D01*
X65190476Y-68619047D01*
X65190476Y-68285714D01*
X65238095Y-68095238D01*
X65333333Y-68000000D01*
X65428571Y-67952380D01*
X65619047Y-67952380D01*
X65714285Y-68000000D01*
X65809523Y-68095238D01*
X65857142Y-68285714D01*
X65857142Y-68619047D01*
X65809523Y-68809523D01*
X65714285Y-68904761D01*
X65619047Y-68952380D01*
X65428571Y-68952380D01*
X66809523Y-68952380D02*
X66238095Y-68952380D01*
X66523809Y-68952380D02*
X66523809Y-67952380D01*
X66428571Y-68095238D01*
X66333333Y-68190476D01*
X66238095Y-68238095D01*
X68142857Y-68428571D02*
X68285714Y-68476190D01*
X68333333Y-68523809D01*
X68380952Y-68619047D01*
X68380952Y-68761904D01*
X68333333Y-68857142D01*
X68285714Y-68904761D01*
X68190476Y-68952380D01*
X67809523Y-68952380D01*
X67809523Y-67952380D01*
X68142857Y-67952380D01*
X68238095Y-68000000D01*
X68285714Y-68047619D01*
X68333333Y-68142857D01*
X68333333Y-68238095D01*
X68285714Y-68333333D01*
X68238095Y-68380952D01*
X68142857Y-68428571D01*
X67809523Y-68428571D01*
X69380952Y-68857142D02*
X69333333Y-68904761D01*
X69190476Y-68952380D01*
X69095238Y-68952380D01*
X68952380Y-68904761D01*
X68857142Y-68809523D01*
X68809523Y-68714285D01*
X68761904Y-68523809D01*
X68761904Y-68380952D01*
X68809523Y-68190476D01*
X68857142Y-68095238D01*
X68952380Y-68000000D01*
X69095238Y-67952380D01*
X69190476Y-67952380D01*
X69333333Y-68000000D01*
X69380952Y-68047619D01*
X70285714Y-67952380D02*
X69809523Y-67952380D01*
X69761904Y-68428571D01*
X69809523Y-68380952D01*
X69904761Y-68333333D01*
X70142857Y-68333333D01*
X70238095Y-68380952D01*
X70285714Y-68428571D01*
X70333333Y-68523809D01*
X70333333Y-68761904D01*
X70285714Y-68857142D01*
X70238095Y-68904761D01*
X70142857Y-68952380D01*
X69904761Y-68952380D01*
X69809523Y-68904761D01*
X69761904Y-68857142D01*
X71190476Y-68285714D02*
X71190476Y-68952380D01*
X70952380Y-67904761D02*
X70714285Y-68619047D01*
X71333333Y-68619047D01*
X71619047Y-67952380D02*
X72285714Y-67952380D01*
X71857142Y-68952380D01*
X70404761Y-84547619D02*
X70309523Y-84500000D01*
X70214285Y-84404761D01*
X70071428Y-84261904D01*
X69976190Y-84214285D01*
X69880952Y-84214285D01*
X69928571Y-84452380D02*
X69833333Y-84404761D01*
X69738095Y-84309523D01*
X69690476Y-84119047D01*
X69690476Y-83785714D01*
X69738095Y-83595238D01*
X69833333Y-83500000D01*
X69928571Y-83452380D01*
X70119047Y-83452380D01*
X70214285Y-83500000D01*
X70309523Y-83595238D01*
X70357142Y-83785714D01*
X70357142Y-84119047D01*
X70309523Y-84309523D01*
X70214285Y-84404761D01*
X70119047Y-84452380D01*
X69928571Y-84452380D01*
X70738095Y-83547619D02*
X70785714Y-83500000D01*
X70880952Y-83452380D01*
X71119047Y-83452380D01*
X71214285Y-83500000D01*
X71261904Y-83547619D01*
X71309523Y-83642857D01*
X71309523Y-83738095D01*
X71261904Y-83880952D01*
X70690476Y-84452380D01*
X71309523Y-84452380D01*
X64142857Y-83928571D02*
X64285714Y-83976190D01*
X64333333Y-84023809D01*
X64380952Y-84119047D01*
X64380952Y-84261904D01*
X64333333Y-84357142D01*
X64285714Y-84404761D01*
X64190476Y-84452380D01*
X63809523Y-84452380D01*
X63809523Y-83452380D01*
X64142857Y-83452380D01*
X64238095Y-83500000D01*
X64285714Y-83547619D01*
X64333333Y-83642857D01*
X64333333Y-83738095D01*
X64285714Y-83833333D01*
X64238095Y-83880952D01*
X64142857Y-83928571D01*
X63809523Y-83928571D01*
X65380952Y-84357142D02*
X65333333Y-84404761D01*
X65190476Y-84452380D01*
X65095238Y-84452380D01*
X64952380Y-84404761D01*
X64857142Y-84309523D01*
X64809523Y-84214285D01*
X64761904Y-84023809D01*
X64761904Y-83880952D01*
X64809523Y-83690476D01*
X64857142Y-83595238D01*
X64952380Y-83500000D01*
X65095238Y-83452380D01*
X65190476Y-83452380D01*
X65333333Y-83500000D01*
X65380952Y-83547619D01*
X66285714Y-83452380D02*
X65809523Y-83452380D01*
X65761904Y-83928571D01*
X65809523Y-83880952D01*
X65904761Y-83833333D01*
X66142857Y-83833333D01*
X66238095Y-83880952D01*
X66285714Y-83928571D01*
X66333333Y-84023809D01*
X66333333Y-84261904D01*
X66285714Y-84357142D01*
X66238095Y-84404761D01*
X66142857Y-84452380D01*
X65904761Y-84452380D01*
X65809523Y-84404761D01*
X65761904Y-84357142D01*
X67190476Y-83785714D02*
X67190476Y-84452380D01*
X66952380Y-83404761D02*
X66714285Y-84119047D01*
X67333333Y-84119047D01*
X67619047Y-83452380D02*
X68285714Y-83452380D01*
X67857142Y-84452380D01*
X78404761Y-84547619D02*
X78309523Y-84500000D01*
X78214285Y-84404761D01*
X78071428Y-84261904D01*
X77976190Y-84214285D01*
X77880952Y-84214285D01*
X77928571Y-84452380D02*
X77833333Y-84404761D01*
X77738095Y-84309523D01*
X77690476Y-84119047D01*
X77690476Y-83785714D01*
X77738095Y-83595238D01*
X77833333Y-83500000D01*
X77928571Y-83452380D01*
X78119047Y-83452380D01*
X78214285Y-83500000D01*
X78309523Y-83595238D01*
X78357142Y-83785714D01*
X78357142Y-84119047D01*
X78309523Y-84309523D01*
X78214285Y-84404761D01*
X78119047Y-84452380D01*
X77928571Y-84452380D01*
X78690476Y-83452380D02*
X79309523Y-83452380D01*
X78976190Y-83833333D01*
X79119047Y-83833333D01*
X79214285Y-83880952D01*
X79261904Y-83928571D01*
X79309523Y-84023809D01*
X79309523Y-84261904D01*
X79261904Y-84357142D01*
X79214285Y-84404761D01*
X79119047Y-84452380D01*
X78833333Y-84452380D01*
X78738095Y-84404761D01*
X78690476Y-84357142D01*
X80642857Y-83928571D02*
X80785714Y-83976190D01*
X80833333Y-84023809D01*
X80880952Y-84119047D01*
X80880952Y-84261904D01*
X80833333Y-84357142D01*
X80785714Y-84404761D01*
X80690476Y-84452380D01*
X80309523Y-84452380D01*
X80309523Y-83452380D01*
X80642857Y-83452380D01*
X80738095Y-83500000D01*
X80785714Y-83547619D01*
X80833333Y-83642857D01*
X80833333Y-83738095D01*
X80785714Y-83833333D01*
X80738095Y-83880952D01*
X80642857Y-83928571D01*
X80309523Y-83928571D01*
X81880952Y-84357142D02*
X81833333Y-84404761D01*
X81690476Y-84452380D01*
X81595238Y-84452380D01*
X81452380Y-84404761D01*
X81357142Y-84309523D01*
X81309523Y-84214285D01*
X81261904Y-84023809D01*
X81261904Y-83880952D01*
X81309523Y-83690476D01*
X81357142Y-83595238D01*
X81452380Y-83500000D01*
X81595238Y-83452380D01*
X81690476Y-83452380D01*
X81833333Y-83500000D01*
X81880952Y-83547619D01*
X82785714Y-83452380D02*
X82309523Y-83452380D01*
X82261904Y-83928571D01*
X82309523Y-83880952D01*
X82404761Y-83833333D01*
X82642857Y-83833333D01*
X82738095Y-83880952D01*
X82785714Y-83928571D01*
X82833333Y-84023809D01*
X82833333Y-84261904D01*
X82785714Y-84357142D01*
X82738095Y-84404761D01*
X82642857Y-84452380D01*
X82404761Y-84452380D01*
X82309523Y-84404761D01*
X82261904Y-84357142D01*
X83690476Y-83785714D02*
X83690476Y-84452380D01*
X83452380Y-83404761D02*
X83214285Y-84119047D01*
X83833333Y-84119047D01*
X84119047Y-83452380D02*
X84785714Y-83452380D01*
X84357142Y-84452380D01*
X90833333Y-69452380D02*
X90500000Y-68976190D01*
X90261904Y-69452380D02*
X90261904Y-68452380D01*
X90642857Y-68452380D01*
X90738095Y-68500000D01*
X90785714Y-68547619D01*
X90833333Y-68642857D01*
X90833333Y-68785714D01*
X90785714Y-68880952D01*
X90738095Y-68928571D01*
X90642857Y-68976190D01*
X90261904Y-68976190D01*
X91785714Y-69452380D02*
X91214285Y-69452380D01*
X91500000Y-69452380D02*
X91500000Y-68452380D01*
X91404761Y-68595238D01*
X91309523Y-68690476D01*
X91214285Y-68738095D01*
X90785714Y-70952380D02*
X90214285Y-70952380D01*
X90500000Y-70952380D02*
X90500000Y-69952380D01*
X90404761Y-70095238D01*
X90309523Y-70190476D01*
X90214285Y-70238095D01*
X91214285Y-70952380D02*
X91214285Y-69952380D01*
X91785714Y-70952380D02*
X91357142Y-70380952D01*
X91785714Y-69952380D02*
X91214285Y-70523809D01*
M02*
