G04 #@! TF.GenerationSoftware,KiCad,Pcbnew,(5.1.5)-3*
G04 #@! TF.CreationDate,2020-04-07T22:10:48+03:00*
G04 #@! TF.ProjectId,Nrf24 Based Car Controller,4e726632-3420-4426-9173-656420436172,v.1.0*
G04 #@! TF.SameCoordinates,Original*
G04 #@! TF.FileFunction,Legend,Top*
G04 #@! TF.FilePolarity,Positive*
%FSLAX46Y46*%
G04 Gerber Fmt 4.6, Leading zero omitted, Abs format (unit mm)*
G04 Created by KiCad (PCBNEW (5.1.5)-3) date 2020-04-07 22:10:48*
%MOMM*%
%LPD*%
G04 APERTURE LIST*
%ADD10C,0.600000*%
%ADD11C,0.200000*%
%ADD12C,0.250000*%
%ADD13C,0.120000*%
%ADD14C,0.150000*%
G04 APERTURE END LIST*
D10*
X147828000Y-85090000D02*
X148590000Y-85090000D01*
X144526000Y-81788000D02*
X147828000Y-85090000D01*
X123952000Y-53340000D02*
X119380000Y-48768000D01*
X123952000Y-65024000D02*
X123952000Y-53340000D01*
X121412000Y-67564000D02*
X123952000Y-65024000D01*
X118618000Y-67564000D02*
X121412000Y-67564000D01*
X111252000Y-65786000D02*
X111760000Y-66294000D01*
X111252000Y-57658000D02*
X111252000Y-65786000D01*
X109728000Y-47244000D02*
X109982000Y-47244000D01*
X106934000Y-50038000D02*
X109728000Y-47244000D01*
X106934000Y-71882000D02*
X106934000Y-50038000D01*
X107950000Y-72898000D02*
X106934000Y-71882000D01*
X116332000Y-72898000D02*
X107950000Y-72898000D01*
X118618000Y-70612000D02*
X116332000Y-72898000D01*
X124968000Y-70612000D02*
X118618000Y-70612000D01*
X125222000Y-70358000D02*
X124968000Y-70612000D01*
X141224000Y-62992000D02*
X149606000Y-62992000D01*
X138938000Y-60706000D02*
X141224000Y-62992000D01*
X138938000Y-58674000D02*
X138938000Y-60706000D01*
X136906000Y-56642000D02*
X138938000Y-58674000D01*
X134874000Y-56642000D02*
X136906000Y-56642000D01*
X133350000Y-55118000D02*
X134874000Y-56642000D01*
X133350000Y-51054000D02*
X133350000Y-55118000D01*
X131572000Y-49276000D02*
X133350000Y-51054000D01*
X131318000Y-49276000D02*
X131572000Y-49276000D01*
X129540000Y-49276000D02*
X131318000Y-49276000D01*
X129286000Y-49022000D02*
X129540000Y-49276000D01*
X137414000Y-54610000D02*
X136652000Y-53848000D01*
X150368000Y-54610000D02*
X137414000Y-54610000D01*
X150622000Y-54356000D02*
X150368000Y-54610000D01*
X152908000Y-45212000D02*
X156464000Y-45212000D01*
X123444000Y-46228000D02*
X122174000Y-47498000D01*
X145288000Y-46228000D02*
X123444000Y-46228000D01*
X146812000Y-44704000D02*
X145288000Y-46228000D01*
X146812000Y-40640000D02*
X146812000Y-44704000D01*
X144780000Y-38608000D02*
X146812000Y-40640000D01*
X139192000Y-38608000D02*
X144780000Y-38608000D01*
D11*
X141986000Y-26924000D02*
X142240000Y-26670000D01*
D10*
X134366000Y-26924000D02*
X141986000Y-26924000D01*
D11*
X134112000Y-27178000D02*
X134366000Y-26924000D01*
D12*
X177388571Y-51983428D02*
X177460000Y-51840571D01*
X177531428Y-51769142D01*
X177674285Y-51697714D01*
X177745714Y-51697714D01*
X177888571Y-51769142D01*
X177960000Y-51840571D01*
X178031428Y-51983428D01*
X178031428Y-52269142D01*
X177960000Y-52412000D01*
X177888571Y-52483428D01*
X177745714Y-52554857D01*
X177674285Y-52554857D01*
X177531428Y-52483428D01*
X177460000Y-52412000D01*
X177388571Y-52269142D01*
X177388571Y-51983428D01*
X177317142Y-51840571D01*
X177245714Y-51769142D01*
X177102857Y-51697714D01*
X176817142Y-51697714D01*
X176674285Y-51769142D01*
X176602857Y-51840571D01*
X176531428Y-51983428D01*
X176531428Y-52269142D01*
X176602857Y-52412000D01*
X176674285Y-52483428D01*
X176817142Y-52554857D01*
X177102857Y-52554857D01*
X177245714Y-52483428D01*
X177317142Y-52412000D01*
X177388571Y-52269142D01*
X176531428Y-53983428D02*
X176531428Y-53126285D01*
X176531428Y-53554857D02*
X178031428Y-53554857D01*
X177817142Y-53412000D01*
X177674285Y-53269142D01*
X177602857Y-53126285D01*
X176602857Y-54697714D02*
X176531428Y-54697714D01*
X176388571Y-54626285D01*
X176317142Y-54554857D01*
X177888571Y-55269142D02*
X177960000Y-55340571D01*
X178031428Y-55483428D01*
X178031428Y-55840571D01*
X177960000Y-55983428D01*
X177888571Y-56054857D01*
X177745714Y-56126285D01*
X177602857Y-56126285D01*
X177388571Y-56054857D01*
X176531428Y-55197714D01*
X176531428Y-56126285D01*
X177388571Y-56983428D02*
X177460000Y-56840571D01*
X177531428Y-56769142D01*
X177674285Y-56697714D01*
X177745714Y-56697714D01*
X177888571Y-56769142D01*
X177960000Y-56840571D01*
X178031428Y-56983428D01*
X178031428Y-57269142D01*
X177960000Y-57412000D01*
X177888571Y-57483428D01*
X177745714Y-57554857D01*
X177674285Y-57554857D01*
X177531428Y-57483428D01*
X177460000Y-57412000D01*
X177388571Y-57269142D01*
X177388571Y-56983428D01*
X177317142Y-56840571D01*
X177245714Y-56769142D01*
X177102857Y-56697714D01*
X176817142Y-56697714D01*
X176674285Y-56769142D01*
X176602857Y-56840571D01*
X176531428Y-56983428D01*
X176531428Y-57269142D01*
X176602857Y-57412000D01*
X176674285Y-57483428D01*
X176817142Y-57554857D01*
X177102857Y-57554857D01*
X177245714Y-57483428D01*
X177317142Y-57412000D01*
X177388571Y-57269142D01*
X178031428Y-58483428D02*
X178031428Y-58626285D01*
X177960000Y-58769142D01*
X177888571Y-58840571D01*
X177745714Y-58912000D01*
X177460000Y-58983428D01*
X177102857Y-58983428D01*
X176817142Y-58912000D01*
X176674285Y-58840571D01*
X176602857Y-58769142D01*
X176531428Y-58626285D01*
X176531428Y-58483428D01*
X176602857Y-58340571D01*
X176674285Y-58269142D01*
X176817142Y-58197714D01*
X177102857Y-58126285D01*
X177460000Y-58126285D01*
X177745714Y-58197714D01*
X177888571Y-58269142D01*
X177960000Y-58340571D01*
X178031428Y-58483428D01*
X176531428Y-60769142D02*
X177531428Y-60769142D01*
X177388571Y-60769142D02*
X177460000Y-60840571D01*
X177531428Y-60983428D01*
X177531428Y-61197714D01*
X177460000Y-61340571D01*
X177317142Y-61412000D01*
X176531428Y-61412000D01*
X177317142Y-61412000D02*
X177460000Y-61483428D01*
X177531428Y-61626285D01*
X177531428Y-61840571D01*
X177460000Y-61983428D01*
X177317142Y-62054857D01*
X176531428Y-62054857D01*
X176531428Y-62769142D02*
X177531428Y-62769142D01*
X177388571Y-62769142D02*
X177460000Y-62840571D01*
X177531428Y-62983428D01*
X177531428Y-63197714D01*
X177460000Y-63340571D01*
X177317142Y-63412000D01*
X176531428Y-63412000D01*
X177317142Y-63412000D02*
X177460000Y-63483428D01*
X177531428Y-63626285D01*
X177531428Y-63840571D01*
X177460000Y-63983428D01*
X177317142Y-64054857D01*
X176531428Y-64054857D01*
D11*
X175260000Y-17272000D02*
X175260000Y-98552000D01*
X162052000Y-17272000D02*
X175846421Y-17272000D01*
X162052000Y-98552000D02*
X175846421Y-98552000D01*
X175260000Y-98552000D02*
X174673579Y-97425496D01*
X175260000Y-98552000D02*
X175846421Y-97425496D01*
X175260000Y-17272000D02*
X174673579Y-18398504D01*
X175260000Y-17272000D02*
X175846421Y-18398504D01*
D12*
X126072000Y-276571D02*
X125786285Y-276571D01*
X125643428Y-348000D01*
X125572000Y-419428D01*
X125429142Y-633714D01*
X125357714Y-919428D01*
X125357714Y-1490857D01*
X125429142Y-1633714D01*
X125500571Y-1705142D01*
X125643428Y-1776571D01*
X125929142Y-1776571D01*
X126072000Y-1705142D01*
X126143428Y-1633714D01*
X126214857Y-1490857D01*
X126214857Y-1133714D01*
X126143428Y-990857D01*
X126072000Y-919428D01*
X125929142Y-848000D01*
X125643428Y-848000D01*
X125500571Y-919428D01*
X125429142Y-990857D01*
X125357714Y-1133714D01*
X127143428Y-276571D02*
X127286285Y-276571D01*
X127429142Y-348000D01*
X127500571Y-419428D01*
X127572000Y-562285D01*
X127643428Y-848000D01*
X127643428Y-1205142D01*
X127572000Y-1490857D01*
X127500571Y-1633714D01*
X127429142Y-1705142D01*
X127286285Y-1776571D01*
X127143428Y-1776571D01*
X127000571Y-1705142D01*
X126929142Y-1633714D01*
X126857714Y-1490857D01*
X126786285Y-1205142D01*
X126786285Y-848000D01*
X126857714Y-562285D01*
X126929142Y-419428D01*
X127000571Y-348000D01*
X127143428Y-276571D01*
X128357714Y-1705142D02*
X128357714Y-1776571D01*
X128286285Y-1919428D01*
X128214857Y-1990857D01*
X129072000Y-1776571D02*
X129357714Y-1776571D01*
X129500571Y-1705142D01*
X129572000Y-1633714D01*
X129714857Y-1419428D01*
X129786285Y-1133714D01*
X129786285Y-562285D01*
X129714857Y-419428D01*
X129643428Y-348000D01*
X129500571Y-276571D01*
X129214857Y-276571D01*
X129072000Y-348000D01*
X129000571Y-419428D01*
X128929142Y-562285D01*
X128929142Y-919428D01*
X129000571Y-1062285D01*
X129072000Y-1133714D01*
X129214857Y-1205142D01*
X129500571Y-1205142D01*
X129643428Y-1133714D01*
X129714857Y-1062285D01*
X129786285Y-919428D01*
X131072000Y-276571D02*
X130786285Y-276571D01*
X130643428Y-348000D01*
X130572000Y-419428D01*
X130429142Y-633714D01*
X130357714Y-919428D01*
X130357714Y-1490857D01*
X130429142Y-1633714D01*
X130500571Y-1705142D01*
X130643428Y-1776571D01*
X130929142Y-1776571D01*
X131072000Y-1705142D01*
X131143428Y-1633714D01*
X131214857Y-1490857D01*
X131214857Y-1133714D01*
X131143428Y-990857D01*
X131072000Y-919428D01*
X130929142Y-848000D01*
X130643428Y-848000D01*
X130500571Y-919428D01*
X130429142Y-990857D01*
X130357714Y-1133714D01*
X132143428Y-276571D02*
X132286285Y-276571D01*
X132429142Y-348000D01*
X132500571Y-419428D01*
X132572000Y-562285D01*
X132643428Y-848000D01*
X132643428Y-1205142D01*
X132572000Y-1490857D01*
X132500571Y-1633714D01*
X132429142Y-1705142D01*
X132286285Y-1776571D01*
X132143428Y-1776571D01*
X132000571Y-1705142D01*
X131929142Y-1633714D01*
X131857714Y-1490857D01*
X131786285Y-1205142D01*
X131786285Y-848000D01*
X131857714Y-562285D01*
X131929142Y-419428D01*
X132000571Y-348000D01*
X132143428Y-276571D01*
X134429142Y-1776571D02*
X134429142Y-776571D01*
X134429142Y-919428D02*
X134500571Y-848000D01*
X134643428Y-776571D01*
X134857714Y-776571D01*
X135000571Y-848000D01*
X135072000Y-990857D01*
X135072000Y-1776571D01*
X135072000Y-990857D02*
X135143428Y-848000D01*
X135286285Y-776571D01*
X135500571Y-776571D01*
X135643428Y-848000D01*
X135714857Y-990857D01*
X135714857Y-1776571D01*
X136429142Y-1776571D02*
X136429142Y-776571D01*
X136429142Y-919428D02*
X136500571Y-848000D01*
X136643428Y-776571D01*
X136857714Y-776571D01*
X137000571Y-848000D01*
X137072000Y-990857D01*
X137072000Y-1776571D01*
X137072000Y-990857D02*
X137143428Y-848000D01*
X137286285Y-776571D01*
X137500571Y-776571D01*
X137643428Y-848000D01*
X137714857Y-990857D01*
X137714857Y-1776571D01*
D11*
X101092000Y-3048000D02*
X162052000Y-3048000D01*
X101092000Y-17272000D02*
X101092000Y-2461579D01*
X162052000Y-17272000D02*
X162052000Y-2461579D01*
X162052000Y-3048000D02*
X160925496Y-3634421D01*
X162052000Y-3048000D02*
X160925496Y-2461579D01*
X101092000Y-3048000D02*
X102218504Y-3634421D01*
X101092000Y-3048000D02*
X102218504Y-2461579D01*
D13*
X108668000Y-76752000D02*
X108668000Y-75692000D01*
X109728000Y-76752000D02*
X108668000Y-76752000D01*
X110728000Y-76752000D02*
X110728000Y-74632000D01*
X110728000Y-74632000D02*
X114788000Y-74632000D01*
X110728000Y-76752000D02*
X114788000Y-76752000D01*
X114788000Y-76752000D02*
X114788000Y-74632000D01*
X153432000Y-30060000D02*
X148932000Y-30060000D01*
X154682000Y-34060000D02*
X154682000Y-32560000D01*
X148932000Y-36560000D02*
X153432000Y-36560000D01*
X147682000Y-32560000D02*
X147682000Y-34060000D01*
X123347241Y-75306000D02*
X123347241Y-74676000D01*
X123662241Y-74991000D02*
X123032241Y-74991000D01*
X116921000Y-73554000D02*
X116921000Y-72750000D01*
X116961000Y-73785000D02*
X116961000Y-72519000D01*
X117001000Y-73954000D02*
X117001000Y-72350000D01*
X117041000Y-74092000D02*
X117041000Y-72212000D01*
X117081000Y-74211000D02*
X117081000Y-72093000D01*
X117121000Y-74317000D02*
X117121000Y-71987000D01*
X117161000Y-74414000D02*
X117161000Y-71890000D01*
X117201000Y-74502000D02*
X117201000Y-71802000D01*
X117241000Y-74584000D02*
X117241000Y-71720000D01*
X117281000Y-74661000D02*
X117281000Y-71643000D01*
X117321000Y-74733000D02*
X117321000Y-71571000D01*
X117361000Y-74802000D02*
X117361000Y-71502000D01*
X117401000Y-74866000D02*
X117401000Y-71438000D01*
X117441000Y-74928000D02*
X117441000Y-71376000D01*
X117481000Y-74986000D02*
X117481000Y-71318000D01*
X117521000Y-75042000D02*
X117521000Y-71262000D01*
X117561000Y-75096000D02*
X117561000Y-71208000D01*
X117601000Y-75147000D02*
X117601000Y-71157000D01*
X117641000Y-75196000D02*
X117641000Y-71108000D01*
X117681000Y-75244000D02*
X117681000Y-71060000D01*
X117721000Y-75289000D02*
X117721000Y-71015000D01*
X117761000Y-75334000D02*
X117761000Y-70970000D01*
X117801000Y-75376000D02*
X117801000Y-70928000D01*
X117841000Y-75417000D02*
X117841000Y-70887000D01*
X117881000Y-72112000D02*
X117881000Y-70847000D01*
X117881000Y-75457000D02*
X117881000Y-74192000D01*
X117921000Y-72112000D02*
X117921000Y-70809000D01*
X117921000Y-75495000D02*
X117921000Y-74192000D01*
X117961000Y-72112000D02*
X117961000Y-70772000D01*
X117961000Y-75532000D02*
X117961000Y-74192000D01*
X118001000Y-72112000D02*
X118001000Y-70736000D01*
X118001000Y-75568000D02*
X118001000Y-74192000D01*
X118041000Y-72112000D02*
X118041000Y-70702000D01*
X118041000Y-75602000D02*
X118041000Y-74192000D01*
X118081000Y-72112000D02*
X118081000Y-70668000D01*
X118081000Y-75636000D02*
X118081000Y-74192000D01*
X118121000Y-72112000D02*
X118121000Y-70636000D01*
X118121000Y-75668000D02*
X118121000Y-74192000D01*
X118161000Y-72112000D02*
X118161000Y-70604000D01*
X118161000Y-75700000D02*
X118161000Y-74192000D01*
X118201000Y-72112000D02*
X118201000Y-70574000D01*
X118201000Y-75730000D02*
X118201000Y-74192000D01*
X118241000Y-72112000D02*
X118241000Y-70545000D01*
X118241000Y-75759000D02*
X118241000Y-74192000D01*
X118281000Y-72112000D02*
X118281000Y-70516000D01*
X118281000Y-75788000D02*
X118281000Y-74192000D01*
X118321000Y-72112000D02*
X118321000Y-70488000D01*
X118321000Y-75816000D02*
X118321000Y-74192000D01*
X118361000Y-72112000D02*
X118361000Y-70462000D01*
X118361000Y-75842000D02*
X118361000Y-74192000D01*
X118401000Y-72112000D02*
X118401000Y-70436000D01*
X118401000Y-75868000D02*
X118401000Y-74192000D01*
X118441000Y-72112000D02*
X118441000Y-70410000D01*
X118441000Y-75894000D02*
X118441000Y-74192000D01*
X118481000Y-72112000D02*
X118481000Y-70386000D01*
X118481000Y-75918000D02*
X118481000Y-74192000D01*
X118521000Y-72112000D02*
X118521000Y-70362000D01*
X118521000Y-75942000D02*
X118521000Y-74192000D01*
X118561000Y-72112000D02*
X118561000Y-70340000D01*
X118561000Y-75964000D02*
X118561000Y-74192000D01*
X118601000Y-72112000D02*
X118601000Y-70318000D01*
X118601000Y-75986000D02*
X118601000Y-74192000D01*
X118641000Y-72112000D02*
X118641000Y-70296000D01*
X118641000Y-76008000D02*
X118641000Y-74192000D01*
X118681000Y-72112000D02*
X118681000Y-70276000D01*
X118681000Y-76028000D02*
X118681000Y-74192000D01*
X118721000Y-72112000D02*
X118721000Y-70256000D01*
X118721000Y-76048000D02*
X118721000Y-74192000D01*
X118761000Y-72112000D02*
X118761000Y-70236000D01*
X118761000Y-76068000D02*
X118761000Y-74192000D01*
X118801000Y-72112000D02*
X118801000Y-70218000D01*
X118801000Y-76086000D02*
X118801000Y-74192000D01*
X118841000Y-72112000D02*
X118841000Y-70200000D01*
X118841000Y-76104000D02*
X118841000Y-74192000D01*
X118881000Y-72112000D02*
X118881000Y-70182000D01*
X118881000Y-76122000D02*
X118881000Y-74192000D01*
X118921000Y-72112000D02*
X118921000Y-70166000D01*
X118921000Y-76138000D02*
X118921000Y-74192000D01*
X118961000Y-72112000D02*
X118961000Y-70150000D01*
X118961000Y-76154000D02*
X118961000Y-74192000D01*
X119001000Y-72112000D02*
X119001000Y-70134000D01*
X119001000Y-76170000D02*
X119001000Y-74192000D01*
X119041000Y-72112000D02*
X119041000Y-70119000D01*
X119041000Y-76185000D02*
X119041000Y-74192000D01*
X119081000Y-72112000D02*
X119081000Y-70105000D01*
X119081000Y-76199000D02*
X119081000Y-74192000D01*
X119121000Y-72112000D02*
X119121000Y-70091000D01*
X119121000Y-76213000D02*
X119121000Y-74192000D01*
X119161000Y-72112000D02*
X119161000Y-70078000D01*
X119161000Y-76226000D02*
X119161000Y-74192000D01*
X119201000Y-72112000D02*
X119201000Y-70066000D01*
X119201000Y-76238000D02*
X119201000Y-74192000D01*
X119241000Y-72112000D02*
X119241000Y-70054000D01*
X119241000Y-76250000D02*
X119241000Y-74192000D01*
X119281000Y-72112000D02*
X119281000Y-70042000D01*
X119281000Y-76262000D02*
X119281000Y-74192000D01*
X119321000Y-72112000D02*
X119321000Y-70031000D01*
X119321000Y-76273000D02*
X119321000Y-74192000D01*
X119361000Y-72112000D02*
X119361000Y-70021000D01*
X119361000Y-76283000D02*
X119361000Y-74192000D01*
X119401000Y-72112000D02*
X119401000Y-70011000D01*
X119401000Y-76293000D02*
X119401000Y-74192000D01*
X119441000Y-72112000D02*
X119441000Y-70002000D01*
X119441000Y-76302000D02*
X119441000Y-74192000D01*
X119482000Y-72112000D02*
X119482000Y-69993000D01*
X119482000Y-76311000D02*
X119482000Y-74192000D01*
X119522000Y-72112000D02*
X119522000Y-69985000D01*
X119522000Y-76319000D02*
X119522000Y-74192000D01*
X119562000Y-72112000D02*
X119562000Y-69977000D01*
X119562000Y-76327000D02*
X119562000Y-74192000D01*
X119602000Y-72112000D02*
X119602000Y-69970000D01*
X119602000Y-76334000D02*
X119602000Y-74192000D01*
X119642000Y-72112000D02*
X119642000Y-69963000D01*
X119642000Y-76341000D02*
X119642000Y-74192000D01*
X119682000Y-72112000D02*
X119682000Y-69957000D01*
X119682000Y-76347000D02*
X119682000Y-74192000D01*
X119722000Y-72112000D02*
X119722000Y-69951000D01*
X119722000Y-76353000D02*
X119722000Y-74192000D01*
X119762000Y-72112000D02*
X119762000Y-69946000D01*
X119762000Y-76358000D02*
X119762000Y-74192000D01*
X119802000Y-72112000D02*
X119802000Y-69941000D01*
X119802000Y-76363000D02*
X119802000Y-74192000D01*
X119842000Y-72112000D02*
X119842000Y-69937000D01*
X119842000Y-76367000D02*
X119842000Y-74192000D01*
X119882000Y-72112000D02*
X119882000Y-69934000D01*
X119882000Y-76370000D02*
X119882000Y-74192000D01*
X119922000Y-72112000D02*
X119922000Y-69930000D01*
X119922000Y-76374000D02*
X119922000Y-74192000D01*
X119962000Y-76376000D02*
X119962000Y-69928000D01*
X120002000Y-76379000D02*
X120002000Y-69925000D01*
X120042000Y-76380000D02*
X120042000Y-69924000D01*
X120082000Y-76382000D02*
X120082000Y-69922000D01*
X120122000Y-76382000D02*
X120122000Y-69922000D01*
X120162000Y-76382000D02*
X120162000Y-69922000D01*
X123432000Y-73152000D02*
G75*
G03X123432000Y-73152000I-3270000J0D01*
G01*
X124174000Y-83038000D02*
G75*
G03X124174000Y-83038000I-3270000J0D01*
G01*
X124134000Y-83038000D02*
X117674000Y-83038000D01*
X124134000Y-83078000D02*
X117674000Y-83078000D01*
X124134000Y-83118000D02*
X117674000Y-83118000D01*
X124132000Y-83158000D02*
X117676000Y-83158000D01*
X124131000Y-83198000D02*
X117677000Y-83198000D01*
X124128000Y-83238000D02*
X117680000Y-83238000D01*
X124126000Y-83278000D02*
X121944000Y-83278000D01*
X119864000Y-83278000D02*
X117682000Y-83278000D01*
X124122000Y-83318000D02*
X121944000Y-83318000D01*
X119864000Y-83318000D02*
X117686000Y-83318000D01*
X124119000Y-83358000D02*
X121944000Y-83358000D01*
X119864000Y-83358000D02*
X117689000Y-83358000D01*
X124115000Y-83398000D02*
X121944000Y-83398000D01*
X119864000Y-83398000D02*
X117693000Y-83398000D01*
X124110000Y-83438000D02*
X121944000Y-83438000D01*
X119864000Y-83438000D02*
X117698000Y-83438000D01*
X124105000Y-83478000D02*
X121944000Y-83478000D01*
X119864000Y-83478000D02*
X117703000Y-83478000D01*
X124099000Y-83518000D02*
X121944000Y-83518000D01*
X119864000Y-83518000D02*
X117709000Y-83518000D01*
X124093000Y-83558000D02*
X121944000Y-83558000D01*
X119864000Y-83558000D02*
X117715000Y-83558000D01*
X124086000Y-83598000D02*
X121944000Y-83598000D01*
X119864000Y-83598000D02*
X117722000Y-83598000D01*
X124079000Y-83638000D02*
X121944000Y-83638000D01*
X119864000Y-83638000D02*
X117729000Y-83638000D01*
X124071000Y-83678000D02*
X121944000Y-83678000D01*
X119864000Y-83678000D02*
X117737000Y-83678000D01*
X124063000Y-83718000D02*
X121944000Y-83718000D01*
X119864000Y-83718000D02*
X117745000Y-83718000D01*
X124054000Y-83759000D02*
X121944000Y-83759000D01*
X119864000Y-83759000D02*
X117754000Y-83759000D01*
X124045000Y-83799000D02*
X121944000Y-83799000D01*
X119864000Y-83799000D02*
X117763000Y-83799000D01*
X124035000Y-83839000D02*
X121944000Y-83839000D01*
X119864000Y-83839000D02*
X117773000Y-83839000D01*
X124025000Y-83879000D02*
X121944000Y-83879000D01*
X119864000Y-83879000D02*
X117783000Y-83879000D01*
X124014000Y-83919000D02*
X121944000Y-83919000D01*
X119864000Y-83919000D02*
X117794000Y-83919000D01*
X124002000Y-83959000D02*
X121944000Y-83959000D01*
X119864000Y-83959000D02*
X117806000Y-83959000D01*
X123990000Y-83999000D02*
X121944000Y-83999000D01*
X119864000Y-83999000D02*
X117818000Y-83999000D01*
X123978000Y-84039000D02*
X121944000Y-84039000D01*
X119864000Y-84039000D02*
X117830000Y-84039000D01*
X123965000Y-84079000D02*
X121944000Y-84079000D01*
X119864000Y-84079000D02*
X117843000Y-84079000D01*
X123951000Y-84119000D02*
X121944000Y-84119000D01*
X119864000Y-84119000D02*
X117857000Y-84119000D01*
X123937000Y-84159000D02*
X121944000Y-84159000D01*
X119864000Y-84159000D02*
X117871000Y-84159000D01*
X123922000Y-84199000D02*
X121944000Y-84199000D01*
X119864000Y-84199000D02*
X117886000Y-84199000D01*
X123906000Y-84239000D02*
X121944000Y-84239000D01*
X119864000Y-84239000D02*
X117902000Y-84239000D01*
X123890000Y-84279000D02*
X121944000Y-84279000D01*
X119864000Y-84279000D02*
X117918000Y-84279000D01*
X123874000Y-84319000D02*
X121944000Y-84319000D01*
X119864000Y-84319000D02*
X117934000Y-84319000D01*
X123856000Y-84359000D02*
X121944000Y-84359000D01*
X119864000Y-84359000D02*
X117952000Y-84359000D01*
X123838000Y-84399000D02*
X121944000Y-84399000D01*
X119864000Y-84399000D02*
X117970000Y-84399000D01*
X123820000Y-84439000D02*
X121944000Y-84439000D01*
X119864000Y-84439000D02*
X117988000Y-84439000D01*
X123800000Y-84479000D02*
X121944000Y-84479000D01*
X119864000Y-84479000D02*
X118008000Y-84479000D01*
X123780000Y-84519000D02*
X121944000Y-84519000D01*
X119864000Y-84519000D02*
X118028000Y-84519000D01*
X123760000Y-84559000D02*
X121944000Y-84559000D01*
X119864000Y-84559000D02*
X118048000Y-84559000D01*
X123738000Y-84599000D02*
X121944000Y-84599000D01*
X119864000Y-84599000D02*
X118070000Y-84599000D01*
X123716000Y-84639000D02*
X121944000Y-84639000D01*
X119864000Y-84639000D02*
X118092000Y-84639000D01*
X123694000Y-84679000D02*
X121944000Y-84679000D01*
X119864000Y-84679000D02*
X118114000Y-84679000D01*
X123670000Y-84719000D02*
X121944000Y-84719000D01*
X119864000Y-84719000D02*
X118138000Y-84719000D01*
X123646000Y-84759000D02*
X121944000Y-84759000D01*
X119864000Y-84759000D02*
X118162000Y-84759000D01*
X123620000Y-84799000D02*
X121944000Y-84799000D01*
X119864000Y-84799000D02*
X118188000Y-84799000D01*
X123594000Y-84839000D02*
X121944000Y-84839000D01*
X119864000Y-84839000D02*
X118214000Y-84839000D01*
X123568000Y-84879000D02*
X121944000Y-84879000D01*
X119864000Y-84879000D02*
X118240000Y-84879000D01*
X123540000Y-84919000D02*
X121944000Y-84919000D01*
X119864000Y-84919000D02*
X118268000Y-84919000D01*
X123511000Y-84959000D02*
X121944000Y-84959000D01*
X119864000Y-84959000D02*
X118297000Y-84959000D01*
X123482000Y-84999000D02*
X121944000Y-84999000D01*
X119864000Y-84999000D02*
X118326000Y-84999000D01*
X123452000Y-85039000D02*
X121944000Y-85039000D01*
X119864000Y-85039000D02*
X118356000Y-85039000D01*
X123420000Y-85079000D02*
X121944000Y-85079000D01*
X119864000Y-85079000D02*
X118388000Y-85079000D01*
X123388000Y-85119000D02*
X121944000Y-85119000D01*
X119864000Y-85119000D02*
X118420000Y-85119000D01*
X123354000Y-85159000D02*
X121944000Y-85159000D01*
X119864000Y-85159000D02*
X118454000Y-85159000D01*
X123320000Y-85199000D02*
X121944000Y-85199000D01*
X119864000Y-85199000D02*
X118488000Y-85199000D01*
X123284000Y-85239000D02*
X121944000Y-85239000D01*
X119864000Y-85239000D02*
X118524000Y-85239000D01*
X123247000Y-85279000D02*
X121944000Y-85279000D01*
X119864000Y-85279000D02*
X118561000Y-85279000D01*
X123209000Y-85319000D02*
X121944000Y-85319000D01*
X119864000Y-85319000D02*
X118599000Y-85319000D01*
X123169000Y-85359000D02*
X118639000Y-85359000D01*
X123128000Y-85399000D02*
X118680000Y-85399000D01*
X123086000Y-85439000D02*
X118722000Y-85439000D01*
X123041000Y-85479000D02*
X118767000Y-85479000D01*
X122996000Y-85519000D02*
X118812000Y-85519000D01*
X122948000Y-85559000D02*
X118860000Y-85559000D01*
X122899000Y-85599000D02*
X118909000Y-85599000D01*
X122848000Y-85639000D02*
X118960000Y-85639000D01*
X122794000Y-85679000D02*
X119014000Y-85679000D01*
X122738000Y-85719000D02*
X119070000Y-85719000D01*
X122680000Y-85759000D02*
X119128000Y-85759000D01*
X122618000Y-85799000D02*
X119190000Y-85799000D01*
X122554000Y-85839000D02*
X119254000Y-85839000D01*
X122485000Y-85879000D02*
X119323000Y-85879000D01*
X122413000Y-85919000D02*
X119395000Y-85919000D01*
X122336000Y-85959000D02*
X119472000Y-85959000D01*
X122254000Y-85999000D02*
X119554000Y-85999000D01*
X122166000Y-86039000D02*
X119642000Y-86039000D01*
X122069000Y-86079000D02*
X119739000Y-86079000D01*
X121963000Y-86119000D02*
X119845000Y-86119000D01*
X121844000Y-86159000D02*
X119964000Y-86159000D01*
X121706000Y-86199000D02*
X120102000Y-86199000D01*
X121537000Y-86239000D02*
X120271000Y-86239000D01*
X121306000Y-86279000D02*
X120502000Y-86279000D01*
X122743000Y-79537759D02*
X122743000Y-80167759D01*
X123058000Y-79852759D02*
X122428000Y-79852759D01*
X140304759Y-72014000D02*
X140304759Y-72644000D01*
X139989759Y-72329000D02*
X140619759Y-72329000D01*
X146731000Y-73766000D02*
X146731000Y-74570000D01*
X146691000Y-73535000D02*
X146691000Y-74801000D01*
X146651000Y-73366000D02*
X146651000Y-74970000D01*
X146611000Y-73228000D02*
X146611000Y-75108000D01*
X146571000Y-73109000D02*
X146571000Y-75227000D01*
X146531000Y-73003000D02*
X146531000Y-75333000D01*
X146491000Y-72906000D02*
X146491000Y-75430000D01*
X146451000Y-72818000D02*
X146451000Y-75518000D01*
X146411000Y-72736000D02*
X146411000Y-75600000D01*
X146371000Y-72659000D02*
X146371000Y-75677000D01*
X146331000Y-72587000D02*
X146331000Y-75749000D01*
X146291000Y-72518000D02*
X146291000Y-75818000D01*
X146251000Y-72454000D02*
X146251000Y-75882000D01*
X146211000Y-72392000D02*
X146211000Y-75944000D01*
X146171000Y-72334000D02*
X146171000Y-76002000D01*
X146131000Y-72278000D02*
X146131000Y-76058000D01*
X146091000Y-72224000D02*
X146091000Y-76112000D01*
X146051000Y-72173000D02*
X146051000Y-76163000D01*
X146011000Y-72124000D02*
X146011000Y-76212000D01*
X145971000Y-72076000D02*
X145971000Y-76260000D01*
X145931000Y-72031000D02*
X145931000Y-76305000D01*
X145891000Y-71986000D02*
X145891000Y-76350000D01*
X145851000Y-71944000D02*
X145851000Y-76392000D01*
X145811000Y-71903000D02*
X145811000Y-76433000D01*
X145771000Y-75208000D02*
X145771000Y-76473000D01*
X145771000Y-71863000D02*
X145771000Y-73128000D01*
X145731000Y-75208000D02*
X145731000Y-76511000D01*
X145731000Y-71825000D02*
X145731000Y-73128000D01*
X145691000Y-75208000D02*
X145691000Y-76548000D01*
X145691000Y-71788000D02*
X145691000Y-73128000D01*
X145651000Y-75208000D02*
X145651000Y-76584000D01*
X145651000Y-71752000D02*
X145651000Y-73128000D01*
X145611000Y-75208000D02*
X145611000Y-76618000D01*
X145611000Y-71718000D02*
X145611000Y-73128000D01*
X145571000Y-75208000D02*
X145571000Y-76652000D01*
X145571000Y-71684000D02*
X145571000Y-73128000D01*
X145531000Y-75208000D02*
X145531000Y-76684000D01*
X145531000Y-71652000D02*
X145531000Y-73128000D01*
X145491000Y-75208000D02*
X145491000Y-76716000D01*
X145491000Y-71620000D02*
X145491000Y-73128000D01*
X145451000Y-75208000D02*
X145451000Y-76746000D01*
X145451000Y-71590000D02*
X145451000Y-73128000D01*
X145411000Y-75208000D02*
X145411000Y-76775000D01*
X145411000Y-71561000D02*
X145411000Y-73128000D01*
X145371000Y-75208000D02*
X145371000Y-76804000D01*
X145371000Y-71532000D02*
X145371000Y-73128000D01*
X145331000Y-75208000D02*
X145331000Y-76832000D01*
X145331000Y-71504000D02*
X145331000Y-73128000D01*
X145291000Y-75208000D02*
X145291000Y-76858000D01*
X145291000Y-71478000D02*
X145291000Y-73128000D01*
X145251000Y-75208000D02*
X145251000Y-76884000D01*
X145251000Y-71452000D02*
X145251000Y-73128000D01*
X145211000Y-75208000D02*
X145211000Y-76910000D01*
X145211000Y-71426000D02*
X145211000Y-73128000D01*
X145171000Y-75208000D02*
X145171000Y-76934000D01*
X145171000Y-71402000D02*
X145171000Y-73128000D01*
X145131000Y-75208000D02*
X145131000Y-76958000D01*
X145131000Y-71378000D02*
X145131000Y-73128000D01*
X145091000Y-75208000D02*
X145091000Y-76980000D01*
X145091000Y-71356000D02*
X145091000Y-73128000D01*
X145051000Y-75208000D02*
X145051000Y-77002000D01*
X145051000Y-71334000D02*
X145051000Y-73128000D01*
X145011000Y-75208000D02*
X145011000Y-77024000D01*
X145011000Y-71312000D02*
X145011000Y-73128000D01*
X144971000Y-75208000D02*
X144971000Y-77044000D01*
X144971000Y-71292000D02*
X144971000Y-73128000D01*
X144931000Y-75208000D02*
X144931000Y-77064000D01*
X144931000Y-71272000D02*
X144931000Y-73128000D01*
X144891000Y-75208000D02*
X144891000Y-77084000D01*
X144891000Y-71252000D02*
X144891000Y-73128000D01*
X144851000Y-75208000D02*
X144851000Y-77102000D01*
X144851000Y-71234000D02*
X144851000Y-73128000D01*
X144811000Y-75208000D02*
X144811000Y-77120000D01*
X144811000Y-71216000D02*
X144811000Y-73128000D01*
X144771000Y-75208000D02*
X144771000Y-77138000D01*
X144771000Y-71198000D02*
X144771000Y-73128000D01*
X144731000Y-75208000D02*
X144731000Y-77154000D01*
X144731000Y-71182000D02*
X144731000Y-73128000D01*
X144691000Y-75208000D02*
X144691000Y-77170000D01*
X144691000Y-71166000D02*
X144691000Y-73128000D01*
X144651000Y-75208000D02*
X144651000Y-77186000D01*
X144651000Y-71150000D02*
X144651000Y-73128000D01*
X144611000Y-75208000D02*
X144611000Y-77201000D01*
X144611000Y-71135000D02*
X144611000Y-73128000D01*
X144571000Y-75208000D02*
X144571000Y-77215000D01*
X144571000Y-71121000D02*
X144571000Y-73128000D01*
X144531000Y-75208000D02*
X144531000Y-77229000D01*
X144531000Y-71107000D02*
X144531000Y-73128000D01*
X144491000Y-75208000D02*
X144491000Y-77242000D01*
X144491000Y-71094000D02*
X144491000Y-73128000D01*
X144451000Y-75208000D02*
X144451000Y-77254000D01*
X144451000Y-71082000D02*
X144451000Y-73128000D01*
X144411000Y-75208000D02*
X144411000Y-77266000D01*
X144411000Y-71070000D02*
X144411000Y-73128000D01*
X144371000Y-75208000D02*
X144371000Y-77278000D01*
X144371000Y-71058000D02*
X144371000Y-73128000D01*
X144331000Y-75208000D02*
X144331000Y-77289000D01*
X144331000Y-71047000D02*
X144331000Y-73128000D01*
X144291000Y-75208000D02*
X144291000Y-77299000D01*
X144291000Y-71037000D02*
X144291000Y-73128000D01*
X144251000Y-75208000D02*
X144251000Y-77309000D01*
X144251000Y-71027000D02*
X144251000Y-73128000D01*
X144211000Y-75208000D02*
X144211000Y-77318000D01*
X144211000Y-71018000D02*
X144211000Y-73128000D01*
X144170000Y-75208000D02*
X144170000Y-77327000D01*
X144170000Y-71009000D02*
X144170000Y-73128000D01*
X144130000Y-75208000D02*
X144130000Y-77335000D01*
X144130000Y-71001000D02*
X144130000Y-73128000D01*
X144090000Y-75208000D02*
X144090000Y-77343000D01*
X144090000Y-70993000D02*
X144090000Y-73128000D01*
X144050000Y-75208000D02*
X144050000Y-77350000D01*
X144050000Y-70986000D02*
X144050000Y-73128000D01*
X144010000Y-75208000D02*
X144010000Y-77357000D01*
X144010000Y-70979000D02*
X144010000Y-73128000D01*
X143970000Y-75208000D02*
X143970000Y-77363000D01*
X143970000Y-70973000D02*
X143970000Y-73128000D01*
X143930000Y-75208000D02*
X143930000Y-77369000D01*
X143930000Y-70967000D02*
X143930000Y-73128000D01*
X143890000Y-75208000D02*
X143890000Y-77374000D01*
X143890000Y-70962000D02*
X143890000Y-73128000D01*
X143850000Y-75208000D02*
X143850000Y-77379000D01*
X143850000Y-70957000D02*
X143850000Y-73128000D01*
X143810000Y-75208000D02*
X143810000Y-77383000D01*
X143810000Y-70953000D02*
X143810000Y-73128000D01*
X143770000Y-75208000D02*
X143770000Y-77386000D01*
X143770000Y-70950000D02*
X143770000Y-73128000D01*
X143730000Y-75208000D02*
X143730000Y-77390000D01*
X143730000Y-70946000D02*
X143730000Y-73128000D01*
X143690000Y-70944000D02*
X143690000Y-77392000D01*
X143650000Y-70941000D02*
X143650000Y-77395000D01*
X143610000Y-70940000D02*
X143610000Y-77396000D01*
X143570000Y-70938000D02*
X143570000Y-77398000D01*
X143530000Y-70938000D02*
X143530000Y-77398000D01*
X143490000Y-70938000D02*
X143490000Y-77398000D01*
X146760000Y-74168000D02*
G75*
G03X146760000Y-74168000I-3270000J0D01*
G01*
X144892000Y-68426000D02*
X138652000Y-68426000D01*
X144892000Y-65686000D02*
X138652000Y-65686000D01*
X144892000Y-68426000D02*
X144892000Y-67981000D01*
X144892000Y-66131000D02*
X144892000Y-65686000D01*
X138652000Y-68426000D02*
X138652000Y-67981000D01*
X138652000Y-66131000D02*
X138652000Y-65686000D01*
X132302000Y-83078000D02*
G75*
G03X132302000Y-83078000I-3270000J0D01*
G01*
X125802000Y-83078000D02*
X132262000Y-83078000D01*
X125802000Y-83038000D02*
X132262000Y-83038000D01*
X125802000Y-82998000D02*
X132262000Y-82998000D01*
X125804000Y-82958000D02*
X132260000Y-82958000D01*
X125805000Y-82918000D02*
X132259000Y-82918000D01*
X125808000Y-82878000D02*
X132256000Y-82878000D01*
X125810000Y-82838000D02*
X127992000Y-82838000D01*
X130072000Y-82838000D02*
X132254000Y-82838000D01*
X125814000Y-82798000D02*
X127992000Y-82798000D01*
X130072000Y-82798000D02*
X132250000Y-82798000D01*
X125817000Y-82758000D02*
X127992000Y-82758000D01*
X130072000Y-82758000D02*
X132247000Y-82758000D01*
X125821000Y-82718000D02*
X127992000Y-82718000D01*
X130072000Y-82718000D02*
X132243000Y-82718000D01*
X125826000Y-82678000D02*
X127992000Y-82678000D01*
X130072000Y-82678000D02*
X132238000Y-82678000D01*
X125831000Y-82638000D02*
X127992000Y-82638000D01*
X130072000Y-82638000D02*
X132233000Y-82638000D01*
X125837000Y-82598000D02*
X127992000Y-82598000D01*
X130072000Y-82598000D02*
X132227000Y-82598000D01*
X125843000Y-82558000D02*
X127992000Y-82558000D01*
X130072000Y-82558000D02*
X132221000Y-82558000D01*
X125850000Y-82518000D02*
X127992000Y-82518000D01*
X130072000Y-82518000D02*
X132214000Y-82518000D01*
X125857000Y-82478000D02*
X127992000Y-82478000D01*
X130072000Y-82478000D02*
X132207000Y-82478000D01*
X125865000Y-82438000D02*
X127992000Y-82438000D01*
X130072000Y-82438000D02*
X132199000Y-82438000D01*
X125873000Y-82398000D02*
X127992000Y-82398000D01*
X130072000Y-82398000D02*
X132191000Y-82398000D01*
X125882000Y-82357000D02*
X127992000Y-82357000D01*
X130072000Y-82357000D02*
X132182000Y-82357000D01*
X125891000Y-82317000D02*
X127992000Y-82317000D01*
X130072000Y-82317000D02*
X132173000Y-82317000D01*
X125901000Y-82277000D02*
X127992000Y-82277000D01*
X130072000Y-82277000D02*
X132163000Y-82277000D01*
X125911000Y-82237000D02*
X127992000Y-82237000D01*
X130072000Y-82237000D02*
X132153000Y-82237000D01*
X125922000Y-82197000D02*
X127992000Y-82197000D01*
X130072000Y-82197000D02*
X132142000Y-82197000D01*
X125934000Y-82157000D02*
X127992000Y-82157000D01*
X130072000Y-82157000D02*
X132130000Y-82157000D01*
X125946000Y-82117000D02*
X127992000Y-82117000D01*
X130072000Y-82117000D02*
X132118000Y-82117000D01*
X125958000Y-82077000D02*
X127992000Y-82077000D01*
X130072000Y-82077000D02*
X132106000Y-82077000D01*
X125971000Y-82037000D02*
X127992000Y-82037000D01*
X130072000Y-82037000D02*
X132093000Y-82037000D01*
X125985000Y-81997000D02*
X127992000Y-81997000D01*
X130072000Y-81997000D02*
X132079000Y-81997000D01*
X125999000Y-81957000D02*
X127992000Y-81957000D01*
X130072000Y-81957000D02*
X132065000Y-81957000D01*
X126014000Y-81917000D02*
X127992000Y-81917000D01*
X130072000Y-81917000D02*
X132050000Y-81917000D01*
X126030000Y-81877000D02*
X127992000Y-81877000D01*
X130072000Y-81877000D02*
X132034000Y-81877000D01*
X126046000Y-81837000D02*
X127992000Y-81837000D01*
X130072000Y-81837000D02*
X132018000Y-81837000D01*
X126062000Y-81797000D02*
X127992000Y-81797000D01*
X130072000Y-81797000D02*
X132002000Y-81797000D01*
X126080000Y-81757000D02*
X127992000Y-81757000D01*
X130072000Y-81757000D02*
X131984000Y-81757000D01*
X126098000Y-81717000D02*
X127992000Y-81717000D01*
X130072000Y-81717000D02*
X131966000Y-81717000D01*
X126116000Y-81677000D02*
X127992000Y-81677000D01*
X130072000Y-81677000D02*
X131948000Y-81677000D01*
X126136000Y-81637000D02*
X127992000Y-81637000D01*
X130072000Y-81637000D02*
X131928000Y-81637000D01*
X126156000Y-81597000D02*
X127992000Y-81597000D01*
X130072000Y-81597000D02*
X131908000Y-81597000D01*
X126176000Y-81557000D02*
X127992000Y-81557000D01*
X130072000Y-81557000D02*
X131888000Y-81557000D01*
X126198000Y-81517000D02*
X127992000Y-81517000D01*
X130072000Y-81517000D02*
X131866000Y-81517000D01*
X126220000Y-81477000D02*
X127992000Y-81477000D01*
X130072000Y-81477000D02*
X131844000Y-81477000D01*
X126242000Y-81437000D02*
X127992000Y-81437000D01*
X130072000Y-81437000D02*
X131822000Y-81437000D01*
X126266000Y-81397000D02*
X127992000Y-81397000D01*
X130072000Y-81397000D02*
X131798000Y-81397000D01*
X126290000Y-81357000D02*
X127992000Y-81357000D01*
X130072000Y-81357000D02*
X131774000Y-81357000D01*
X126316000Y-81317000D02*
X127992000Y-81317000D01*
X130072000Y-81317000D02*
X131748000Y-81317000D01*
X126342000Y-81277000D02*
X127992000Y-81277000D01*
X130072000Y-81277000D02*
X131722000Y-81277000D01*
X126368000Y-81237000D02*
X127992000Y-81237000D01*
X130072000Y-81237000D02*
X131696000Y-81237000D01*
X126396000Y-81197000D02*
X127992000Y-81197000D01*
X130072000Y-81197000D02*
X131668000Y-81197000D01*
X126425000Y-81157000D02*
X127992000Y-81157000D01*
X130072000Y-81157000D02*
X131639000Y-81157000D01*
X126454000Y-81117000D02*
X127992000Y-81117000D01*
X130072000Y-81117000D02*
X131610000Y-81117000D01*
X126484000Y-81077000D02*
X127992000Y-81077000D01*
X130072000Y-81077000D02*
X131580000Y-81077000D01*
X126516000Y-81037000D02*
X127992000Y-81037000D01*
X130072000Y-81037000D02*
X131548000Y-81037000D01*
X126548000Y-80997000D02*
X127992000Y-80997000D01*
X130072000Y-80997000D02*
X131516000Y-80997000D01*
X126582000Y-80957000D02*
X127992000Y-80957000D01*
X130072000Y-80957000D02*
X131482000Y-80957000D01*
X126616000Y-80917000D02*
X127992000Y-80917000D01*
X130072000Y-80917000D02*
X131448000Y-80917000D01*
X126652000Y-80877000D02*
X127992000Y-80877000D01*
X130072000Y-80877000D02*
X131412000Y-80877000D01*
X126689000Y-80837000D02*
X127992000Y-80837000D01*
X130072000Y-80837000D02*
X131375000Y-80837000D01*
X126727000Y-80797000D02*
X127992000Y-80797000D01*
X130072000Y-80797000D02*
X131337000Y-80797000D01*
X126767000Y-80757000D02*
X131297000Y-80757000D01*
X126808000Y-80717000D02*
X131256000Y-80717000D01*
X126850000Y-80677000D02*
X131214000Y-80677000D01*
X126895000Y-80637000D02*
X131169000Y-80637000D01*
X126940000Y-80597000D02*
X131124000Y-80597000D01*
X126988000Y-80557000D02*
X131076000Y-80557000D01*
X127037000Y-80517000D02*
X131027000Y-80517000D01*
X127088000Y-80477000D02*
X130976000Y-80477000D01*
X127142000Y-80437000D02*
X130922000Y-80437000D01*
X127198000Y-80397000D02*
X130866000Y-80397000D01*
X127256000Y-80357000D02*
X130808000Y-80357000D01*
X127318000Y-80317000D02*
X130746000Y-80317000D01*
X127382000Y-80277000D02*
X130682000Y-80277000D01*
X127451000Y-80237000D02*
X130613000Y-80237000D01*
X127523000Y-80197000D02*
X130541000Y-80197000D01*
X127600000Y-80157000D02*
X130464000Y-80157000D01*
X127682000Y-80117000D02*
X130382000Y-80117000D01*
X127770000Y-80077000D02*
X130294000Y-80077000D01*
X127867000Y-80037000D02*
X130197000Y-80037000D01*
X127973000Y-79997000D02*
X130091000Y-79997000D01*
X128092000Y-79957000D02*
X129972000Y-79957000D01*
X128230000Y-79917000D02*
X129834000Y-79917000D01*
X128399000Y-79877000D02*
X129665000Y-79877000D01*
X128630000Y-79837000D02*
X129434000Y-79837000D01*
X127193000Y-86578241D02*
X127193000Y-85948241D01*
X126878000Y-86263241D02*
X127508000Y-86263241D01*
X128620000Y-26021000D02*
X128620000Y-27279000D01*
X130460000Y-26021000D02*
X130460000Y-27279000D01*
X115220000Y-26021000D02*
X115220000Y-27279000D01*
X113380000Y-26021000D02*
X113380000Y-27279000D01*
X109188000Y-69687000D02*
X109188000Y-69242000D01*
X109188000Y-71982000D02*
X109188000Y-71537000D01*
X115428000Y-69687000D02*
X115428000Y-69242000D01*
X115428000Y-71982000D02*
X115428000Y-71537000D01*
X115428000Y-69242000D02*
X109188000Y-69242000D01*
X115428000Y-71982000D02*
X109188000Y-71982000D01*
X133276000Y-76146000D02*
X133276000Y-73206000D01*
X133276000Y-73206000D02*
X127836000Y-73206000D01*
X127836000Y-73206000D02*
X127836000Y-76146000D01*
X127836000Y-76146000D02*
X133276000Y-76146000D01*
X134296000Y-74676000D02*
X133276000Y-74676000D01*
X126816000Y-74676000D02*
X127836000Y-74676000D01*
X132376000Y-76146000D02*
X132376000Y-73206000D01*
X132256000Y-76146000D02*
X132256000Y-73206000D01*
X132496000Y-76146000D02*
X132496000Y-73206000D01*
X126296000Y-53339538D02*
G75*
G03X131846000Y-54884830I2990000J-462D01*
G01*
X126296000Y-53340462D02*
G75*
G02X131846000Y-51795170I2990000J462D01*
G01*
X131786000Y-53340000D02*
G75*
G03X131786000Y-53340000I-2500000J0D01*
G01*
X131846000Y-54885000D02*
X131846000Y-51795000D01*
X117074000Y-88371000D02*
X117074000Y-91461000D01*
X122134000Y-89916000D02*
G75*
G03X122134000Y-89916000I-2500000J0D01*
G01*
X122624000Y-89915538D02*
G75*
G02X117074000Y-91460830I-2990000J-462D01*
G01*
X122624000Y-89916462D02*
G75*
G03X117074000Y-88371170I-2990000J462D01*
G01*
X113792000Y-80264000D02*
X113792000Y-90424000D01*
X115062000Y-80264000D02*
X107442000Y-80264000D01*
X107442000Y-80264000D02*
X107442000Y-90424000D01*
X107442000Y-90424000D02*
X115062000Y-90424000D01*
X115062000Y-90424000D02*
X115062000Y-80264000D01*
X140402000Y-56074000D02*
X140402000Y-58734000D01*
X150622000Y-56074000D02*
X140402000Y-56074000D01*
X150622000Y-58734000D02*
X140402000Y-58734000D01*
X150622000Y-56074000D02*
X150622000Y-58734000D01*
X151892000Y-56074000D02*
X153222000Y-56074000D01*
X153222000Y-56074000D02*
X153222000Y-57404000D01*
X142942000Y-48454000D02*
X142942000Y-51114000D01*
X150622000Y-48454000D02*
X142942000Y-48454000D01*
X150622000Y-51114000D02*
X142942000Y-51114000D01*
X150622000Y-48454000D02*
X150622000Y-51114000D01*
X151892000Y-48454000D02*
X153222000Y-48454000D01*
X153222000Y-48454000D02*
X153222000Y-49784000D01*
X124730000Y-67921000D02*
X108950000Y-67921000D01*
X108950000Y-67921000D02*
X108950000Y-58571000D01*
X108950000Y-58571000D02*
X124730000Y-58571000D01*
X124730000Y-58571000D02*
X124730000Y-67921000D01*
X124980000Y-58321000D02*
X122440000Y-58321000D01*
X124980000Y-58321000D02*
X124980000Y-60861000D01*
X135096000Y-60806000D02*
X135096000Y-60476000D01*
X128556000Y-60806000D02*
X135096000Y-60806000D01*
X128556000Y-60476000D02*
X128556000Y-60806000D01*
X135096000Y-58066000D02*
X135096000Y-58396000D01*
X128556000Y-58066000D02*
X135096000Y-58066000D01*
X128556000Y-58396000D02*
X128556000Y-58066000D01*
X125000000Y-88546000D02*
X125000000Y-88876000D01*
X131540000Y-88546000D02*
X125000000Y-88546000D01*
X131540000Y-88876000D02*
X131540000Y-88546000D01*
X125000000Y-91286000D02*
X125000000Y-90956000D01*
X131540000Y-91286000D02*
X125000000Y-91286000D01*
X131540000Y-90956000D02*
X131540000Y-91286000D01*
X136684000Y-29948000D02*
X136684000Y-29618000D01*
X136684000Y-29618000D02*
X143224000Y-29618000D01*
X143224000Y-29618000D02*
X143224000Y-29948000D01*
X136684000Y-32028000D02*
X136684000Y-32358000D01*
X136684000Y-32358000D02*
X143224000Y-32358000D01*
X143224000Y-32358000D02*
X143224000Y-32028000D01*
X125444000Y-32028000D02*
X125444000Y-32358000D01*
X125444000Y-32358000D02*
X118904000Y-32358000D01*
X118904000Y-32358000D02*
X118904000Y-32028000D01*
X125444000Y-29948000D02*
X125444000Y-29618000D01*
X125444000Y-29618000D02*
X118904000Y-29618000D01*
X118904000Y-29618000D02*
X118904000Y-29948000D01*
X138398000Y-79208000D02*
X138398000Y-89448000D01*
X133757000Y-79208000D02*
X133757000Y-89448000D01*
X138398000Y-79208000D02*
X133757000Y-79208000D01*
X138398000Y-89448000D02*
X133757000Y-89448000D01*
X136888000Y-79208000D02*
X136888000Y-89448000D01*
X138398000Y-82478000D02*
X136888000Y-82478000D01*
X138398000Y-86179000D02*
X136888000Y-86179000D01*
X145094000Y-40370000D02*
G75*
G02X145094000Y-38370000I0J1000000D01*
G01*
X145094000Y-38370000D02*
X145094000Y-36720000D01*
X145094000Y-36720000D02*
X109414000Y-36720000D01*
X109414000Y-36720000D02*
X109414000Y-42020000D01*
X109414000Y-42020000D02*
X145094000Y-42020000D01*
X145094000Y-42020000D02*
X145094000Y-40370000D01*
X109728000Y-54610000D02*
X109728000Y-49276000D01*
X109728000Y-49276000D02*
X120396000Y-49276000D01*
X120396000Y-49276000D02*
X120396000Y-54610000D01*
X120396000Y-54610000D02*
X120396000Y-54610000D01*
X110236000Y-52070000D02*
X112522000Y-52070000D01*
X112522000Y-52070000D02*
X112522000Y-54356000D01*
X112522000Y-54356000D02*
X112522000Y-54356000D01*
X109152000Y-54940000D02*
X109152000Y-25740000D01*
X109152000Y-25740000D02*
X124602000Y-25740000D01*
X124602000Y-25740000D02*
X124602000Y-54940000D01*
X124602000Y-54940000D02*
X109152000Y-54940000D01*
X109152000Y-54940000D02*
X109152000Y-54940000D01*
X120396000Y-54610000D02*
X109728000Y-54610000D01*
X109728000Y-54610000D02*
X109728000Y-54610000D01*
X125220000Y-28941000D02*
X118820000Y-28941000D01*
X125220000Y-23891000D02*
X118820000Y-23891000D01*
X125220000Y-23891000D02*
G75*
G02X125220000Y-28941000I0J-2525000D01*
G01*
X118820000Y-23891000D02*
G75*
G03X118820000Y-28941000I0J-2525000D01*
G01*
D14*
X110918666Y-72604380D02*
X110918666Y-73318666D01*
X110871047Y-73461523D01*
X110775809Y-73556761D01*
X110632952Y-73604380D01*
X110537714Y-73604380D01*
X111871047Y-72604380D02*
X111394857Y-72604380D01*
X111347238Y-73080571D01*
X111394857Y-73032952D01*
X111490095Y-72985333D01*
X111728190Y-72985333D01*
X111823428Y-73032952D01*
X111871047Y-73080571D01*
X111918666Y-73175809D01*
X111918666Y-73413904D01*
X111871047Y-73509142D01*
X111823428Y-73556761D01*
X111728190Y-73604380D01*
X111490095Y-73604380D01*
X111394857Y-73556761D01*
X111347238Y-73509142D01*
X150777238Y-37488571D02*
X150920095Y-37536190D01*
X150967714Y-37583809D01*
X151015333Y-37679047D01*
X151015333Y-37821904D01*
X150967714Y-37917142D01*
X150920095Y-37964761D01*
X150824857Y-38012380D01*
X150443904Y-38012380D01*
X150443904Y-37012380D01*
X150777238Y-37012380D01*
X150872476Y-37060000D01*
X150920095Y-37107619D01*
X150967714Y-37202857D01*
X150967714Y-37298095D01*
X150920095Y-37393333D01*
X150872476Y-37440952D01*
X150777238Y-37488571D01*
X150443904Y-37488571D01*
X151967714Y-38012380D02*
X151396285Y-38012380D01*
X151682000Y-38012380D02*
X151682000Y-37012380D01*
X151586761Y-37155238D01*
X151491523Y-37250476D01*
X151396285Y-37298095D01*
X119995333Y-77909142D02*
X119947714Y-77956761D01*
X119804857Y-78004380D01*
X119709619Y-78004380D01*
X119566761Y-77956761D01*
X119471523Y-77861523D01*
X119423904Y-77766285D01*
X119376285Y-77575809D01*
X119376285Y-77432952D01*
X119423904Y-77242476D01*
X119471523Y-77147238D01*
X119566761Y-77052000D01*
X119709619Y-77004380D01*
X119804857Y-77004380D01*
X119947714Y-77052000D01*
X119995333Y-77099619D01*
X120947714Y-78004380D02*
X120376285Y-78004380D01*
X120662000Y-78004380D02*
X120662000Y-77004380D01*
X120566761Y-77147238D01*
X120471523Y-77242476D01*
X120376285Y-77290095D01*
X120737333Y-79097142D02*
X120689714Y-79144761D01*
X120546857Y-79192380D01*
X120451619Y-79192380D01*
X120308761Y-79144761D01*
X120213523Y-79049523D01*
X120165904Y-78954285D01*
X120118285Y-78763809D01*
X120118285Y-78620952D01*
X120165904Y-78430476D01*
X120213523Y-78335238D01*
X120308761Y-78240000D01*
X120451619Y-78192380D01*
X120546857Y-78192380D01*
X120689714Y-78240000D01*
X120737333Y-78287619D01*
X121118285Y-78287619D02*
X121165904Y-78240000D01*
X121261142Y-78192380D01*
X121499238Y-78192380D01*
X121594476Y-78240000D01*
X121642095Y-78287619D01*
X121689714Y-78382857D01*
X121689714Y-78478095D01*
X121642095Y-78620952D01*
X121070666Y-79192380D01*
X121689714Y-79192380D01*
X143323333Y-70125142D02*
X143275714Y-70172761D01*
X143132857Y-70220380D01*
X143037619Y-70220380D01*
X142894761Y-70172761D01*
X142799523Y-70077523D01*
X142751904Y-69982285D01*
X142704285Y-69791809D01*
X142704285Y-69648952D01*
X142751904Y-69458476D01*
X142799523Y-69363238D01*
X142894761Y-69268000D01*
X143037619Y-69220380D01*
X143132857Y-69220380D01*
X143275714Y-69268000D01*
X143323333Y-69315619D01*
X143656666Y-69220380D02*
X144275714Y-69220380D01*
X143942380Y-69601333D01*
X144085238Y-69601333D01*
X144180476Y-69648952D01*
X144228095Y-69696571D01*
X144275714Y-69791809D01*
X144275714Y-70029904D01*
X144228095Y-70125142D01*
X144180476Y-70172761D01*
X144085238Y-70220380D01*
X143799523Y-70220380D01*
X143704285Y-70172761D01*
X143656666Y-70125142D01*
X141605333Y-69913142D02*
X141557714Y-69960761D01*
X141414857Y-70008380D01*
X141319619Y-70008380D01*
X141176761Y-69960761D01*
X141081523Y-69865523D01*
X141033904Y-69770285D01*
X140986285Y-69579809D01*
X140986285Y-69436952D01*
X141033904Y-69246476D01*
X141081523Y-69151238D01*
X141176761Y-69056000D01*
X141319619Y-69008380D01*
X141414857Y-69008380D01*
X141557714Y-69056000D01*
X141605333Y-69103619D01*
X142462476Y-69341714D02*
X142462476Y-70008380D01*
X142224380Y-68960761D02*
X141986285Y-69675047D01*
X142605333Y-69675047D01*
X132421333Y-86209142D02*
X132373714Y-86256761D01*
X132230857Y-86304380D01*
X132135619Y-86304380D01*
X131992761Y-86256761D01*
X131897523Y-86161523D01*
X131849904Y-86066285D01*
X131802285Y-85875809D01*
X131802285Y-85732952D01*
X131849904Y-85542476D01*
X131897523Y-85447238D01*
X131992761Y-85352000D01*
X132135619Y-85304380D01*
X132230857Y-85304380D01*
X132373714Y-85352000D01*
X132421333Y-85399619D01*
X133326095Y-85304380D02*
X132849904Y-85304380D01*
X132802285Y-85780571D01*
X132849904Y-85732952D01*
X132945142Y-85685333D01*
X133183238Y-85685333D01*
X133278476Y-85732952D01*
X133326095Y-85780571D01*
X133373714Y-85875809D01*
X133373714Y-86113904D01*
X133326095Y-86209142D01*
X133278476Y-86256761D01*
X133183238Y-86304380D01*
X132945142Y-86304380D01*
X132849904Y-86256761D01*
X132802285Y-86209142D01*
X131947142Y-26816666D02*
X131994761Y-26864285D01*
X132042380Y-27007142D01*
X132042380Y-27102380D01*
X131994761Y-27245238D01*
X131899523Y-27340476D01*
X131804285Y-27388095D01*
X131613809Y-27435714D01*
X131470952Y-27435714D01*
X131280476Y-27388095D01*
X131185238Y-27340476D01*
X131090000Y-27245238D01*
X131042380Y-27102380D01*
X131042380Y-27007142D01*
X131090000Y-26864285D01*
X131137619Y-26816666D01*
X131042380Y-25959523D02*
X131042380Y-26150000D01*
X131090000Y-26245238D01*
X131137619Y-26292857D01*
X131280476Y-26388095D01*
X131470952Y-26435714D01*
X131851904Y-26435714D01*
X131947142Y-26388095D01*
X131994761Y-26340476D01*
X132042380Y-26245238D01*
X132042380Y-26054761D01*
X131994761Y-25959523D01*
X131947142Y-25911904D01*
X131851904Y-25864285D01*
X131613809Y-25864285D01*
X131518571Y-25911904D01*
X131470952Y-25959523D01*
X131423333Y-26054761D01*
X131423333Y-26245238D01*
X131470952Y-26340476D01*
X131518571Y-26388095D01*
X131613809Y-26435714D01*
X116707142Y-26816666D02*
X116754761Y-26864285D01*
X116802380Y-27007142D01*
X116802380Y-27102380D01*
X116754761Y-27245238D01*
X116659523Y-27340476D01*
X116564285Y-27388095D01*
X116373809Y-27435714D01*
X116230952Y-27435714D01*
X116040476Y-27388095D01*
X115945238Y-27340476D01*
X115850000Y-27245238D01*
X115802380Y-27102380D01*
X115802380Y-27007142D01*
X115850000Y-26864285D01*
X115897619Y-26816666D01*
X115802380Y-26483333D02*
X115802380Y-25816666D01*
X116802380Y-26245238D01*
X112141333Y-73469142D02*
X112093714Y-73516761D01*
X111950857Y-73564380D01*
X111855619Y-73564380D01*
X111712761Y-73516761D01*
X111617523Y-73421523D01*
X111569904Y-73326285D01*
X111522285Y-73135809D01*
X111522285Y-72992952D01*
X111569904Y-72802476D01*
X111617523Y-72707238D01*
X111712761Y-72612000D01*
X111855619Y-72564380D01*
X111950857Y-72564380D01*
X112093714Y-72612000D01*
X112141333Y-72659619D01*
X112712761Y-72992952D02*
X112617523Y-72945333D01*
X112569904Y-72897714D01*
X112522285Y-72802476D01*
X112522285Y-72754857D01*
X112569904Y-72659619D01*
X112617523Y-72612000D01*
X112712761Y-72564380D01*
X112903238Y-72564380D01*
X112998476Y-72612000D01*
X113046095Y-72659619D01*
X113093714Y-72754857D01*
X113093714Y-72802476D01*
X113046095Y-72897714D01*
X112998476Y-72945333D01*
X112903238Y-72992952D01*
X112712761Y-72992952D01*
X112617523Y-73040571D01*
X112569904Y-73088190D01*
X112522285Y-73183428D01*
X112522285Y-73373904D01*
X112569904Y-73469142D01*
X112617523Y-73516761D01*
X112712761Y-73564380D01*
X112903238Y-73564380D01*
X112998476Y-73516761D01*
X113046095Y-73469142D01*
X113093714Y-73373904D01*
X113093714Y-73183428D01*
X113046095Y-73088190D01*
X112998476Y-73040571D01*
X112903238Y-72992952D01*
X129309904Y-75128380D02*
X129309904Y-74128380D01*
X129548000Y-74128380D01*
X129690857Y-74176000D01*
X129786095Y-74271238D01*
X129833714Y-74366476D01*
X129881333Y-74556952D01*
X129881333Y-74699809D01*
X129833714Y-74890285D01*
X129786095Y-74985523D01*
X129690857Y-75080761D01*
X129548000Y-75128380D01*
X129309904Y-75128380D01*
X130833714Y-75128380D02*
X130262285Y-75128380D01*
X130548000Y-75128380D02*
X130548000Y-74128380D01*
X130452761Y-74271238D01*
X130357523Y-74366476D01*
X130262285Y-74414095D01*
X135374095Y-77228380D02*
X135374095Y-76228380D01*
X135945523Y-77228380D02*
X135516952Y-76656952D01*
X135945523Y-76228380D02*
X135374095Y-76799809D01*
X128547904Y-57752380D02*
X128547904Y-56752380D01*
X128786000Y-56752380D01*
X128928857Y-56800000D01*
X129024095Y-56895238D01*
X129071714Y-56990476D01*
X129119333Y-57180952D01*
X129119333Y-57323809D01*
X129071714Y-57514285D01*
X129024095Y-57609523D01*
X128928857Y-57704761D01*
X128786000Y-57752380D01*
X128547904Y-57752380D01*
X129500285Y-56847619D02*
X129547904Y-56800000D01*
X129643142Y-56752380D01*
X129881238Y-56752380D01*
X129976476Y-56800000D01*
X130024095Y-56847619D01*
X130071714Y-56942857D01*
X130071714Y-57038095D01*
X130024095Y-57180952D01*
X129452666Y-57752380D01*
X130071714Y-57752380D01*
X118895904Y-86408380D02*
X118895904Y-85408380D01*
X119134000Y-85408380D01*
X119276857Y-85456000D01*
X119372095Y-85551238D01*
X119419714Y-85646476D01*
X119467333Y-85836952D01*
X119467333Y-85979809D01*
X119419714Y-86170285D01*
X119372095Y-86265523D01*
X119276857Y-86360761D01*
X119134000Y-86408380D01*
X118895904Y-86408380D01*
X119800666Y-85408380D02*
X120419714Y-85408380D01*
X120086380Y-85789333D01*
X120229238Y-85789333D01*
X120324476Y-85836952D01*
X120372095Y-85884571D01*
X120419714Y-85979809D01*
X120419714Y-86217904D01*
X120372095Y-86313142D01*
X120324476Y-86360761D01*
X120229238Y-86408380D01*
X119943523Y-86408380D01*
X119848285Y-86360761D01*
X119800666Y-86313142D01*
X110918666Y-78700380D02*
X110918666Y-79414666D01*
X110871047Y-79557523D01*
X110775809Y-79652761D01*
X110632952Y-79700380D01*
X110537714Y-79700380D01*
X111918666Y-79700380D02*
X111347238Y-79700380D01*
X111632952Y-79700380D02*
X111632952Y-78700380D01*
X111537714Y-78843238D01*
X111442476Y-78938476D01*
X111347238Y-78986095D01*
X153674380Y-57737333D02*
X154388666Y-57737333D01*
X154531523Y-57784952D01*
X154626761Y-57880190D01*
X154674380Y-58023047D01*
X154674380Y-58118285D01*
X153769619Y-57308761D02*
X153722000Y-57261142D01*
X153674380Y-57165904D01*
X153674380Y-56927809D01*
X153722000Y-56832571D01*
X153769619Y-56784952D01*
X153864857Y-56737333D01*
X153960095Y-56737333D01*
X154102952Y-56784952D01*
X154674380Y-57356380D01*
X154674380Y-56737333D01*
X153674380Y-50117333D02*
X154388666Y-50117333D01*
X154531523Y-50164952D01*
X154626761Y-50260190D01*
X154674380Y-50403047D01*
X154674380Y-50498285D01*
X153674380Y-49736380D02*
X153674380Y-49117333D01*
X154055333Y-49450666D01*
X154055333Y-49307809D01*
X154102952Y-49212571D01*
X154150571Y-49164952D01*
X154245809Y-49117333D01*
X154483904Y-49117333D01*
X154579142Y-49164952D01*
X154626761Y-49212571D01*
X154674380Y-49307809D01*
X154674380Y-49593523D01*
X154626761Y-49688761D01*
X154579142Y-49736380D01*
X125436380Y-63579333D02*
X126150666Y-63579333D01*
X126293523Y-63626952D01*
X126388761Y-63722190D01*
X126436380Y-63865047D01*
X126436380Y-63960285D01*
X125769714Y-62674571D02*
X126436380Y-62674571D01*
X125388761Y-62912666D02*
X126103047Y-63150761D01*
X126103047Y-62531714D01*
X131659333Y-57518380D02*
X131326000Y-57042190D01*
X131087904Y-57518380D02*
X131087904Y-56518380D01*
X131468857Y-56518380D01*
X131564095Y-56566000D01*
X131611714Y-56613619D01*
X131659333Y-56708857D01*
X131659333Y-56851714D01*
X131611714Y-56946952D01*
X131564095Y-56994571D01*
X131468857Y-57042190D01*
X131087904Y-57042190D01*
X132611714Y-57518380D02*
X132040285Y-57518380D01*
X132326000Y-57518380D02*
X132326000Y-56518380D01*
X132230761Y-56661238D01*
X132135523Y-56756476D01*
X132040285Y-56804095D01*
X128103333Y-92738380D02*
X127770000Y-92262190D01*
X127531904Y-92738380D02*
X127531904Y-91738380D01*
X127912857Y-91738380D01*
X128008095Y-91786000D01*
X128055714Y-91833619D01*
X128103333Y-91928857D01*
X128103333Y-92071714D01*
X128055714Y-92166952D01*
X128008095Y-92214571D01*
X127912857Y-92262190D01*
X127531904Y-92262190D01*
X128484285Y-91833619D02*
X128531904Y-91786000D01*
X128627142Y-91738380D01*
X128865238Y-91738380D01*
X128960476Y-91786000D01*
X129008095Y-91833619D01*
X129055714Y-91928857D01*
X129055714Y-92024095D01*
X129008095Y-92166952D01*
X128436666Y-92738380D01*
X129055714Y-92738380D01*
X139787333Y-29070380D02*
X139454000Y-28594190D01*
X139215904Y-29070380D02*
X139215904Y-28070380D01*
X139596857Y-28070380D01*
X139692095Y-28118000D01*
X139739714Y-28165619D01*
X139787333Y-28260857D01*
X139787333Y-28403714D01*
X139739714Y-28498952D01*
X139692095Y-28546571D01*
X139596857Y-28594190D01*
X139215904Y-28594190D01*
X140120666Y-28070380D02*
X140739714Y-28070380D01*
X140406380Y-28451333D01*
X140549238Y-28451333D01*
X140644476Y-28498952D01*
X140692095Y-28546571D01*
X140739714Y-28641809D01*
X140739714Y-28879904D01*
X140692095Y-28975142D01*
X140644476Y-29022761D01*
X140549238Y-29070380D01*
X140263523Y-29070380D01*
X140168285Y-29022761D01*
X140120666Y-28975142D01*
X122007333Y-33810380D02*
X121674000Y-33334190D01*
X121435904Y-33810380D02*
X121435904Y-32810380D01*
X121816857Y-32810380D01*
X121912095Y-32858000D01*
X121959714Y-32905619D01*
X122007333Y-33000857D01*
X122007333Y-33143714D01*
X121959714Y-33238952D01*
X121912095Y-33286571D01*
X121816857Y-33334190D01*
X121435904Y-33334190D01*
X122864476Y-33143714D02*
X122864476Y-33810380D01*
X122626380Y-32762761D02*
X122388285Y-33477047D01*
X123007333Y-33477047D01*
X135382095Y-77684380D02*
X135382095Y-78493904D01*
X135429714Y-78589142D01*
X135477333Y-78636761D01*
X135572571Y-78684380D01*
X135763047Y-78684380D01*
X135858285Y-78636761D01*
X135905904Y-78589142D01*
X135953523Y-78493904D01*
X135953523Y-77684380D01*
X136382095Y-77779619D02*
X136429714Y-77732000D01*
X136524952Y-77684380D01*
X136763047Y-77684380D01*
X136858285Y-77732000D01*
X136905904Y-77779619D01*
X136953523Y-77874857D01*
X136953523Y-77970095D01*
X136905904Y-78112952D01*
X136334476Y-78684380D01*
X136953523Y-78684380D01*
X145546380Y-40131904D02*
X146355904Y-40131904D01*
X146451142Y-40084285D01*
X146498761Y-40036666D01*
X146546380Y-39941428D01*
X146546380Y-39750952D01*
X146498761Y-39655714D01*
X146451142Y-39608095D01*
X146355904Y-39560476D01*
X145546380Y-39560476D01*
X145546380Y-39179523D02*
X145546380Y-38560476D01*
X145927333Y-38893809D01*
X145927333Y-38750952D01*
X145974952Y-38655714D01*
X146022571Y-38608095D01*
X146117809Y-38560476D01*
X146355904Y-38560476D01*
X146451142Y-38608095D01*
X146498761Y-38655714D01*
X146546380Y-38750952D01*
X146546380Y-39036666D01*
X146498761Y-39131904D01*
X146451142Y-39179523D01*
X107704380Y-54101904D02*
X108513904Y-54101904D01*
X108609142Y-54054285D01*
X108656761Y-54006666D01*
X108704380Y-53911428D01*
X108704380Y-53720952D01*
X108656761Y-53625714D01*
X108609142Y-53578095D01*
X108513904Y-53530476D01*
X107704380Y-53530476D01*
X108037714Y-52625714D02*
X108704380Y-52625714D01*
X107656761Y-52863809D02*
X108371047Y-53101904D01*
X108371047Y-52482857D01*
X121543809Y-29917190D02*
X121543809Y-30393380D01*
X121210476Y-29393380D02*
X121543809Y-29917190D01*
X121877142Y-29393380D01*
X122734285Y-30393380D02*
X122162857Y-30393380D01*
X122448571Y-30393380D02*
X122448571Y-29393380D01*
X122353333Y-29536238D01*
X122258095Y-29631476D01*
X122162857Y-29679095D01*
X104394095Y-17334380D02*
X104394095Y-16334380D01*
X104394095Y-16810571D02*
X104965523Y-16810571D01*
X104965523Y-17334380D02*
X104965523Y-16334380D01*
X105965523Y-17334380D02*
X105394095Y-17334380D01*
X105679809Y-17334380D02*
X105679809Y-16334380D01*
X105584571Y-16477238D01*
X105489333Y-16572476D01*
X105394095Y-16620095D01*
X104394095Y-90740380D02*
X104394095Y-89740380D01*
X104394095Y-90216571D02*
X104965523Y-90216571D01*
X104965523Y-90740380D02*
X104965523Y-89740380D01*
X105394095Y-89835619D02*
X105441714Y-89788000D01*
X105536952Y-89740380D01*
X105775047Y-89740380D01*
X105870285Y-89788000D01*
X105917904Y-89835619D01*
X105965523Y-89930857D01*
X105965523Y-90026095D01*
X105917904Y-90168952D01*
X105346476Y-90740380D01*
X105965523Y-90740380D01*
X157226095Y-17334380D02*
X157226095Y-16334380D01*
X157226095Y-16810571D02*
X157797523Y-16810571D01*
X157797523Y-17334380D02*
X157797523Y-16334380D01*
X158178476Y-16334380D02*
X158797523Y-16334380D01*
X158464190Y-16715333D01*
X158607047Y-16715333D01*
X158702285Y-16762952D01*
X158749904Y-16810571D01*
X158797523Y-16905809D01*
X158797523Y-17143904D01*
X158749904Y-17239142D01*
X158702285Y-17286761D01*
X158607047Y-17334380D01*
X158321333Y-17334380D01*
X158226095Y-17286761D01*
X158178476Y-17239142D01*
X157480095Y-90740380D02*
X157480095Y-89740380D01*
X157480095Y-90216571D02*
X158051523Y-90216571D01*
X158051523Y-90740380D02*
X158051523Y-89740380D01*
X158956285Y-90073714D02*
X158956285Y-90740380D01*
X158718190Y-89692761D02*
X158480095Y-90407047D01*
X159099142Y-90407047D01*
M02*
