M48
; DRILL file {KiCad (5.1.5)-3} date 7.04.2020 22:10:51
; FORMAT={-:-/ absolute / inch / decimal}
; #@! TF.CreationDate,2020-04-07T22:10:51+03:00
; #@! TF.GenerationSoftware,Kicad,Pcbnew,(5.1.5)-3
; #@! TF.FileFunction,Plated,1,2,PTH
FMAT,2
INCH
T1C0.0300
T2C0.0315
T3C0.0354
T4C0.0394
T5C0.0400
T6C0.0433
T7C0.0598
%
G90
G05
T1
X4.38Y-2.0
X4.38Y-2.1
X4.48Y-2.0
X4.48Y-2.1
X4.58Y-2.0
X4.58Y-2.1
X4.68Y-2.0
X4.68Y-2.1
T2
X4.38Y-1.86
X4.38Y-2.23
X4.44Y-2.65
X4.62Y-2.66
X4.66Y-1.89
X4.78Y-1.9
X4.96Y-2.74
X5.06Y-1.9
X5.25Y-1.1
X5.34Y-2.08
X5.44Y-1.52
X5.63Y-1.02
X5.65Y-3.18
X5.9Y-3.35
X5.94Y-2.48
X5.96Y-2.11
X5.98Y-1.78
X6.21Y-1.78
X4.3231Y-2.78
X4.52Y-2.78
X4.9Y-3.54
X5.2Y-3.54
X5.36Y-1.22
X5.66Y-1.22
X5.08Y-3.2216
X5.08Y-3.32
X4.36Y-1.4
X4.36Y-1.7
X4.46Y-1.4
X4.46Y-1.7
X4.56Y-1.4
X4.56Y-1.7
X4.66Y-1.4
X4.66Y-1.7
X4.76Y-1.4
X4.76Y-1.7
X4.86Y-1.4
X4.86Y-1.7
X4.96Y-1.4
X4.96Y-1.7
X5.06Y-1.4
X5.06Y-1.7
X5.16Y-1.4
X5.16Y-1.7
X5.26Y-1.4
X5.26Y-1.7
X5.36Y-1.4
X5.36Y-1.7
X5.46Y-1.4
X5.46Y-1.7
X5.56Y-1.4
X5.56Y-1.7
X5.66Y-1.4
X5.66Y-1.7
X4.66Y-1.22
X4.96Y-1.22
X5.1Y-1.0
X5.1Y-1.0984
X4.7079Y-1.04
X4.9Y-1.04
X5.4831Y-2.64
X5.68Y-2.64
X4.76Y-3.22
X4.76Y-3.3184
X5.04Y-2.34
X5.34Y-2.34
X4.5Y-1.0
X4.5Y-1.0984
X5.6Y-2.92
X5.6984Y-2.92
X4.32Y-2.98
X4.3987Y-2.98
X4.4775Y-2.98
X4.6816Y-2.88
X4.78Y-2.88
T3
X5.04Y-2.1
X5.14Y-2.1
X4.66Y-3.54
X4.76Y-3.54
T4
X5.58Y-2.26
X5.68Y-2.26
X5.78Y-2.26
X5.88Y-2.26
X5.98Y-2.26
X5.68Y-1.96
X5.78Y-1.96
X5.88Y-1.96
X5.98Y-1.96
T5
X4.5Y-2.44
X4.5Y-2.54
X4.6Y-2.44
X4.6Y-2.54
X4.7Y-2.44
X4.7Y-2.54
T6
X5.32Y-3.22
X5.32Y-3.32
X5.32Y-3.42
X4.94Y-2.94
X5.34Y-2.94
X5.8241Y-1.2228
X5.8241Y-1.4
X6.08Y-1.2228
X6.08Y-1.4
T7
X4.38Y-3.26
X4.38Y-3.46
T0
M30
