G04 #@! TF.GenerationSoftware,KiCad,Pcbnew,(5.1.5)-3*
G04 #@! TF.CreationDate,2020-04-07T22:10:48+03:00*
G04 #@! TF.ProjectId,Nrf24 Based Car Controller,4e726632-3420-4426-9173-656420436172,v.1.0*
G04 #@! TF.SameCoordinates,Original*
G04 #@! TF.FileFunction,Copper,L2,Bot*
G04 #@! TF.FilePolarity,Positive*
%FSLAX46Y46*%
G04 Gerber Fmt 4.6, Leading zero omitted, Abs format (unit mm)*
G04 Created by KiCad (PCBNEW (5.1.5)-3) date 2020-04-07 22:10:48*
%MOMM*%
%LPD*%
G04 APERTURE LIST*
%ADD10O,1.350000X1.350000*%
%ADD11R,1.350000X1.350000*%
%ADD12C,2.000000*%
%ADD13C,1.600000*%
%ADD14R,1.600000X1.600000*%
%ADD15R,2.200000X2.200000*%
%ADD16O,2.200000X2.200000*%
%ADD17R,1.800000X1.800000*%
%ADD18C,1.800000*%
%ADD19R,3.000000X3.000000*%
%ADD20C,3.000000*%
%ADD21R,1.700000X1.700000*%
%ADD22O,1.700000X1.700000*%
%ADD23R,1.727200X1.727200*%
%ADD24O,1.727200X1.727200*%
%ADD25O,1.600000X1.600000*%
%ADD26R,2.000000X3.800000*%
%ADD27R,2.000000X1.500000*%
%ADD28R,2.000000X1.905000*%
%ADD29O,2.000000X1.905000*%
%ADD30R,1.524000X1.524000*%
%ADD31C,1.524000*%
%ADD32C,1.500000*%
%ADD33C,0.600000*%
%ADD34C,0.254000*%
G04 APERTURE END LIST*
D10*
X113728000Y-75692000D03*
X111728000Y-75692000D03*
D11*
X109728000Y-75692000D03*
D12*
X154432000Y-31060000D03*
X154432000Y-35560000D03*
X147932000Y-31060000D03*
X147932000Y-35560000D03*
D13*
X118912000Y-73152000D03*
D14*
X121412000Y-73152000D03*
X120904000Y-81788000D03*
D13*
X120904000Y-84288000D03*
X144740000Y-74168000D03*
D14*
X142240000Y-74168000D03*
D13*
X144272000Y-67056000D03*
X139272000Y-67056000D03*
D14*
X129032000Y-84328000D03*
D13*
X129032000Y-81828000D03*
X129540000Y-27900000D03*
X129540000Y-25400000D03*
X114300000Y-25400000D03*
X114300000Y-27900000D03*
X109808000Y-70612000D03*
X114808000Y-70612000D03*
D15*
X135636000Y-74676000D03*
D16*
X125476000Y-74676000D03*
D17*
X130556000Y-53340000D03*
D18*
X128016000Y-53340000D03*
X120904000Y-89916000D03*
D17*
X118364000Y-89916000D03*
D19*
X111252000Y-87884000D03*
D20*
X111252000Y-82804000D03*
D21*
X151892000Y-57404000D03*
D22*
X149352000Y-57404000D03*
X146812000Y-57404000D03*
X144272000Y-57404000D03*
X141732000Y-57404000D03*
D21*
X151892000Y-49784000D03*
D22*
X149352000Y-49784000D03*
X146812000Y-49784000D03*
X144272000Y-49784000D03*
D23*
X119380000Y-61976000D03*
D24*
X119380000Y-64516000D03*
X116840000Y-61976000D03*
X116840000Y-64516000D03*
X114300000Y-61976000D03*
X114300000Y-64516000D03*
D25*
X135636000Y-59436000D03*
D13*
X128016000Y-59436000D03*
D25*
X124460000Y-89916000D03*
D13*
X132080000Y-89916000D03*
X136144000Y-30988000D03*
D25*
X143764000Y-30988000D03*
D13*
X125984000Y-30988000D03*
D25*
X118364000Y-30988000D03*
D26*
X135738000Y-67056000D03*
D27*
X129438000Y-67056000D03*
X129438000Y-64756000D03*
X129438000Y-69356000D03*
D28*
X135128000Y-81788000D03*
D29*
X135128000Y-84328000D03*
X135128000Y-86868000D03*
D14*
X143764000Y-35560000D03*
D25*
X110744000Y-43180000D03*
X141224000Y-35560000D03*
X113284000Y-43180000D03*
X138684000Y-35560000D03*
X115824000Y-43180000D03*
X136144000Y-35560000D03*
X118364000Y-43180000D03*
X133604000Y-35560000D03*
X120904000Y-43180000D03*
X131064000Y-35560000D03*
X123444000Y-43180000D03*
X128524000Y-35560000D03*
X125984000Y-43180000D03*
X125984000Y-35560000D03*
X128524000Y-43180000D03*
X123444000Y-35560000D03*
X131064000Y-43180000D03*
X120904000Y-35560000D03*
X133604000Y-43180000D03*
X118364000Y-35560000D03*
X136144000Y-43180000D03*
X115824000Y-35560000D03*
X138684000Y-43180000D03*
X113284000Y-35560000D03*
X141224000Y-43180000D03*
X110744000Y-35560000D03*
X143764000Y-43180000D03*
D30*
X111252000Y-53340000D03*
D31*
X111252000Y-50800000D03*
X113792000Y-53340000D03*
X113792000Y-50800000D03*
X116332000Y-53340000D03*
X116332000Y-50800000D03*
X118872000Y-53340000D03*
X118872000Y-50800000D03*
D32*
X124460000Y-26416000D03*
X119580000Y-26416000D03*
D12*
X151892000Y-45212000D03*
X157734000Y-45212000D03*
X111252000Y-56642000D03*
X112776000Y-67310000D03*
X133350000Y-27940000D03*
X143002000Y-25908000D03*
X143510000Y-80772000D03*
X149860000Y-85090000D03*
X128524000Y-48260000D03*
X150876000Y-62992000D03*
X135636000Y-52832000D03*
X111252000Y-47244000D03*
X125984000Y-69596000D03*
X151384000Y-53594000D03*
X117348000Y-67564000D03*
X118364000Y-48006000D03*
X121412000Y-48260000D03*
X138176000Y-38608000D03*
D33*
X143764000Y-30988000D02*
X143764000Y-35560000D01*
X147860000Y-30988000D02*
X147932000Y-31060000D01*
X143764000Y-30988000D02*
X147860000Y-30988000D01*
X149346213Y-31060000D02*
X154432000Y-31060000D01*
X147932000Y-31060000D02*
X149346213Y-31060000D01*
X141732000Y-30988000D02*
X143764000Y-30988000D01*
X105156000Y-70104000D02*
X105156000Y-28956000D01*
X112268000Y-73152000D02*
X108204000Y-73152000D01*
X105156000Y-28956000D02*
X111760000Y-22352000D01*
X108204000Y-73152000D02*
X105156000Y-70104000D01*
X133096000Y-22352000D02*
X141732000Y-30988000D01*
X114808000Y-70612000D02*
X112268000Y-73152000D01*
X111760000Y-22352000D02*
X133096000Y-22352000D01*
X111252000Y-53340000D02*
X111252000Y-56642000D01*
X114300000Y-65786000D02*
X114300000Y-64516000D01*
X112776000Y-67310000D02*
X114300000Y-65786000D01*
X129540000Y-29031370D02*
X129540000Y-27900000D01*
X129540000Y-30872630D02*
X129540000Y-29031370D01*
X125984000Y-34428630D02*
X129540000Y-30872630D01*
X125984000Y-35560000D02*
X125984000Y-34428630D01*
X144740000Y-74168000D02*
X144740000Y-79542000D01*
X144740000Y-79542000D02*
X143510000Y-80772000D01*
X133310000Y-27900000D02*
X133350000Y-27940000D01*
X128524000Y-43180000D02*
X128524000Y-44311370D01*
X128524000Y-44311370D02*
X128524000Y-48260000D01*
X135128000Y-88420500D02*
X133632500Y-89916000D01*
X135128000Y-86868000D02*
X135128000Y-88420500D01*
X133632500Y-89916000D02*
X132080000Y-89916000D01*
X129032000Y-86868000D02*
X132080000Y-89916000D01*
X129032000Y-84328000D02*
X129032000Y-86868000D01*
X129198000Y-64516000D02*
X129438000Y-64756000D01*
X119380000Y-64516000D02*
X129198000Y-64516000D01*
X125984000Y-43180000D02*
X125984000Y-45212000D01*
X125984000Y-45212000D02*
X124968000Y-46228000D01*
X124968000Y-60149314D02*
X120601314Y-64516000D01*
X120601314Y-64516000D02*
X119380000Y-64516000D01*
X124968000Y-46228000D02*
X124968000Y-60149314D01*
X125184001Y-42380001D02*
X125184001Y-40931999D01*
X125984000Y-43180000D02*
X125184001Y-42380001D01*
X128524000Y-37592000D02*
X128524000Y-35560000D01*
X125184001Y-40931999D02*
X128524000Y-37592000D01*
X131572000Y-30988000D02*
X136144000Y-30988000D01*
X128524000Y-35560000D02*
X128524000Y-34036000D01*
X128524000Y-34036000D02*
X131572000Y-30988000D01*
X123444000Y-44704000D02*
X124968000Y-46228000D01*
X123444000Y-43180000D02*
X123444000Y-44704000D01*
X127838000Y-64756000D02*
X129438000Y-64756000D01*
X121412000Y-71182000D02*
X127838000Y-64756000D01*
X121412000Y-73152000D02*
X121412000Y-71182000D01*
X122812000Y-73152000D02*
X123952000Y-72012000D01*
X121412000Y-73152000D02*
X122812000Y-73152000D01*
X123952000Y-72012000D02*
X137544000Y-72012000D01*
X137544000Y-72012000D02*
X139192000Y-73660000D01*
X139192000Y-73660000D02*
X139192000Y-86106000D01*
X138430000Y-86868000D02*
X135128000Y-86868000D01*
X139192000Y-86106000D02*
X138430000Y-86868000D01*
X143510000Y-86106000D02*
X139192000Y-86106000D01*
X148082000Y-81534000D02*
X143510000Y-86106000D01*
X141732000Y-60452000D02*
X144272000Y-62992000D01*
X141732000Y-57404000D02*
X141732000Y-60452000D01*
X144272000Y-62992000D02*
X146304000Y-62992000D01*
X146304000Y-62992000D02*
X148082000Y-64770000D01*
X148082000Y-64770000D02*
X148082000Y-81534000D01*
X120904000Y-80388000D02*
X120904000Y-81788000D01*
X122552000Y-78740000D02*
X120904000Y-80388000D01*
X130480000Y-78740000D02*
X122552000Y-78740000D01*
X133528000Y-81788000D02*
X130480000Y-78740000D01*
X135128000Y-81788000D02*
X133528000Y-81788000D01*
X135636000Y-81280000D02*
X135128000Y-81788000D01*
X135636000Y-74676000D02*
X135636000Y-81280000D01*
X139272000Y-67056000D02*
X135738000Y-67056000D01*
X129438000Y-67056000D02*
X135738000Y-67056000D01*
X135636000Y-66954000D02*
X135738000Y-67056000D01*
X135636000Y-59436000D02*
X135636000Y-66954000D01*
X142240000Y-68892630D02*
X142240000Y-72768000D01*
X140403370Y-67056000D02*
X142240000Y-68892630D01*
X142240000Y-72768000D02*
X142240000Y-74168000D01*
X139272000Y-67056000D02*
X140403370Y-67056000D01*
X111252000Y-50800000D02*
X111252000Y-47244000D01*
X128524000Y-67056000D02*
X129438000Y-67056000D01*
X125984000Y-69596000D02*
X128524000Y-67056000D01*
X149352000Y-49784000D02*
X149352000Y-51308000D01*
X149352000Y-51308000D02*
X151384000Y-53340000D01*
X151384000Y-53340000D02*
X151384000Y-53594000D01*
X135636000Y-58304630D02*
X135636000Y-52832000D01*
X135636000Y-59436000D02*
X135636000Y-58304630D01*
X123444000Y-33528000D02*
X125984000Y-30988000D01*
X123444000Y-35560000D02*
X123444000Y-33528000D01*
X125984000Y-27940000D02*
X124460000Y-26416000D01*
X125984000Y-30988000D02*
X125984000Y-27940000D01*
X129540000Y-25400000D02*
X128524000Y-25400000D01*
X128524000Y-25400000D02*
X126492000Y-27432000D01*
X126492000Y-27432000D02*
X125984000Y-27940000D01*
X120904000Y-33528000D02*
X118364000Y-30988000D01*
X120904000Y-35560000D02*
X120904000Y-33528000D01*
X118364000Y-27632000D02*
X119580000Y-26416000D01*
X118364000Y-30988000D02*
X118364000Y-27632000D01*
X116132000Y-25400000D02*
X118364000Y-27632000D01*
X114300000Y-25400000D02*
X116132000Y-25400000D01*
X109808000Y-63928000D02*
X109808000Y-70612000D01*
X114300000Y-61976000D02*
X111760000Y-61976000D01*
X111760000Y-61976000D02*
X109808000Y-63928000D01*
X124460000Y-75692000D02*
X125476000Y-74676000D01*
X113728000Y-75692000D02*
X124460000Y-75692000D01*
X128016000Y-59436000D02*
X128016000Y-53340000D01*
X124460000Y-89916000D02*
X120904000Y-89916000D01*
X111728000Y-82328000D02*
X111252000Y-82804000D01*
X111728000Y-75692000D02*
X111728000Y-82328000D01*
X154940000Y-54356000D02*
X151892000Y-57404000D01*
X154940000Y-43688000D02*
X154940000Y-54356000D01*
X133604000Y-35560000D02*
X133604000Y-40132000D01*
X134112000Y-40640000D02*
X151892000Y-40640000D01*
X133604000Y-40132000D02*
X134112000Y-40640000D01*
X151892000Y-40640000D02*
X154940000Y-43688000D01*
X149352000Y-54864000D02*
X149352000Y-57404000D01*
X143256000Y-52832000D02*
X147320000Y-52832000D01*
X133604000Y-43180000D02*
X133604000Y-45720000D01*
X147320000Y-52832000D02*
X149352000Y-54864000D01*
X136144000Y-48260000D02*
X137160000Y-48260000D01*
X141732000Y-51308000D02*
X143256000Y-52832000D01*
X137160000Y-48260000D02*
X140208000Y-51308000D01*
X133604000Y-45720000D02*
X136144000Y-48260000D01*
X140208000Y-51308000D02*
X141732000Y-51308000D01*
X137160000Y-50292000D02*
X135382000Y-50292000D01*
X135382000Y-50292000D02*
X131064000Y-45974000D01*
X140208000Y-53340000D02*
X137160000Y-50292000D01*
X146812000Y-55880000D02*
X145796000Y-54864000D01*
X141224000Y-53340000D02*
X140208000Y-53340000D01*
X142748000Y-54864000D02*
X141224000Y-53340000D01*
X131064000Y-45974000D02*
X131064000Y-43180000D01*
X146812000Y-57404000D02*
X146812000Y-55880000D01*
X145796000Y-54864000D02*
X142748000Y-54864000D01*
X146304000Y-47752000D02*
X146812000Y-48260000D01*
X144780000Y-47752000D02*
X146304000Y-47752000D01*
X143764000Y-43180000D02*
X143764000Y-46736000D01*
X146812000Y-48260000D02*
X146812000Y-49784000D01*
X143764000Y-46736000D02*
X144780000Y-47752000D01*
X141224000Y-46736000D02*
X144272000Y-49784000D01*
X141224000Y-43180000D02*
X141224000Y-46736000D01*
X118872000Y-53340000D02*
X118872000Y-56388000D01*
X119380000Y-56896000D02*
X119380000Y-61976000D01*
X118872000Y-56388000D02*
X119380000Y-56896000D01*
X122428000Y-53340000D02*
X118872000Y-53340000D01*
X123444000Y-52324000D02*
X122428000Y-53340000D01*
X118364000Y-45720000D02*
X118872000Y-46228000D01*
X118364000Y-43180000D02*
X118364000Y-45720000D01*
X118872000Y-46228000D02*
X122428000Y-46228000D01*
X122428000Y-46228000D02*
X123444000Y-47244000D01*
X123444000Y-47244000D02*
X123444000Y-52324000D01*
X116332000Y-53340000D02*
X116332000Y-55118000D01*
X116332000Y-55118000D02*
X116840000Y-55626000D01*
X116078000Y-58928000D02*
X116840000Y-59690000D01*
X120904000Y-42048630D02*
X119749370Y-40894000D01*
X120904000Y-43180000D02*
X120904000Y-42048630D01*
X109220000Y-40894000D02*
X107188000Y-42926000D01*
X116840000Y-59690000D02*
X116840000Y-61976000D01*
X119749370Y-40894000D02*
X109220000Y-40894000D01*
X107188000Y-42926000D02*
X107188000Y-58928000D01*
X116840000Y-55626000D02*
X116840000Y-59690000D01*
X114300000Y-58928000D02*
X116078000Y-58928000D01*
X107188000Y-58928000D02*
X108712000Y-60452000D01*
X108712000Y-60452000D02*
X112776000Y-60452000D01*
X112776000Y-60452000D02*
X114300000Y-58928000D01*
X116332000Y-47244000D02*
X115824000Y-46736000D01*
X115824000Y-46736000D02*
X115824000Y-43180000D01*
X116840000Y-65737314D02*
X116840000Y-67056000D01*
X116840000Y-64516000D02*
X116840000Y-65737314D01*
X116840000Y-67056000D02*
X117348000Y-67564000D01*
X118364000Y-48006000D02*
X117348000Y-48006000D01*
X116586000Y-48768000D02*
X116332000Y-48768000D01*
X116332000Y-50800000D02*
X116332000Y-48768000D01*
X117348000Y-48006000D02*
X116586000Y-48768000D01*
X116332000Y-48768000D02*
X116332000Y-47244000D01*
X112522000Y-59182000D02*
X113792000Y-57912000D01*
X109612630Y-43180000D02*
X108712000Y-44080630D01*
X113792000Y-57912000D02*
X113792000Y-53340000D01*
X108712000Y-44080630D02*
X108712000Y-57658000D01*
X110744000Y-43180000D02*
X109612630Y-43180000D01*
X108712000Y-57658000D02*
X110236000Y-59182000D01*
X110236000Y-59182000D02*
X112522000Y-59182000D01*
X113792000Y-50800000D02*
X113792000Y-46736000D01*
X113792000Y-46736000D02*
X113284000Y-46228000D01*
X113284000Y-46228000D02*
X113284000Y-43180000D01*
X136652000Y-38608000D02*
X138176000Y-38608000D01*
X136144000Y-35560000D02*
X136144000Y-38100000D01*
X136144000Y-38100000D02*
X136652000Y-38608000D01*
X120904000Y-50800000D02*
X118872000Y-50800000D01*
X121412000Y-48260000D02*
X121412000Y-50292000D01*
X121412000Y-50292000D02*
X120904000Y-50800000D01*
D34*
G36*
X103093840Y-19979752D02*
G01*
X102918426Y-20403239D01*
X102829000Y-20852811D01*
X102829000Y-21311189D01*
X102918426Y-21760761D01*
X103093840Y-22184248D01*
X103348501Y-22565376D01*
X103672624Y-22889499D01*
X104053752Y-23144160D01*
X104477239Y-23319574D01*
X104926811Y-23409000D01*
X105385189Y-23409000D01*
X105834761Y-23319574D01*
X106258248Y-23144160D01*
X106639376Y-22889499D01*
X106963499Y-22565376D01*
X107218160Y-22184248D01*
X107393574Y-21760761D01*
X107483000Y-21311189D01*
X107483000Y-20852811D01*
X107393574Y-20403239D01*
X107218160Y-19979752D01*
X107190930Y-19939000D01*
X155953070Y-19939000D01*
X155925840Y-19979752D01*
X155750426Y-20403239D01*
X155661000Y-20852811D01*
X155661000Y-21311189D01*
X155750426Y-21760761D01*
X155925840Y-22184248D01*
X156180501Y-22565376D01*
X156504624Y-22889499D01*
X156885752Y-23144160D01*
X157309239Y-23319574D01*
X157758811Y-23409000D01*
X158217189Y-23409000D01*
X158666761Y-23319574D01*
X159090248Y-23144160D01*
X159471376Y-22889499D01*
X159795499Y-22565376D01*
X160050160Y-22184248D01*
X160225574Y-21760761D01*
X160315000Y-21311189D01*
X160315000Y-20852811D01*
X160225574Y-20403239D01*
X160050160Y-19979752D01*
X160022930Y-19939000D01*
X160655000Y-19939000D01*
X160655000Y-97409000D01*
X102489000Y-97409000D01*
X102489000Y-94258811D01*
X102829000Y-94258811D01*
X102829000Y-94717189D01*
X102918426Y-95166761D01*
X103093840Y-95590248D01*
X103348501Y-95971376D01*
X103672624Y-96295499D01*
X104053752Y-96550160D01*
X104477239Y-96725574D01*
X104926811Y-96815000D01*
X105385189Y-96815000D01*
X105834761Y-96725574D01*
X106258248Y-96550160D01*
X106639376Y-96295499D01*
X106963499Y-95971376D01*
X107218160Y-95590248D01*
X107393574Y-95166761D01*
X107483000Y-94717189D01*
X107483000Y-94258811D01*
X155915000Y-94258811D01*
X155915000Y-94717189D01*
X156004426Y-95166761D01*
X156179840Y-95590248D01*
X156434501Y-95971376D01*
X156758624Y-96295499D01*
X157139752Y-96550160D01*
X157563239Y-96725574D01*
X158012811Y-96815000D01*
X158471189Y-96815000D01*
X158920761Y-96725574D01*
X159344248Y-96550160D01*
X159725376Y-96295499D01*
X160049499Y-95971376D01*
X160304160Y-95590248D01*
X160479574Y-95166761D01*
X160569000Y-94717189D01*
X160569000Y-94258811D01*
X160479574Y-93809239D01*
X160304160Y-93385752D01*
X160049499Y-93004624D01*
X159725376Y-92680501D01*
X159344248Y-92425840D01*
X158920761Y-92250426D01*
X158471189Y-92161000D01*
X158012811Y-92161000D01*
X157563239Y-92250426D01*
X157139752Y-92425840D01*
X156758624Y-92680501D01*
X156434501Y-93004624D01*
X156179840Y-93385752D01*
X156004426Y-93809239D01*
X155915000Y-94258811D01*
X107483000Y-94258811D01*
X107393574Y-93809239D01*
X107218160Y-93385752D01*
X106963499Y-93004624D01*
X106639376Y-92680501D01*
X106258248Y-92425840D01*
X105834761Y-92250426D01*
X105385189Y-92161000D01*
X104926811Y-92161000D01*
X104477239Y-92250426D01*
X104053752Y-92425840D01*
X103672624Y-92680501D01*
X103348501Y-93004624D01*
X103093840Y-93385752D01*
X102918426Y-93809239D01*
X102829000Y-94258811D01*
X102489000Y-94258811D01*
X102489000Y-90816000D01*
X116825928Y-90816000D01*
X116838188Y-90940482D01*
X116874498Y-91060180D01*
X116933463Y-91170494D01*
X117012815Y-91267185D01*
X117109506Y-91346537D01*
X117219820Y-91405502D01*
X117339518Y-91441812D01*
X117464000Y-91454072D01*
X118078250Y-91451000D01*
X118237000Y-91292250D01*
X118237000Y-90043000D01*
X116987750Y-90043000D01*
X116829000Y-90201750D01*
X116825928Y-90816000D01*
X102489000Y-90816000D01*
X102489000Y-89384000D01*
X109113928Y-89384000D01*
X109126188Y-89508482D01*
X109162498Y-89628180D01*
X109221463Y-89738494D01*
X109300815Y-89835185D01*
X109397506Y-89914537D01*
X109507820Y-89973502D01*
X109627518Y-90009812D01*
X109752000Y-90022072D01*
X110966250Y-90019000D01*
X111125000Y-89860250D01*
X111125000Y-88011000D01*
X111379000Y-88011000D01*
X111379000Y-89860250D01*
X111537750Y-90019000D01*
X112752000Y-90022072D01*
X112876482Y-90009812D01*
X112996180Y-89973502D01*
X113106494Y-89914537D01*
X113203185Y-89835185D01*
X113282537Y-89738494D01*
X113341502Y-89628180D01*
X113377812Y-89508482D01*
X113390072Y-89384000D01*
X113389141Y-89016000D01*
X116825928Y-89016000D01*
X116829000Y-89630250D01*
X116987750Y-89789000D01*
X118237000Y-89789000D01*
X118237000Y-88539750D01*
X118491000Y-88539750D01*
X118491000Y-89789000D01*
X118511000Y-89789000D01*
X118511000Y-90043000D01*
X118491000Y-90043000D01*
X118491000Y-91292250D01*
X118649750Y-91451000D01*
X119264000Y-91454072D01*
X119388482Y-91441812D01*
X119508180Y-91405502D01*
X119618494Y-91346537D01*
X119715185Y-91267185D01*
X119794537Y-91170494D01*
X119816493Y-91129418D01*
X119866848Y-91179773D01*
X120133327Y-91357828D01*
X120429422Y-91480475D01*
X120743755Y-91543000D01*
X121064245Y-91543000D01*
X121378578Y-91480475D01*
X121674673Y-91357828D01*
X121941152Y-91179773D01*
X122167773Y-90953152D01*
X122174556Y-90943000D01*
X123327495Y-90943000D01*
X123486594Y-91102099D01*
X123736694Y-91269210D01*
X124014590Y-91384319D01*
X124309604Y-91443000D01*
X124610396Y-91443000D01*
X124905410Y-91384319D01*
X125183306Y-91269210D01*
X125433406Y-91102099D01*
X125646099Y-90889406D01*
X125813210Y-90639306D01*
X125928319Y-90361410D01*
X125987000Y-90066396D01*
X125987000Y-89765604D01*
X125928319Y-89470590D01*
X125813210Y-89192694D01*
X125646099Y-88942594D01*
X125433406Y-88729901D01*
X125183306Y-88562790D01*
X124905410Y-88447681D01*
X124610396Y-88389000D01*
X124309604Y-88389000D01*
X124014590Y-88447681D01*
X123736694Y-88562790D01*
X123486594Y-88729901D01*
X123327495Y-88889000D01*
X122174556Y-88889000D01*
X122167773Y-88878848D01*
X121941152Y-88652227D01*
X121674673Y-88474172D01*
X121378578Y-88351525D01*
X121064245Y-88289000D01*
X120743755Y-88289000D01*
X120429422Y-88351525D01*
X120133327Y-88474172D01*
X119866848Y-88652227D01*
X119816493Y-88702582D01*
X119794537Y-88661506D01*
X119715185Y-88564815D01*
X119618494Y-88485463D01*
X119508180Y-88426498D01*
X119388482Y-88390188D01*
X119264000Y-88377928D01*
X118649750Y-88381000D01*
X118491000Y-88539750D01*
X118237000Y-88539750D01*
X118078250Y-88381000D01*
X117464000Y-88377928D01*
X117339518Y-88390188D01*
X117219820Y-88426498D01*
X117109506Y-88485463D01*
X117012815Y-88564815D01*
X116933463Y-88661506D01*
X116874498Y-88771820D01*
X116838188Y-88891518D01*
X116825928Y-89016000D01*
X113389141Y-89016000D01*
X113387000Y-88169750D01*
X113228250Y-88011000D01*
X111379000Y-88011000D01*
X111125000Y-88011000D01*
X109275750Y-88011000D01*
X109117000Y-88169750D01*
X109113928Y-89384000D01*
X102489000Y-89384000D01*
X102489000Y-86384000D01*
X109113928Y-86384000D01*
X109117000Y-87598250D01*
X109275750Y-87757000D01*
X111125000Y-87757000D01*
X111125000Y-85907750D01*
X111379000Y-85907750D01*
X111379000Y-87757000D01*
X113228250Y-87757000D01*
X113387000Y-87598250D01*
X113390072Y-86384000D01*
X113377812Y-86259518D01*
X113341502Y-86139820D01*
X113282537Y-86029506D01*
X113203185Y-85932815D01*
X113106494Y-85853463D01*
X112996180Y-85794498D01*
X112876482Y-85758188D01*
X112752000Y-85745928D01*
X111537750Y-85749000D01*
X111379000Y-85907750D01*
X111125000Y-85907750D01*
X110966250Y-85749000D01*
X109752000Y-85745928D01*
X109627518Y-85758188D01*
X109507820Y-85794498D01*
X109397506Y-85853463D01*
X109300815Y-85932815D01*
X109221463Y-86029506D01*
X109162498Y-86139820D01*
X109126188Y-86259518D01*
X109113928Y-86384000D01*
X102489000Y-86384000D01*
X102489000Y-85280702D01*
X120090903Y-85280702D01*
X120162486Y-85524671D01*
X120417996Y-85645571D01*
X120692184Y-85714300D01*
X120974512Y-85728217D01*
X121254130Y-85686787D01*
X121520292Y-85591603D01*
X121645514Y-85524671D01*
X121717097Y-85280702D01*
X120904000Y-84467605D01*
X120090903Y-85280702D01*
X102489000Y-85280702D01*
X102489000Y-28956000D01*
X104124032Y-28956000D01*
X104129001Y-29006451D01*
X104129000Y-70053559D01*
X104124032Y-70104000D01*
X104129000Y-70154441D01*
X104129000Y-70154450D01*
X104143860Y-70305326D01*
X104202585Y-70498916D01*
X104297949Y-70677331D01*
X104426288Y-70833712D01*
X104465481Y-70865877D01*
X107442128Y-73842525D01*
X107474288Y-73881712D01*
X107630669Y-74010051D01*
X107809083Y-74105415D01*
X108002673Y-74164140D01*
X108153549Y-74179000D01*
X108153559Y-74179000D01*
X108204000Y-74183968D01*
X108254441Y-74179000D01*
X112217559Y-74179000D01*
X112268000Y-74183968D01*
X112318441Y-74179000D01*
X112318451Y-74179000D01*
X112469327Y-74164140D01*
X112662917Y-74105415D01*
X112841331Y-74010051D01*
X112997712Y-73881712D01*
X113029877Y-73842519D01*
X113649884Y-73222512D01*
X117471783Y-73222512D01*
X117513213Y-73502130D01*
X117608397Y-73768292D01*
X117675329Y-73893514D01*
X117919298Y-73965097D01*
X118732395Y-73152000D01*
X117919298Y-72338903D01*
X117675329Y-72410486D01*
X117554429Y-72665996D01*
X117485700Y-72940184D01*
X117471783Y-73222512D01*
X113649884Y-73222512D01*
X114733397Y-72139000D01*
X114958396Y-72139000D01*
X115253410Y-72080319D01*
X115531306Y-71965210D01*
X115781406Y-71798099D01*
X115994099Y-71585406D01*
X116161210Y-71335306D01*
X116276319Y-71057410D01*
X116335000Y-70762396D01*
X116335000Y-70461604D01*
X116276319Y-70166590D01*
X116161210Y-69888694D01*
X115994099Y-69638594D01*
X115781406Y-69425901D01*
X115531306Y-69258790D01*
X115253410Y-69143681D01*
X114958396Y-69085000D01*
X114657604Y-69085000D01*
X114362590Y-69143681D01*
X114084694Y-69258790D01*
X113834594Y-69425901D01*
X113621901Y-69638594D01*
X113454790Y-69888694D01*
X113339681Y-70166590D01*
X113281000Y-70461604D01*
X113281000Y-70686603D01*
X111842604Y-72125000D01*
X110028780Y-72125000D01*
X110253410Y-72080319D01*
X110531306Y-71965210D01*
X110781406Y-71798099D01*
X110994099Y-71585406D01*
X111161210Y-71335306D01*
X111276319Y-71057410D01*
X111335000Y-70762396D01*
X111335000Y-70461604D01*
X111276319Y-70166590D01*
X111161210Y-69888694D01*
X110994099Y-69638594D01*
X110835000Y-69479495D01*
X110835000Y-64875027D01*
X112845037Y-64875027D01*
X112943036Y-65151978D01*
X113093183Y-65404488D01*
X113289707Y-65622854D01*
X113525056Y-65798684D01*
X113790186Y-65925222D01*
X113940974Y-65970958D01*
X114173000Y-65849817D01*
X114173000Y-64643000D01*
X112965536Y-64643000D01*
X112845037Y-64875027D01*
X110835000Y-64875027D01*
X110835000Y-64353396D01*
X112185397Y-63003000D01*
X113077552Y-63003000D01*
X113286052Y-63211500D01*
X113427633Y-63306101D01*
X113289707Y-63409146D01*
X113093183Y-63627512D01*
X112943036Y-63880022D01*
X112845037Y-64156973D01*
X112965536Y-64389000D01*
X114173000Y-64389000D01*
X114173000Y-64369000D01*
X114427000Y-64369000D01*
X114427000Y-64389000D01*
X114447000Y-64389000D01*
X114447000Y-64643000D01*
X114427000Y-64643000D01*
X114427000Y-65849817D01*
X114659026Y-65970958D01*
X114809814Y-65925222D01*
X115074944Y-65798684D01*
X115310293Y-65622854D01*
X115506817Y-65404488D01*
X115513340Y-65393518D01*
X115604500Y-65529948D01*
X115813000Y-65738448D01*
X115813001Y-66756949D01*
X115687368Y-67060253D01*
X115621000Y-67393905D01*
X115621000Y-67734095D01*
X115687368Y-68067747D01*
X115817553Y-68382041D01*
X116006552Y-68664898D01*
X116247102Y-68905448D01*
X116529959Y-69094447D01*
X116844253Y-69224632D01*
X117177905Y-69291000D01*
X117518095Y-69291000D01*
X117851747Y-69224632D01*
X118166041Y-69094447D01*
X118448898Y-68905448D01*
X118689448Y-68664898D01*
X118878447Y-68382041D01*
X119008632Y-68067747D01*
X119075000Y-67734095D01*
X119075000Y-67393905D01*
X119008632Y-67060253D01*
X118878447Y-66745959D01*
X118689448Y-66463102D01*
X118448898Y-66222552D01*
X118166041Y-66033553D01*
X117867000Y-65909686D01*
X117867000Y-65738448D01*
X118075500Y-65529948D01*
X118110000Y-65478315D01*
X118144500Y-65529948D01*
X118366052Y-65751500D01*
X118626568Y-65925571D01*
X118916039Y-66045474D01*
X119223340Y-66106600D01*
X119536660Y-66106600D01*
X119843961Y-66045474D01*
X120133432Y-65925571D01*
X120393948Y-65751500D01*
X120597824Y-65547624D01*
X120601314Y-65547968D01*
X120651755Y-65543000D01*
X125598603Y-65543000D01*
X120721476Y-70420128D01*
X120682289Y-70452288D01*
X120650129Y-70491475D01*
X120650128Y-70491476D01*
X120553950Y-70608669D01*
X120458586Y-70787083D01*
X120399861Y-70980673D01*
X120380032Y-71182000D01*
X120385001Y-71232451D01*
X120385001Y-71661147D01*
X120332443Y-71677090D01*
X120206147Y-71744597D01*
X120095446Y-71835446D01*
X120004597Y-71946147D01*
X119937090Y-72072443D01*
X119921659Y-72123312D01*
X119841370Y-72043023D01*
X119725097Y-72159296D01*
X119653514Y-71915329D01*
X119398004Y-71794429D01*
X119123816Y-71725700D01*
X118841488Y-71711783D01*
X118561870Y-71753213D01*
X118295708Y-71848397D01*
X118170486Y-71915329D01*
X118098903Y-72159298D01*
X118912000Y-72972395D01*
X118926143Y-72958253D01*
X119105748Y-73137858D01*
X119091605Y-73152000D01*
X119105748Y-73166143D01*
X118926143Y-73345748D01*
X118912000Y-73331605D01*
X118098903Y-74144702D01*
X118170486Y-74388671D01*
X118425996Y-74509571D01*
X118700184Y-74578300D01*
X118982512Y-74592217D01*
X119262130Y-74550787D01*
X119528292Y-74455603D01*
X119653514Y-74388671D01*
X119725097Y-74144704D01*
X119841370Y-74260977D01*
X119921659Y-74180688D01*
X119937090Y-74231557D01*
X120004597Y-74357853D01*
X120095446Y-74468554D01*
X120206147Y-74559403D01*
X120332443Y-74626910D01*
X120458011Y-74665000D01*
X114683728Y-74665000D01*
X114621723Y-74602995D01*
X114392096Y-74449563D01*
X114136948Y-74343878D01*
X113866085Y-74290000D01*
X113589915Y-74290000D01*
X113319052Y-74343878D01*
X113063904Y-74449563D01*
X112834277Y-74602995D01*
X112728000Y-74709272D01*
X112621723Y-74602995D01*
X112392096Y-74449563D01*
X112136948Y-74343878D01*
X111866085Y-74290000D01*
X111589915Y-74290000D01*
X111319052Y-74343878D01*
X111063904Y-74449563D01*
X110943707Y-74529876D01*
X110919554Y-74500446D01*
X110808853Y-74409597D01*
X110682557Y-74342090D01*
X110545517Y-74300520D01*
X110403000Y-74286483D01*
X109053000Y-74286483D01*
X108910483Y-74300520D01*
X108773443Y-74342090D01*
X108647147Y-74409597D01*
X108536446Y-74500446D01*
X108445597Y-74611147D01*
X108378090Y-74737443D01*
X108336520Y-74874483D01*
X108322483Y-75017000D01*
X108322483Y-76367000D01*
X108336520Y-76509517D01*
X108378090Y-76646557D01*
X108445597Y-76772853D01*
X108536446Y-76883554D01*
X108647147Y-76974403D01*
X108773443Y-77041910D01*
X108910483Y-77083480D01*
X109053000Y-77097517D01*
X110403000Y-77097517D01*
X110545517Y-77083480D01*
X110682557Y-77041910D01*
X110701000Y-77032052D01*
X110701001Y-80642971D01*
X110602408Y-80662582D01*
X110197120Y-80830458D01*
X109832370Y-81074176D01*
X109522176Y-81384370D01*
X109278458Y-81749120D01*
X109110582Y-82154408D01*
X109025000Y-82584660D01*
X109025000Y-83023340D01*
X109110582Y-83453592D01*
X109278458Y-83858880D01*
X109522176Y-84223630D01*
X109832370Y-84533824D01*
X110197120Y-84777542D01*
X110602408Y-84945418D01*
X111032660Y-85031000D01*
X111471340Y-85031000D01*
X111901592Y-84945418D01*
X112306880Y-84777542D01*
X112671630Y-84533824D01*
X112981824Y-84223630D01*
X113225542Y-83858880D01*
X113393418Y-83453592D01*
X113479000Y-83023340D01*
X113479000Y-82584660D01*
X113393418Y-82154408D01*
X113225542Y-81749120D01*
X112981824Y-81384370D01*
X112755000Y-81157546D01*
X112755000Y-76701728D01*
X112834277Y-76781005D01*
X113063904Y-76934437D01*
X113319052Y-77040122D01*
X113589915Y-77094000D01*
X113866085Y-77094000D01*
X114136948Y-77040122D01*
X114392096Y-76934437D01*
X114621723Y-76781005D01*
X114683728Y-76719000D01*
X124409559Y-76719000D01*
X124460000Y-76723968D01*
X124510441Y-76719000D01*
X124510451Y-76719000D01*
X124661327Y-76704140D01*
X124854917Y-76645415D01*
X125033331Y-76550051D01*
X125130733Y-76470115D01*
X125296056Y-76503000D01*
X125655944Y-76503000D01*
X126008916Y-76432789D01*
X126341409Y-76295066D01*
X126640645Y-76095124D01*
X126895124Y-75840645D01*
X127095066Y-75541409D01*
X127232789Y-75208916D01*
X127303000Y-74855944D01*
X127303000Y-74496056D01*
X127232789Y-74143084D01*
X127095066Y-73810591D01*
X126895124Y-73511355D01*
X126640645Y-73256876D01*
X126341409Y-73056934D01*
X126298112Y-73039000D01*
X134044360Y-73039000D01*
X134019446Y-73059446D01*
X133928597Y-73170147D01*
X133861090Y-73296443D01*
X133819520Y-73433483D01*
X133805483Y-73576000D01*
X133805483Y-75776000D01*
X133819520Y-75918517D01*
X133861090Y-76055557D01*
X133928597Y-76181853D01*
X134019446Y-76292554D01*
X134130147Y-76383403D01*
X134256443Y-76450910D01*
X134393483Y-76492480D01*
X134536000Y-76506517D01*
X134609000Y-76506517D01*
X134609001Y-80104983D01*
X134128000Y-80104983D01*
X133985483Y-80119020D01*
X133848443Y-80160590D01*
X133722147Y-80228097D01*
X133611446Y-80318946D01*
X133566324Y-80373928D01*
X131241877Y-78049481D01*
X131209712Y-78010288D01*
X131053331Y-77881949D01*
X130874917Y-77786585D01*
X130681327Y-77727860D01*
X130530451Y-77713000D01*
X130530441Y-77713000D01*
X130480000Y-77708032D01*
X130429559Y-77713000D01*
X122602441Y-77713000D01*
X122552000Y-77708032D01*
X122501559Y-77713000D01*
X122501549Y-77713000D01*
X122350673Y-77727860D01*
X122157083Y-77786585D01*
X121978669Y-77881949D01*
X121822288Y-78010288D01*
X121790128Y-78049475D01*
X120213481Y-79626123D01*
X120174288Y-79658288D01*
X120045949Y-79814669D01*
X119950585Y-79993084D01*
X119891860Y-80186674D01*
X119881102Y-80295903D01*
X119824443Y-80313090D01*
X119698147Y-80380597D01*
X119587446Y-80471446D01*
X119496597Y-80582147D01*
X119429090Y-80708443D01*
X119387520Y-80845483D01*
X119373483Y-80988000D01*
X119373483Y-82588000D01*
X119387520Y-82730517D01*
X119429090Y-82867557D01*
X119496597Y-82993853D01*
X119587446Y-83104554D01*
X119698147Y-83195403D01*
X119824443Y-83262910D01*
X119875312Y-83278341D01*
X119795023Y-83358630D01*
X119911296Y-83474903D01*
X119667329Y-83546486D01*
X119546429Y-83801996D01*
X119477700Y-84076184D01*
X119463783Y-84358512D01*
X119505213Y-84638130D01*
X119600397Y-84904292D01*
X119667329Y-85029514D01*
X119911298Y-85101097D01*
X120724395Y-84288000D01*
X120710253Y-84273858D01*
X120889858Y-84094253D01*
X120904000Y-84108395D01*
X120918143Y-84094253D01*
X121097748Y-84273858D01*
X121083605Y-84288000D01*
X121896702Y-85101097D01*
X122140671Y-85029514D01*
X122261571Y-84774004D01*
X122330300Y-84499816D01*
X122344217Y-84217488D01*
X122302787Y-83937870D01*
X122207603Y-83671708D01*
X122140671Y-83546486D01*
X121896704Y-83474903D01*
X122012977Y-83358630D01*
X121932688Y-83278341D01*
X121983557Y-83262910D01*
X122109853Y-83195403D01*
X122220554Y-83104554D01*
X122311403Y-82993853D01*
X122378910Y-82867557D01*
X122420480Y-82730517D01*
X122434517Y-82588000D01*
X122434517Y-80988000D01*
X122420480Y-80845483D01*
X122417391Y-80835298D01*
X128218903Y-80835298D01*
X129032000Y-81648395D01*
X129845097Y-80835298D01*
X129773514Y-80591329D01*
X129518004Y-80470429D01*
X129243816Y-80401700D01*
X128961488Y-80387783D01*
X128681870Y-80429213D01*
X128415708Y-80524397D01*
X128290486Y-80591329D01*
X128218903Y-80835298D01*
X122417391Y-80835298D01*
X122378910Y-80708443D01*
X122311403Y-80582147D01*
X122244172Y-80500225D01*
X122977397Y-79767000D01*
X130054604Y-79767000D01*
X132766128Y-82478525D01*
X132798288Y-82517712D01*
X132954669Y-82646051D01*
X133133083Y-82741415D01*
X133326673Y-82800140D01*
X133404108Y-82807767D01*
X133411520Y-82883017D01*
X133453090Y-83020057D01*
X133520597Y-83146353D01*
X133611446Y-83257054D01*
X133722147Y-83347903D01*
X133806626Y-83393058D01*
X133752031Y-83461077D01*
X133608429Y-83736906D01*
X133537437Y-83955020D01*
X133657406Y-84201000D01*
X135001000Y-84201000D01*
X135001000Y-84181000D01*
X135255000Y-84181000D01*
X135255000Y-84201000D01*
X136598594Y-84201000D01*
X136718563Y-83955020D01*
X136647571Y-83736906D01*
X136503969Y-83461077D01*
X136449374Y-83393058D01*
X136533853Y-83347903D01*
X136644554Y-83257054D01*
X136735403Y-83146353D01*
X136802910Y-83020057D01*
X136844480Y-82883017D01*
X136858517Y-82740500D01*
X136858517Y-80835500D01*
X136844480Y-80692983D01*
X136802910Y-80555943D01*
X136735403Y-80429647D01*
X136663000Y-80341423D01*
X136663000Y-76506517D01*
X136736000Y-76506517D01*
X136878517Y-76492480D01*
X137015557Y-76450910D01*
X137141853Y-76383403D01*
X137252554Y-76292554D01*
X137343403Y-76181853D01*
X137410910Y-76055557D01*
X137452480Y-75918517D01*
X137466517Y-75776000D01*
X137466517Y-73576000D01*
X137452480Y-73433483D01*
X137426090Y-73346487D01*
X138165000Y-74085397D01*
X138165001Y-85680602D01*
X138004603Y-85841000D01*
X136505337Y-85841000D01*
X136368832Y-85674668D01*
X136195809Y-85532672D01*
X136309315Y-85437437D01*
X136503969Y-85194923D01*
X136647571Y-84919094D01*
X136718563Y-84700980D01*
X136598594Y-84455000D01*
X135255000Y-84455000D01*
X135255000Y-84475000D01*
X135001000Y-84475000D01*
X135001000Y-84455000D01*
X133657406Y-84455000D01*
X133537437Y-84700980D01*
X133608429Y-84919094D01*
X133752031Y-85194923D01*
X133946685Y-85437437D01*
X134060191Y-85532672D01*
X133887168Y-85674668D01*
X133677290Y-85930405D01*
X133521337Y-86222173D01*
X133425301Y-86538761D01*
X133392874Y-86868000D01*
X133425301Y-87197239D01*
X133521337Y-87513827D01*
X133677290Y-87805595D01*
X133887168Y-88061332D01*
X133968238Y-88127865D01*
X133209804Y-88886299D01*
X133053406Y-88729901D01*
X132803306Y-88562790D01*
X132525410Y-88447681D01*
X132230396Y-88389000D01*
X132005397Y-88389000D01*
X130059000Y-86442604D01*
X130059000Y-85818853D01*
X130111557Y-85802910D01*
X130237853Y-85735403D01*
X130348554Y-85644554D01*
X130439403Y-85533853D01*
X130506910Y-85407557D01*
X130548480Y-85270517D01*
X130562517Y-85128000D01*
X130562517Y-83528000D01*
X130548480Y-83385483D01*
X130506910Y-83248443D01*
X130439403Y-83122147D01*
X130348554Y-83011446D01*
X130237853Y-82920597D01*
X130111557Y-82853090D01*
X130060688Y-82837659D01*
X130140977Y-82757370D01*
X130024704Y-82641097D01*
X130268671Y-82569514D01*
X130389571Y-82314004D01*
X130458300Y-82039816D01*
X130472217Y-81757488D01*
X130430787Y-81477870D01*
X130335603Y-81211708D01*
X130268671Y-81086486D01*
X130024702Y-81014903D01*
X129211605Y-81828000D01*
X129225748Y-81842143D01*
X129046143Y-82021748D01*
X129032000Y-82007605D01*
X129017858Y-82021748D01*
X128838253Y-81842143D01*
X128852395Y-81828000D01*
X128039298Y-81014903D01*
X127795329Y-81086486D01*
X127674429Y-81341996D01*
X127605700Y-81616184D01*
X127591783Y-81898512D01*
X127633213Y-82178130D01*
X127728397Y-82444292D01*
X127795329Y-82569514D01*
X128039296Y-82641097D01*
X127923023Y-82757370D01*
X128003312Y-82837659D01*
X127952443Y-82853090D01*
X127826147Y-82920597D01*
X127715446Y-83011446D01*
X127624597Y-83122147D01*
X127557090Y-83248443D01*
X127515520Y-83385483D01*
X127501483Y-83528000D01*
X127501483Y-85128000D01*
X127515520Y-85270517D01*
X127557090Y-85407557D01*
X127624597Y-85533853D01*
X127715446Y-85644554D01*
X127826147Y-85735403D01*
X127952443Y-85802910D01*
X128005001Y-85818853D01*
X128005001Y-86817549D01*
X128000032Y-86868000D01*
X128005001Y-86918451D01*
X128019861Y-87069327D01*
X128078586Y-87262917D01*
X128173950Y-87441331D01*
X128302289Y-87597712D01*
X128341476Y-87629872D01*
X130553000Y-89841397D01*
X130553000Y-90066396D01*
X130611681Y-90361410D01*
X130726790Y-90639306D01*
X130893901Y-90889406D01*
X131106594Y-91102099D01*
X131356694Y-91269210D01*
X131634590Y-91384319D01*
X131929604Y-91443000D01*
X132230396Y-91443000D01*
X132525410Y-91384319D01*
X132803306Y-91269210D01*
X133053406Y-91102099D01*
X133212505Y-90943000D01*
X133582059Y-90943000D01*
X133632500Y-90947968D01*
X133682941Y-90943000D01*
X133682951Y-90943000D01*
X133833827Y-90928140D01*
X134027417Y-90869415D01*
X134205831Y-90774051D01*
X134362212Y-90645712D01*
X134394377Y-90606519D01*
X135818524Y-89182372D01*
X135857712Y-89150212D01*
X135986051Y-88993831D01*
X136081415Y-88815417D01*
X136140140Y-88621827D01*
X136155000Y-88470951D01*
X136155000Y-88470942D01*
X136159968Y-88420501D01*
X136155000Y-88370060D01*
X136155000Y-88236819D01*
X136368832Y-88061332D01*
X136505337Y-87895000D01*
X138379559Y-87895000D01*
X138430000Y-87899968D01*
X138480441Y-87895000D01*
X138480451Y-87895000D01*
X138631327Y-87880140D01*
X138824917Y-87821415D01*
X139003331Y-87726051D01*
X139159712Y-87597712D01*
X139191876Y-87558520D01*
X139617397Y-87133000D01*
X143459559Y-87133000D01*
X143510000Y-87137968D01*
X143560441Y-87133000D01*
X143560451Y-87133000D01*
X143711327Y-87118140D01*
X143904917Y-87059415D01*
X144083331Y-86964051D01*
X144239712Y-86835712D01*
X144271877Y-86796519D01*
X148772525Y-82295872D01*
X148811712Y-82263712D01*
X148940051Y-82107331D01*
X149035415Y-81928917D01*
X149094140Y-81735327D01*
X149109000Y-81584451D01*
X149109000Y-81584442D01*
X149113968Y-81534001D01*
X149109000Y-81483560D01*
X149109000Y-64820443D01*
X149113968Y-64770000D01*
X149109000Y-64719556D01*
X149109000Y-64719549D01*
X149094140Y-64568673D01*
X149035415Y-64375083D01*
X148940051Y-64196669D01*
X148878020Y-64121084D01*
X148843873Y-64079475D01*
X148843868Y-64079470D01*
X148811712Y-64040288D01*
X148772530Y-64008132D01*
X147065876Y-62301480D01*
X147033712Y-62262288D01*
X146877331Y-62133949D01*
X146698917Y-62038585D01*
X146505327Y-61979860D01*
X146354451Y-61965000D01*
X146354441Y-61965000D01*
X146304000Y-61960032D01*
X146253559Y-61965000D01*
X144697397Y-61965000D01*
X142759000Y-60026604D01*
X142759000Y-58607215D01*
X142956936Y-58409279D01*
X143059344Y-58256014D01*
X143076822Y-58285355D01*
X143271731Y-58501588D01*
X143505080Y-58675641D01*
X143767901Y-58800825D01*
X143915110Y-58845476D01*
X144145000Y-58724155D01*
X144145000Y-57531000D01*
X144125000Y-57531000D01*
X144125000Y-57277000D01*
X144145000Y-57277000D01*
X144145000Y-56083845D01*
X143915110Y-55962524D01*
X143767901Y-56007175D01*
X143505080Y-56132359D01*
X143271731Y-56306412D01*
X143076822Y-56522645D01*
X143059344Y-56551986D01*
X142956936Y-56398721D01*
X142737279Y-56179064D01*
X142478989Y-56006481D01*
X142191994Y-55887604D01*
X141887321Y-55827000D01*
X141576679Y-55827000D01*
X141272006Y-55887604D01*
X140985011Y-56006481D01*
X140726721Y-56179064D01*
X140507064Y-56398721D01*
X140334481Y-56657011D01*
X140215604Y-56944006D01*
X140155000Y-57248679D01*
X140155000Y-57559321D01*
X140215604Y-57863994D01*
X140334481Y-58150989D01*
X140507064Y-58409279D01*
X140705000Y-58607215D01*
X140705001Y-60401549D01*
X140700032Y-60452000D01*
X140705001Y-60502451D01*
X140719861Y-60653327D01*
X140778586Y-60846917D01*
X140873950Y-61025331D01*
X141002289Y-61181712D01*
X141041476Y-61213872D01*
X143510127Y-63682524D01*
X143542288Y-63721712D01*
X143698669Y-63850051D01*
X143844502Y-63928000D01*
X143871946Y-63942669D01*
X143877083Y-63945415D01*
X144070673Y-64004140D01*
X144221549Y-64019000D01*
X144221558Y-64019000D01*
X144271999Y-64023968D01*
X144322440Y-64019000D01*
X145878604Y-64019000D01*
X147055000Y-65195398D01*
X147055001Y-81108602D01*
X143084604Y-85079000D01*
X140219000Y-85079000D01*
X140219000Y-73710441D01*
X140223968Y-73660000D01*
X140219000Y-73609559D01*
X140219000Y-73609549D01*
X140204140Y-73458673D01*
X140145415Y-73265083D01*
X140050051Y-73086669D01*
X139921712Y-72930288D01*
X139882525Y-72898128D01*
X138305877Y-71321481D01*
X138273712Y-71282288D01*
X138117331Y-71153949D01*
X137938917Y-71058585D01*
X137745327Y-70999860D01*
X137594451Y-70985000D01*
X137594441Y-70985000D01*
X137544000Y-70980032D01*
X137493559Y-70985000D01*
X127013731Y-70985000D01*
X127084898Y-70937448D01*
X127325448Y-70696898D01*
X127514447Y-70414041D01*
X127642041Y-70106000D01*
X127799928Y-70106000D01*
X127812188Y-70230482D01*
X127848498Y-70350180D01*
X127907463Y-70460494D01*
X127986815Y-70557185D01*
X128083506Y-70636537D01*
X128193820Y-70695502D01*
X128313518Y-70731812D01*
X128438000Y-70744072D01*
X129152250Y-70741000D01*
X129311000Y-70582250D01*
X129311000Y-69483000D01*
X129565000Y-69483000D01*
X129565000Y-70582250D01*
X129723750Y-70741000D01*
X130438000Y-70744072D01*
X130562482Y-70731812D01*
X130682180Y-70695502D01*
X130792494Y-70636537D01*
X130889185Y-70557185D01*
X130968537Y-70460494D01*
X131027502Y-70350180D01*
X131063812Y-70230482D01*
X131076072Y-70106000D01*
X131073000Y-69641750D01*
X130914250Y-69483000D01*
X129565000Y-69483000D01*
X129311000Y-69483000D01*
X127961750Y-69483000D01*
X127803000Y-69641750D01*
X127799928Y-70106000D01*
X127642041Y-70106000D01*
X127644632Y-70099747D01*
X127711000Y-69766095D01*
X127711000Y-69425905D01*
X127693661Y-69338736D01*
X127882573Y-69149823D01*
X127961750Y-69229000D01*
X129311000Y-69229000D01*
X129311000Y-69209000D01*
X129565000Y-69209000D01*
X129565000Y-69229000D01*
X130914250Y-69229000D01*
X131073000Y-69070250D01*
X131076072Y-68606000D01*
X131063812Y-68481518D01*
X131027502Y-68361820D01*
X130986019Y-68284213D01*
X131045403Y-68211853D01*
X131112910Y-68085557D01*
X131113686Y-68083000D01*
X134007483Y-68083000D01*
X134007483Y-68956000D01*
X134021520Y-69098517D01*
X134063090Y-69235557D01*
X134130597Y-69361853D01*
X134221446Y-69472554D01*
X134332147Y-69563403D01*
X134458443Y-69630910D01*
X134595483Y-69672480D01*
X134738000Y-69686517D01*
X136738000Y-69686517D01*
X136880517Y-69672480D01*
X137017557Y-69630910D01*
X137143853Y-69563403D01*
X137254554Y-69472554D01*
X137345403Y-69361853D01*
X137412910Y-69235557D01*
X137454480Y-69098517D01*
X137468517Y-68956000D01*
X137468517Y-68083000D01*
X138139495Y-68083000D01*
X138298594Y-68242099D01*
X138548694Y-68409210D01*
X138826590Y-68524319D01*
X139121604Y-68583000D01*
X139422396Y-68583000D01*
X139717410Y-68524319D01*
X139995306Y-68409210D01*
X140180465Y-68285491D01*
X141213000Y-69318027D01*
X141213001Y-72677147D01*
X141160443Y-72693090D01*
X141034147Y-72760597D01*
X140923446Y-72851446D01*
X140832597Y-72962147D01*
X140765090Y-73088443D01*
X140723520Y-73225483D01*
X140709483Y-73368000D01*
X140709483Y-74968000D01*
X140723520Y-75110517D01*
X140765090Y-75247557D01*
X140832597Y-75373853D01*
X140923446Y-75484554D01*
X141034147Y-75575403D01*
X141160443Y-75642910D01*
X141297483Y-75684480D01*
X141440000Y-75698517D01*
X143040000Y-75698517D01*
X143182517Y-75684480D01*
X143319557Y-75642910D01*
X143445853Y-75575403D01*
X143556554Y-75484554D01*
X143647403Y-75373853D01*
X143714910Y-75247557D01*
X143730341Y-75196688D01*
X143810630Y-75276977D01*
X143926903Y-75160704D01*
X143998486Y-75404671D01*
X144253996Y-75525571D01*
X144528184Y-75594300D01*
X144810512Y-75608217D01*
X145090130Y-75566787D01*
X145356292Y-75471603D01*
X145481514Y-75404671D01*
X145553097Y-75160702D01*
X144740000Y-74347605D01*
X144725858Y-74361748D01*
X144546253Y-74182143D01*
X144560395Y-74168000D01*
X144919605Y-74168000D01*
X145732702Y-74981097D01*
X145976671Y-74909514D01*
X146097571Y-74654004D01*
X146166300Y-74379816D01*
X146180217Y-74097488D01*
X146138787Y-73817870D01*
X146043603Y-73551708D01*
X145976671Y-73426486D01*
X145732702Y-73354903D01*
X144919605Y-74168000D01*
X144560395Y-74168000D01*
X144546253Y-74153858D01*
X144725858Y-73974253D01*
X144740000Y-73988395D01*
X145553097Y-73175298D01*
X145481514Y-72931329D01*
X145226004Y-72810429D01*
X144951816Y-72741700D01*
X144669488Y-72727783D01*
X144389870Y-72769213D01*
X144123708Y-72864397D01*
X143998486Y-72931329D01*
X143926903Y-73175296D01*
X143810630Y-73059023D01*
X143730341Y-73139312D01*
X143714910Y-73088443D01*
X143647403Y-72962147D01*
X143556554Y-72851446D01*
X143445853Y-72760597D01*
X143319557Y-72693090D01*
X143267000Y-72677147D01*
X143267000Y-68943070D01*
X143271968Y-68892629D01*
X143267000Y-68842188D01*
X143267000Y-68842179D01*
X143252140Y-68691303D01*
X143193415Y-68497713D01*
X143098051Y-68319299D01*
X142969712Y-68162918D01*
X142930525Y-68130758D01*
X142848469Y-68048702D01*
X143458903Y-68048702D01*
X143530486Y-68292671D01*
X143785996Y-68413571D01*
X144060184Y-68482300D01*
X144342512Y-68496217D01*
X144622130Y-68454787D01*
X144888292Y-68359603D01*
X145013514Y-68292671D01*
X145085097Y-68048702D01*
X144272000Y-67235605D01*
X143458903Y-68048702D01*
X142848469Y-68048702D01*
X141926279Y-67126512D01*
X142831783Y-67126512D01*
X142873213Y-67406130D01*
X142968397Y-67672292D01*
X143035329Y-67797514D01*
X143279298Y-67869097D01*
X144092395Y-67056000D01*
X144451605Y-67056000D01*
X145264702Y-67869097D01*
X145508671Y-67797514D01*
X145629571Y-67542004D01*
X145698300Y-67267816D01*
X145712217Y-66985488D01*
X145670787Y-66705870D01*
X145575603Y-66439708D01*
X145508671Y-66314486D01*
X145264702Y-66242903D01*
X144451605Y-67056000D01*
X144092395Y-67056000D01*
X143279298Y-66242903D01*
X143035329Y-66314486D01*
X142914429Y-66569996D01*
X142845700Y-66844184D01*
X142831783Y-67126512D01*
X141926279Y-67126512D01*
X141165247Y-66365481D01*
X141133082Y-66326288D01*
X140976701Y-66197949D01*
X140798287Y-66102585D01*
X140668776Y-66063298D01*
X143458903Y-66063298D01*
X144272000Y-66876395D01*
X145085097Y-66063298D01*
X145013514Y-65819329D01*
X144758004Y-65698429D01*
X144483816Y-65629700D01*
X144201488Y-65615783D01*
X143921870Y-65657213D01*
X143655708Y-65752397D01*
X143530486Y-65819329D01*
X143458903Y-66063298D01*
X140668776Y-66063298D01*
X140604697Y-66043860D01*
X140453821Y-66029000D01*
X140453811Y-66029000D01*
X140403370Y-66024032D01*
X140399881Y-66024376D01*
X140245406Y-65869901D01*
X139995306Y-65702790D01*
X139717410Y-65587681D01*
X139422396Y-65529000D01*
X139121604Y-65529000D01*
X138826590Y-65587681D01*
X138548694Y-65702790D01*
X138298594Y-65869901D01*
X138139495Y-66029000D01*
X137468517Y-66029000D01*
X137468517Y-65156000D01*
X137454480Y-65013483D01*
X137412910Y-64876443D01*
X137345403Y-64750147D01*
X137254554Y-64639446D01*
X137143853Y-64548597D01*
X137017557Y-64481090D01*
X136880517Y-64439520D01*
X136738000Y-64425483D01*
X136663000Y-64425483D01*
X136663000Y-60568505D01*
X136822099Y-60409406D01*
X136989210Y-60159306D01*
X137104319Y-59881410D01*
X137163000Y-59586396D01*
X137163000Y-59285604D01*
X137104319Y-58990590D01*
X136989210Y-58712694D01*
X136822099Y-58462594D01*
X136663000Y-58303495D01*
X136663000Y-54222825D01*
X136736898Y-54173448D01*
X136977448Y-53932898D01*
X137166447Y-53650041D01*
X137296632Y-53335747D01*
X137363000Y-53002095D01*
X137363000Y-52661905D01*
X137296632Y-52328253D01*
X137166447Y-52013959D01*
X136977448Y-51731102D01*
X136736898Y-51490552D01*
X136480152Y-51319000D01*
X136734604Y-51319000D01*
X139446127Y-54030524D01*
X139478288Y-54069712D01*
X139634669Y-54198051D01*
X139813083Y-54293415D01*
X140006673Y-54352140D01*
X140157549Y-54367000D01*
X140157559Y-54367000D01*
X140208000Y-54371968D01*
X140258441Y-54367000D01*
X140798604Y-54367000D01*
X141986128Y-55554524D01*
X142018288Y-55593712D01*
X142174669Y-55722051D01*
X142330043Y-55805100D01*
X142347946Y-55814669D01*
X142353083Y-55817415D01*
X142546673Y-55876140D01*
X142697549Y-55891000D01*
X142697558Y-55891000D01*
X142747999Y-55895968D01*
X142798440Y-55891000D01*
X145370604Y-55891000D01*
X145732694Y-56253091D01*
X145587064Y-56398721D01*
X145484656Y-56551986D01*
X145467178Y-56522645D01*
X145272269Y-56306412D01*
X145038920Y-56132359D01*
X144776099Y-56007175D01*
X144628890Y-55962524D01*
X144399000Y-56083845D01*
X144399000Y-57277000D01*
X144419000Y-57277000D01*
X144419000Y-57531000D01*
X144399000Y-57531000D01*
X144399000Y-58724155D01*
X144628890Y-58845476D01*
X144776099Y-58800825D01*
X145038920Y-58675641D01*
X145272269Y-58501588D01*
X145467178Y-58285355D01*
X145484656Y-58256014D01*
X145587064Y-58409279D01*
X145806721Y-58628936D01*
X146065011Y-58801519D01*
X146352006Y-58920396D01*
X146656679Y-58981000D01*
X146967321Y-58981000D01*
X147271994Y-58920396D01*
X147558989Y-58801519D01*
X147817279Y-58628936D01*
X148036936Y-58409279D01*
X148082000Y-58341836D01*
X148127064Y-58409279D01*
X148346721Y-58628936D01*
X148605011Y-58801519D01*
X148892006Y-58920396D01*
X149196679Y-58981000D01*
X149507321Y-58981000D01*
X149811994Y-58920396D01*
X150098989Y-58801519D01*
X150357279Y-58628936D01*
X150396896Y-58589319D01*
X150434597Y-58659853D01*
X150525446Y-58770554D01*
X150636147Y-58861403D01*
X150762443Y-58928910D01*
X150899483Y-58970480D01*
X151042000Y-58984517D01*
X152742000Y-58984517D01*
X152884517Y-58970480D01*
X153021557Y-58928910D01*
X153147853Y-58861403D01*
X153258554Y-58770554D01*
X153349403Y-58659853D01*
X153416910Y-58533557D01*
X153458480Y-58396517D01*
X153472517Y-58254000D01*
X153472517Y-57275879D01*
X155630525Y-55117872D01*
X155669712Y-55085712D01*
X155798051Y-54929331D01*
X155893415Y-54750917D01*
X155952140Y-54557327D01*
X155967000Y-54406451D01*
X155967000Y-54406441D01*
X155971968Y-54356000D01*
X155967000Y-54305559D01*
X155967000Y-43738441D01*
X155971968Y-43688000D01*
X155967000Y-43637559D01*
X155967000Y-43637549D01*
X155952140Y-43486673D01*
X155893415Y-43293083D01*
X155798051Y-43114669D01*
X155669712Y-42958288D01*
X155630525Y-42926128D01*
X152653877Y-39949481D01*
X152621712Y-39910288D01*
X152465331Y-39781949D01*
X152286917Y-39686585D01*
X152093327Y-39627860D01*
X151942451Y-39613000D01*
X151942441Y-39613000D01*
X151892000Y-39608032D01*
X151841559Y-39613000D01*
X139581525Y-39613000D01*
X139706447Y-39426041D01*
X139836632Y-39111747D01*
X139903000Y-38778095D01*
X139903000Y-38437905D01*
X139836632Y-38104253D01*
X139706447Y-37789959D01*
X139517448Y-37507102D01*
X139276898Y-37266552D01*
X138994041Y-37077553D01*
X138957657Y-37062482D01*
X139129410Y-37028319D01*
X139407306Y-36913210D01*
X139657406Y-36746099D01*
X139870099Y-36533406D01*
X139954000Y-36407839D01*
X140037901Y-36533406D01*
X140250594Y-36746099D01*
X140500694Y-36913210D01*
X140778590Y-37028319D01*
X141073604Y-37087000D01*
X141374396Y-37087000D01*
X141669410Y-37028319D01*
X141947306Y-36913210D01*
X142197406Y-36746099D01*
X142294265Y-36649240D01*
X142356597Y-36765853D01*
X142447446Y-36876554D01*
X142558147Y-36967403D01*
X142684443Y-37034910D01*
X142821483Y-37076480D01*
X142964000Y-37090517D01*
X144564000Y-37090517D01*
X144706517Y-37076480D01*
X144843557Y-37034910D01*
X144969853Y-36967403D01*
X145080554Y-36876554D01*
X145171403Y-36765853D01*
X145209054Y-36695413D01*
X146976192Y-36695413D01*
X147071956Y-36959814D01*
X147361571Y-37100704D01*
X147673108Y-37182384D01*
X147994595Y-37201718D01*
X148313675Y-37157961D01*
X148618088Y-37052795D01*
X148792044Y-36959814D01*
X148887808Y-36695413D01*
X153476192Y-36695413D01*
X153571956Y-36959814D01*
X153861571Y-37100704D01*
X154173108Y-37182384D01*
X154494595Y-37201718D01*
X154813675Y-37157961D01*
X155118088Y-37052795D01*
X155292044Y-36959814D01*
X155387808Y-36695413D01*
X154432000Y-35739605D01*
X153476192Y-36695413D01*
X148887808Y-36695413D01*
X147932000Y-35739605D01*
X146976192Y-36695413D01*
X145209054Y-36695413D01*
X145238910Y-36639557D01*
X145280480Y-36502517D01*
X145294517Y-36360000D01*
X145294517Y-35622595D01*
X146290282Y-35622595D01*
X146334039Y-35941675D01*
X146439205Y-36246088D01*
X146532186Y-36420044D01*
X146796587Y-36515808D01*
X147752395Y-35560000D01*
X148111605Y-35560000D01*
X149067413Y-36515808D01*
X149331814Y-36420044D01*
X149472704Y-36130429D01*
X149554384Y-35818892D01*
X149566189Y-35622595D01*
X152790282Y-35622595D01*
X152834039Y-35941675D01*
X152939205Y-36246088D01*
X153032186Y-36420044D01*
X153296587Y-36515808D01*
X154252395Y-35560000D01*
X154611605Y-35560000D01*
X155567413Y-36515808D01*
X155831814Y-36420044D01*
X155972704Y-36130429D01*
X156054384Y-35818892D01*
X156073718Y-35497405D01*
X156029961Y-35178325D01*
X155924795Y-34873912D01*
X155831814Y-34699956D01*
X155567413Y-34604192D01*
X154611605Y-35560000D01*
X154252395Y-35560000D01*
X153296587Y-34604192D01*
X153032186Y-34699956D01*
X152891296Y-34989571D01*
X152809616Y-35301108D01*
X152790282Y-35622595D01*
X149566189Y-35622595D01*
X149573718Y-35497405D01*
X149529961Y-35178325D01*
X149424795Y-34873912D01*
X149331814Y-34699956D01*
X149067413Y-34604192D01*
X148111605Y-35560000D01*
X147752395Y-35560000D01*
X146796587Y-34604192D01*
X146532186Y-34699956D01*
X146391296Y-34989571D01*
X146309616Y-35301108D01*
X146290282Y-35622595D01*
X145294517Y-35622595D01*
X145294517Y-34760000D01*
X145280480Y-34617483D01*
X145238910Y-34480443D01*
X145209055Y-34424587D01*
X146976192Y-34424587D01*
X147932000Y-35380395D01*
X148887808Y-34424587D01*
X153476192Y-34424587D01*
X154432000Y-35380395D01*
X155387808Y-34424587D01*
X155292044Y-34160186D01*
X155002429Y-34019296D01*
X154690892Y-33937616D01*
X154369405Y-33918282D01*
X154050325Y-33962039D01*
X153745912Y-34067205D01*
X153571956Y-34160186D01*
X153476192Y-34424587D01*
X148887808Y-34424587D01*
X148792044Y-34160186D01*
X148502429Y-34019296D01*
X148190892Y-33937616D01*
X147869405Y-33918282D01*
X147550325Y-33962039D01*
X147245912Y-34067205D01*
X147071956Y-34160186D01*
X146976192Y-34424587D01*
X145209055Y-34424587D01*
X145171403Y-34354147D01*
X145080554Y-34243446D01*
X144969853Y-34152597D01*
X144843557Y-34085090D01*
X144791000Y-34069147D01*
X144791000Y-32120505D01*
X144896505Y-32015000D01*
X146493066Y-32015000D01*
X146590552Y-32160898D01*
X146831102Y-32401448D01*
X147113959Y-32590447D01*
X147428253Y-32720632D01*
X147761905Y-32787000D01*
X148102095Y-32787000D01*
X148435747Y-32720632D01*
X148750041Y-32590447D01*
X149032898Y-32401448D01*
X149273448Y-32160898D01*
X149322825Y-32087000D01*
X153041175Y-32087000D01*
X153090552Y-32160898D01*
X153331102Y-32401448D01*
X153613959Y-32590447D01*
X153928253Y-32720632D01*
X154261905Y-32787000D01*
X154602095Y-32787000D01*
X154935747Y-32720632D01*
X155250041Y-32590447D01*
X155532898Y-32401448D01*
X155773448Y-32160898D01*
X155962447Y-31878041D01*
X156092632Y-31563747D01*
X156159000Y-31230095D01*
X156159000Y-30889905D01*
X156092632Y-30556253D01*
X155962447Y-30241959D01*
X155773448Y-29959102D01*
X155532898Y-29718552D01*
X155250041Y-29529553D01*
X154935747Y-29399368D01*
X154602095Y-29333000D01*
X154261905Y-29333000D01*
X153928253Y-29399368D01*
X153613959Y-29529553D01*
X153331102Y-29718552D01*
X153090552Y-29959102D01*
X153041175Y-30033000D01*
X149322825Y-30033000D01*
X149273448Y-29959102D01*
X149032898Y-29718552D01*
X148750041Y-29529553D01*
X148435747Y-29399368D01*
X148102095Y-29333000D01*
X147761905Y-29333000D01*
X147428253Y-29399368D01*
X147113959Y-29529553D01*
X146831102Y-29718552D01*
X146590552Y-29959102D01*
X146589284Y-29961000D01*
X144896505Y-29961000D01*
X144737406Y-29801901D01*
X144487306Y-29634790D01*
X144209410Y-29519681D01*
X143914396Y-29461000D01*
X143613604Y-29461000D01*
X143318590Y-29519681D01*
X143040694Y-29634790D01*
X142790594Y-29801901D01*
X142631495Y-29961000D01*
X142157397Y-29961000D01*
X133857877Y-21661481D01*
X133825712Y-21622288D01*
X133669331Y-21493949D01*
X133490917Y-21398585D01*
X133297327Y-21339860D01*
X133146451Y-21325000D01*
X133146441Y-21325000D01*
X133096000Y-21320032D01*
X133045559Y-21325000D01*
X111810440Y-21325000D01*
X111759999Y-21320032D01*
X111709558Y-21325000D01*
X111709549Y-21325000D01*
X111558673Y-21339860D01*
X111365083Y-21398585D01*
X111186669Y-21493949D01*
X111030288Y-21622288D01*
X110998128Y-21661475D01*
X104465476Y-28194128D01*
X104426289Y-28226288D01*
X104394129Y-28265475D01*
X104394128Y-28265476D01*
X104297950Y-28382669D01*
X104202586Y-28561083D01*
X104143861Y-28754673D01*
X104124032Y-28956000D01*
X102489000Y-28956000D01*
X102489000Y-19939000D01*
X103121070Y-19939000D01*
X103093840Y-19979752D01*
G37*
X103093840Y-19979752D02*
X102918426Y-20403239D01*
X102829000Y-20852811D01*
X102829000Y-21311189D01*
X102918426Y-21760761D01*
X103093840Y-22184248D01*
X103348501Y-22565376D01*
X103672624Y-22889499D01*
X104053752Y-23144160D01*
X104477239Y-23319574D01*
X104926811Y-23409000D01*
X105385189Y-23409000D01*
X105834761Y-23319574D01*
X106258248Y-23144160D01*
X106639376Y-22889499D01*
X106963499Y-22565376D01*
X107218160Y-22184248D01*
X107393574Y-21760761D01*
X107483000Y-21311189D01*
X107483000Y-20852811D01*
X107393574Y-20403239D01*
X107218160Y-19979752D01*
X107190930Y-19939000D01*
X155953070Y-19939000D01*
X155925840Y-19979752D01*
X155750426Y-20403239D01*
X155661000Y-20852811D01*
X155661000Y-21311189D01*
X155750426Y-21760761D01*
X155925840Y-22184248D01*
X156180501Y-22565376D01*
X156504624Y-22889499D01*
X156885752Y-23144160D01*
X157309239Y-23319574D01*
X157758811Y-23409000D01*
X158217189Y-23409000D01*
X158666761Y-23319574D01*
X159090248Y-23144160D01*
X159471376Y-22889499D01*
X159795499Y-22565376D01*
X160050160Y-22184248D01*
X160225574Y-21760761D01*
X160315000Y-21311189D01*
X160315000Y-20852811D01*
X160225574Y-20403239D01*
X160050160Y-19979752D01*
X160022930Y-19939000D01*
X160655000Y-19939000D01*
X160655000Y-97409000D01*
X102489000Y-97409000D01*
X102489000Y-94258811D01*
X102829000Y-94258811D01*
X102829000Y-94717189D01*
X102918426Y-95166761D01*
X103093840Y-95590248D01*
X103348501Y-95971376D01*
X103672624Y-96295499D01*
X104053752Y-96550160D01*
X104477239Y-96725574D01*
X104926811Y-96815000D01*
X105385189Y-96815000D01*
X105834761Y-96725574D01*
X106258248Y-96550160D01*
X106639376Y-96295499D01*
X106963499Y-95971376D01*
X107218160Y-95590248D01*
X107393574Y-95166761D01*
X107483000Y-94717189D01*
X107483000Y-94258811D01*
X155915000Y-94258811D01*
X155915000Y-94717189D01*
X156004426Y-95166761D01*
X156179840Y-95590248D01*
X156434501Y-95971376D01*
X156758624Y-96295499D01*
X157139752Y-96550160D01*
X157563239Y-96725574D01*
X158012811Y-96815000D01*
X158471189Y-96815000D01*
X158920761Y-96725574D01*
X159344248Y-96550160D01*
X159725376Y-96295499D01*
X160049499Y-95971376D01*
X160304160Y-95590248D01*
X160479574Y-95166761D01*
X160569000Y-94717189D01*
X160569000Y-94258811D01*
X160479574Y-93809239D01*
X160304160Y-93385752D01*
X160049499Y-93004624D01*
X159725376Y-92680501D01*
X159344248Y-92425840D01*
X158920761Y-92250426D01*
X158471189Y-92161000D01*
X158012811Y-92161000D01*
X157563239Y-92250426D01*
X157139752Y-92425840D01*
X156758624Y-92680501D01*
X156434501Y-93004624D01*
X156179840Y-93385752D01*
X156004426Y-93809239D01*
X155915000Y-94258811D01*
X107483000Y-94258811D01*
X107393574Y-93809239D01*
X107218160Y-93385752D01*
X106963499Y-93004624D01*
X106639376Y-92680501D01*
X106258248Y-92425840D01*
X105834761Y-92250426D01*
X105385189Y-92161000D01*
X104926811Y-92161000D01*
X104477239Y-92250426D01*
X104053752Y-92425840D01*
X103672624Y-92680501D01*
X103348501Y-93004624D01*
X103093840Y-93385752D01*
X102918426Y-93809239D01*
X102829000Y-94258811D01*
X102489000Y-94258811D01*
X102489000Y-90816000D01*
X116825928Y-90816000D01*
X116838188Y-90940482D01*
X116874498Y-91060180D01*
X116933463Y-91170494D01*
X117012815Y-91267185D01*
X117109506Y-91346537D01*
X117219820Y-91405502D01*
X117339518Y-91441812D01*
X117464000Y-91454072D01*
X118078250Y-91451000D01*
X118237000Y-91292250D01*
X118237000Y-90043000D01*
X116987750Y-90043000D01*
X116829000Y-90201750D01*
X116825928Y-90816000D01*
X102489000Y-90816000D01*
X102489000Y-89384000D01*
X109113928Y-89384000D01*
X109126188Y-89508482D01*
X109162498Y-89628180D01*
X109221463Y-89738494D01*
X109300815Y-89835185D01*
X109397506Y-89914537D01*
X109507820Y-89973502D01*
X109627518Y-90009812D01*
X109752000Y-90022072D01*
X110966250Y-90019000D01*
X111125000Y-89860250D01*
X111125000Y-88011000D01*
X111379000Y-88011000D01*
X111379000Y-89860250D01*
X111537750Y-90019000D01*
X112752000Y-90022072D01*
X112876482Y-90009812D01*
X112996180Y-89973502D01*
X113106494Y-89914537D01*
X113203185Y-89835185D01*
X113282537Y-89738494D01*
X113341502Y-89628180D01*
X113377812Y-89508482D01*
X113390072Y-89384000D01*
X113389141Y-89016000D01*
X116825928Y-89016000D01*
X116829000Y-89630250D01*
X116987750Y-89789000D01*
X118237000Y-89789000D01*
X118237000Y-88539750D01*
X118491000Y-88539750D01*
X118491000Y-89789000D01*
X118511000Y-89789000D01*
X118511000Y-90043000D01*
X118491000Y-90043000D01*
X118491000Y-91292250D01*
X118649750Y-91451000D01*
X119264000Y-91454072D01*
X119388482Y-91441812D01*
X119508180Y-91405502D01*
X119618494Y-91346537D01*
X119715185Y-91267185D01*
X119794537Y-91170494D01*
X119816493Y-91129418D01*
X119866848Y-91179773D01*
X120133327Y-91357828D01*
X120429422Y-91480475D01*
X120743755Y-91543000D01*
X121064245Y-91543000D01*
X121378578Y-91480475D01*
X121674673Y-91357828D01*
X121941152Y-91179773D01*
X122167773Y-90953152D01*
X122174556Y-90943000D01*
X123327495Y-90943000D01*
X123486594Y-91102099D01*
X123736694Y-91269210D01*
X124014590Y-91384319D01*
X124309604Y-91443000D01*
X124610396Y-91443000D01*
X124905410Y-91384319D01*
X125183306Y-91269210D01*
X125433406Y-91102099D01*
X125646099Y-90889406D01*
X125813210Y-90639306D01*
X125928319Y-90361410D01*
X125987000Y-90066396D01*
X125987000Y-89765604D01*
X125928319Y-89470590D01*
X125813210Y-89192694D01*
X125646099Y-88942594D01*
X125433406Y-88729901D01*
X125183306Y-88562790D01*
X124905410Y-88447681D01*
X124610396Y-88389000D01*
X124309604Y-88389000D01*
X124014590Y-88447681D01*
X123736694Y-88562790D01*
X123486594Y-88729901D01*
X123327495Y-88889000D01*
X122174556Y-88889000D01*
X122167773Y-88878848D01*
X121941152Y-88652227D01*
X121674673Y-88474172D01*
X121378578Y-88351525D01*
X121064245Y-88289000D01*
X120743755Y-88289000D01*
X120429422Y-88351525D01*
X120133327Y-88474172D01*
X119866848Y-88652227D01*
X119816493Y-88702582D01*
X119794537Y-88661506D01*
X119715185Y-88564815D01*
X119618494Y-88485463D01*
X119508180Y-88426498D01*
X119388482Y-88390188D01*
X119264000Y-88377928D01*
X118649750Y-88381000D01*
X118491000Y-88539750D01*
X118237000Y-88539750D01*
X118078250Y-88381000D01*
X117464000Y-88377928D01*
X117339518Y-88390188D01*
X117219820Y-88426498D01*
X117109506Y-88485463D01*
X117012815Y-88564815D01*
X116933463Y-88661506D01*
X116874498Y-88771820D01*
X116838188Y-88891518D01*
X116825928Y-89016000D01*
X113389141Y-89016000D01*
X113387000Y-88169750D01*
X113228250Y-88011000D01*
X111379000Y-88011000D01*
X111125000Y-88011000D01*
X109275750Y-88011000D01*
X109117000Y-88169750D01*
X109113928Y-89384000D01*
X102489000Y-89384000D01*
X102489000Y-86384000D01*
X109113928Y-86384000D01*
X109117000Y-87598250D01*
X109275750Y-87757000D01*
X111125000Y-87757000D01*
X111125000Y-85907750D01*
X111379000Y-85907750D01*
X111379000Y-87757000D01*
X113228250Y-87757000D01*
X113387000Y-87598250D01*
X113390072Y-86384000D01*
X113377812Y-86259518D01*
X113341502Y-86139820D01*
X113282537Y-86029506D01*
X113203185Y-85932815D01*
X113106494Y-85853463D01*
X112996180Y-85794498D01*
X112876482Y-85758188D01*
X112752000Y-85745928D01*
X111537750Y-85749000D01*
X111379000Y-85907750D01*
X111125000Y-85907750D01*
X110966250Y-85749000D01*
X109752000Y-85745928D01*
X109627518Y-85758188D01*
X109507820Y-85794498D01*
X109397506Y-85853463D01*
X109300815Y-85932815D01*
X109221463Y-86029506D01*
X109162498Y-86139820D01*
X109126188Y-86259518D01*
X109113928Y-86384000D01*
X102489000Y-86384000D01*
X102489000Y-85280702D01*
X120090903Y-85280702D01*
X120162486Y-85524671D01*
X120417996Y-85645571D01*
X120692184Y-85714300D01*
X120974512Y-85728217D01*
X121254130Y-85686787D01*
X121520292Y-85591603D01*
X121645514Y-85524671D01*
X121717097Y-85280702D01*
X120904000Y-84467605D01*
X120090903Y-85280702D01*
X102489000Y-85280702D01*
X102489000Y-28956000D01*
X104124032Y-28956000D01*
X104129001Y-29006451D01*
X104129000Y-70053559D01*
X104124032Y-70104000D01*
X104129000Y-70154441D01*
X104129000Y-70154450D01*
X104143860Y-70305326D01*
X104202585Y-70498916D01*
X104297949Y-70677331D01*
X104426288Y-70833712D01*
X104465481Y-70865877D01*
X107442128Y-73842525D01*
X107474288Y-73881712D01*
X107630669Y-74010051D01*
X107809083Y-74105415D01*
X108002673Y-74164140D01*
X108153549Y-74179000D01*
X108153559Y-74179000D01*
X108204000Y-74183968D01*
X108254441Y-74179000D01*
X112217559Y-74179000D01*
X112268000Y-74183968D01*
X112318441Y-74179000D01*
X112318451Y-74179000D01*
X112469327Y-74164140D01*
X112662917Y-74105415D01*
X112841331Y-74010051D01*
X112997712Y-73881712D01*
X113029877Y-73842519D01*
X113649884Y-73222512D01*
X117471783Y-73222512D01*
X117513213Y-73502130D01*
X117608397Y-73768292D01*
X117675329Y-73893514D01*
X117919298Y-73965097D01*
X118732395Y-73152000D01*
X117919298Y-72338903D01*
X117675329Y-72410486D01*
X117554429Y-72665996D01*
X117485700Y-72940184D01*
X117471783Y-73222512D01*
X113649884Y-73222512D01*
X114733397Y-72139000D01*
X114958396Y-72139000D01*
X115253410Y-72080319D01*
X115531306Y-71965210D01*
X115781406Y-71798099D01*
X115994099Y-71585406D01*
X116161210Y-71335306D01*
X116276319Y-71057410D01*
X116335000Y-70762396D01*
X116335000Y-70461604D01*
X116276319Y-70166590D01*
X116161210Y-69888694D01*
X115994099Y-69638594D01*
X115781406Y-69425901D01*
X115531306Y-69258790D01*
X115253410Y-69143681D01*
X114958396Y-69085000D01*
X114657604Y-69085000D01*
X114362590Y-69143681D01*
X114084694Y-69258790D01*
X113834594Y-69425901D01*
X113621901Y-69638594D01*
X113454790Y-69888694D01*
X113339681Y-70166590D01*
X113281000Y-70461604D01*
X113281000Y-70686603D01*
X111842604Y-72125000D01*
X110028780Y-72125000D01*
X110253410Y-72080319D01*
X110531306Y-71965210D01*
X110781406Y-71798099D01*
X110994099Y-71585406D01*
X111161210Y-71335306D01*
X111276319Y-71057410D01*
X111335000Y-70762396D01*
X111335000Y-70461604D01*
X111276319Y-70166590D01*
X111161210Y-69888694D01*
X110994099Y-69638594D01*
X110835000Y-69479495D01*
X110835000Y-64875027D01*
X112845037Y-64875027D01*
X112943036Y-65151978D01*
X113093183Y-65404488D01*
X113289707Y-65622854D01*
X113525056Y-65798684D01*
X113790186Y-65925222D01*
X113940974Y-65970958D01*
X114173000Y-65849817D01*
X114173000Y-64643000D01*
X112965536Y-64643000D01*
X112845037Y-64875027D01*
X110835000Y-64875027D01*
X110835000Y-64353396D01*
X112185397Y-63003000D01*
X113077552Y-63003000D01*
X113286052Y-63211500D01*
X113427633Y-63306101D01*
X113289707Y-63409146D01*
X113093183Y-63627512D01*
X112943036Y-63880022D01*
X112845037Y-64156973D01*
X112965536Y-64389000D01*
X114173000Y-64389000D01*
X114173000Y-64369000D01*
X114427000Y-64369000D01*
X114427000Y-64389000D01*
X114447000Y-64389000D01*
X114447000Y-64643000D01*
X114427000Y-64643000D01*
X114427000Y-65849817D01*
X114659026Y-65970958D01*
X114809814Y-65925222D01*
X115074944Y-65798684D01*
X115310293Y-65622854D01*
X115506817Y-65404488D01*
X115513340Y-65393518D01*
X115604500Y-65529948D01*
X115813000Y-65738448D01*
X115813001Y-66756949D01*
X115687368Y-67060253D01*
X115621000Y-67393905D01*
X115621000Y-67734095D01*
X115687368Y-68067747D01*
X115817553Y-68382041D01*
X116006552Y-68664898D01*
X116247102Y-68905448D01*
X116529959Y-69094447D01*
X116844253Y-69224632D01*
X117177905Y-69291000D01*
X117518095Y-69291000D01*
X117851747Y-69224632D01*
X118166041Y-69094447D01*
X118448898Y-68905448D01*
X118689448Y-68664898D01*
X118878447Y-68382041D01*
X119008632Y-68067747D01*
X119075000Y-67734095D01*
X119075000Y-67393905D01*
X119008632Y-67060253D01*
X118878447Y-66745959D01*
X118689448Y-66463102D01*
X118448898Y-66222552D01*
X118166041Y-66033553D01*
X117867000Y-65909686D01*
X117867000Y-65738448D01*
X118075500Y-65529948D01*
X118110000Y-65478315D01*
X118144500Y-65529948D01*
X118366052Y-65751500D01*
X118626568Y-65925571D01*
X118916039Y-66045474D01*
X119223340Y-66106600D01*
X119536660Y-66106600D01*
X119843961Y-66045474D01*
X120133432Y-65925571D01*
X120393948Y-65751500D01*
X120597824Y-65547624D01*
X120601314Y-65547968D01*
X120651755Y-65543000D01*
X125598603Y-65543000D01*
X120721476Y-70420128D01*
X120682289Y-70452288D01*
X120650129Y-70491475D01*
X120650128Y-70491476D01*
X120553950Y-70608669D01*
X120458586Y-70787083D01*
X120399861Y-70980673D01*
X120380032Y-71182000D01*
X120385001Y-71232451D01*
X120385001Y-71661147D01*
X120332443Y-71677090D01*
X120206147Y-71744597D01*
X120095446Y-71835446D01*
X120004597Y-71946147D01*
X119937090Y-72072443D01*
X119921659Y-72123312D01*
X119841370Y-72043023D01*
X119725097Y-72159296D01*
X119653514Y-71915329D01*
X119398004Y-71794429D01*
X119123816Y-71725700D01*
X118841488Y-71711783D01*
X118561870Y-71753213D01*
X118295708Y-71848397D01*
X118170486Y-71915329D01*
X118098903Y-72159298D01*
X118912000Y-72972395D01*
X118926143Y-72958253D01*
X119105748Y-73137858D01*
X119091605Y-73152000D01*
X119105748Y-73166143D01*
X118926143Y-73345748D01*
X118912000Y-73331605D01*
X118098903Y-74144702D01*
X118170486Y-74388671D01*
X118425996Y-74509571D01*
X118700184Y-74578300D01*
X118982512Y-74592217D01*
X119262130Y-74550787D01*
X119528292Y-74455603D01*
X119653514Y-74388671D01*
X119725097Y-74144704D01*
X119841370Y-74260977D01*
X119921659Y-74180688D01*
X119937090Y-74231557D01*
X120004597Y-74357853D01*
X120095446Y-74468554D01*
X120206147Y-74559403D01*
X120332443Y-74626910D01*
X120458011Y-74665000D01*
X114683728Y-74665000D01*
X114621723Y-74602995D01*
X114392096Y-74449563D01*
X114136948Y-74343878D01*
X113866085Y-74290000D01*
X113589915Y-74290000D01*
X113319052Y-74343878D01*
X113063904Y-74449563D01*
X112834277Y-74602995D01*
X112728000Y-74709272D01*
X112621723Y-74602995D01*
X112392096Y-74449563D01*
X112136948Y-74343878D01*
X111866085Y-74290000D01*
X111589915Y-74290000D01*
X111319052Y-74343878D01*
X111063904Y-74449563D01*
X110943707Y-74529876D01*
X110919554Y-74500446D01*
X110808853Y-74409597D01*
X110682557Y-74342090D01*
X110545517Y-74300520D01*
X110403000Y-74286483D01*
X109053000Y-74286483D01*
X108910483Y-74300520D01*
X108773443Y-74342090D01*
X108647147Y-74409597D01*
X108536446Y-74500446D01*
X108445597Y-74611147D01*
X108378090Y-74737443D01*
X108336520Y-74874483D01*
X108322483Y-75017000D01*
X108322483Y-76367000D01*
X108336520Y-76509517D01*
X108378090Y-76646557D01*
X108445597Y-76772853D01*
X108536446Y-76883554D01*
X108647147Y-76974403D01*
X108773443Y-77041910D01*
X108910483Y-77083480D01*
X109053000Y-77097517D01*
X110403000Y-77097517D01*
X110545517Y-77083480D01*
X110682557Y-77041910D01*
X110701000Y-77032052D01*
X110701001Y-80642971D01*
X110602408Y-80662582D01*
X110197120Y-80830458D01*
X109832370Y-81074176D01*
X109522176Y-81384370D01*
X109278458Y-81749120D01*
X109110582Y-82154408D01*
X109025000Y-82584660D01*
X109025000Y-83023340D01*
X109110582Y-83453592D01*
X109278458Y-83858880D01*
X109522176Y-84223630D01*
X109832370Y-84533824D01*
X110197120Y-84777542D01*
X110602408Y-84945418D01*
X111032660Y-85031000D01*
X111471340Y-85031000D01*
X111901592Y-84945418D01*
X112306880Y-84777542D01*
X112671630Y-84533824D01*
X112981824Y-84223630D01*
X113225542Y-83858880D01*
X113393418Y-83453592D01*
X113479000Y-83023340D01*
X113479000Y-82584660D01*
X113393418Y-82154408D01*
X113225542Y-81749120D01*
X112981824Y-81384370D01*
X112755000Y-81157546D01*
X112755000Y-76701728D01*
X112834277Y-76781005D01*
X113063904Y-76934437D01*
X113319052Y-77040122D01*
X113589915Y-77094000D01*
X113866085Y-77094000D01*
X114136948Y-77040122D01*
X114392096Y-76934437D01*
X114621723Y-76781005D01*
X114683728Y-76719000D01*
X124409559Y-76719000D01*
X124460000Y-76723968D01*
X124510441Y-76719000D01*
X124510451Y-76719000D01*
X124661327Y-76704140D01*
X124854917Y-76645415D01*
X125033331Y-76550051D01*
X125130733Y-76470115D01*
X125296056Y-76503000D01*
X125655944Y-76503000D01*
X126008916Y-76432789D01*
X126341409Y-76295066D01*
X126640645Y-76095124D01*
X126895124Y-75840645D01*
X127095066Y-75541409D01*
X127232789Y-75208916D01*
X127303000Y-74855944D01*
X127303000Y-74496056D01*
X127232789Y-74143084D01*
X127095066Y-73810591D01*
X126895124Y-73511355D01*
X126640645Y-73256876D01*
X126341409Y-73056934D01*
X126298112Y-73039000D01*
X134044360Y-73039000D01*
X134019446Y-73059446D01*
X133928597Y-73170147D01*
X133861090Y-73296443D01*
X133819520Y-73433483D01*
X133805483Y-73576000D01*
X133805483Y-75776000D01*
X133819520Y-75918517D01*
X133861090Y-76055557D01*
X133928597Y-76181853D01*
X134019446Y-76292554D01*
X134130147Y-76383403D01*
X134256443Y-76450910D01*
X134393483Y-76492480D01*
X134536000Y-76506517D01*
X134609000Y-76506517D01*
X134609001Y-80104983D01*
X134128000Y-80104983D01*
X133985483Y-80119020D01*
X133848443Y-80160590D01*
X133722147Y-80228097D01*
X133611446Y-80318946D01*
X133566324Y-80373928D01*
X131241877Y-78049481D01*
X131209712Y-78010288D01*
X131053331Y-77881949D01*
X130874917Y-77786585D01*
X130681327Y-77727860D01*
X130530451Y-77713000D01*
X130530441Y-77713000D01*
X130480000Y-77708032D01*
X130429559Y-77713000D01*
X122602441Y-77713000D01*
X122552000Y-77708032D01*
X122501559Y-77713000D01*
X122501549Y-77713000D01*
X122350673Y-77727860D01*
X122157083Y-77786585D01*
X121978669Y-77881949D01*
X121822288Y-78010288D01*
X121790128Y-78049475D01*
X120213481Y-79626123D01*
X120174288Y-79658288D01*
X120045949Y-79814669D01*
X119950585Y-79993084D01*
X119891860Y-80186674D01*
X119881102Y-80295903D01*
X119824443Y-80313090D01*
X119698147Y-80380597D01*
X119587446Y-80471446D01*
X119496597Y-80582147D01*
X119429090Y-80708443D01*
X119387520Y-80845483D01*
X119373483Y-80988000D01*
X119373483Y-82588000D01*
X119387520Y-82730517D01*
X119429090Y-82867557D01*
X119496597Y-82993853D01*
X119587446Y-83104554D01*
X119698147Y-83195403D01*
X119824443Y-83262910D01*
X119875312Y-83278341D01*
X119795023Y-83358630D01*
X119911296Y-83474903D01*
X119667329Y-83546486D01*
X119546429Y-83801996D01*
X119477700Y-84076184D01*
X119463783Y-84358512D01*
X119505213Y-84638130D01*
X119600397Y-84904292D01*
X119667329Y-85029514D01*
X119911298Y-85101097D01*
X120724395Y-84288000D01*
X120710253Y-84273858D01*
X120889858Y-84094253D01*
X120904000Y-84108395D01*
X120918143Y-84094253D01*
X121097748Y-84273858D01*
X121083605Y-84288000D01*
X121896702Y-85101097D01*
X122140671Y-85029514D01*
X122261571Y-84774004D01*
X122330300Y-84499816D01*
X122344217Y-84217488D01*
X122302787Y-83937870D01*
X122207603Y-83671708D01*
X122140671Y-83546486D01*
X121896704Y-83474903D01*
X122012977Y-83358630D01*
X121932688Y-83278341D01*
X121983557Y-83262910D01*
X122109853Y-83195403D01*
X122220554Y-83104554D01*
X122311403Y-82993853D01*
X122378910Y-82867557D01*
X122420480Y-82730517D01*
X122434517Y-82588000D01*
X122434517Y-80988000D01*
X122420480Y-80845483D01*
X122417391Y-80835298D01*
X128218903Y-80835298D01*
X129032000Y-81648395D01*
X129845097Y-80835298D01*
X129773514Y-80591329D01*
X129518004Y-80470429D01*
X129243816Y-80401700D01*
X128961488Y-80387783D01*
X128681870Y-80429213D01*
X128415708Y-80524397D01*
X128290486Y-80591329D01*
X128218903Y-80835298D01*
X122417391Y-80835298D01*
X122378910Y-80708443D01*
X122311403Y-80582147D01*
X122244172Y-80500225D01*
X122977397Y-79767000D01*
X130054604Y-79767000D01*
X132766128Y-82478525D01*
X132798288Y-82517712D01*
X132954669Y-82646051D01*
X133133083Y-82741415D01*
X133326673Y-82800140D01*
X133404108Y-82807767D01*
X133411520Y-82883017D01*
X133453090Y-83020057D01*
X133520597Y-83146353D01*
X133611446Y-83257054D01*
X133722147Y-83347903D01*
X133806626Y-83393058D01*
X133752031Y-83461077D01*
X133608429Y-83736906D01*
X133537437Y-83955020D01*
X133657406Y-84201000D01*
X135001000Y-84201000D01*
X135001000Y-84181000D01*
X135255000Y-84181000D01*
X135255000Y-84201000D01*
X136598594Y-84201000D01*
X136718563Y-83955020D01*
X136647571Y-83736906D01*
X136503969Y-83461077D01*
X136449374Y-83393058D01*
X136533853Y-83347903D01*
X136644554Y-83257054D01*
X136735403Y-83146353D01*
X136802910Y-83020057D01*
X136844480Y-82883017D01*
X136858517Y-82740500D01*
X136858517Y-80835500D01*
X136844480Y-80692983D01*
X136802910Y-80555943D01*
X136735403Y-80429647D01*
X136663000Y-80341423D01*
X136663000Y-76506517D01*
X136736000Y-76506517D01*
X136878517Y-76492480D01*
X137015557Y-76450910D01*
X137141853Y-76383403D01*
X137252554Y-76292554D01*
X137343403Y-76181853D01*
X137410910Y-76055557D01*
X137452480Y-75918517D01*
X137466517Y-75776000D01*
X137466517Y-73576000D01*
X137452480Y-73433483D01*
X137426090Y-73346487D01*
X138165000Y-74085397D01*
X138165001Y-85680602D01*
X138004603Y-85841000D01*
X136505337Y-85841000D01*
X136368832Y-85674668D01*
X136195809Y-85532672D01*
X136309315Y-85437437D01*
X136503969Y-85194923D01*
X136647571Y-84919094D01*
X136718563Y-84700980D01*
X136598594Y-84455000D01*
X135255000Y-84455000D01*
X135255000Y-84475000D01*
X135001000Y-84475000D01*
X135001000Y-84455000D01*
X133657406Y-84455000D01*
X133537437Y-84700980D01*
X133608429Y-84919094D01*
X133752031Y-85194923D01*
X133946685Y-85437437D01*
X134060191Y-85532672D01*
X133887168Y-85674668D01*
X133677290Y-85930405D01*
X133521337Y-86222173D01*
X133425301Y-86538761D01*
X133392874Y-86868000D01*
X133425301Y-87197239D01*
X133521337Y-87513827D01*
X133677290Y-87805595D01*
X133887168Y-88061332D01*
X133968238Y-88127865D01*
X133209804Y-88886299D01*
X133053406Y-88729901D01*
X132803306Y-88562790D01*
X132525410Y-88447681D01*
X132230396Y-88389000D01*
X132005397Y-88389000D01*
X130059000Y-86442604D01*
X130059000Y-85818853D01*
X130111557Y-85802910D01*
X130237853Y-85735403D01*
X130348554Y-85644554D01*
X130439403Y-85533853D01*
X130506910Y-85407557D01*
X130548480Y-85270517D01*
X130562517Y-85128000D01*
X130562517Y-83528000D01*
X130548480Y-83385483D01*
X130506910Y-83248443D01*
X130439403Y-83122147D01*
X130348554Y-83011446D01*
X130237853Y-82920597D01*
X130111557Y-82853090D01*
X130060688Y-82837659D01*
X130140977Y-82757370D01*
X130024704Y-82641097D01*
X130268671Y-82569514D01*
X130389571Y-82314004D01*
X130458300Y-82039816D01*
X130472217Y-81757488D01*
X130430787Y-81477870D01*
X130335603Y-81211708D01*
X130268671Y-81086486D01*
X130024702Y-81014903D01*
X129211605Y-81828000D01*
X129225748Y-81842143D01*
X129046143Y-82021748D01*
X129032000Y-82007605D01*
X129017858Y-82021748D01*
X128838253Y-81842143D01*
X128852395Y-81828000D01*
X128039298Y-81014903D01*
X127795329Y-81086486D01*
X127674429Y-81341996D01*
X127605700Y-81616184D01*
X127591783Y-81898512D01*
X127633213Y-82178130D01*
X127728397Y-82444292D01*
X127795329Y-82569514D01*
X128039296Y-82641097D01*
X127923023Y-82757370D01*
X128003312Y-82837659D01*
X127952443Y-82853090D01*
X127826147Y-82920597D01*
X127715446Y-83011446D01*
X127624597Y-83122147D01*
X127557090Y-83248443D01*
X127515520Y-83385483D01*
X127501483Y-83528000D01*
X127501483Y-85128000D01*
X127515520Y-85270517D01*
X127557090Y-85407557D01*
X127624597Y-85533853D01*
X127715446Y-85644554D01*
X127826147Y-85735403D01*
X127952443Y-85802910D01*
X128005001Y-85818853D01*
X128005001Y-86817549D01*
X128000032Y-86868000D01*
X128005001Y-86918451D01*
X128019861Y-87069327D01*
X128078586Y-87262917D01*
X128173950Y-87441331D01*
X128302289Y-87597712D01*
X128341476Y-87629872D01*
X130553000Y-89841397D01*
X130553000Y-90066396D01*
X130611681Y-90361410D01*
X130726790Y-90639306D01*
X130893901Y-90889406D01*
X131106594Y-91102099D01*
X131356694Y-91269210D01*
X131634590Y-91384319D01*
X131929604Y-91443000D01*
X132230396Y-91443000D01*
X132525410Y-91384319D01*
X132803306Y-91269210D01*
X133053406Y-91102099D01*
X133212505Y-90943000D01*
X133582059Y-90943000D01*
X133632500Y-90947968D01*
X133682941Y-90943000D01*
X133682951Y-90943000D01*
X133833827Y-90928140D01*
X134027417Y-90869415D01*
X134205831Y-90774051D01*
X134362212Y-90645712D01*
X134394377Y-90606519D01*
X135818524Y-89182372D01*
X135857712Y-89150212D01*
X135986051Y-88993831D01*
X136081415Y-88815417D01*
X136140140Y-88621827D01*
X136155000Y-88470951D01*
X136155000Y-88470942D01*
X136159968Y-88420501D01*
X136155000Y-88370060D01*
X136155000Y-88236819D01*
X136368832Y-88061332D01*
X136505337Y-87895000D01*
X138379559Y-87895000D01*
X138430000Y-87899968D01*
X138480441Y-87895000D01*
X138480451Y-87895000D01*
X138631327Y-87880140D01*
X138824917Y-87821415D01*
X139003331Y-87726051D01*
X139159712Y-87597712D01*
X139191876Y-87558520D01*
X139617397Y-87133000D01*
X143459559Y-87133000D01*
X143510000Y-87137968D01*
X143560441Y-87133000D01*
X143560451Y-87133000D01*
X143711327Y-87118140D01*
X143904917Y-87059415D01*
X144083331Y-86964051D01*
X144239712Y-86835712D01*
X144271877Y-86796519D01*
X148772525Y-82295872D01*
X148811712Y-82263712D01*
X148940051Y-82107331D01*
X149035415Y-81928917D01*
X149094140Y-81735327D01*
X149109000Y-81584451D01*
X149109000Y-81584442D01*
X149113968Y-81534001D01*
X149109000Y-81483560D01*
X149109000Y-64820443D01*
X149113968Y-64770000D01*
X149109000Y-64719556D01*
X149109000Y-64719549D01*
X149094140Y-64568673D01*
X149035415Y-64375083D01*
X148940051Y-64196669D01*
X148878020Y-64121084D01*
X148843873Y-64079475D01*
X148843868Y-64079470D01*
X148811712Y-64040288D01*
X148772530Y-64008132D01*
X147065876Y-62301480D01*
X147033712Y-62262288D01*
X146877331Y-62133949D01*
X146698917Y-62038585D01*
X146505327Y-61979860D01*
X146354451Y-61965000D01*
X146354441Y-61965000D01*
X146304000Y-61960032D01*
X146253559Y-61965000D01*
X144697397Y-61965000D01*
X142759000Y-60026604D01*
X142759000Y-58607215D01*
X142956936Y-58409279D01*
X143059344Y-58256014D01*
X143076822Y-58285355D01*
X143271731Y-58501588D01*
X143505080Y-58675641D01*
X143767901Y-58800825D01*
X143915110Y-58845476D01*
X144145000Y-58724155D01*
X144145000Y-57531000D01*
X144125000Y-57531000D01*
X144125000Y-57277000D01*
X144145000Y-57277000D01*
X144145000Y-56083845D01*
X143915110Y-55962524D01*
X143767901Y-56007175D01*
X143505080Y-56132359D01*
X143271731Y-56306412D01*
X143076822Y-56522645D01*
X143059344Y-56551986D01*
X142956936Y-56398721D01*
X142737279Y-56179064D01*
X142478989Y-56006481D01*
X142191994Y-55887604D01*
X141887321Y-55827000D01*
X141576679Y-55827000D01*
X141272006Y-55887604D01*
X140985011Y-56006481D01*
X140726721Y-56179064D01*
X140507064Y-56398721D01*
X140334481Y-56657011D01*
X140215604Y-56944006D01*
X140155000Y-57248679D01*
X140155000Y-57559321D01*
X140215604Y-57863994D01*
X140334481Y-58150989D01*
X140507064Y-58409279D01*
X140705000Y-58607215D01*
X140705001Y-60401549D01*
X140700032Y-60452000D01*
X140705001Y-60502451D01*
X140719861Y-60653327D01*
X140778586Y-60846917D01*
X140873950Y-61025331D01*
X141002289Y-61181712D01*
X141041476Y-61213872D01*
X143510127Y-63682524D01*
X143542288Y-63721712D01*
X143698669Y-63850051D01*
X143844502Y-63928000D01*
X143871946Y-63942669D01*
X143877083Y-63945415D01*
X144070673Y-64004140D01*
X144221549Y-64019000D01*
X144221558Y-64019000D01*
X144271999Y-64023968D01*
X144322440Y-64019000D01*
X145878604Y-64019000D01*
X147055000Y-65195398D01*
X147055001Y-81108602D01*
X143084604Y-85079000D01*
X140219000Y-85079000D01*
X140219000Y-73710441D01*
X140223968Y-73660000D01*
X140219000Y-73609559D01*
X140219000Y-73609549D01*
X140204140Y-73458673D01*
X140145415Y-73265083D01*
X140050051Y-73086669D01*
X139921712Y-72930288D01*
X139882525Y-72898128D01*
X138305877Y-71321481D01*
X138273712Y-71282288D01*
X138117331Y-71153949D01*
X137938917Y-71058585D01*
X137745327Y-70999860D01*
X137594451Y-70985000D01*
X137594441Y-70985000D01*
X137544000Y-70980032D01*
X137493559Y-70985000D01*
X127013731Y-70985000D01*
X127084898Y-70937448D01*
X127325448Y-70696898D01*
X127514447Y-70414041D01*
X127642041Y-70106000D01*
X127799928Y-70106000D01*
X127812188Y-70230482D01*
X127848498Y-70350180D01*
X127907463Y-70460494D01*
X127986815Y-70557185D01*
X128083506Y-70636537D01*
X128193820Y-70695502D01*
X128313518Y-70731812D01*
X128438000Y-70744072D01*
X129152250Y-70741000D01*
X129311000Y-70582250D01*
X129311000Y-69483000D01*
X129565000Y-69483000D01*
X129565000Y-70582250D01*
X129723750Y-70741000D01*
X130438000Y-70744072D01*
X130562482Y-70731812D01*
X130682180Y-70695502D01*
X130792494Y-70636537D01*
X130889185Y-70557185D01*
X130968537Y-70460494D01*
X131027502Y-70350180D01*
X131063812Y-70230482D01*
X131076072Y-70106000D01*
X131073000Y-69641750D01*
X130914250Y-69483000D01*
X129565000Y-69483000D01*
X129311000Y-69483000D01*
X127961750Y-69483000D01*
X127803000Y-69641750D01*
X127799928Y-70106000D01*
X127642041Y-70106000D01*
X127644632Y-70099747D01*
X127711000Y-69766095D01*
X127711000Y-69425905D01*
X127693661Y-69338736D01*
X127882573Y-69149823D01*
X127961750Y-69229000D01*
X129311000Y-69229000D01*
X129311000Y-69209000D01*
X129565000Y-69209000D01*
X129565000Y-69229000D01*
X130914250Y-69229000D01*
X131073000Y-69070250D01*
X131076072Y-68606000D01*
X131063812Y-68481518D01*
X131027502Y-68361820D01*
X130986019Y-68284213D01*
X131045403Y-68211853D01*
X131112910Y-68085557D01*
X131113686Y-68083000D01*
X134007483Y-68083000D01*
X134007483Y-68956000D01*
X134021520Y-69098517D01*
X134063090Y-69235557D01*
X134130597Y-69361853D01*
X134221446Y-69472554D01*
X134332147Y-69563403D01*
X134458443Y-69630910D01*
X134595483Y-69672480D01*
X134738000Y-69686517D01*
X136738000Y-69686517D01*
X136880517Y-69672480D01*
X137017557Y-69630910D01*
X137143853Y-69563403D01*
X137254554Y-69472554D01*
X137345403Y-69361853D01*
X137412910Y-69235557D01*
X137454480Y-69098517D01*
X137468517Y-68956000D01*
X137468517Y-68083000D01*
X138139495Y-68083000D01*
X138298594Y-68242099D01*
X138548694Y-68409210D01*
X138826590Y-68524319D01*
X139121604Y-68583000D01*
X139422396Y-68583000D01*
X139717410Y-68524319D01*
X139995306Y-68409210D01*
X140180465Y-68285491D01*
X141213000Y-69318027D01*
X141213001Y-72677147D01*
X141160443Y-72693090D01*
X141034147Y-72760597D01*
X140923446Y-72851446D01*
X140832597Y-72962147D01*
X140765090Y-73088443D01*
X140723520Y-73225483D01*
X140709483Y-73368000D01*
X140709483Y-74968000D01*
X140723520Y-75110517D01*
X140765090Y-75247557D01*
X140832597Y-75373853D01*
X140923446Y-75484554D01*
X141034147Y-75575403D01*
X141160443Y-75642910D01*
X141297483Y-75684480D01*
X141440000Y-75698517D01*
X143040000Y-75698517D01*
X143182517Y-75684480D01*
X143319557Y-75642910D01*
X143445853Y-75575403D01*
X143556554Y-75484554D01*
X143647403Y-75373853D01*
X143714910Y-75247557D01*
X143730341Y-75196688D01*
X143810630Y-75276977D01*
X143926903Y-75160704D01*
X143998486Y-75404671D01*
X144253996Y-75525571D01*
X144528184Y-75594300D01*
X144810512Y-75608217D01*
X145090130Y-75566787D01*
X145356292Y-75471603D01*
X145481514Y-75404671D01*
X145553097Y-75160702D01*
X144740000Y-74347605D01*
X144725858Y-74361748D01*
X144546253Y-74182143D01*
X144560395Y-74168000D01*
X144919605Y-74168000D01*
X145732702Y-74981097D01*
X145976671Y-74909514D01*
X146097571Y-74654004D01*
X146166300Y-74379816D01*
X146180217Y-74097488D01*
X146138787Y-73817870D01*
X146043603Y-73551708D01*
X145976671Y-73426486D01*
X145732702Y-73354903D01*
X144919605Y-74168000D01*
X144560395Y-74168000D01*
X144546253Y-74153858D01*
X144725858Y-73974253D01*
X144740000Y-73988395D01*
X145553097Y-73175298D01*
X145481514Y-72931329D01*
X145226004Y-72810429D01*
X144951816Y-72741700D01*
X144669488Y-72727783D01*
X144389870Y-72769213D01*
X144123708Y-72864397D01*
X143998486Y-72931329D01*
X143926903Y-73175296D01*
X143810630Y-73059023D01*
X143730341Y-73139312D01*
X143714910Y-73088443D01*
X143647403Y-72962147D01*
X143556554Y-72851446D01*
X143445853Y-72760597D01*
X143319557Y-72693090D01*
X143267000Y-72677147D01*
X143267000Y-68943070D01*
X143271968Y-68892629D01*
X143267000Y-68842188D01*
X143267000Y-68842179D01*
X143252140Y-68691303D01*
X143193415Y-68497713D01*
X143098051Y-68319299D01*
X142969712Y-68162918D01*
X142930525Y-68130758D01*
X142848469Y-68048702D01*
X143458903Y-68048702D01*
X143530486Y-68292671D01*
X143785996Y-68413571D01*
X144060184Y-68482300D01*
X144342512Y-68496217D01*
X144622130Y-68454787D01*
X144888292Y-68359603D01*
X145013514Y-68292671D01*
X145085097Y-68048702D01*
X144272000Y-67235605D01*
X143458903Y-68048702D01*
X142848469Y-68048702D01*
X141926279Y-67126512D01*
X142831783Y-67126512D01*
X142873213Y-67406130D01*
X142968397Y-67672292D01*
X143035329Y-67797514D01*
X143279298Y-67869097D01*
X144092395Y-67056000D01*
X144451605Y-67056000D01*
X145264702Y-67869097D01*
X145508671Y-67797514D01*
X145629571Y-67542004D01*
X145698300Y-67267816D01*
X145712217Y-66985488D01*
X145670787Y-66705870D01*
X145575603Y-66439708D01*
X145508671Y-66314486D01*
X145264702Y-66242903D01*
X144451605Y-67056000D01*
X144092395Y-67056000D01*
X143279298Y-66242903D01*
X143035329Y-66314486D01*
X142914429Y-66569996D01*
X142845700Y-66844184D01*
X142831783Y-67126512D01*
X141926279Y-67126512D01*
X141165247Y-66365481D01*
X141133082Y-66326288D01*
X140976701Y-66197949D01*
X140798287Y-66102585D01*
X140668776Y-66063298D01*
X143458903Y-66063298D01*
X144272000Y-66876395D01*
X145085097Y-66063298D01*
X145013514Y-65819329D01*
X144758004Y-65698429D01*
X144483816Y-65629700D01*
X144201488Y-65615783D01*
X143921870Y-65657213D01*
X143655708Y-65752397D01*
X143530486Y-65819329D01*
X143458903Y-66063298D01*
X140668776Y-66063298D01*
X140604697Y-66043860D01*
X140453821Y-66029000D01*
X140453811Y-66029000D01*
X140403370Y-66024032D01*
X140399881Y-66024376D01*
X140245406Y-65869901D01*
X139995306Y-65702790D01*
X139717410Y-65587681D01*
X139422396Y-65529000D01*
X139121604Y-65529000D01*
X138826590Y-65587681D01*
X138548694Y-65702790D01*
X138298594Y-65869901D01*
X138139495Y-66029000D01*
X137468517Y-66029000D01*
X137468517Y-65156000D01*
X137454480Y-65013483D01*
X137412910Y-64876443D01*
X137345403Y-64750147D01*
X137254554Y-64639446D01*
X137143853Y-64548597D01*
X137017557Y-64481090D01*
X136880517Y-64439520D01*
X136738000Y-64425483D01*
X136663000Y-64425483D01*
X136663000Y-60568505D01*
X136822099Y-60409406D01*
X136989210Y-60159306D01*
X137104319Y-59881410D01*
X137163000Y-59586396D01*
X137163000Y-59285604D01*
X137104319Y-58990590D01*
X136989210Y-58712694D01*
X136822099Y-58462594D01*
X136663000Y-58303495D01*
X136663000Y-54222825D01*
X136736898Y-54173448D01*
X136977448Y-53932898D01*
X137166447Y-53650041D01*
X137296632Y-53335747D01*
X137363000Y-53002095D01*
X137363000Y-52661905D01*
X137296632Y-52328253D01*
X137166447Y-52013959D01*
X136977448Y-51731102D01*
X136736898Y-51490552D01*
X136480152Y-51319000D01*
X136734604Y-51319000D01*
X139446127Y-54030524D01*
X139478288Y-54069712D01*
X139634669Y-54198051D01*
X139813083Y-54293415D01*
X140006673Y-54352140D01*
X140157549Y-54367000D01*
X140157559Y-54367000D01*
X140208000Y-54371968D01*
X140258441Y-54367000D01*
X140798604Y-54367000D01*
X141986128Y-55554524D01*
X142018288Y-55593712D01*
X142174669Y-55722051D01*
X142330043Y-55805100D01*
X142347946Y-55814669D01*
X142353083Y-55817415D01*
X142546673Y-55876140D01*
X142697549Y-55891000D01*
X142697558Y-55891000D01*
X142747999Y-55895968D01*
X142798440Y-55891000D01*
X145370604Y-55891000D01*
X145732694Y-56253091D01*
X145587064Y-56398721D01*
X145484656Y-56551986D01*
X145467178Y-56522645D01*
X145272269Y-56306412D01*
X145038920Y-56132359D01*
X144776099Y-56007175D01*
X144628890Y-55962524D01*
X144399000Y-56083845D01*
X144399000Y-57277000D01*
X144419000Y-57277000D01*
X144419000Y-57531000D01*
X144399000Y-57531000D01*
X144399000Y-58724155D01*
X144628890Y-58845476D01*
X144776099Y-58800825D01*
X145038920Y-58675641D01*
X145272269Y-58501588D01*
X145467178Y-58285355D01*
X145484656Y-58256014D01*
X145587064Y-58409279D01*
X145806721Y-58628936D01*
X146065011Y-58801519D01*
X146352006Y-58920396D01*
X146656679Y-58981000D01*
X146967321Y-58981000D01*
X147271994Y-58920396D01*
X147558989Y-58801519D01*
X147817279Y-58628936D01*
X148036936Y-58409279D01*
X148082000Y-58341836D01*
X148127064Y-58409279D01*
X148346721Y-58628936D01*
X148605011Y-58801519D01*
X148892006Y-58920396D01*
X149196679Y-58981000D01*
X149507321Y-58981000D01*
X149811994Y-58920396D01*
X150098989Y-58801519D01*
X150357279Y-58628936D01*
X150396896Y-58589319D01*
X150434597Y-58659853D01*
X150525446Y-58770554D01*
X150636147Y-58861403D01*
X150762443Y-58928910D01*
X150899483Y-58970480D01*
X151042000Y-58984517D01*
X152742000Y-58984517D01*
X152884517Y-58970480D01*
X153021557Y-58928910D01*
X153147853Y-58861403D01*
X153258554Y-58770554D01*
X153349403Y-58659853D01*
X153416910Y-58533557D01*
X153458480Y-58396517D01*
X153472517Y-58254000D01*
X153472517Y-57275879D01*
X155630525Y-55117872D01*
X155669712Y-55085712D01*
X155798051Y-54929331D01*
X155893415Y-54750917D01*
X155952140Y-54557327D01*
X155967000Y-54406451D01*
X155967000Y-54406441D01*
X155971968Y-54356000D01*
X155967000Y-54305559D01*
X155967000Y-43738441D01*
X155971968Y-43688000D01*
X155967000Y-43637559D01*
X155967000Y-43637549D01*
X155952140Y-43486673D01*
X155893415Y-43293083D01*
X155798051Y-43114669D01*
X155669712Y-42958288D01*
X155630525Y-42926128D01*
X152653877Y-39949481D01*
X152621712Y-39910288D01*
X152465331Y-39781949D01*
X152286917Y-39686585D01*
X152093327Y-39627860D01*
X151942451Y-39613000D01*
X151942441Y-39613000D01*
X151892000Y-39608032D01*
X151841559Y-39613000D01*
X139581525Y-39613000D01*
X139706447Y-39426041D01*
X139836632Y-39111747D01*
X139903000Y-38778095D01*
X139903000Y-38437905D01*
X139836632Y-38104253D01*
X139706447Y-37789959D01*
X139517448Y-37507102D01*
X139276898Y-37266552D01*
X138994041Y-37077553D01*
X138957657Y-37062482D01*
X139129410Y-37028319D01*
X139407306Y-36913210D01*
X139657406Y-36746099D01*
X139870099Y-36533406D01*
X139954000Y-36407839D01*
X140037901Y-36533406D01*
X140250594Y-36746099D01*
X140500694Y-36913210D01*
X140778590Y-37028319D01*
X141073604Y-37087000D01*
X141374396Y-37087000D01*
X141669410Y-37028319D01*
X141947306Y-36913210D01*
X142197406Y-36746099D01*
X142294265Y-36649240D01*
X142356597Y-36765853D01*
X142447446Y-36876554D01*
X142558147Y-36967403D01*
X142684443Y-37034910D01*
X142821483Y-37076480D01*
X142964000Y-37090517D01*
X144564000Y-37090517D01*
X144706517Y-37076480D01*
X144843557Y-37034910D01*
X144969853Y-36967403D01*
X145080554Y-36876554D01*
X145171403Y-36765853D01*
X145209054Y-36695413D01*
X146976192Y-36695413D01*
X147071956Y-36959814D01*
X147361571Y-37100704D01*
X147673108Y-37182384D01*
X147994595Y-37201718D01*
X148313675Y-37157961D01*
X148618088Y-37052795D01*
X148792044Y-36959814D01*
X148887808Y-36695413D01*
X153476192Y-36695413D01*
X153571956Y-36959814D01*
X153861571Y-37100704D01*
X154173108Y-37182384D01*
X154494595Y-37201718D01*
X154813675Y-37157961D01*
X155118088Y-37052795D01*
X155292044Y-36959814D01*
X155387808Y-36695413D01*
X154432000Y-35739605D01*
X153476192Y-36695413D01*
X148887808Y-36695413D01*
X147932000Y-35739605D01*
X146976192Y-36695413D01*
X145209054Y-36695413D01*
X145238910Y-36639557D01*
X145280480Y-36502517D01*
X145294517Y-36360000D01*
X145294517Y-35622595D01*
X146290282Y-35622595D01*
X146334039Y-35941675D01*
X146439205Y-36246088D01*
X146532186Y-36420044D01*
X146796587Y-36515808D01*
X147752395Y-35560000D01*
X148111605Y-35560000D01*
X149067413Y-36515808D01*
X149331814Y-36420044D01*
X149472704Y-36130429D01*
X149554384Y-35818892D01*
X149566189Y-35622595D01*
X152790282Y-35622595D01*
X152834039Y-35941675D01*
X152939205Y-36246088D01*
X153032186Y-36420044D01*
X153296587Y-36515808D01*
X154252395Y-35560000D01*
X154611605Y-35560000D01*
X155567413Y-36515808D01*
X155831814Y-36420044D01*
X155972704Y-36130429D01*
X156054384Y-35818892D01*
X156073718Y-35497405D01*
X156029961Y-35178325D01*
X155924795Y-34873912D01*
X155831814Y-34699956D01*
X155567413Y-34604192D01*
X154611605Y-35560000D01*
X154252395Y-35560000D01*
X153296587Y-34604192D01*
X153032186Y-34699956D01*
X152891296Y-34989571D01*
X152809616Y-35301108D01*
X152790282Y-35622595D01*
X149566189Y-35622595D01*
X149573718Y-35497405D01*
X149529961Y-35178325D01*
X149424795Y-34873912D01*
X149331814Y-34699956D01*
X149067413Y-34604192D01*
X148111605Y-35560000D01*
X147752395Y-35560000D01*
X146796587Y-34604192D01*
X146532186Y-34699956D01*
X146391296Y-34989571D01*
X146309616Y-35301108D01*
X146290282Y-35622595D01*
X145294517Y-35622595D01*
X145294517Y-34760000D01*
X145280480Y-34617483D01*
X145238910Y-34480443D01*
X145209055Y-34424587D01*
X146976192Y-34424587D01*
X147932000Y-35380395D01*
X148887808Y-34424587D01*
X153476192Y-34424587D01*
X154432000Y-35380395D01*
X155387808Y-34424587D01*
X155292044Y-34160186D01*
X155002429Y-34019296D01*
X154690892Y-33937616D01*
X154369405Y-33918282D01*
X154050325Y-33962039D01*
X153745912Y-34067205D01*
X153571956Y-34160186D01*
X153476192Y-34424587D01*
X148887808Y-34424587D01*
X148792044Y-34160186D01*
X148502429Y-34019296D01*
X148190892Y-33937616D01*
X147869405Y-33918282D01*
X147550325Y-33962039D01*
X147245912Y-34067205D01*
X147071956Y-34160186D01*
X146976192Y-34424587D01*
X145209055Y-34424587D01*
X145171403Y-34354147D01*
X145080554Y-34243446D01*
X144969853Y-34152597D01*
X144843557Y-34085090D01*
X144791000Y-34069147D01*
X144791000Y-32120505D01*
X144896505Y-32015000D01*
X146493066Y-32015000D01*
X146590552Y-32160898D01*
X146831102Y-32401448D01*
X147113959Y-32590447D01*
X147428253Y-32720632D01*
X147761905Y-32787000D01*
X148102095Y-32787000D01*
X148435747Y-32720632D01*
X148750041Y-32590447D01*
X149032898Y-32401448D01*
X149273448Y-32160898D01*
X149322825Y-32087000D01*
X153041175Y-32087000D01*
X153090552Y-32160898D01*
X153331102Y-32401448D01*
X153613959Y-32590447D01*
X153928253Y-32720632D01*
X154261905Y-32787000D01*
X154602095Y-32787000D01*
X154935747Y-32720632D01*
X155250041Y-32590447D01*
X155532898Y-32401448D01*
X155773448Y-32160898D01*
X155962447Y-31878041D01*
X156092632Y-31563747D01*
X156159000Y-31230095D01*
X156159000Y-30889905D01*
X156092632Y-30556253D01*
X155962447Y-30241959D01*
X155773448Y-29959102D01*
X155532898Y-29718552D01*
X155250041Y-29529553D01*
X154935747Y-29399368D01*
X154602095Y-29333000D01*
X154261905Y-29333000D01*
X153928253Y-29399368D01*
X153613959Y-29529553D01*
X153331102Y-29718552D01*
X153090552Y-29959102D01*
X153041175Y-30033000D01*
X149322825Y-30033000D01*
X149273448Y-29959102D01*
X149032898Y-29718552D01*
X148750041Y-29529553D01*
X148435747Y-29399368D01*
X148102095Y-29333000D01*
X147761905Y-29333000D01*
X147428253Y-29399368D01*
X147113959Y-29529553D01*
X146831102Y-29718552D01*
X146590552Y-29959102D01*
X146589284Y-29961000D01*
X144896505Y-29961000D01*
X144737406Y-29801901D01*
X144487306Y-29634790D01*
X144209410Y-29519681D01*
X143914396Y-29461000D01*
X143613604Y-29461000D01*
X143318590Y-29519681D01*
X143040694Y-29634790D01*
X142790594Y-29801901D01*
X142631495Y-29961000D01*
X142157397Y-29961000D01*
X133857877Y-21661481D01*
X133825712Y-21622288D01*
X133669331Y-21493949D01*
X133490917Y-21398585D01*
X133297327Y-21339860D01*
X133146451Y-21325000D01*
X133146441Y-21325000D01*
X133096000Y-21320032D01*
X133045559Y-21325000D01*
X111810440Y-21325000D01*
X111759999Y-21320032D01*
X111709558Y-21325000D01*
X111709549Y-21325000D01*
X111558673Y-21339860D01*
X111365083Y-21398585D01*
X111186669Y-21493949D01*
X111030288Y-21622288D01*
X110998128Y-21661475D01*
X104465476Y-28194128D01*
X104426289Y-28226288D01*
X104394129Y-28265475D01*
X104394128Y-28265476D01*
X104297950Y-28382669D01*
X104202586Y-28561083D01*
X104143861Y-28754673D01*
X104124032Y-28956000D01*
X102489000Y-28956000D01*
X102489000Y-19939000D01*
X103121070Y-19939000D01*
X103093840Y-19979752D01*
G36*
X132417901Y-36533406D02*
G01*
X132577000Y-36692505D01*
X132577001Y-40081549D01*
X132572032Y-40132000D01*
X132577001Y-40182451D01*
X132591861Y-40333327D01*
X132650586Y-40526917D01*
X132745950Y-40705331D01*
X132874289Y-40861712D01*
X132913476Y-40893872D01*
X133350123Y-41330519D01*
X133382288Y-41369712D01*
X133538669Y-41498051D01*
X133717083Y-41593415D01*
X133910673Y-41652140D01*
X134061549Y-41667000D01*
X134061558Y-41667000D01*
X134111999Y-41671968D01*
X134162440Y-41667000D01*
X135923220Y-41667000D01*
X135698590Y-41711681D01*
X135420694Y-41826790D01*
X135170594Y-41993901D01*
X134957901Y-42206594D01*
X134874000Y-42332161D01*
X134790099Y-42206594D01*
X134577406Y-41993901D01*
X134327306Y-41826790D01*
X134049410Y-41711681D01*
X133754396Y-41653000D01*
X133453604Y-41653000D01*
X133158590Y-41711681D01*
X132880694Y-41826790D01*
X132630594Y-41993901D01*
X132417901Y-42206594D01*
X132334000Y-42332161D01*
X132250099Y-42206594D01*
X132037406Y-41993901D01*
X131787306Y-41826790D01*
X131509410Y-41711681D01*
X131214396Y-41653000D01*
X130913604Y-41653000D01*
X130618590Y-41711681D01*
X130340694Y-41826790D01*
X130090594Y-41993901D01*
X129877901Y-42206594D01*
X129734323Y-42421475D01*
X129676385Y-42324869D01*
X129487414Y-42116481D01*
X129261420Y-41948963D01*
X129007087Y-41828754D01*
X128873039Y-41788096D01*
X128651000Y-41910085D01*
X128651000Y-43053000D01*
X128671000Y-43053000D01*
X128671000Y-43307000D01*
X128651000Y-43307000D01*
X128651000Y-44449915D01*
X128873039Y-44571904D01*
X129007087Y-44531246D01*
X129261420Y-44411037D01*
X129487414Y-44243519D01*
X129676385Y-44035131D01*
X129734323Y-43938525D01*
X129877901Y-44153406D01*
X130037001Y-44312506D01*
X130037000Y-45923559D01*
X130032032Y-45974000D01*
X130037000Y-46024441D01*
X130037000Y-46024450D01*
X130051860Y-46175326D01*
X130110585Y-46368916D01*
X130205949Y-46547331D01*
X130334288Y-46703712D01*
X130373481Y-46735877D01*
X134620127Y-50982524D01*
X134652288Y-51021712D01*
X134808669Y-51150051D01*
X134972415Y-51237575D01*
X134817959Y-51301553D01*
X134535102Y-51490552D01*
X134294552Y-51731102D01*
X134105553Y-52013959D01*
X133975368Y-52328253D01*
X133909000Y-52661905D01*
X133909000Y-53002095D01*
X133975368Y-53335747D01*
X134105553Y-53650041D01*
X134294552Y-53932898D01*
X134535102Y-54173448D01*
X134609001Y-54222826D01*
X134609000Y-58303495D01*
X134449901Y-58462594D01*
X134282790Y-58712694D01*
X134167681Y-58990590D01*
X134109000Y-59285604D01*
X134109000Y-59586396D01*
X134167681Y-59881410D01*
X134282790Y-60159306D01*
X134449901Y-60409406D01*
X134609000Y-60568505D01*
X134609001Y-64438189D01*
X134595483Y-64439520D01*
X134458443Y-64481090D01*
X134332147Y-64548597D01*
X134221446Y-64639446D01*
X134130597Y-64750147D01*
X134063090Y-64876443D01*
X134021520Y-65013483D01*
X134007483Y-65156000D01*
X134007483Y-66029000D01*
X131113686Y-66029000D01*
X131112910Y-66026443D01*
X131048532Y-65906000D01*
X131112910Y-65785557D01*
X131154480Y-65648517D01*
X131168517Y-65506000D01*
X131168517Y-64006000D01*
X131154480Y-63863483D01*
X131112910Y-63726443D01*
X131045403Y-63600147D01*
X130954554Y-63489446D01*
X130843853Y-63398597D01*
X130717557Y-63331090D01*
X130580517Y-63289520D01*
X130438000Y-63275483D01*
X128438000Y-63275483D01*
X128295483Y-63289520D01*
X128158443Y-63331090D01*
X128032147Y-63398597D01*
X127921989Y-63489000D01*
X123080711Y-63489000D01*
X125658530Y-60911182D01*
X125697712Y-60879026D01*
X125729868Y-60839844D01*
X125729873Y-60839839D01*
X125826051Y-60722646D01*
X125921415Y-60544232D01*
X125980140Y-60350642D01*
X125981928Y-60332483D01*
X125995000Y-60199765D01*
X125995000Y-60199758D01*
X125999968Y-60149314D01*
X125995000Y-60098871D01*
X125995000Y-53179755D01*
X126389000Y-53179755D01*
X126389000Y-53500245D01*
X126451525Y-53814578D01*
X126574172Y-54110673D01*
X126752227Y-54377152D01*
X126978848Y-54603773D01*
X126989001Y-54610557D01*
X126989000Y-58303495D01*
X126829901Y-58462594D01*
X126662790Y-58712694D01*
X126547681Y-58990590D01*
X126489000Y-59285604D01*
X126489000Y-59586396D01*
X126547681Y-59881410D01*
X126662790Y-60159306D01*
X126829901Y-60409406D01*
X127042594Y-60622099D01*
X127292694Y-60789210D01*
X127570590Y-60904319D01*
X127865604Y-60963000D01*
X128166396Y-60963000D01*
X128461410Y-60904319D01*
X128739306Y-60789210D01*
X128989406Y-60622099D01*
X129202099Y-60409406D01*
X129369210Y-60159306D01*
X129484319Y-59881410D01*
X129543000Y-59586396D01*
X129543000Y-59285604D01*
X129484319Y-58990590D01*
X129369210Y-58712694D01*
X129202099Y-58462594D01*
X129043000Y-58303495D01*
X129043000Y-54610556D01*
X129053152Y-54603773D01*
X129103507Y-54553418D01*
X129125463Y-54594494D01*
X129204815Y-54691185D01*
X129301506Y-54770537D01*
X129411820Y-54829502D01*
X129531518Y-54865812D01*
X129656000Y-54878072D01*
X130270250Y-54875000D01*
X130429000Y-54716250D01*
X130429000Y-53467000D01*
X130683000Y-53467000D01*
X130683000Y-54716250D01*
X130841750Y-54875000D01*
X131456000Y-54878072D01*
X131580482Y-54865812D01*
X131700180Y-54829502D01*
X131810494Y-54770537D01*
X131907185Y-54691185D01*
X131986537Y-54594494D01*
X132045502Y-54484180D01*
X132081812Y-54364482D01*
X132094072Y-54240000D01*
X132091000Y-53625750D01*
X131932250Y-53467000D01*
X130683000Y-53467000D01*
X130429000Y-53467000D01*
X130409000Y-53467000D01*
X130409000Y-53213000D01*
X130429000Y-53213000D01*
X130429000Y-51963750D01*
X130683000Y-51963750D01*
X130683000Y-53213000D01*
X131932250Y-53213000D01*
X132091000Y-53054250D01*
X132094072Y-52440000D01*
X132081812Y-52315518D01*
X132045502Y-52195820D01*
X131986537Y-52085506D01*
X131907185Y-51988815D01*
X131810494Y-51909463D01*
X131700180Y-51850498D01*
X131580482Y-51814188D01*
X131456000Y-51801928D01*
X130841750Y-51805000D01*
X130683000Y-51963750D01*
X130429000Y-51963750D01*
X130270250Y-51805000D01*
X129656000Y-51801928D01*
X129531518Y-51814188D01*
X129411820Y-51850498D01*
X129301506Y-51909463D01*
X129204815Y-51988815D01*
X129125463Y-52085506D01*
X129103507Y-52126582D01*
X129053152Y-52076227D01*
X128786673Y-51898172D01*
X128490578Y-51775525D01*
X128176245Y-51713000D01*
X127855755Y-51713000D01*
X127541422Y-51775525D01*
X127245327Y-51898172D01*
X126978848Y-52076227D01*
X126752227Y-52302848D01*
X126574172Y-52569327D01*
X126451525Y-52865422D01*
X126389000Y-53179755D01*
X125995000Y-53179755D01*
X125995000Y-46653396D01*
X126674524Y-45973873D01*
X126713712Y-45941712D01*
X126842051Y-45785331D01*
X126937415Y-45606917D01*
X126996140Y-45413327D01*
X127011000Y-45262451D01*
X127011000Y-45262441D01*
X127015968Y-45212000D01*
X127011000Y-45161559D01*
X127011000Y-44312505D01*
X127170099Y-44153406D01*
X127313677Y-43938525D01*
X127371615Y-44035131D01*
X127560586Y-44243519D01*
X127786580Y-44411037D01*
X128040913Y-44531246D01*
X128174961Y-44571904D01*
X128397000Y-44449915D01*
X128397000Y-43307000D01*
X128377000Y-43307000D01*
X128377000Y-43053000D01*
X128397000Y-43053000D01*
X128397000Y-41910085D01*
X128174961Y-41788096D01*
X128040913Y-41828754D01*
X127786580Y-41948963D01*
X127560586Y-42116481D01*
X127371615Y-42324869D01*
X127313677Y-42421475D01*
X127170099Y-42206594D01*
X126957406Y-41993901D01*
X126707306Y-41826790D01*
X126429410Y-41711681D01*
X126211001Y-41668237D01*
X126211001Y-41357395D01*
X129214525Y-38353872D01*
X129253712Y-38321712D01*
X129382051Y-38165331D01*
X129477415Y-37986917D01*
X129536140Y-37793327D01*
X129551000Y-37642451D01*
X129551000Y-37642444D01*
X129555968Y-37592000D01*
X129551000Y-37541557D01*
X129551000Y-36692505D01*
X129710099Y-36533406D01*
X129794000Y-36407839D01*
X129877901Y-36533406D01*
X130090594Y-36746099D01*
X130340694Y-36913210D01*
X130618590Y-37028319D01*
X130913604Y-37087000D01*
X131214396Y-37087000D01*
X131509410Y-37028319D01*
X131787306Y-36913210D01*
X132037406Y-36746099D01*
X132250099Y-36533406D01*
X132334000Y-36407839D01*
X132417901Y-36533406D01*
G37*
X132417901Y-36533406D02*
X132577000Y-36692505D01*
X132577001Y-40081549D01*
X132572032Y-40132000D01*
X132577001Y-40182451D01*
X132591861Y-40333327D01*
X132650586Y-40526917D01*
X132745950Y-40705331D01*
X132874289Y-40861712D01*
X132913476Y-40893872D01*
X133350123Y-41330519D01*
X133382288Y-41369712D01*
X133538669Y-41498051D01*
X133717083Y-41593415D01*
X133910673Y-41652140D01*
X134061549Y-41667000D01*
X134061558Y-41667000D01*
X134111999Y-41671968D01*
X134162440Y-41667000D01*
X135923220Y-41667000D01*
X135698590Y-41711681D01*
X135420694Y-41826790D01*
X135170594Y-41993901D01*
X134957901Y-42206594D01*
X134874000Y-42332161D01*
X134790099Y-42206594D01*
X134577406Y-41993901D01*
X134327306Y-41826790D01*
X134049410Y-41711681D01*
X133754396Y-41653000D01*
X133453604Y-41653000D01*
X133158590Y-41711681D01*
X132880694Y-41826790D01*
X132630594Y-41993901D01*
X132417901Y-42206594D01*
X132334000Y-42332161D01*
X132250099Y-42206594D01*
X132037406Y-41993901D01*
X131787306Y-41826790D01*
X131509410Y-41711681D01*
X131214396Y-41653000D01*
X130913604Y-41653000D01*
X130618590Y-41711681D01*
X130340694Y-41826790D01*
X130090594Y-41993901D01*
X129877901Y-42206594D01*
X129734323Y-42421475D01*
X129676385Y-42324869D01*
X129487414Y-42116481D01*
X129261420Y-41948963D01*
X129007087Y-41828754D01*
X128873039Y-41788096D01*
X128651000Y-41910085D01*
X128651000Y-43053000D01*
X128671000Y-43053000D01*
X128671000Y-43307000D01*
X128651000Y-43307000D01*
X128651000Y-44449915D01*
X128873039Y-44571904D01*
X129007087Y-44531246D01*
X129261420Y-44411037D01*
X129487414Y-44243519D01*
X129676385Y-44035131D01*
X129734323Y-43938525D01*
X129877901Y-44153406D01*
X130037001Y-44312506D01*
X130037000Y-45923559D01*
X130032032Y-45974000D01*
X130037000Y-46024441D01*
X130037000Y-46024450D01*
X130051860Y-46175326D01*
X130110585Y-46368916D01*
X130205949Y-46547331D01*
X130334288Y-46703712D01*
X130373481Y-46735877D01*
X134620127Y-50982524D01*
X134652288Y-51021712D01*
X134808669Y-51150051D01*
X134972415Y-51237575D01*
X134817959Y-51301553D01*
X134535102Y-51490552D01*
X134294552Y-51731102D01*
X134105553Y-52013959D01*
X133975368Y-52328253D01*
X133909000Y-52661905D01*
X133909000Y-53002095D01*
X133975368Y-53335747D01*
X134105553Y-53650041D01*
X134294552Y-53932898D01*
X134535102Y-54173448D01*
X134609001Y-54222826D01*
X134609000Y-58303495D01*
X134449901Y-58462594D01*
X134282790Y-58712694D01*
X134167681Y-58990590D01*
X134109000Y-59285604D01*
X134109000Y-59586396D01*
X134167681Y-59881410D01*
X134282790Y-60159306D01*
X134449901Y-60409406D01*
X134609000Y-60568505D01*
X134609001Y-64438189D01*
X134595483Y-64439520D01*
X134458443Y-64481090D01*
X134332147Y-64548597D01*
X134221446Y-64639446D01*
X134130597Y-64750147D01*
X134063090Y-64876443D01*
X134021520Y-65013483D01*
X134007483Y-65156000D01*
X134007483Y-66029000D01*
X131113686Y-66029000D01*
X131112910Y-66026443D01*
X131048532Y-65906000D01*
X131112910Y-65785557D01*
X131154480Y-65648517D01*
X131168517Y-65506000D01*
X131168517Y-64006000D01*
X131154480Y-63863483D01*
X131112910Y-63726443D01*
X131045403Y-63600147D01*
X130954554Y-63489446D01*
X130843853Y-63398597D01*
X130717557Y-63331090D01*
X130580517Y-63289520D01*
X130438000Y-63275483D01*
X128438000Y-63275483D01*
X128295483Y-63289520D01*
X128158443Y-63331090D01*
X128032147Y-63398597D01*
X127921989Y-63489000D01*
X123080711Y-63489000D01*
X125658530Y-60911182D01*
X125697712Y-60879026D01*
X125729868Y-60839844D01*
X125729873Y-60839839D01*
X125826051Y-60722646D01*
X125921415Y-60544232D01*
X125980140Y-60350642D01*
X125981928Y-60332483D01*
X125995000Y-60199765D01*
X125995000Y-60199758D01*
X125999968Y-60149314D01*
X125995000Y-60098871D01*
X125995000Y-53179755D01*
X126389000Y-53179755D01*
X126389000Y-53500245D01*
X126451525Y-53814578D01*
X126574172Y-54110673D01*
X126752227Y-54377152D01*
X126978848Y-54603773D01*
X126989001Y-54610557D01*
X126989000Y-58303495D01*
X126829901Y-58462594D01*
X126662790Y-58712694D01*
X126547681Y-58990590D01*
X126489000Y-59285604D01*
X126489000Y-59586396D01*
X126547681Y-59881410D01*
X126662790Y-60159306D01*
X126829901Y-60409406D01*
X127042594Y-60622099D01*
X127292694Y-60789210D01*
X127570590Y-60904319D01*
X127865604Y-60963000D01*
X128166396Y-60963000D01*
X128461410Y-60904319D01*
X128739306Y-60789210D01*
X128989406Y-60622099D01*
X129202099Y-60409406D01*
X129369210Y-60159306D01*
X129484319Y-59881410D01*
X129543000Y-59586396D01*
X129543000Y-59285604D01*
X129484319Y-58990590D01*
X129369210Y-58712694D01*
X129202099Y-58462594D01*
X129043000Y-58303495D01*
X129043000Y-54610556D01*
X129053152Y-54603773D01*
X129103507Y-54553418D01*
X129125463Y-54594494D01*
X129204815Y-54691185D01*
X129301506Y-54770537D01*
X129411820Y-54829502D01*
X129531518Y-54865812D01*
X129656000Y-54878072D01*
X130270250Y-54875000D01*
X130429000Y-54716250D01*
X130429000Y-53467000D01*
X130683000Y-53467000D01*
X130683000Y-54716250D01*
X130841750Y-54875000D01*
X131456000Y-54878072D01*
X131580482Y-54865812D01*
X131700180Y-54829502D01*
X131810494Y-54770537D01*
X131907185Y-54691185D01*
X131986537Y-54594494D01*
X132045502Y-54484180D01*
X132081812Y-54364482D01*
X132094072Y-54240000D01*
X132091000Y-53625750D01*
X131932250Y-53467000D01*
X130683000Y-53467000D01*
X130429000Y-53467000D01*
X130409000Y-53467000D01*
X130409000Y-53213000D01*
X130429000Y-53213000D01*
X130429000Y-51963750D01*
X130683000Y-51963750D01*
X130683000Y-53213000D01*
X131932250Y-53213000D01*
X132091000Y-53054250D01*
X132094072Y-52440000D01*
X132081812Y-52315518D01*
X132045502Y-52195820D01*
X131986537Y-52085506D01*
X131907185Y-51988815D01*
X131810494Y-51909463D01*
X131700180Y-51850498D01*
X131580482Y-51814188D01*
X131456000Y-51801928D01*
X130841750Y-51805000D01*
X130683000Y-51963750D01*
X130429000Y-51963750D01*
X130270250Y-51805000D01*
X129656000Y-51801928D01*
X129531518Y-51814188D01*
X129411820Y-51850498D01*
X129301506Y-51909463D01*
X129204815Y-51988815D01*
X129125463Y-52085506D01*
X129103507Y-52126582D01*
X129053152Y-52076227D01*
X128786673Y-51898172D01*
X128490578Y-51775525D01*
X128176245Y-51713000D01*
X127855755Y-51713000D01*
X127541422Y-51775525D01*
X127245327Y-51898172D01*
X126978848Y-52076227D01*
X126752227Y-52302848D01*
X126574172Y-52569327D01*
X126451525Y-52865422D01*
X126389000Y-53179755D01*
X125995000Y-53179755D01*
X125995000Y-46653396D01*
X126674524Y-45973873D01*
X126713712Y-45941712D01*
X126842051Y-45785331D01*
X126937415Y-45606917D01*
X126996140Y-45413327D01*
X127011000Y-45262451D01*
X127011000Y-45262441D01*
X127015968Y-45212000D01*
X127011000Y-45161559D01*
X127011000Y-44312505D01*
X127170099Y-44153406D01*
X127313677Y-43938525D01*
X127371615Y-44035131D01*
X127560586Y-44243519D01*
X127786580Y-44411037D01*
X128040913Y-44531246D01*
X128174961Y-44571904D01*
X128397000Y-44449915D01*
X128397000Y-43307000D01*
X128377000Y-43307000D01*
X128377000Y-43053000D01*
X128397000Y-43053000D01*
X128397000Y-41910085D01*
X128174961Y-41788096D01*
X128040913Y-41828754D01*
X127786580Y-41948963D01*
X127560586Y-42116481D01*
X127371615Y-42324869D01*
X127313677Y-42421475D01*
X127170099Y-42206594D01*
X126957406Y-41993901D01*
X126707306Y-41826790D01*
X126429410Y-41711681D01*
X126211001Y-41668237D01*
X126211001Y-41357395D01*
X129214525Y-38353872D01*
X129253712Y-38321712D01*
X129382051Y-38165331D01*
X129477415Y-37986917D01*
X129536140Y-37793327D01*
X129551000Y-37642451D01*
X129551000Y-37642444D01*
X129555968Y-37592000D01*
X129551000Y-37541557D01*
X129551000Y-36692505D01*
X129710099Y-36533406D01*
X129794000Y-36407839D01*
X129877901Y-36533406D01*
X130090594Y-36746099D01*
X130340694Y-36913210D01*
X130618590Y-37028319D01*
X130913604Y-37087000D01*
X131214396Y-37087000D01*
X131509410Y-37028319D01*
X131787306Y-36913210D01*
X132037406Y-36746099D01*
X132250099Y-36533406D01*
X132334000Y-36407839D01*
X132417901Y-36533406D01*
G36*
X109910552Y-48344898D02*
G01*
X110151102Y-48585448D01*
X110225001Y-48634825D01*
X110225000Y-49721236D01*
X110095418Y-49850818D01*
X109932465Y-50094694D01*
X109820221Y-50365675D01*
X109763000Y-50653346D01*
X109763000Y-50946654D01*
X109820221Y-51234325D01*
X109932465Y-51505306D01*
X110095418Y-51749182D01*
X110302818Y-51956582D01*
X110317872Y-51966641D01*
X110245820Y-51988498D01*
X110135506Y-52047463D01*
X110038815Y-52126815D01*
X109959463Y-52223506D01*
X109900498Y-52333820D01*
X109864188Y-52453518D01*
X109851928Y-52578000D01*
X109855000Y-53054250D01*
X110013750Y-53213000D01*
X111125000Y-53213000D01*
X111125000Y-53193000D01*
X111379000Y-53193000D01*
X111379000Y-53213000D01*
X111399000Y-53213000D01*
X111399000Y-53467000D01*
X111379000Y-53467000D01*
X111379000Y-54578250D01*
X111537750Y-54737000D01*
X112014000Y-54740072D01*
X112138482Y-54727812D01*
X112258180Y-54691502D01*
X112368494Y-54632537D01*
X112465185Y-54553185D01*
X112544537Y-54456494D01*
X112603502Y-54346180D01*
X112625359Y-54274128D01*
X112635418Y-54289182D01*
X112765001Y-54418765D01*
X112765000Y-57486603D01*
X112096604Y-58155000D01*
X110661397Y-58155000D01*
X109739000Y-57232604D01*
X109739000Y-54102000D01*
X109851928Y-54102000D01*
X109864188Y-54226482D01*
X109900498Y-54346180D01*
X109959463Y-54456494D01*
X110038815Y-54553185D01*
X110135506Y-54632537D01*
X110245820Y-54691502D01*
X110365518Y-54727812D01*
X110490000Y-54740072D01*
X110966250Y-54737000D01*
X111125000Y-54578250D01*
X111125000Y-53467000D01*
X110013750Y-53467000D01*
X109855000Y-53625750D01*
X109851928Y-54102000D01*
X109739000Y-54102000D01*
X109739000Y-48088152D01*
X109910552Y-48344898D01*
G37*
X109910552Y-48344898D02*
X110151102Y-48585448D01*
X110225001Y-48634825D01*
X110225000Y-49721236D01*
X110095418Y-49850818D01*
X109932465Y-50094694D01*
X109820221Y-50365675D01*
X109763000Y-50653346D01*
X109763000Y-50946654D01*
X109820221Y-51234325D01*
X109932465Y-51505306D01*
X110095418Y-51749182D01*
X110302818Y-51956582D01*
X110317872Y-51966641D01*
X110245820Y-51988498D01*
X110135506Y-52047463D01*
X110038815Y-52126815D01*
X109959463Y-52223506D01*
X109900498Y-52333820D01*
X109864188Y-52453518D01*
X109851928Y-52578000D01*
X109855000Y-53054250D01*
X110013750Y-53213000D01*
X111125000Y-53213000D01*
X111125000Y-53193000D01*
X111379000Y-53193000D01*
X111379000Y-53213000D01*
X111399000Y-53213000D01*
X111399000Y-53467000D01*
X111379000Y-53467000D01*
X111379000Y-54578250D01*
X111537750Y-54737000D01*
X112014000Y-54740072D01*
X112138482Y-54727812D01*
X112258180Y-54691502D01*
X112368494Y-54632537D01*
X112465185Y-54553185D01*
X112544537Y-54456494D01*
X112603502Y-54346180D01*
X112625359Y-54274128D01*
X112635418Y-54289182D01*
X112765001Y-54418765D01*
X112765000Y-57486603D01*
X112096604Y-58155000D01*
X110661397Y-58155000D01*
X109739000Y-57232604D01*
X109739000Y-54102000D01*
X109851928Y-54102000D01*
X109864188Y-54226482D01*
X109900498Y-54346180D01*
X109959463Y-54456494D01*
X110038815Y-54553185D01*
X110135506Y-54632537D01*
X110245820Y-54691502D01*
X110365518Y-54727812D01*
X110490000Y-54740072D01*
X110966250Y-54737000D01*
X111125000Y-54578250D01*
X111125000Y-53467000D01*
X110013750Y-53467000D01*
X109855000Y-53625750D01*
X109851928Y-54102000D01*
X109739000Y-54102000D01*
X109739000Y-48088152D01*
X109910552Y-48344898D01*
G36*
X153913000Y-44113397D02*
G01*
X153913001Y-53930602D01*
X152020121Y-55823483D01*
X151042000Y-55823483D01*
X150899483Y-55837520D01*
X150762443Y-55879090D01*
X150636147Y-55946597D01*
X150525446Y-56037446D01*
X150434597Y-56148147D01*
X150396896Y-56218681D01*
X150379000Y-56200785D01*
X150379000Y-54999525D01*
X150565959Y-55124447D01*
X150880253Y-55254632D01*
X151213905Y-55321000D01*
X151554095Y-55321000D01*
X151887747Y-55254632D01*
X152202041Y-55124447D01*
X152484898Y-54935448D01*
X152725448Y-54694898D01*
X152914447Y-54412041D01*
X153044632Y-54097747D01*
X153111000Y-53764095D01*
X153111000Y-53423905D01*
X153044632Y-53090253D01*
X152914447Y-52775959D01*
X152725448Y-52493102D01*
X152484898Y-52252552D01*
X152202041Y-52063553D01*
X151887747Y-51933368D01*
X151554095Y-51867000D01*
X151363397Y-51867000D01*
X150431306Y-50934909D01*
X150464877Y-50901338D01*
X150511463Y-50988494D01*
X150590815Y-51085185D01*
X150687506Y-51164537D01*
X150797820Y-51223502D01*
X150917518Y-51259812D01*
X151042000Y-51272072D01*
X151606250Y-51269000D01*
X151765000Y-51110250D01*
X151765000Y-49911000D01*
X152019000Y-49911000D01*
X152019000Y-51110250D01*
X152177750Y-51269000D01*
X152742000Y-51272072D01*
X152866482Y-51259812D01*
X152986180Y-51223502D01*
X153096494Y-51164537D01*
X153193185Y-51085185D01*
X153272537Y-50988494D01*
X153331502Y-50878180D01*
X153367812Y-50758482D01*
X153380072Y-50634000D01*
X153377000Y-50069750D01*
X153218250Y-49911000D01*
X152019000Y-49911000D01*
X151765000Y-49911000D01*
X151745000Y-49911000D01*
X151745000Y-49657000D01*
X151765000Y-49657000D01*
X151765000Y-48457750D01*
X152019000Y-48457750D01*
X152019000Y-49657000D01*
X153218250Y-49657000D01*
X153377000Y-49498250D01*
X153380072Y-48934000D01*
X153367812Y-48809518D01*
X153331502Y-48689820D01*
X153272537Y-48579506D01*
X153193185Y-48482815D01*
X153096494Y-48403463D01*
X152986180Y-48344498D01*
X152866482Y-48308188D01*
X152742000Y-48295928D01*
X152177750Y-48299000D01*
X152019000Y-48457750D01*
X151765000Y-48457750D01*
X151606250Y-48299000D01*
X151042000Y-48295928D01*
X150917518Y-48308188D01*
X150797820Y-48344498D01*
X150687506Y-48403463D01*
X150590815Y-48482815D01*
X150511463Y-48579506D01*
X150464877Y-48666662D01*
X150357279Y-48559064D01*
X150098989Y-48386481D01*
X149811994Y-48267604D01*
X149507321Y-48207000D01*
X149196679Y-48207000D01*
X148892006Y-48267604D01*
X148605011Y-48386481D01*
X148346721Y-48559064D01*
X148127064Y-48778721D01*
X148082000Y-48846164D01*
X148036936Y-48778721D01*
X147839000Y-48580785D01*
X147839000Y-48310440D01*
X147843968Y-48259999D01*
X147839000Y-48209558D01*
X147839000Y-48209549D01*
X147824140Y-48058673D01*
X147765415Y-47865083D01*
X147670051Y-47686669D01*
X147541712Y-47530288D01*
X147502519Y-47498123D01*
X147065877Y-47061481D01*
X147033712Y-47022288D01*
X146877331Y-46893949D01*
X146698917Y-46798585D01*
X146505327Y-46739860D01*
X146354451Y-46725000D01*
X146354441Y-46725000D01*
X146304000Y-46720032D01*
X146253559Y-46725000D01*
X145205397Y-46725000D01*
X144791000Y-46310604D01*
X144791000Y-44312505D01*
X144950099Y-44153406D01*
X145117210Y-43903306D01*
X145232319Y-43625410D01*
X145291000Y-43330396D01*
X145291000Y-43029604D01*
X145232319Y-42734590D01*
X145117210Y-42456694D01*
X144950099Y-42206594D01*
X144737406Y-41993901D01*
X144487306Y-41826790D01*
X144209410Y-41711681D01*
X143984780Y-41667000D01*
X151466604Y-41667000D01*
X153913000Y-44113397D01*
G37*
X153913000Y-44113397D02*
X153913001Y-53930602D01*
X152020121Y-55823483D01*
X151042000Y-55823483D01*
X150899483Y-55837520D01*
X150762443Y-55879090D01*
X150636147Y-55946597D01*
X150525446Y-56037446D01*
X150434597Y-56148147D01*
X150396896Y-56218681D01*
X150379000Y-56200785D01*
X150379000Y-54999525D01*
X150565959Y-55124447D01*
X150880253Y-55254632D01*
X151213905Y-55321000D01*
X151554095Y-55321000D01*
X151887747Y-55254632D01*
X152202041Y-55124447D01*
X152484898Y-54935448D01*
X152725448Y-54694898D01*
X152914447Y-54412041D01*
X153044632Y-54097747D01*
X153111000Y-53764095D01*
X153111000Y-53423905D01*
X153044632Y-53090253D01*
X152914447Y-52775959D01*
X152725448Y-52493102D01*
X152484898Y-52252552D01*
X152202041Y-52063553D01*
X151887747Y-51933368D01*
X151554095Y-51867000D01*
X151363397Y-51867000D01*
X150431306Y-50934909D01*
X150464877Y-50901338D01*
X150511463Y-50988494D01*
X150590815Y-51085185D01*
X150687506Y-51164537D01*
X150797820Y-51223502D01*
X150917518Y-51259812D01*
X151042000Y-51272072D01*
X151606250Y-51269000D01*
X151765000Y-51110250D01*
X151765000Y-49911000D01*
X152019000Y-49911000D01*
X152019000Y-51110250D01*
X152177750Y-51269000D01*
X152742000Y-51272072D01*
X152866482Y-51259812D01*
X152986180Y-51223502D01*
X153096494Y-51164537D01*
X153193185Y-51085185D01*
X153272537Y-50988494D01*
X153331502Y-50878180D01*
X153367812Y-50758482D01*
X153380072Y-50634000D01*
X153377000Y-50069750D01*
X153218250Y-49911000D01*
X152019000Y-49911000D01*
X151765000Y-49911000D01*
X151745000Y-49911000D01*
X151745000Y-49657000D01*
X151765000Y-49657000D01*
X151765000Y-48457750D01*
X152019000Y-48457750D01*
X152019000Y-49657000D01*
X153218250Y-49657000D01*
X153377000Y-49498250D01*
X153380072Y-48934000D01*
X153367812Y-48809518D01*
X153331502Y-48689820D01*
X153272537Y-48579506D01*
X153193185Y-48482815D01*
X153096494Y-48403463D01*
X152986180Y-48344498D01*
X152866482Y-48308188D01*
X152742000Y-48295928D01*
X152177750Y-48299000D01*
X152019000Y-48457750D01*
X151765000Y-48457750D01*
X151606250Y-48299000D01*
X151042000Y-48295928D01*
X150917518Y-48308188D01*
X150797820Y-48344498D01*
X150687506Y-48403463D01*
X150590815Y-48482815D01*
X150511463Y-48579506D01*
X150464877Y-48666662D01*
X150357279Y-48559064D01*
X150098989Y-48386481D01*
X149811994Y-48267604D01*
X149507321Y-48207000D01*
X149196679Y-48207000D01*
X148892006Y-48267604D01*
X148605011Y-48386481D01*
X148346721Y-48559064D01*
X148127064Y-48778721D01*
X148082000Y-48846164D01*
X148036936Y-48778721D01*
X147839000Y-48580785D01*
X147839000Y-48310440D01*
X147843968Y-48259999D01*
X147839000Y-48209558D01*
X147839000Y-48209549D01*
X147824140Y-48058673D01*
X147765415Y-47865083D01*
X147670051Y-47686669D01*
X147541712Y-47530288D01*
X147502519Y-47498123D01*
X147065877Y-47061481D01*
X147033712Y-47022288D01*
X146877331Y-46893949D01*
X146698917Y-46798585D01*
X146505327Y-46739860D01*
X146354451Y-46725000D01*
X146354441Y-46725000D01*
X146304000Y-46720032D01*
X146253559Y-46725000D01*
X145205397Y-46725000D01*
X144791000Y-46310604D01*
X144791000Y-44312505D01*
X144950099Y-44153406D01*
X145117210Y-43903306D01*
X145232319Y-43625410D01*
X145291000Y-43330396D01*
X145291000Y-43029604D01*
X145232319Y-42734590D01*
X145117210Y-42456694D01*
X144950099Y-42206594D01*
X144737406Y-41993901D01*
X144487306Y-41826790D01*
X144209410Y-41711681D01*
X143984780Y-41667000D01*
X151466604Y-41667000D01*
X153913000Y-44113397D01*
G36*
X140970127Y-31678524D02*
G01*
X141002288Y-31717712D01*
X141158669Y-31846051D01*
X141337083Y-31941415D01*
X141530673Y-32000140D01*
X141681549Y-32015000D01*
X141681558Y-32015000D01*
X141731999Y-32019968D01*
X141782440Y-32015000D01*
X142631495Y-32015000D01*
X142737000Y-32120505D01*
X142737001Y-34069147D01*
X142684443Y-34085090D01*
X142558147Y-34152597D01*
X142447446Y-34243446D01*
X142356597Y-34354147D01*
X142294265Y-34470760D01*
X142197406Y-34373901D01*
X141947306Y-34206790D01*
X141669410Y-34091681D01*
X141374396Y-34033000D01*
X141073604Y-34033000D01*
X140778590Y-34091681D01*
X140500694Y-34206790D01*
X140250594Y-34373901D01*
X140037901Y-34586594D01*
X139954000Y-34712161D01*
X139870099Y-34586594D01*
X139657406Y-34373901D01*
X139407306Y-34206790D01*
X139129410Y-34091681D01*
X138834396Y-34033000D01*
X138533604Y-34033000D01*
X138238590Y-34091681D01*
X137960694Y-34206790D01*
X137710594Y-34373901D01*
X137497901Y-34586594D01*
X137414000Y-34712161D01*
X137330099Y-34586594D01*
X137117406Y-34373901D01*
X136867306Y-34206790D01*
X136589410Y-34091681D01*
X136294396Y-34033000D01*
X135993604Y-34033000D01*
X135698590Y-34091681D01*
X135420694Y-34206790D01*
X135170594Y-34373901D01*
X134957901Y-34586594D01*
X134874000Y-34712161D01*
X134790099Y-34586594D01*
X134577406Y-34373901D01*
X134327306Y-34206790D01*
X134049410Y-34091681D01*
X133754396Y-34033000D01*
X133453604Y-34033000D01*
X133158590Y-34091681D01*
X132880694Y-34206790D01*
X132630594Y-34373901D01*
X132417901Y-34586594D01*
X132334000Y-34712161D01*
X132250099Y-34586594D01*
X132037406Y-34373901D01*
X131787306Y-34206790D01*
X131509410Y-34091681D01*
X131214396Y-34033000D01*
X130913604Y-34033000D01*
X130618590Y-34091681D01*
X130340694Y-34206790D01*
X130090594Y-34373901D01*
X129877901Y-34586594D01*
X129794000Y-34712161D01*
X129710099Y-34586594D01*
X129567951Y-34444446D01*
X131997397Y-32015000D01*
X135011495Y-32015000D01*
X135170594Y-32174099D01*
X135420694Y-32341210D01*
X135698590Y-32456319D01*
X135993604Y-32515000D01*
X136294396Y-32515000D01*
X136589410Y-32456319D01*
X136867306Y-32341210D01*
X137117406Y-32174099D01*
X137330099Y-31961406D01*
X137497210Y-31711306D01*
X137612319Y-31433410D01*
X137671000Y-31138396D01*
X137671000Y-30837604D01*
X137612319Y-30542590D01*
X137497210Y-30264694D01*
X137330099Y-30014594D01*
X137117406Y-29801901D01*
X136867306Y-29634790D01*
X136589410Y-29519681D01*
X136294396Y-29461000D01*
X135993604Y-29461000D01*
X135698590Y-29519681D01*
X135420694Y-29634790D01*
X135170594Y-29801901D01*
X135011495Y-29961000D01*
X131622441Y-29961000D01*
X131572000Y-29956032D01*
X131521559Y-29961000D01*
X131521549Y-29961000D01*
X131370673Y-29975860D01*
X131177083Y-30034585D01*
X130998669Y-30129949D01*
X130842288Y-30258288D01*
X130810128Y-30297475D01*
X127833476Y-33274128D01*
X127794289Y-33306288D01*
X127762129Y-33345475D01*
X127762128Y-33345476D01*
X127665950Y-33462669D01*
X127570586Y-33641083D01*
X127511861Y-33834673D01*
X127492032Y-34036000D01*
X127497001Y-34086450D01*
X127497001Y-34427494D01*
X127337901Y-34586594D01*
X127194323Y-34801475D01*
X127136385Y-34704869D01*
X126947414Y-34496481D01*
X126721420Y-34328963D01*
X126467087Y-34208754D01*
X126333039Y-34168096D01*
X126111000Y-34290085D01*
X126111000Y-35433000D01*
X126131000Y-35433000D01*
X126131000Y-35687000D01*
X126111000Y-35687000D01*
X126111000Y-36829915D01*
X126333039Y-36951904D01*
X126467087Y-36911246D01*
X126721420Y-36791037D01*
X126947414Y-36623519D01*
X127136385Y-36415131D01*
X127194323Y-36318525D01*
X127337901Y-36533406D01*
X127497000Y-36692505D01*
X127497000Y-37166603D01*
X124493477Y-40170127D01*
X124454290Y-40202287D01*
X124422130Y-40241474D01*
X124422129Y-40241475D01*
X124325951Y-40358668D01*
X124230587Y-40537082D01*
X124171862Y-40730672D01*
X124152033Y-40931999D01*
X124157002Y-40982449D01*
X124157001Y-41822522D01*
X123889410Y-41711681D01*
X123594396Y-41653000D01*
X123293604Y-41653000D01*
X122998590Y-41711681D01*
X122720694Y-41826790D01*
X122470594Y-41993901D01*
X122257901Y-42206594D01*
X122174000Y-42332161D01*
X122090099Y-42206594D01*
X121935624Y-42052119D01*
X121935968Y-42048629D01*
X121931000Y-41998188D01*
X121931000Y-41998179D01*
X121916140Y-41847303D01*
X121857415Y-41653713D01*
X121762051Y-41475299D01*
X121633712Y-41318918D01*
X121594524Y-41286757D01*
X120511247Y-40203481D01*
X120479082Y-40164288D01*
X120322701Y-40035949D01*
X120144287Y-39940585D01*
X119950697Y-39881860D01*
X119799821Y-39867000D01*
X119799811Y-39867000D01*
X119749370Y-39862032D01*
X119698929Y-39867000D01*
X109270441Y-39867000D01*
X109220000Y-39862032D01*
X109169559Y-39867000D01*
X109169549Y-39867000D01*
X109018673Y-39881860D01*
X108825083Y-39940585D01*
X108646669Y-40035949D01*
X108490288Y-40164288D01*
X108458128Y-40203475D01*
X106497481Y-42164123D01*
X106458288Y-42196288D01*
X106329949Y-42352669D01*
X106234585Y-42531084D01*
X106183000Y-42701137D01*
X106183000Y-35409604D01*
X109217000Y-35409604D01*
X109217000Y-35710396D01*
X109275681Y-36005410D01*
X109390790Y-36283306D01*
X109557901Y-36533406D01*
X109770594Y-36746099D01*
X110020694Y-36913210D01*
X110298590Y-37028319D01*
X110593604Y-37087000D01*
X110894396Y-37087000D01*
X111189410Y-37028319D01*
X111467306Y-36913210D01*
X111717406Y-36746099D01*
X111930099Y-36533406D01*
X112014000Y-36407839D01*
X112097901Y-36533406D01*
X112310594Y-36746099D01*
X112560694Y-36913210D01*
X112838590Y-37028319D01*
X113133604Y-37087000D01*
X113434396Y-37087000D01*
X113729410Y-37028319D01*
X114007306Y-36913210D01*
X114257406Y-36746099D01*
X114470099Y-36533406D01*
X114554000Y-36407839D01*
X114637901Y-36533406D01*
X114850594Y-36746099D01*
X115100694Y-36913210D01*
X115378590Y-37028319D01*
X115673604Y-37087000D01*
X115974396Y-37087000D01*
X116269410Y-37028319D01*
X116547306Y-36913210D01*
X116797406Y-36746099D01*
X117010099Y-36533406D01*
X117094000Y-36407839D01*
X117177901Y-36533406D01*
X117390594Y-36746099D01*
X117640694Y-36913210D01*
X117918590Y-37028319D01*
X118213604Y-37087000D01*
X118514396Y-37087000D01*
X118809410Y-37028319D01*
X119087306Y-36913210D01*
X119337406Y-36746099D01*
X119550099Y-36533406D01*
X119634000Y-36407839D01*
X119717901Y-36533406D01*
X119930594Y-36746099D01*
X120180694Y-36913210D01*
X120458590Y-37028319D01*
X120753604Y-37087000D01*
X121054396Y-37087000D01*
X121349410Y-37028319D01*
X121627306Y-36913210D01*
X121877406Y-36746099D01*
X122090099Y-36533406D01*
X122174000Y-36407839D01*
X122257901Y-36533406D01*
X122470594Y-36746099D01*
X122720694Y-36913210D01*
X122998590Y-37028319D01*
X123293604Y-37087000D01*
X123594396Y-37087000D01*
X123889410Y-37028319D01*
X124167306Y-36913210D01*
X124417406Y-36746099D01*
X124630099Y-36533406D01*
X124773677Y-36318525D01*
X124831615Y-36415131D01*
X125020586Y-36623519D01*
X125246580Y-36791037D01*
X125500913Y-36911246D01*
X125634961Y-36951904D01*
X125857000Y-36829915D01*
X125857000Y-35687000D01*
X125837000Y-35687000D01*
X125837000Y-35433000D01*
X125857000Y-35433000D01*
X125857000Y-34290085D01*
X125634961Y-34168096D01*
X125500913Y-34208754D01*
X125246580Y-34328963D01*
X125020586Y-34496481D01*
X124831615Y-34704869D01*
X124773677Y-34801475D01*
X124630099Y-34586594D01*
X124471000Y-34427495D01*
X124471000Y-33953396D01*
X125909397Y-32515000D01*
X126134396Y-32515000D01*
X126429410Y-32456319D01*
X126707306Y-32341210D01*
X126957406Y-32174099D01*
X127170099Y-31961406D01*
X127337210Y-31711306D01*
X127452319Y-31433410D01*
X127511000Y-31138396D01*
X127511000Y-30837604D01*
X127452319Y-30542590D01*
X127337210Y-30264694D01*
X127170099Y-30014594D01*
X127011000Y-29855495D01*
X127011000Y-28892702D01*
X128726903Y-28892702D01*
X128798486Y-29136671D01*
X129053996Y-29257571D01*
X129328184Y-29326300D01*
X129610512Y-29340217D01*
X129890130Y-29298787D01*
X130156292Y-29203603D01*
X130281514Y-29136671D01*
X130353097Y-28892702D01*
X129540000Y-28079605D01*
X128726903Y-28892702D01*
X127011000Y-28892702D01*
X127011000Y-28365396D01*
X127253872Y-28122524D01*
X127405884Y-27970512D01*
X128099783Y-27970512D01*
X128141213Y-28250130D01*
X128236397Y-28516292D01*
X128303329Y-28641514D01*
X128547298Y-28713097D01*
X129360395Y-27900000D01*
X129719605Y-27900000D01*
X130532702Y-28713097D01*
X130776671Y-28641514D01*
X130897571Y-28386004D01*
X130966300Y-28111816D01*
X130980217Y-27829488D01*
X130938787Y-27549870D01*
X130843603Y-27283708D01*
X130776671Y-27158486D01*
X130532702Y-27086903D01*
X129719605Y-27900000D01*
X129360395Y-27900000D01*
X128547298Y-27086903D01*
X128303329Y-27158486D01*
X128182429Y-27413996D01*
X128113700Y-27688184D01*
X128099783Y-27970512D01*
X127405884Y-27970512D01*
X128700695Y-26675702D01*
X128779421Y-26728305D01*
X128726903Y-26907298D01*
X129540000Y-27720395D01*
X130353097Y-26907298D01*
X130300579Y-26728305D01*
X130513406Y-26586099D01*
X130726099Y-26373406D01*
X130893210Y-26123306D01*
X131008319Y-25845410D01*
X131067000Y-25550396D01*
X131067000Y-25249604D01*
X131008319Y-24954590D01*
X130893210Y-24676694D01*
X130726099Y-24426594D01*
X130513406Y-24213901D01*
X130263306Y-24046790D01*
X129985410Y-23931681D01*
X129690396Y-23873000D01*
X129389604Y-23873000D01*
X129094590Y-23931681D01*
X128816694Y-24046790D01*
X128566594Y-24213901D01*
X128400278Y-24380217D01*
X128322673Y-24387860D01*
X128129083Y-24446585D01*
X127950669Y-24541949D01*
X127794288Y-24670288D01*
X127762128Y-24709475D01*
X125984000Y-26487604D01*
X125937000Y-26440604D01*
X125937000Y-26270528D01*
X125880240Y-25985175D01*
X125768901Y-25716378D01*
X125607261Y-25474467D01*
X125401533Y-25268739D01*
X125159622Y-25107099D01*
X124890825Y-24995760D01*
X124605472Y-24939000D01*
X124314528Y-24939000D01*
X124029175Y-24995760D01*
X123760378Y-25107099D01*
X123518467Y-25268739D01*
X123312739Y-25474467D01*
X123151099Y-25716378D01*
X123039760Y-25985175D01*
X122983000Y-26270528D01*
X122983000Y-26561472D01*
X123039760Y-26846825D01*
X123151099Y-27115622D01*
X123312739Y-27357533D01*
X123518467Y-27563261D01*
X123760378Y-27724901D01*
X124029175Y-27836240D01*
X124314528Y-27893000D01*
X124484604Y-27893000D01*
X124957001Y-28365398D01*
X124957000Y-29855495D01*
X124797901Y-30014594D01*
X124630790Y-30264694D01*
X124515681Y-30542590D01*
X124457000Y-30837604D01*
X124457000Y-31062603D01*
X122753476Y-32766128D01*
X122714289Y-32798288D01*
X122682129Y-32837475D01*
X122682128Y-32837476D01*
X122585950Y-32954669D01*
X122490586Y-33133083D01*
X122431861Y-33326673D01*
X122412032Y-33528000D01*
X122417001Y-33578451D01*
X122417001Y-34427494D01*
X122257901Y-34586594D01*
X122174000Y-34712161D01*
X122090099Y-34586594D01*
X121931000Y-34427495D01*
X121931000Y-33578440D01*
X121935968Y-33527999D01*
X121931000Y-33477558D01*
X121931000Y-33477549D01*
X121916140Y-33326673D01*
X121857415Y-33133083D01*
X121762051Y-32954669D01*
X121633712Y-32798288D01*
X121594525Y-32766128D01*
X119891000Y-31062604D01*
X119891000Y-30837604D01*
X119832319Y-30542590D01*
X119717210Y-30264694D01*
X119550099Y-30014594D01*
X119391000Y-29855495D01*
X119391000Y-28057397D01*
X119555397Y-27893000D01*
X119725472Y-27893000D01*
X120010825Y-27836240D01*
X120279622Y-27724901D01*
X120521533Y-27563261D01*
X120727261Y-27357533D01*
X120888901Y-27115622D01*
X121000240Y-26846825D01*
X121057000Y-26561472D01*
X121057000Y-26270528D01*
X121000240Y-25985175D01*
X120888901Y-25716378D01*
X120727261Y-25474467D01*
X120521533Y-25268739D01*
X120279622Y-25107099D01*
X120010825Y-24995760D01*
X119725472Y-24939000D01*
X119434528Y-24939000D01*
X119149175Y-24995760D01*
X118880378Y-25107099D01*
X118638467Y-25268739D01*
X118432739Y-25474467D01*
X118271099Y-25716378D01*
X118162634Y-25978237D01*
X116893877Y-24709480D01*
X116861712Y-24670288D01*
X116705331Y-24541949D01*
X116526917Y-24446585D01*
X116333327Y-24387860D01*
X116182451Y-24373000D01*
X116182441Y-24373000D01*
X116132000Y-24368032D01*
X116081559Y-24373000D01*
X115432505Y-24373000D01*
X115273406Y-24213901D01*
X115023306Y-24046790D01*
X114745410Y-23931681D01*
X114450396Y-23873000D01*
X114149604Y-23873000D01*
X113854590Y-23931681D01*
X113576694Y-24046790D01*
X113326594Y-24213901D01*
X113113901Y-24426594D01*
X112946790Y-24676694D01*
X112831681Y-24954590D01*
X112773000Y-25249604D01*
X112773000Y-25550396D01*
X112831681Y-25845410D01*
X112946790Y-26123306D01*
X113113901Y-26373406D01*
X113326594Y-26586099D01*
X113539421Y-26728305D01*
X113486903Y-26907298D01*
X114300000Y-27720395D01*
X115113097Y-26907298D01*
X115060579Y-26728305D01*
X115273406Y-26586099D01*
X115432505Y-26427000D01*
X115706604Y-26427000D01*
X117337001Y-28057399D01*
X117337000Y-29855495D01*
X117177901Y-30014594D01*
X117010790Y-30264694D01*
X116895681Y-30542590D01*
X116837000Y-30837604D01*
X116837000Y-31138396D01*
X116895681Y-31433410D01*
X117010790Y-31711306D01*
X117177901Y-31961406D01*
X117390594Y-32174099D01*
X117640694Y-32341210D01*
X117918590Y-32456319D01*
X118213604Y-32515000D01*
X118438604Y-32515000D01*
X119877001Y-33953398D01*
X119877001Y-34427494D01*
X119717901Y-34586594D01*
X119634000Y-34712161D01*
X119550099Y-34586594D01*
X119337406Y-34373901D01*
X119087306Y-34206790D01*
X118809410Y-34091681D01*
X118514396Y-34033000D01*
X118213604Y-34033000D01*
X117918590Y-34091681D01*
X117640694Y-34206790D01*
X117390594Y-34373901D01*
X117177901Y-34586594D01*
X117094000Y-34712161D01*
X117010099Y-34586594D01*
X116797406Y-34373901D01*
X116547306Y-34206790D01*
X116269410Y-34091681D01*
X115974396Y-34033000D01*
X115673604Y-34033000D01*
X115378590Y-34091681D01*
X115100694Y-34206790D01*
X114850594Y-34373901D01*
X114637901Y-34586594D01*
X114554000Y-34712161D01*
X114470099Y-34586594D01*
X114257406Y-34373901D01*
X114007306Y-34206790D01*
X113729410Y-34091681D01*
X113434396Y-34033000D01*
X113133604Y-34033000D01*
X112838590Y-34091681D01*
X112560694Y-34206790D01*
X112310594Y-34373901D01*
X112097901Y-34586594D01*
X112014000Y-34712161D01*
X111930099Y-34586594D01*
X111717406Y-34373901D01*
X111467306Y-34206790D01*
X111189410Y-34091681D01*
X110894396Y-34033000D01*
X110593604Y-34033000D01*
X110298590Y-34091681D01*
X110020694Y-34206790D01*
X109770594Y-34373901D01*
X109557901Y-34586594D01*
X109390790Y-34836694D01*
X109275681Y-35114590D01*
X109217000Y-35409604D01*
X106183000Y-35409604D01*
X106183000Y-29381396D01*
X106671694Y-28892702D01*
X113486903Y-28892702D01*
X113558486Y-29136671D01*
X113813996Y-29257571D01*
X114088184Y-29326300D01*
X114370512Y-29340217D01*
X114650130Y-29298787D01*
X114916292Y-29203603D01*
X115041514Y-29136671D01*
X115113097Y-28892702D01*
X114300000Y-28079605D01*
X113486903Y-28892702D01*
X106671694Y-28892702D01*
X107593884Y-27970512D01*
X112859783Y-27970512D01*
X112901213Y-28250130D01*
X112996397Y-28516292D01*
X113063329Y-28641514D01*
X113307298Y-28713097D01*
X114120395Y-27900000D01*
X114479605Y-27900000D01*
X115292702Y-28713097D01*
X115536671Y-28641514D01*
X115657571Y-28386004D01*
X115726300Y-28111816D01*
X115740217Y-27829488D01*
X115698787Y-27549870D01*
X115603603Y-27283708D01*
X115536671Y-27158486D01*
X115292702Y-27086903D01*
X114479605Y-27900000D01*
X114120395Y-27900000D01*
X113307298Y-27086903D01*
X113063329Y-27158486D01*
X112942429Y-27413996D01*
X112873700Y-27688184D01*
X112859783Y-27970512D01*
X107593884Y-27970512D01*
X112185397Y-23379000D01*
X132670604Y-23379000D01*
X140970127Y-31678524D01*
G37*
X140970127Y-31678524D02*
X141002288Y-31717712D01*
X141158669Y-31846051D01*
X141337083Y-31941415D01*
X141530673Y-32000140D01*
X141681549Y-32015000D01*
X141681558Y-32015000D01*
X141731999Y-32019968D01*
X141782440Y-32015000D01*
X142631495Y-32015000D01*
X142737000Y-32120505D01*
X142737001Y-34069147D01*
X142684443Y-34085090D01*
X142558147Y-34152597D01*
X142447446Y-34243446D01*
X142356597Y-34354147D01*
X142294265Y-34470760D01*
X142197406Y-34373901D01*
X141947306Y-34206790D01*
X141669410Y-34091681D01*
X141374396Y-34033000D01*
X141073604Y-34033000D01*
X140778590Y-34091681D01*
X140500694Y-34206790D01*
X140250594Y-34373901D01*
X140037901Y-34586594D01*
X139954000Y-34712161D01*
X139870099Y-34586594D01*
X139657406Y-34373901D01*
X139407306Y-34206790D01*
X139129410Y-34091681D01*
X138834396Y-34033000D01*
X138533604Y-34033000D01*
X138238590Y-34091681D01*
X137960694Y-34206790D01*
X137710594Y-34373901D01*
X137497901Y-34586594D01*
X137414000Y-34712161D01*
X137330099Y-34586594D01*
X137117406Y-34373901D01*
X136867306Y-34206790D01*
X136589410Y-34091681D01*
X136294396Y-34033000D01*
X135993604Y-34033000D01*
X135698590Y-34091681D01*
X135420694Y-34206790D01*
X135170594Y-34373901D01*
X134957901Y-34586594D01*
X134874000Y-34712161D01*
X134790099Y-34586594D01*
X134577406Y-34373901D01*
X134327306Y-34206790D01*
X134049410Y-34091681D01*
X133754396Y-34033000D01*
X133453604Y-34033000D01*
X133158590Y-34091681D01*
X132880694Y-34206790D01*
X132630594Y-34373901D01*
X132417901Y-34586594D01*
X132334000Y-34712161D01*
X132250099Y-34586594D01*
X132037406Y-34373901D01*
X131787306Y-34206790D01*
X131509410Y-34091681D01*
X131214396Y-34033000D01*
X130913604Y-34033000D01*
X130618590Y-34091681D01*
X130340694Y-34206790D01*
X130090594Y-34373901D01*
X129877901Y-34586594D01*
X129794000Y-34712161D01*
X129710099Y-34586594D01*
X129567951Y-34444446D01*
X131997397Y-32015000D01*
X135011495Y-32015000D01*
X135170594Y-32174099D01*
X135420694Y-32341210D01*
X135698590Y-32456319D01*
X135993604Y-32515000D01*
X136294396Y-32515000D01*
X136589410Y-32456319D01*
X136867306Y-32341210D01*
X137117406Y-32174099D01*
X137330099Y-31961406D01*
X137497210Y-31711306D01*
X137612319Y-31433410D01*
X137671000Y-31138396D01*
X137671000Y-30837604D01*
X137612319Y-30542590D01*
X137497210Y-30264694D01*
X137330099Y-30014594D01*
X137117406Y-29801901D01*
X136867306Y-29634790D01*
X136589410Y-29519681D01*
X136294396Y-29461000D01*
X135993604Y-29461000D01*
X135698590Y-29519681D01*
X135420694Y-29634790D01*
X135170594Y-29801901D01*
X135011495Y-29961000D01*
X131622441Y-29961000D01*
X131572000Y-29956032D01*
X131521559Y-29961000D01*
X131521549Y-29961000D01*
X131370673Y-29975860D01*
X131177083Y-30034585D01*
X130998669Y-30129949D01*
X130842288Y-30258288D01*
X130810128Y-30297475D01*
X127833476Y-33274128D01*
X127794289Y-33306288D01*
X127762129Y-33345475D01*
X127762128Y-33345476D01*
X127665950Y-33462669D01*
X127570586Y-33641083D01*
X127511861Y-33834673D01*
X127492032Y-34036000D01*
X127497001Y-34086450D01*
X127497001Y-34427494D01*
X127337901Y-34586594D01*
X127194323Y-34801475D01*
X127136385Y-34704869D01*
X126947414Y-34496481D01*
X126721420Y-34328963D01*
X126467087Y-34208754D01*
X126333039Y-34168096D01*
X126111000Y-34290085D01*
X126111000Y-35433000D01*
X126131000Y-35433000D01*
X126131000Y-35687000D01*
X126111000Y-35687000D01*
X126111000Y-36829915D01*
X126333039Y-36951904D01*
X126467087Y-36911246D01*
X126721420Y-36791037D01*
X126947414Y-36623519D01*
X127136385Y-36415131D01*
X127194323Y-36318525D01*
X127337901Y-36533406D01*
X127497000Y-36692505D01*
X127497000Y-37166603D01*
X124493477Y-40170127D01*
X124454290Y-40202287D01*
X124422130Y-40241474D01*
X124422129Y-40241475D01*
X124325951Y-40358668D01*
X124230587Y-40537082D01*
X124171862Y-40730672D01*
X124152033Y-40931999D01*
X124157002Y-40982449D01*
X124157001Y-41822522D01*
X123889410Y-41711681D01*
X123594396Y-41653000D01*
X123293604Y-41653000D01*
X122998590Y-41711681D01*
X122720694Y-41826790D01*
X122470594Y-41993901D01*
X122257901Y-42206594D01*
X122174000Y-42332161D01*
X122090099Y-42206594D01*
X121935624Y-42052119D01*
X121935968Y-42048629D01*
X121931000Y-41998188D01*
X121931000Y-41998179D01*
X121916140Y-41847303D01*
X121857415Y-41653713D01*
X121762051Y-41475299D01*
X121633712Y-41318918D01*
X121594524Y-41286757D01*
X120511247Y-40203481D01*
X120479082Y-40164288D01*
X120322701Y-40035949D01*
X120144287Y-39940585D01*
X119950697Y-39881860D01*
X119799821Y-39867000D01*
X119799811Y-39867000D01*
X119749370Y-39862032D01*
X119698929Y-39867000D01*
X109270441Y-39867000D01*
X109220000Y-39862032D01*
X109169559Y-39867000D01*
X109169549Y-39867000D01*
X109018673Y-39881860D01*
X108825083Y-39940585D01*
X108646669Y-40035949D01*
X108490288Y-40164288D01*
X108458128Y-40203475D01*
X106497481Y-42164123D01*
X106458288Y-42196288D01*
X106329949Y-42352669D01*
X106234585Y-42531084D01*
X106183000Y-42701137D01*
X106183000Y-35409604D01*
X109217000Y-35409604D01*
X109217000Y-35710396D01*
X109275681Y-36005410D01*
X109390790Y-36283306D01*
X109557901Y-36533406D01*
X109770594Y-36746099D01*
X110020694Y-36913210D01*
X110298590Y-37028319D01*
X110593604Y-37087000D01*
X110894396Y-37087000D01*
X111189410Y-37028319D01*
X111467306Y-36913210D01*
X111717406Y-36746099D01*
X111930099Y-36533406D01*
X112014000Y-36407839D01*
X112097901Y-36533406D01*
X112310594Y-36746099D01*
X112560694Y-36913210D01*
X112838590Y-37028319D01*
X113133604Y-37087000D01*
X113434396Y-37087000D01*
X113729410Y-37028319D01*
X114007306Y-36913210D01*
X114257406Y-36746099D01*
X114470099Y-36533406D01*
X114554000Y-36407839D01*
X114637901Y-36533406D01*
X114850594Y-36746099D01*
X115100694Y-36913210D01*
X115378590Y-37028319D01*
X115673604Y-37087000D01*
X115974396Y-37087000D01*
X116269410Y-37028319D01*
X116547306Y-36913210D01*
X116797406Y-36746099D01*
X117010099Y-36533406D01*
X117094000Y-36407839D01*
X117177901Y-36533406D01*
X117390594Y-36746099D01*
X117640694Y-36913210D01*
X117918590Y-37028319D01*
X118213604Y-37087000D01*
X118514396Y-37087000D01*
X118809410Y-37028319D01*
X119087306Y-36913210D01*
X119337406Y-36746099D01*
X119550099Y-36533406D01*
X119634000Y-36407839D01*
X119717901Y-36533406D01*
X119930594Y-36746099D01*
X120180694Y-36913210D01*
X120458590Y-37028319D01*
X120753604Y-37087000D01*
X121054396Y-37087000D01*
X121349410Y-37028319D01*
X121627306Y-36913210D01*
X121877406Y-36746099D01*
X122090099Y-36533406D01*
X122174000Y-36407839D01*
X122257901Y-36533406D01*
X122470594Y-36746099D01*
X122720694Y-36913210D01*
X122998590Y-37028319D01*
X123293604Y-37087000D01*
X123594396Y-37087000D01*
X123889410Y-37028319D01*
X124167306Y-36913210D01*
X124417406Y-36746099D01*
X124630099Y-36533406D01*
X124773677Y-36318525D01*
X124831615Y-36415131D01*
X125020586Y-36623519D01*
X125246580Y-36791037D01*
X125500913Y-36911246D01*
X125634961Y-36951904D01*
X125857000Y-36829915D01*
X125857000Y-35687000D01*
X125837000Y-35687000D01*
X125837000Y-35433000D01*
X125857000Y-35433000D01*
X125857000Y-34290085D01*
X125634961Y-34168096D01*
X125500913Y-34208754D01*
X125246580Y-34328963D01*
X125020586Y-34496481D01*
X124831615Y-34704869D01*
X124773677Y-34801475D01*
X124630099Y-34586594D01*
X124471000Y-34427495D01*
X124471000Y-33953396D01*
X125909397Y-32515000D01*
X126134396Y-32515000D01*
X126429410Y-32456319D01*
X126707306Y-32341210D01*
X126957406Y-32174099D01*
X127170099Y-31961406D01*
X127337210Y-31711306D01*
X127452319Y-31433410D01*
X127511000Y-31138396D01*
X127511000Y-30837604D01*
X127452319Y-30542590D01*
X127337210Y-30264694D01*
X127170099Y-30014594D01*
X127011000Y-29855495D01*
X127011000Y-28892702D01*
X128726903Y-28892702D01*
X128798486Y-29136671D01*
X129053996Y-29257571D01*
X129328184Y-29326300D01*
X129610512Y-29340217D01*
X129890130Y-29298787D01*
X130156292Y-29203603D01*
X130281514Y-29136671D01*
X130353097Y-28892702D01*
X129540000Y-28079605D01*
X128726903Y-28892702D01*
X127011000Y-28892702D01*
X127011000Y-28365396D01*
X127253872Y-28122524D01*
X127405884Y-27970512D01*
X128099783Y-27970512D01*
X128141213Y-28250130D01*
X128236397Y-28516292D01*
X128303329Y-28641514D01*
X128547298Y-28713097D01*
X129360395Y-27900000D01*
X129719605Y-27900000D01*
X130532702Y-28713097D01*
X130776671Y-28641514D01*
X130897571Y-28386004D01*
X130966300Y-28111816D01*
X130980217Y-27829488D01*
X130938787Y-27549870D01*
X130843603Y-27283708D01*
X130776671Y-27158486D01*
X130532702Y-27086903D01*
X129719605Y-27900000D01*
X129360395Y-27900000D01*
X128547298Y-27086903D01*
X128303329Y-27158486D01*
X128182429Y-27413996D01*
X128113700Y-27688184D01*
X128099783Y-27970512D01*
X127405884Y-27970512D01*
X128700695Y-26675702D01*
X128779421Y-26728305D01*
X128726903Y-26907298D01*
X129540000Y-27720395D01*
X130353097Y-26907298D01*
X130300579Y-26728305D01*
X130513406Y-26586099D01*
X130726099Y-26373406D01*
X130893210Y-26123306D01*
X131008319Y-25845410D01*
X131067000Y-25550396D01*
X131067000Y-25249604D01*
X131008319Y-24954590D01*
X130893210Y-24676694D01*
X130726099Y-24426594D01*
X130513406Y-24213901D01*
X130263306Y-24046790D01*
X129985410Y-23931681D01*
X129690396Y-23873000D01*
X129389604Y-23873000D01*
X129094590Y-23931681D01*
X128816694Y-24046790D01*
X128566594Y-24213901D01*
X128400278Y-24380217D01*
X128322673Y-24387860D01*
X128129083Y-24446585D01*
X127950669Y-24541949D01*
X127794288Y-24670288D01*
X127762128Y-24709475D01*
X125984000Y-26487604D01*
X125937000Y-26440604D01*
X125937000Y-26270528D01*
X125880240Y-25985175D01*
X125768901Y-25716378D01*
X125607261Y-25474467D01*
X125401533Y-25268739D01*
X125159622Y-25107099D01*
X124890825Y-24995760D01*
X124605472Y-24939000D01*
X124314528Y-24939000D01*
X124029175Y-24995760D01*
X123760378Y-25107099D01*
X123518467Y-25268739D01*
X123312739Y-25474467D01*
X123151099Y-25716378D01*
X123039760Y-25985175D01*
X122983000Y-26270528D01*
X122983000Y-26561472D01*
X123039760Y-26846825D01*
X123151099Y-27115622D01*
X123312739Y-27357533D01*
X123518467Y-27563261D01*
X123760378Y-27724901D01*
X124029175Y-27836240D01*
X124314528Y-27893000D01*
X124484604Y-27893000D01*
X124957001Y-28365398D01*
X124957000Y-29855495D01*
X124797901Y-30014594D01*
X124630790Y-30264694D01*
X124515681Y-30542590D01*
X124457000Y-30837604D01*
X124457000Y-31062603D01*
X122753476Y-32766128D01*
X122714289Y-32798288D01*
X122682129Y-32837475D01*
X122682128Y-32837476D01*
X122585950Y-32954669D01*
X122490586Y-33133083D01*
X122431861Y-33326673D01*
X122412032Y-33528000D01*
X122417001Y-33578451D01*
X122417001Y-34427494D01*
X122257901Y-34586594D01*
X122174000Y-34712161D01*
X122090099Y-34586594D01*
X121931000Y-34427495D01*
X121931000Y-33578440D01*
X121935968Y-33527999D01*
X121931000Y-33477558D01*
X121931000Y-33477549D01*
X121916140Y-33326673D01*
X121857415Y-33133083D01*
X121762051Y-32954669D01*
X121633712Y-32798288D01*
X121594525Y-32766128D01*
X119891000Y-31062604D01*
X119891000Y-30837604D01*
X119832319Y-30542590D01*
X119717210Y-30264694D01*
X119550099Y-30014594D01*
X119391000Y-29855495D01*
X119391000Y-28057397D01*
X119555397Y-27893000D01*
X119725472Y-27893000D01*
X120010825Y-27836240D01*
X120279622Y-27724901D01*
X120521533Y-27563261D01*
X120727261Y-27357533D01*
X120888901Y-27115622D01*
X121000240Y-26846825D01*
X121057000Y-26561472D01*
X121057000Y-26270528D01*
X121000240Y-25985175D01*
X120888901Y-25716378D01*
X120727261Y-25474467D01*
X120521533Y-25268739D01*
X120279622Y-25107099D01*
X120010825Y-24995760D01*
X119725472Y-24939000D01*
X119434528Y-24939000D01*
X119149175Y-24995760D01*
X118880378Y-25107099D01*
X118638467Y-25268739D01*
X118432739Y-25474467D01*
X118271099Y-25716378D01*
X118162634Y-25978237D01*
X116893877Y-24709480D01*
X116861712Y-24670288D01*
X116705331Y-24541949D01*
X116526917Y-24446585D01*
X116333327Y-24387860D01*
X116182451Y-24373000D01*
X116182441Y-24373000D01*
X116132000Y-24368032D01*
X116081559Y-24373000D01*
X115432505Y-24373000D01*
X115273406Y-24213901D01*
X115023306Y-24046790D01*
X114745410Y-23931681D01*
X114450396Y-23873000D01*
X114149604Y-23873000D01*
X113854590Y-23931681D01*
X113576694Y-24046790D01*
X113326594Y-24213901D01*
X113113901Y-24426594D01*
X112946790Y-24676694D01*
X112831681Y-24954590D01*
X112773000Y-25249604D01*
X112773000Y-25550396D01*
X112831681Y-25845410D01*
X112946790Y-26123306D01*
X113113901Y-26373406D01*
X113326594Y-26586099D01*
X113539421Y-26728305D01*
X113486903Y-26907298D01*
X114300000Y-27720395D01*
X115113097Y-26907298D01*
X115060579Y-26728305D01*
X115273406Y-26586099D01*
X115432505Y-26427000D01*
X115706604Y-26427000D01*
X117337001Y-28057399D01*
X117337000Y-29855495D01*
X117177901Y-30014594D01*
X117010790Y-30264694D01*
X116895681Y-30542590D01*
X116837000Y-30837604D01*
X116837000Y-31138396D01*
X116895681Y-31433410D01*
X117010790Y-31711306D01*
X117177901Y-31961406D01*
X117390594Y-32174099D01*
X117640694Y-32341210D01*
X117918590Y-32456319D01*
X118213604Y-32515000D01*
X118438604Y-32515000D01*
X119877001Y-33953398D01*
X119877001Y-34427494D01*
X119717901Y-34586594D01*
X119634000Y-34712161D01*
X119550099Y-34586594D01*
X119337406Y-34373901D01*
X119087306Y-34206790D01*
X118809410Y-34091681D01*
X118514396Y-34033000D01*
X118213604Y-34033000D01*
X117918590Y-34091681D01*
X117640694Y-34206790D01*
X117390594Y-34373901D01*
X117177901Y-34586594D01*
X117094000Y-34712161D01*
X117010099Y-34586594D01*
X116797406Y-34373901D01*
X116547306Y-34206790D01*
X116269410Y-34091681D01*
X115974396Y-34033000D01*
X115673604Y-34033000D01*
X115378590Y-34091681D01*
X115100694Y-34206790D01*
X114850594Y-34373901D01*
X114637901Y-34586594D01*
X114554000Y-34712161D01*
X114470099Y-34586594D01*
X114257406Y-34373901D01*
X114007306Y-34206790D01*
X113729410Y-34091681D01*
X113434396Y-34033000D01*
X113133604Y-34033000D01*
X112838590Y-34091681D01*
X112560694Y-34206790D01*
X112310594Y-34373901D01*
X112097901Y-34586594D01*
X112014000Y-34712161D01*
X111930099Y-34586594D01*
X111717406Y-34373901D01*
X111467306Y-34206790D01*
X111189410Y-34091681D01*
X110894396Y-34033000D01*
X110593604Y-34033000D01*
X110298590Y-34091681D01*
X110020694Y-34206790D01*
X109770594Y-34373901D01*
X109557901Y-34586594D01*
X109390790Y-34836694D01*
X109275681Y-35114590D01*
X109217000Y-35409604D01*
X106183000Y-35409604D01*
X106183000Y-29381396D01*
X106671694Y-28892702D01*
X113486903Y-28892702D01*
X113558486Y-29136671D01*
X113813996Y-29257571D01*
X114088184Y-29326300D01*
X114370512Y-29340217D01*
X114650130Y-29298787D01*
X114916292Y-29203603D01*
X115041514Y-29136671D01*
X115113097Y-28892702D01*
X114300000Y-28079605D01*
X113486903Y-28892702D01*
X106671694Y-28892702D01*
X107593884Y-27970512D01*
X112859783Y-27970512D01*
X112901213Y-28250130D01*
X112996397Y-28516292D01*
X113063329Y-28641514D01*
X113307298Y-28713097D01*
X114120395Y-27900000D01*
X114479605Y-27900000D01*
X115292702Y-28713097D01*
X115536671Y-28641514D01*
X115657571Y-28386004D01*
X115726300Y-28111816D01*
X115740217Y-27829488D01*
X115698787Y-27549870D01*
X115603603Y-27283708D01*
X115536671Y-27158486D01*
X115292702Y-27086903D01*
X114479605Y-27900000D01*
X114120395Y-27900000D01*
X113307298Y-27086903D01*
X113063329Y-27158486D01*
X112942429Y-27413996D01*
X112873700Y-27688184D01*
X112859783Y-27970512D01*
X107593884Y-27970512D01*
X112185397Y-23379000D01*
X132670604Y-23379000D01*
X140970127Y-31678524D01*
M02*
