  0
SECTION
  2
HEADER
  9
$ANGBASE
  50
0.0
  9
$ANGDIR
  70
1
  9
$MEASUREMENT
  70
1
  0
ENDSEC
  0
SECTION
  2
TABLES
  0
TABLE
  2
LTYPE
  70
4
  0
LTYPE
  5
40F
  2
CONTINUOUS
  70
0
  3
Solid line
  72
65
  73
0
  40
0.0
  0
LTYPE
  5
410
  2
DASHDOT
 70
0
  3
Dash Dot ____ _ ____ _
 72
65
 73
4
 40
2.0
 49
1.25
 49
-0.25
 49
0.25
 49
-0.25
  0
LTYPE
  5
411
  2
DASHED
 70
0
  3
Dashed __ __ __ __ __
 72
65
 73
2
 40
0.75
 49
0.5
 49
-0.25
  0
LTYPE
  5
43B
  2
DOTTED
 70
0
  3
Dotted .  .  .  .
 72
65
 73
2
 40
0.2
 49
0.0
 49
-0.2
  0
ENDTAB
  0
TABLE
  2
STYLE
  70
4
  0
STYLE
  2
KICAD
  70
0
  40
0
  41
1
  42
1
  50
0
  71
0
  3
isocp.shx
  0
STYLE
  2
KICADB
  70
0
  40
0
  41
1
  42
1
  50
0
  71
0
  3
isocp.shx
  0
STYLE
  2
KICADI
  70
0
  40
0
  41
1
  42
1
  50
15
  71
0
  3
isocp.shx
  0
STYLE
  2
KICADBI
  70
0
  40
0
  41
1
  42
1
  50
15
  71
0
  3
isocp.shx
  0
ENDTAB
  0
TABLE
  2
LAYER
  70
1
  0
LAYER
  2
BLACK
  70
0
  62
7
  6
CONTINUOUS
  0
ENDTAB
  0
ENDSEC
  0
SECTION
  2
ENTITIES
0
LINE
8
BLACK
6
CONTINUOUS
10
162.052
20
-98.552
11
101.092
21
-98.552
0
LINE
8
BLACK
6
CONTINUOUS
10
101.092
20
-98.552
11
101.092
21
-17.272
0
LINE
8
BLACK
6
CONTINUOUS
10
162.052
20
-17.272
11
162.052
21
-98.552
0
LINE
8
BLACK
6
CONTINUOUS
10
101.092
20
-17.272
11
162.052
21
-17.272
0
LINE
8
BLACK
6
CONTINUOUS
10
110.871
20
-50.419
11
111.633
21
-51.181
0
LINE
8
BLACK
6
CONTINUOUS
10
111.633
20
-50.419
11
110.871
21
-51.181
0
LINE
8
BLACK
6
CONTINUOUS
10
110.871
20
-52.959
11
111.633
21
-53.721
0
LINE
8
BLACK
6
CONTINUOUS
10
111.633
20
-52.959
11
110.871
21
-53.721
0
LINE
8
BLACK
6
CONTINUOUS
10
113.411
20
-50.419
11
114.173
21
-51.181
0
LINE
8
BLACK
6
CONTINUOUS
10
114.173
20
-50.419
11
113.411
21
-51.181
0
LINE
8
BLACK
6
CONTINUOUS
10
113.411
20
-52.959
11
114.173
21
-53.721
0
LINE
8
BLACK
6
CONTINUOUS
10
114.173
20
-52.959
11
113.411
21
-53.721
0
LINE
8
BLACK
6
CONTINUOUS
10
115.951
20
-50.419
11
116.713
21
-51.181
0
LINE
8
BLACK
6
CONTINUOUS
10
116.713
20
-50.419
11
115.951
21
-51.181
0
LINE
8
BLACK
6
CONTINUOUS
10
115.951
20
-52.959
11
116.713
21
-53.721
0
LINE
8
BLACK
6
CONTINUOUS
10
116.713
20
-52.959
11
115.951
21
-53.721
0
LINE
8
BLACK
6
CONTINUOUS
10
118.491
20
-50.419
11
119.253
21
-51.181
0
LINE
8
BLACK
6
CONTINUOUS
10
119.253
20
-50.419
11
118.491
21
-51.181
0
LINE
8
BLACK
6
CONTINUOUS
10
118.491
20
-52.959
11
119.253
21
-53.721
0
LINE
8
BLACK
6
CONTINUOUS
10
119.253
20
-52.959
11
118.491
21
-53.721
0
CIRCLE
8
BLACK
10
111.252
20
-47.244
40
0.4
0
CIRCLE
8
BLACK
10
111.252
20
-56.642
40
0.4
0
CIRCLE
8
BLACK
10
112.776
20
-67.31
40
0.4
0
CIRCLE
8
BLACK
10
117.348
20
-67.564
40
0.4
0
CIRCLE
8
BLACK
10
118.364
20
-48.006
40
0.4
0
CIRCLE
8
BLACK
10
121.412
20
-48.26
40
0.4
0
CIRCLE
8
BLACK
10
125.984
20
-69.596
40
0.4
0
CIRCLE
8
BLACK
10
128.524
20
-48.26
40
0.4
0
CIRCLE
8
BLACK
10
133.35
20
-27.94
40
0.4
0
CIRCLE
8
BLACK
10
135.636
20
-52.832
40
0.4
0
CIRCLE
8
BLACK
10
138.176
20
-38.608
40
0.4
0
CIRCLE
8
BLACK
10
143.002
20
-25.908
40
0.4
0
CIRCLE
8
BLACK
10
143.51
20
-80.772
40
0.4
0
CIRCLE
8
BLACK
10
149.86
20
-85.09
40
0.4
0
CIRCLE
8
BLACK
10
150.876
20
-62.992
40
0.4
0
CIRCLE
8
BLACK
10
151.384
20
-53.594
40
0.4
0
CIRCLE
8
BLACK
10
151.892
20
-45.212
40
0.4
0
CIRCLE
8
BLACK
10
157.734
20
-45.212
40
0.4
0
CIRCLE
8
BLACK
10
120.904
20
-81.788
40
0.4
0
CIRCLE
8
BLACK
10
120.904
20
-84.288
40
0.4
0
CIRCLE
8
BLACK
10
110.744
20
-35.56
40
0.4
0
CIRCLE
8
BLACK
10
110.744
20
-43.18
40
0.4
0
CIRCLE
8
BLACK
10
113.284
20
-35.56
40
0.4
0
CIRCLE
8
BLACK
10
113.284
20
-43.18
40
0.4
0
CIRCLE
8
BLACK
10
115.824
20
-35.56
40
0.4
0
CIRCLE
8
BLACK
10
115.824
20
-43.18
40
0.4
0
CIRCLE
8
BLACK
10
118.364
20
-35.56
40
0.4
0
CIRCLE
8
BLACK
10
118.364
20
-43.18
40
0.4
0
CIRCLE
8
BLACK
10
120.904
20
-35.56
40
0.4
0
CIRCLE
8
BLACK
10
120.904
20
-43.18
40
0.4
0
CIRCLE
8
BLACK
10
123.444
20
-35.56
40
0.4
0
CIRCLE
8
BLACK
10
123.444
20
-43.18
40
0.4
0
CIRCLE
8
BLACK
10
125.984
20
-35.56
40
0.4
0
CIRCLE
8
BLACK
10
125.984
20
-43.18
40
0.4
0
CIRCLE
8
BLACK
10
128.524
20
-35.56
40
0.4
0
CIRCLE
8
BLACK
10
128.524
20
-43.18
40
0.4
0
CIRCLE
8
BLACK
10
131.064
20
-35.56
40
0.4
0
CIRCLE
8
BLACK
10
131.064
20
-43.18
40
0.4
0
CIRCLE
8
BLACK
10
133.604
20
-35.56
40
0.4
0
CIRCLE
8
BLACK
10
133.604
20
-43.18
40
0.4
0
CIRCLE
8
BLACK
10
136.144
20
-35.56
40
0.4
0
CIRCLE
8
BLACK
10
136.144
20
-43.18
40
0.4
0
CIRCLE
8
BLACK
10
138.684
20
-35.56
40
0.4
0
CIRCLE
8
BLACK
10
138.684
20
-43.18
40
0.4
0
CIRCLE
8
BLACK
10
141.224
20
-35.56
40
0.4
0
CIRCLE
8
BLACK
10
141.224
20
-43.18
40
0.4
0
CIRCLE
8
BLACK
10
143.764
20
-35.56
40
0.4
0
CIRCLE
8
BLACK
10
143.764
20
-43.18
40
0.4
0
CIRCLE
8
BLACK
10
139.272
20
-67.056
40
0.4
0
CIRCLE
8
BLACK
10
144.272
20
-67.056
40
0.4
0
CIRCLE
8
BLACK
10
142.24
20
-74.168
40
0.4
0
CIRCLE
8
BLACK
10
144.74
20
-74.168
40
0.4
0
CIRCLE
8
BLACK
10
118.364
20
-30.988
40
0.4
0
CIRCLE
8
BLACK
10
125.984
20
-30.988
40
0.4
0
CIRCLE
8
BLACK
10
118.912
20
-73.152
40
0.4
0
CIRCLE
8
BLACK
10
121.412
20
-73.152
40
0.4
0
CIRCLE
8
BLACK
10
136.144
20
-30.988
40
0.4
0
CIRCLE
8
BLACK
10
143.764
20
-30.988
40
0.4
0
CIRCLE
8
BLACK
10
119.58
20
-26.416
40
0.4
0
CIRCLE
8
BLACK
10
124.46
20
-26.416
40
0.4
0
CIRCLE
8
BLACK
10
114.3
20
-25.4
40
0.4
0
CIRCLE
8
BLACK
10
114.3
20
-27.9
40
0.4
0
CIRCLE
8
BLACK
10
109.728
20
-75.692
40
0.4
0
CIRCLE
8
BLACK
10
111.728
20
-75.692
40
0.4
0
CIRCLE
8
BLACK
10
113.728
20
-75.692
40
0.4
0
CIRCLE
8
BLACK
10
109.808
20
-70.612
40
0.4
0
CIRCLE
8
BLACK
10
114.808
20
-70.612
40
0.4
0
CIRCLE
8
BLACK
10
128.016
20
-59.436
40
0.4
0
CIRCLE
8
BLACK
10
135.636
20
-59.436
40
0.4
0
CIRCLE
8
BLACK
10
124.46
20
-89.916
40
0.4
0
CIRCLE
8
BLACK
10
132.08
20
-89.916
40
0.4
0
CIRCLE
8
BLACK
10
129.032
20
-81.828
40
0.4
0
CIRCLE
8
BLACK
10
129.032
20
-84.328
40
0.4
0
CIRCLE
8
BLACK
10
129.54
20
-25.4
40
0.4
0
CIRCLE
8
BLACK
10
129.54
20
-27.9
40
0.4
0
LINE
8
BLACK
6
CONTINUOUS
10
128.016
20
-52.89
11
128.016
21
-53.79
0
LINE
8
BLACK
6
CONTINUOUS
10
127.566
20
-53.34
11
128.466
21
-53.34
0
LINE
8
BLACK
6
CONTINUOUS
10
130.556
20
-52.89
11
130.556
21
-53.79
0
LINE
8
BLACK
6
CONTINUOUS
10
130.106
20
-53.34
11
131.006
21
-53.34
0
LINE
8
BLACK
6
CONTINUOUS
10
118.364
20
-89.466
11
118.364
21
-90.366
0
LINE
8
BLACK
6
CONTINUOUS
10
117.914
20
-89.916
11
118.814
21
-89.916
0
LINE
8
BLACK
6
CONTINUOUS
10
120.904
20
-89.466
11
120.904
21
-90.366
0
LINE
8
BLACK
6
CONTINUOUS
10
120.454
20
-89.916
11
121.354
21
-89.916
0
LINE
8
BLACK
6
CONTINUOUS
10
144.626
20
-50.1376
11
144.626
21
-49.4304
0
LINE
8
BLACK
6
CONTINUOUS
10
144.626
20
-49.4304
11
143.918
21
-49.4304
0
LINE
8
BLACK
6
CONTINUOUS
10
143.918
20
-49.4304
11
143.918
21
-50.1376
0
LINE
8
BLACK
6
CONTINUOUS
10
143.918
20
-50.1376
11
144.626
21
-50.1376
0
LINE
8
BLACK
6
CONTINUOUS
10
147.166
20
-50.1376
11
147.166
21
-49.4304
0
LINE
8
BLACK
6
CONTINUOUS
10
147.166
20
-49.4304
11
146.458
21
-49.4304
0
LINE
8
BLACK
6
CONTINUOUS
10
146.458
20
-49.4304
11
146.458
21
-50.1376
0
LINE
8
BLACK
6
CONTINUOUS
10
146.458
20
-50.1376
11
147.166
21
-50.1376
0
LINE
8
BLACK
6
CONTINUOUS
10
149.706
20
-50.1376
11
149.706
21
-49.4304
0
LINE
8
BLACK
6
CONTINUOUS
10
149.706
20
-49.4304
11
148.998
21
-49.4304
0
LINE
8
BLACK
6
CONTINUOUS
10
148.998
20
-49.4304
11
148.998
21
-50.1376
0
LINE
8
BLACK
6
CONTINUOUS
10
148.998
20
-50.1376
11
149.706
21
-50.1376
0
LINE
8
BLACK
6
CONTINUOUS
10
152.246
20
-50.1376
11
152.246
21
-49.4304
0
LINE
8
BLACK
6
CONTINUOUS
10
152.246
20
-49.4304
11
151.538
21
-49.4304
0
LINE
8
BLACK
6
CONTINUOUS
10
151.538
20
-49.4304
11
151.538
21
-50.1376
0
LINE
8
BLACK
6
CONTINUOUS
10
151.538
20
-50.1376
11
152.246
21
-50.1376
0
LINE
8
BLACK
6
CONTINUOUS
10
142.086
20
-57.7576
11
142.086
21
-57.0504
0
LINE
8
BLACK
6
CONTINUOUS
10
142.086
20
-57.0504
11
141.378
21
-57.0504
0
LINE
8
BLACK
6
CONTINUOUS
10
141.378
20
-57.0504
11
141.378
21
-57.7576
0
LINE
8
BLACK
6
CONTINUOUS
10
141.378
20
-57.7576
11
142.086
21
-57.7576
0
LINE
8
BLACK
6
CONTINUOUS
10
144.626
20
-57.7576
11
144.626
21
-57.0504
0
LINE
8
BLACK
6
CONTINUOUS
10
144.626
20
-57.0504
11
143.918
21
-57.0504
0
LINE
8
BLACK
6
CONTINUOUS
10
143.918
20
-57.0504
11
143.918
21
-57.7576
0
LINE
8
BLACK
6
CONTINUOUS
10
143.918
20
-57.7576
11
144.626
21
-57.7576
0
LINE
8
BLACK
6
CONTINUOUS
10
147.166
20
-57.7576
11
147.166
21
-57.0504
0
LINE
8
BLACK
6
CONTINUOUS
10
147.166
20
-57.0504
11
146.458
21
-57.0504
0
LINE
8
BLACK
6
CONTINUOUS
10
146.458
20
-57.0504
11
146.458
21
-57.7576
0
LINE
8
BLACK
6
CONTINUOUS
10
146.458
20
-57.7576
11
147.166
21
-57.7576
0
LINE
8
BLACK
6
CONTINUOUS
10
149.706
20
-57.7576
11
149.706
21
-57.0504
0
LINE
8
BLACK
6
CONTINUOUS
10
149.706
20
-57.0504
11
148.998
21
-57.0504
0
LINE
8
BLACK
6
CONTINUOUS
10
148.998
20
-57.0504
11
148.998
21
-57.7576
0
LINE
8
BLACK
6
CONTINUOUS
10
148.998
20
-57.7576
11
149.706
21
-57.7576
0
LINE
8
BLACK
6
CONTINUOUS
10
152.246
20
-57.7576
11
152.246
21
-57.0504
0
LINE
8
BLACK
6
CONTINUOUS
10
152.246
20
-57.0504
11
151.538
21
-57.0504
0
LINE
8
BLACK
6
CONTINUOUS
10
151.538
20
-57.0504
11
151.538
21
-57.7576
0
LINE
8
BLACK
6
CONTINUOUS
10
151.538
20
-57.7576
11
152.246
21
-57.7576
0
LINE
8
BLACK
6
CONTINUOUS
10
114.3
20
-62.484
11
114.808
21
-61.976
0
LINE
8
BLACK
6
CONTINUOUS
10
114.808
20
-61.976
11
114.3
21
-61.468
0
LINE
8
BLACK
6
CONTINUOUS
10
114.3
20
-61.468
11
113.792
21
-61.976
0
LINE
8
BLACK
6
CONTINUOUS
10
113.792
20
-61.976
11
114.3
21
-62.484
0
LINE
8
BLACK
6
CONTINUOUS
10
114.3
20
-65.024
11
114.808
21
-64.516
0
LINE
8
BLACK
6
CONTINUOUS
10
114.808
20
-64.516
11
114.3
21
-64.008
0
LINE
8
BLACK
6
CONTINUOUS
10
114.3
20
-64.008
11
113.792
21
-64.516
0
LINE
8
BLACK
6
CONTINUOUS
10
113.792
20
-64.516
11
114.3
21
-65.024
0
LINE
8
BLACK
6
CONTINUOUS
10
116.84
20
-62.484
11
117.348
21
-61.976
0
LINE
8
BLACK
6
CONTINUOUS
10
117.348
20
-61.976
11
116.84
21
-61.468
0
LINE
8
BLACK
6
CONTINUOUS
10
116.84
20
-61.468
11
116.332
21
-61.976
0
LINE
8
BLACK
6
CONTINUOUS
10
116.332
20
-61.976
11
116.84
21
-62.484
0
LINE
8
BLACK
6
CONTINUOUS
10
116.84
20
-65.024
11
117.348
21
-64.516
0
LINE
8
BLACK
6
CONTINUOUS
10
117.348
20
-64.516
11
116.84
21
-64.008
0
LINE
8
BLACK
6
CONTINUOUS
10
116.84
20
-64.008
11
116.332
21
-64.516
0
LINE
8
BLACK
6
CONTINUOUS
10
116.332
20
-64.516
11
116.84
21
-65.024
0
LINE
8
BLACK
6
CONTINUOUS
10
119.38
20
-62.484
11
119.888
21
-61.976
0
LINE
8
BLACK
6
CONTINUOUS
10
119.888
20
-61.976
11
119.38
21
-61.468
0
LINE
8
BLACK
6
CONTINUOUS
10
119.38
20
-61.468
11
118.872
21
-61.976
0
LINE
8
BLACK
6
CONTINUOUS
10
118.872
20
-61.976
11
119.38
21
-62.484
0
LINE
8
BLACK
6
CONTINUOUS
10
119.38
20
-65.024
11
119.888
21
-64.516
0
LINE
8
BLACK
6
CONTINUOUS
10
119.888
20
-64.516
11
119.38
21
-64.008
0
LINE
8
BLACK
6
CONTINUOUS
10
119.38
20
-64.008
11
118.872
21
-64.516
0
LINE
8
BLACK
6
CONTINUOUS
10
118.872
20
-64.516
11
119.38
21
-65.024
0
LINE
8
BLACK
6
CONTINUOUS
10
134.578
20
-86.318
11
135.678
21
-87.418
0
LINE
8
BLACK
6
CONTINUOUS
10
135.678
20
-86.318
11
134.578
21
-87.418
0
CIRCLE
8
BLACK
10
135.128
20
-86.868
40
0.55
0
LINE
8
BLACK
6
CONTINUOUS
10
124.926
20
-74.126
11
126.026
21
-75.226
0
LINE
8
BLACK
6
CONTINUOUS
10
126.026
20
-74.126
11
124.926
21
-75.226
0
CIRCLE
8
BLACK
10
125.476
20
-74.676
40
0.55
0
LINE
8
BLACK
6
CONTINUOUS
10
135.086
20
-74.126
11
136.186
21
-75.226
0
LINE
8
BLACK
6
CONTINUOUS
10
136.186
20
-74.126
11
135.086
21
-75.226
0
CIRCLE
8
BLACK
10
135.636
20
-74.676
40
0.55
0
LINE
8
BLACK
6
CONTINUOUS
10
147.382
20
-30.51
11
148.482
21
-31.61
0
LINE
8
BLACK
6
CONTINUOUS
10
148.482
20
-30.51
11
147.382
21
-31.61
0
CIRCLE
8
BLACK
10
147.932
20
-31.06
40
0.55
0
LINE
8
BLACK
6
CONTINUOUS
10
147.382
20
-35.01
11
148.482
21
-36.11
0
LINE
8
BLACK
6
CONTINUOUS
10
148.482
20
-35.01
11
147.382
21
-36.11
0
CIRCLE
8
BLACK
10
147.932
20
-35.56
40
0.55
0
LINE
8
BLACK
6
CONTINUOUS
10
153.882
20
-30.51
11
154.982
21
-31.61
0
LINE
8
BLACK
6
CONTINUOUS
10
154.982
20
-30.51
11
153.882
21
-31.61
0
CIRCLE
8
BLACK
10
154.432
20
-31.06
40
0.55
0
LINE
8
BLACK
6
CONTINUOUS
10
153.882
20
-35.01
11
154.982
21
-36.11
0
LINE
8
BLACK
6
CONTINUOUS
10
154.982
20
-35.01
11
153.882
21
-36.11
0
CIRCLE
8
BLACK
10
154.432
20
-35.56
40
0.55
0
LINE
8
BLACK
6
CONTINUOUS
10
134.578
20
-81.238
11
135.678
21
-82.338
0
LINE
8
BLACK
6
CONTINUOUS
10
135.678
20
-81.238
11
134.578
21
-82.338
0
CIRCLE
8
BLACK
10
135.128
20
-81.788
40
0.55
0
LINE
8
BLACK
6
CONTINUOUS
10
134.578
20
-83.778
11
135.678
21
-84.878
0
LINE
8
BLACK
6
CONTINUOUS
10
135.678
20
-83.778
11
134.578
21
-84.878
0
CIRCLE
8
BLACK
10
135.128
20
-84.328
40
0.55
0
LINE
8
BLACK
6
CONTINUOUS
10
110.492
20
-82.044
11
112.012
21
-83.564
0
LINE
8
BLACK
6
CONTINUOUS
10
112.012
20
-82.044
11
110.492
21
-83.564
0
LINE
8
BLACK
6
CONTINUOUS
10
111.252
20
-82.044
11
111.252
21
-83.564
0
LINE
8
BLACK
6
CONTINUOUS
10
110.492
20
-82.804
11
112.012
21
-82.804
0
LINE
8
BLACK
6
CONTINUOUS
10
110.492
20
-87.124
11
112.012
21
-88.644
0
LINE
8
BLACK
6
CONTINUOUS
10
112.012
20
-87.124
11
110.492
21
-88.644
0
LINE
8
BLACK
6
CONTINUOUS
10
111.252
20
-87.124
11
111.252
21
-88.644
0
LINE
8
BLACK
6
CONTINUOUS
10
110.492
20
-87.884
11
112.012
21
-87.884
0
LINE
8
BLACK
6
CONTINUOUS
10
103.931
20
-103.234
11
103.931
21
-100.234
0
LINE
8
BLACK
6
CONTINUOUS
10
103.931
20
-100.234
11
104.646
21
-100.234
0
LINE
8
BLACK
6
CONTINUOUS
10
104.646
20
-100.234
11
105.074
21
-100.377
0
LINE
8
BLACK
6
CONTINUOUS
10
105.074
20
-100.377
11
105.36
21
-100.663
0
LINE
8
BLACK
6
CONTINUOUS
10
105.36
20
-100.663
11
105.503
21
-100.948
0
LINE
8
BLACK
6
CONTINUOUS
10
105.503
20
-100.948
11
105.646
21
-101.52
0
LINE
8
BLACK
6
CONTINUOUS
10
105.646
20
-101.52
11
105.646
21
-101.948
0
LINE
8
BLACK
6
CONTINUOUS
10
105.646
20
-101.948
11
105.503
21
-102.52
0
LINE
8
BLACK
6
CONTINUOUS
10
105.503
20
-102.52
11
105.36
21
-102.806
0
LINE
8
BLACK
6
CONTINUOUS
10
105.36
20
-102.806
11
105.074
21
-103.091
0
LINE
8
BLACK
6
CONTINUOUS
10
105.074
20
-103.091
11
104.646
21
-103.234
0
LINE
8
BLACK
6
CONTINUOUS
10
104.646
20
-103.234
11
103.931
21
-103.234
0
LINE
8
BLACK
6
CONTINUOUS
10
106.931
20
-103.234
11
106.931
21
-101.234
0
LINE
8
BLACK
6
CONTINUOUS
10
106.931
20
-101.806
11
107.074
21
-101.52
0
LINE
8
BLACK
6
CONTINUOUS
10
107.074
20
-101.52
11
107.217
21
-101.377
0
LINE
8
BLACK
6
CONTINUOUS
10
107.217
20
-101.377
11
107.503
21
-101.234
0
LINE
8
BLACK
6
CONTINUOUS
10
107.503
20
-101.234
11
107.788
21
-101.234
0
LINE
8
BLACK
6
CONTINUOUS
10
108.788
20
-103.234
11
108.788
21
-101.234
0
LINE
8
BLACK
6
CONTINUOUS
10
108.788
20
-100.234
11
108.646
21
-100.377
0
LINE
8
BLACK
6
CONTINUOUS
10
108.646
20
-100.377
11
108.788
21
-100.52
0
LINE
8
BLACK
6
CONTINUOUS
10
108.788
20
-100.52
11
108.931
21
-100.377
0
LINE
8
BLACK
6
CONTINUOUS
10
108.931
20
-100.377
11
108.788
21
-100.234
0
LINE
8
BLACK
6
CONTINUOUS
10
108.788
20
-100.234
11
108.788
21
-100.52
0
LINE
8
BLACK
6
CONTINUOUS
10
110.646
20
-103.234
11
110.36
21
-103.091
0
LINE
8
BLACK
6
CONTINUOUS
10
110.36
20
-103.091
11
110.217
21
-102.806
0
LINE
8
BLACK
6
CONTINUOUS
10
110.217
20
-102.806
11
110.217
21
-100.234
0
LINE
8
BLACK
6
CONTINUOUS
10
112.217
20
-103.234
11
111.931
21
-103.091
0
LINE
8
BLACK
6
CONTINUOUS
10
111.931
20
-103.091
11
111.788
21
-102.806
0
LINE
8
BLACK
6
CONTINUOUS
10
111.788
20
-102.806
11
111.788
21
-100.234
0
LINE
8
BLACK
6
CONTINUOUS
10
115.646
20
-103.234
11
115.646
21
-100.234
0
LINE
8
BLACK
6
CONTINUOUS
10
115.646
20
-100.234
11
116.646
21
-102.377
0
LINE
8
BLACK
6
CONTINUOUS
10
116.646
20
-102.377
11
117.646
21
-100.234
0
LINE
8
BLACK
6
CONTINUOUS
10
117.646
20
-100.234
11
117.646
21
-103.234
0
LINE
8
BLACK
6
CONTINUOUS
10
120.36
20
-103.234
11
120.36
21
-101.663
0
LINE
8
BLACK
6
CONTINUOUS
10
120.36
20
-101.663
11
120.217
21
-101.377
0
LINE
8
BLACK
6
CONTINUOUS
10
120.217
20
-101.377
11
119.931
21
-101.234
0
LINE
8
BLACK
6
CONTINUOUS
10
119.931
20
-101.234
11
119.36
21
-101.234
0
LINE
8
BLACK
6
CONTINUOUS
10
119.36
20
-101.234
11
119.074
21
-101.377
0
LINE
8
BLACK
6
CONTINUOUS
10
120.36
20
-103.091
11
120.074
21
-103.234
0
LINE
8
BLACK
6
CONTINUOUS
10
120.074
20
-103.234
11
119.36
21
-103.234
0
LINE
8
BLACK
6
CONTINUOUS
10
119.36
20
-103.234
11
119.074
21
-103.091
0
LINE
8
BLACK
6
CONTINUOUS
10
119.074
20
-103.091
11
118.931
21
-102.806
0
LINE
8
BLACK
6
CONTINUOUS
10
118.931
20
-102.806
11
118.931
21
-102.52
0
LINE
8
BLACK
6
CONTINUOUS
10
118.931
20
-102.52
11
119.074
21
-102.234
0
LINE
8
BLACK
6
CONTINUOUS
10
119.074
20
-102.234
11
119.36
21
-102.091
0
LINE
8
BLACK
6
CONTINUOUS
10
119.36
20
-102.091
11
120.074
21
-102.091
0
LINE
8
BLACK
6
CONTINUOUS
10
120.074
20
-102.091
11
120.36
21
-101.948
0
LINE
8
BLACK
6
CONTINUOUS
10
121.788
20
-101.234
11
121.788
21
-104.234
0
LINE
8
BLACK
6
CONTINUOUS
10
121.788
20
-101.377
11
122.074
21
-101.234
0
LINE
8
BLACK
6
CONTINUOUS
10
122.074
20
-101.234
11
122.646
21
-101.234
0
LINE
8
BLACK
6
CONTINUOUS
10
122.646
20
-101.234
11
122.931
21
-101.377
0
LINE
8
BLACK
6
CONTINUOUS
10
122.931
20
-101.377
11
123.074
21
-101.52
0
LINE
8
BLACK
6
CONTINUOUS
10
123.074
20
-101.52
11
123.217
21
-101.806
0
LINE
8
BLACK
6
CONTINUOUS
10
123.217
20
-101.806
11
123.217
21
-102.663
0
LINE
8
BLACK
6
CONTINUOUS
10
123.217
20
-102.663
11
123.074
21
-102.948
0
LINE
8
BLACK
6
CONTINUOUS
10
123.074
20
-102.948
11
122.931
21
-103.091
0
LINE
8
BLACK
6
CONTINUOUS
10
122.931
20
-103.091
11
122.646
21
-103.234
0
LINE
8
BLACK
6
CONTINUOUS
10
122.646
20
-103.234
11
122.074
21
-103.234
0
LINE
8
BLACK
6
CONTINUOUS
10
122.074
20
-103.234
11
121.788
21
-103.091
0
LINE
8
BLACK
6
CONTINUOUS
10
124.503
20
-102.948
11
124.646
21
-103.091
0
LINE
8
BLACK
6
CONTINUOUS
10
124.646
20
-103.091
11
124.503
21
-103.234
0
LINE
8
BLACK
6
CONTINUOUS
10
124.503
20
-103.234
11
124.36
21
-103.091
0
LINE
8
BLACK
6
CONTINUOUS
10
124.36
20
-103.091
11
124.503
21
-102.948
0
LINE
8
BLACK
6
CONTINUOUS
10
124.503
20
-102.948
11
124.503
21
-103.234
0
LINE
8
BLACK
6
CONTINUOUS
10
124.503
20
-101.377
11
124.646
21
-101.52
0
LINE
8
BLACK
6
CONTINUOUS
10
124.646
20
-101.52
11
124.503
21
-101.663
0
LINE
8
BLACK
6
CONTINUOUS
10
124.503
20
-101.663
11
124.36
21
-101.52
0
LINE
8
BLACK
6
CONTINUOUS
10
124.36
20
-101.52
11
124.503
21
-101.377
0
LINE
8
BLACK
6
CONTINUOUS
10
124.503
20
-101.377
11
124.503
21
-101.663
0
LINE
8
BLACK
6
CONTINUOUS
10
100.305
20
-107.796
11
101.067
21
-108.558
0
LINE
8
BLACK
6
CONTINUOUS
10
101.067
20
-107.796
11
100.305
21
-108.558
0
LINE
8
BLACK
6
CONTINUOUS
10
104.503
20
-106.534
11
104.788
21
-106.534
0
LINE
8
BLACK
6
CONTINUOUS
10
104.788
20
-106.534
11
105.074
21
-106.677
0
LINE
8
BLACK
6
CONTINUOUS
10
105.074
20
-106.677
11
105.217
21
-106.82
0
LINE
8
BLACK
6
CONTINUOUS
10
105.217
20
-106.82
11
105.36
21
-107.106
0
LINE
8
BLACK
6
CONTINUOUS
10
105.36
20
-107.106
11
105.503
21
-107.677
0
LINE
8
BLACK
6
CONTINUOUS
10
105.503
20
-107.677
11
105.503
21
-108.391
0
LINE
8
BLACK
6
CONTINUOUS
10
105.503
20
-108.391
11
105.36
21
-108.963
0
LINE
8
BLACK
6
CONTINUOUS
10
105.36
20
-108.963
11
105.217
21
-109.248
0
LINE
8
BLACK
6
CONTINUOUS
10
105.217
20
-109.248
11
105.074
21
-109.391
0
LINE
8
BLACK
6
CONTINUOUS
10
105.074
20
-109.391
11
104.788
21
-109.534
0
LINE
8
BLACK
6
CONTINUOUS
10
104.788
20
-109.534
11
104.503
21
-109.534
0
LINE
8
BLACK
6
CONTINUOUS
10
104.503
20
-109.534
11
104.217
21
-109.391
0
LINE
8
BLACK
6
CONTINUOUS
10
104.217
20
-109.391
11
104.074
21
-109.248
0
LINE
8
BLACK
6
CONTINUOUS
10
104.074
20
-109.248
11
103.931
21
-108.963
0
LINE
8
BLACK
6
CONTINUOUS
10
103.931
20
-108.963
11
103.788
21
-108.391
0
LINE
8
BLACK
6
CONTINUOUS
10
103.788
20
-108.391
11
103.788
21
-107.677
0
LINE
8
BLACK
6
CONTINUOUS
10
103.788
20
-107.677
11
103.931
21
-107.106
0
LINE
8
BLACK
6
CONTINUOUS
10
103.931
20
-107.106
11
104.074
21
-106.82
0
LINE
8
BLACK
6
CONTINUOUS
10
104.074
20
-106.82
11
104.217
21
-106.677
0
LINE
8
BLACK
6
CONTINUOUS
10
104.217
20
-106.677
11
104.503
21
-106.534
0
LINE
8
BLACK
6
CONTINUOUS
10
106.788
20
-109.248
11
106.931
21
-109.391
0
LINE
8
BLACK
6
CONTINUOUS
10
106.931
20
-109.391
11
106.788
21
-109.534
0
LINE
8
BLACK
6
CONTINUOUS
10
106.788
20
-109.534
11
106.646
21
-109.391
0
LINE
8
BLACK
6
CONTINUOUS
10
106.646
20
-109.391
11
106.788
21
-109.248
0
LINE
8
BLACK
6
CONTINUOUS
10
106.788
20
-109.248
11
106.788
21
-109.534
0
LINE
8
BLACK
6
CONTINUOUS
10
107.931
20
-106.534
11
109.931
21
-106.534
0
LINE
8
BLACK
6
CONTINUOUS
10
109.931
20
-106.534
11
108.646
21
-109.534
0
LINE
8
BLACK
6
CONTINUOUS
10
112.36
20
-106.534
11
111.788
21
-106.534
0
LINE
8
BLACK
6
CONTINUOUS
10
111.788
20
-106.534
11
111.503
21
-106.677
0
LINE
8
BLACK
6
CONTINUOUS
10
111.503
20
-106.677
11
111.36
21
-106.82
0
LINE
8
BLACK
6
CONTINUOUS
10
111.36
20
-106.82
11
111.074
21
-107.248
0
LINE
8
BLACK
6
CONTINUOUS
10
111.074
20
-107.248
11
110.931
21
-107.82
0
LINE
8
BLACK
6
CONTINUOUS
10
110.931
20
-107.82
11
110.931
21
-108.963
0
LINE
8
BLACK
6
CONTINUOUS
10
110.931
20
-108.963
11
111.074
21
-109.248
0
LINE
8
BLACK
6
CONTINUOUS
10
111.074
20
-109.248
11
111.217
21
-109.391
0
LINE
8
BLACK
6
CONTINUOUS
10
111.217
20
-109.391
11
111.503
21
-109.534
0
LINE
8
BLACK
6
CONTINUOUS
10
111.503
20
-109.534
11
112.074
21
-109.534
0
LINE
8
BLACK
6
CONTINUOUS
10
112.074
20
-109.534
11
112.36
21
-109.391
0
LINE
8
BLACK
6
CONTINUOUS
10
112.36
20
-109.391
11
112.503
21
-109.248
0
LINE
8
BLACK
6
CONTINUOUS
10
112.503
20
-109.248
11
112.646
21
-108.963
0
LINE
8
BLACK
6
CONTINUOUS
10
112.646
20
-108.963
11
112.646
21
-108.248
0
LINE
8
BLACK
6
CONTINUOUS
10
112.646
20
-108.248
11
112.503
21
-107.963
0
LINE
8
BLACK
6
CONTINUOUS
10
112.503
20
-107.963
11
112.36
21
-107.82
0
LINE
8
BLACK
6
CONTINUOUS
10
112.36
20
-107.82
11
112.074
21
-107.677
0
LINE
8
BLACK
6
CONTINUOUS
10
112.074
20
-107.677
11
111.503
21
-107.677
0
LINE
8
BLACK
6
CONTINUOUS
10
111.503
20
-107.677
11
111.217
21
-107.82
0
LINE
8
BLACK
6
CONTINUOUS
10
111.217
20
-107.82
11
111.074
21
-107.963
0
LINE
8
BLACK
6
CONTINUOUS
10
111.074
20
-107.963
11
110.931
21
-108.248
0
LINE
8
BLACK
6
CONTINUOUS
10
113.931
20
-109.534
11
113.931
21
-107.534
0
LINE
8
BLACK
6
CONTINUOUS
10
113.931
20
-107.82
11
114.074
21
-107.677
0
LINE
8
BLACK
6
CONTINUOUS
10
114.074
20
-107.677
11
114.36
21
-107.534
0
LINE
8
BLACK
6
CONTINUOUS
10
114.36
20
-107.534
11
114.788
21
-107.534
0
LINE
8
BLACK
6
CONTINUOUS
10
114.788
20
-107.534
11
115.074
21
-107.677
0
LINE
8
BLACK
6
CONTINUOUS
10
115.074
20
-107.677
11
115.217
21
-107.963
0
LINE
8
BLACK
6
CONTINUOUS
10
115.217
20
-107.963
11
115.217
21
-109.534
0
LINE
8
BLACK
6
CONTINUOUS
10
115.217
20
-107.963
11
115.36
21
-107.677
0
LINE
8
BLACK
6
CONTINUOUS
10
115.36
20
-107.677
11
115.646
21
-107.534
0
LINE
8
BLACK
6
CONTINUOUS
10
115.646
20
-107.534
11
116.074
21
-107.534
0
LINE
8
BLACK
6
CONTINUOUS
10
116.074
20
-107.534
11
116.36
21
-107.677
0
LINE
8
BLACK
6
CONTINUOUS
10
116.36
20
-107.677
11
116.503
21
-107.963
0
LINE
8
BLACK
6
CONTINUOUS
10
116.503
20
-107.963
11
116.503
21
-109.534
0
LINE
8
BLACK
6
CONTINUOUS
10
117.931
20
-109.534
11
117.931
21
-107.534
0
LINE
8
BLACK
6
CONTINUOUS
10
117.931
20
-107.82
11
118.074
21
-107.677
0
LINE
8
BLACK
6
CONTINUOUS
10
118.074
20
-107.677
11
118.36
21
-107.534
0
LINE
8
BLACK
6
CONTINUOUS
10
118.36
20
-107.534
11
118.788
21
-107.534
0
LINE
8
BLACK
6
CONTINUOUS
10
118.788
20
-107.534
11
119.074
21
-107.677
0
LINE
8
BLACK
6
CONTINUOUS
10
119.074
20
-107.677
11
119.217
21
-107.963
0
LINE
8
BLACK
6
CONTINUOUS
10
119.217
20
-107.963
11
119.217
21
-109.534
0
LINE
8
BLACK
6
CONTINUOUS
10
119.217
20
-107.963
11
119.36
21
-107.677
0
LINE
8
BLACK
6
CONTINUOUS
10
119.36
20
-107.677
11
119.646
21
-107.534
0
LINE
8
BLACK
6
CONTINUOUS
10
119.646
20
-107.534
11
120.074
21
-107.534
0
LINE
8
BLACK
6
CONTINUOUS
10
120.074
20
-107.534
11
120.36
21
-107.677
0
LINE
8
BLACK
6
CONTINUOUS
10
120.36
20
-107.677
11
120.503
21
-107.963
0
LINE
8
BLACK
6
CONTINUOUS
10
120.503
20
-107.963
11
120.503
21
-109.534
0
LINE
8
BLACK
6
CONTINUOUS
10
126.36
20
-106.391
11
123.788
21
-110.248
0
LINE
8
BLACK
6
CONTINUOUS
10
130.217
20
-106.534
11
130.503
21
-106.534
0
LINE
8
BLACK
6
CONTINUOUS
10
130.503
20
-106.534
11
130.788
21
-106.677
0
LINE
8
BLACK
6
CONTINUOUS
10
130.788
20
-106.677
11
130.931
21
-106.82
0
LINE
8
BLACK
6
CONTINUOUS
10
130.931
20
-106.82
11
131.074
21
-107.106
0
LINE
8
BLACK
6
CONTINUOUS
10
131.074
20
-107.106
11
131.217
21
-107.677
0
LINE
8
BLACK
6
CONTINUOUS
10
131.217
20
-107.677
11
131.217
21
-108.391
0
LINE
8
BLACK
6
CONTINUOUS
10
131.217
20
-108.391
11
131.074
21
-108.963
0
LINE
8
BLACK
6
CONTINUOUS
10
131.074
20
-108.963
11
130.931
21
-109.248
0
LINE
8
BLACK
6
CONTINUOUS
10
130.931
20
-109.248
11
130.788
21
-109.391
0
LINE
8
BLACK
6
CONTINUOUS
10
130.788
20
-109.391
11
130.503
21
-109.534
0
LINE
8
BLACK
6
CONTINUOUS
10
130.503
20
-109.534
11
130.217
21
-109.534
0
LINE
8
BLACK
6
CONTINUOUS
10
130.217
20
-109.534
11
129.931
21
-109.391
0
LINE
8
BLACK
6
CONTINUOUS
10
129.931
20
-109.391
11
129.788
21
-109.248
0
LINE
8
BLACK
6
CONTINUOUS
10
129.788
20
-109.248
11
129.646
21
-108.963
0
LINE
8
BLACK
6
CONTINUOUS
10
129.646
20
-108.963
11
129.503
21
-108.391
0
LINE
8
BLACK
6
CONTINUOUS
10
129.503
20
-108.391
11
129.503
21
-107.677
0
LINE
8
BLACK
6
CONTINUOUS
10
129.503
20
-107.677
11
129.646
21
-107.106
0
LINE
8
BLACK
6
CONTINUOUS
10
129.646
20
-107.106
11
129.788
21
-106.82
0
LINE
8
BLACK
6
CONTINUOUS
10
129.788
20
-106.82
11
129.931
21
-106.677
0
LINE
8
BLACK
6
CONTINUOUS
10
129.931
20
-106.677
11
130.217
21
-106.534
0
LINE
8
BLACK
6
CONTINUOUS
10
132.503
20
-109.248
11
132.646
21
-109.391
0
LINE
8
BLACK
6
CONTINUOUS
10
132.646
20
-109.391
11
132.503
21
-109.534
0
LINE
8
BLACK
6
CONTINUOUS
10
132.503
20
-109.534
11
132.36
21
-109.391
0
LINE
8
BLACK
6
CONTINUOUS
10
132.36
20
-109.391
11
132.503
21
-109.248
0
LINE
8
BLACK
6
CONTINUOUS
10
132.503
20
-109.248
11
132.503
21
-109.534
0
LINE
8
BLACK
6
CONTINUOUS
10
134.503
20
-106.534
11
134.788
21
-106.534
0
LINE
8
BLACK
6
CONTINUOUS
10
134.788
20
-106.534
11
135.074
21
-106.677
0
LINE
8
BLACK
6
CONTINUOUS
10
135.074
20
-106.677
11
135.217
21
-106.82
0
LINE
8
BLACK
6
CONTINUOUS
10
135.217
20
-106.82
11
135.36
21
-107.106
0
LINE
8
BLACK
6
CONTINUOUS
10
135.36
20
-107.106
11
135.503
21
-107.677
0
LINE
8
BLACK
6
CONTINUOUS
10
135.503
20
-107.677
11
135.503
21
-108.391
0
LINE
8
BLACK
6
CONTINUOUS
10
135.503
20
-108.391
11
135.36
21
-108.963
0
LINE
8
BLACK
6
CONTINUOUS
10
135.36
20
-108.963
11
135.217
21
-109.248
0
LINE
8
BLACK
6
CONTINUOUS
10
135.217
20
-109.248
11
135.074
21
-109.391
0
LINE
8
BLACK
6
CONTINUOUS
10
135.074
20
-109.391
11
134.788
21
-109.534
0
LINE
8
BLACK
6
CONTINUOUS
10
134.788
20
-109.534
11
134.503
21
-109.534
0
LINE
8
BLACK
6
CONTINUOUS
10
134.503
20
-109.534
11
134.217
21
-109.391
0
LINE
8
BLACK
6
CONTINUOUS
10
134.217
20
-109.391
11
134.074
21
-109.248
0
LINE
8
BLACK
6
CONTINUOUS
10
134.074
20
-109.248
11
133.931
21
-108.963
0
LINE
8
BLACK
6
CONTINUOUS
10
133.931
20
-108.963
11
133.788
21
-108.391
0
LINE
8
BLACK
6
CONTINUOUS
10
133.788
20
-108.391
11
133.788
21
-107.677
0
LINE
8
BLACK
6
CONTINUOUS
10
133.788
20
-107.677
11
133.931
21
-107.106
0
LINE
8
BLACK
6
CONTINUOUS
10
133.931
20
-107.106
11
134.074
21
-106.82
0
LINE
8
BLACK
6
CONTINUOUS
10
134.074
20
-106.82
11
134.217
21
-106.677
0
LINE
8
BLACK
6
CONTINUOUS
10
134.217
20
-106.677
11
134.503
21
-106.534
0
LINE
8
BLACK
6
CONTINUOUS
10
136.503
20
-106.534
11
138.36
21
-106.534
0
LINE
8
BLACK
6
CONTINUOUS
10
138.36
20
-106.534
11
137.36
21
-107.677
0
LINE
8
BLACK
6
CONTINUOUS
10
137.36
20
-107.677
11
137.788
21
-107.677
0
LINE
8
BLACK
6
CONTINUOUS
10
137.788
20
-107.677
11
138.074
21
-107.82
0
LINE
8
BLACK
6
CONTINUOUS
10
138.074
20
-107.82
11
138.217
21
-107.963
0
LINE
8
BLACK
6
CONTINUOUS
10
138.217
20
-107.963
11
138.36
21
-108.248
0
LINE
8
BLACK
6
CONTINUOUS
10
138.36
20
-108.248
11
138.36
21
-108.963
0
LINE
8
BLACK
6
CONTINUOUS
10
138.36
20
-108.963
11
138.217
21
-109.248
0
LINE
8
BLACK
6
CONTINUOUS
10
138.217
20
-109.248
11
138.074
21
-109.391
0
LINE
8
BLACK
6
CONTINUOUS
10
138.074
20
-109.391
11
137.788
21
-109.534
0
LINE
8
BLACK
6
CONTINUOUS
10
137.788
20
-109.534
11
136.931
21
-109.534
0
LINE
8
BLACK
6
CONTINUOUS
10
136.931
20
-109.534
11
136.646
21
-109.391
0
LINE
8
BLACK
6
CONTINUOUS
10
136.646
20
-109.391
11
136.503
21
-109.248
0
LINE
8
BLACK
6
CONTINUOUS
10
140.217
20
-106.534
11
140.503
21
-106.534
0
LINE
8
BLACK
6
CONTINUOUS
10
140.503
20
-106.534
11
140.788
21
-106.677
0
LINE
8
BLACK
6
CONTINUOUS
10
140.788
20
-106.677
11
140.931
21
-106.82
0
LINE
8
BLACK
6
CONTINUOUS
10
140.931
20
-106.82
11
141.074
21
-107.106
0
LINE
8
BLACK
6
CONTINUOUS
10
141.074
20
-107.106
11
141.217
21
-107.677
0
LINE
8
BLACK
6
CONTINUOUS
10
141.217
20
-107.677
11
141.217
21
-108.391
0
LINE
8
BLACK
6
CONTINUOUS
10
141.217
20
-108.391
11
141.074
21
-108.963
0
LINE
8
BLACK
6
CONTINUOUS
10
141.074
20
-108.963
11
140.931
21
-109.248
0
LINE
8
BLACK
6
CONTINUOUS
10
140.931
20
-109.248
11
140.788
21
-109.391
0
LINE
8
BLACK
6
CONTINUOUS
10
140.788
20
-109.391
11
140.503
21
-109.534
0
LINE
8
BLACK
6
CONTINUOUS
10
140.503
20
-109.534
11
140.217
21
-109.534
0
LINE
8
BLACK
6
CONTINUOUS
10
140.217
20
-109.534
11
139.931
21
-109.391
0
LINE
8
BLACK
6
CONTINUOUS
10
139.931
20
-109.391
11
139.788
21
-109.248
0
LINE
8
BLACK
6
CONTINUOUS
10
139.788
20
-109.248
11
139.646
21
-108.963
0
LINE
8
BLACK
6
CONTINUOUS
10
139.646
20
-108.963
11
139.503
21
-108.391
0
LINE
8
BLACK
6
CONTINUOUS
10
139.503
20
-108.391
11
139.503
21
-107.677
0
LINE
8
BLACK
6
CONTINUOUS
10
139.503
20
-107.677
11
139.646
21
-107.106
0
LINE
8
BLACK
6
CONTINUOUS
10
139.646
20
-107.106
11
139.788
21
-106.82
0
LINE
8
BLACK
6
CONTINUOUS
10
139.788
20
-106.82
11
139.931
21
-106.677
0
LINE
8
BLACK
6
CONTINUOUS
10
139.931
20
-106.677
11
140.217
21
-106.534
0
LINE
8
BLACK
6
CONTINUOUS
10
142.36
20
-106.534
11
142.36
21
-107.106
0
LINE
8
BLACK
6
CONTINUOUS
10
143.503
20
-106.534
11
143.503
21
-107.106
0
LINE
8
BLACK
6
CONTINUOUS
10
147.931
20
-110.677
11
147.788
21
-110.534
0
LINE
8
BLACK
6
CONTINUOUS
10
147.788
20
-110.534
11
147.503
21
-110.106
0
LINE
8
BLACK
6
CONTINUOUS
10
147.503
20
-110.106
11
147.36
21
-109.82
0
LINE
8
BLACK
6
CONTINUOUS
10
147.36
20
-109.82
11
147.217
21
-109.391
0
LINE
8
BLACK
6
CONTINUOUS
10
147.217
20
-109.391
11
147.074
21
-108.677
0
LINE
8
BLACK
6
CONTINUOUS
10
147.074
20
-108.677
11
147.074
21
-108.106
0
LINE
8
BLACK
6
CONTINUOUS
10
147.074
20
-108.106
11
147.217
21
-107.391
0
LINE
8
BLACK
6
CONTINUOUS
10
147.217
20
-107.391
11
147.36
21
-106.963
0
LINE
8
BLACK
6
CONTINUOUS
10
147.36
20
-106.963
11
147.503
21
-106.677
0
LINE
8
BLACK
6
CONTINUOUS
10
147.503
20
-106.677
11
147.788
21
-106.248
0
LINE
8
BLACK
6
CONTINUOUS
10
147.788
20
-106.248
11
147.931
21
-106.106
0
LINE
8
BLACK
6
CONTINUOUS
10
149.503
20
-107.82
11
149.217
21
-107.677
0
LINE
8
BLACK
6
CONTINUOUS
10
149.217
20
-107.677
11
149.074
21
-107.534
0
LINE
8
BLACK
6
CONTINUOUS
10
149.074
20
-107.534
11
148.931
21
-107.248
0
LINE
8
BLACK
6
CONTINUOUS
10
148.931
20
-107.248
11
148.931
21
-107.106
0
LINE
8
BLACK
6
CONTINUOUS
10
148.931
20
-107.106
11
149.074
21
-106.82
0
LINE
8
BLACK
6
CONTINUOUS
10
149.074
20
-106.82
11
149.217
21
-106.677
0
LINE
8
BLACK
6
CONTINUOUS
10
149.217
20
-106.677
11
149.503
21
-106.534
0
LINE
8
BLACK
6
CONTINUOUS
10
149.503
20
-106.534
11
150.074
21
-106.534
0
LINE
8
BLACK
6
CONTINUOUS
10
150.074
20
-106.534
11
150.36
21
-106.677
0
LINE
8
BLACK
6
CONTINUOUS
10
150.36
20
-106.677
11
150.503
21
-106.82
0
LINE
8
BLACK
6
CONTINUOUS
10
150.503
20
-106.82
11
150.646
21
-107.106
0
LINE
8
BLACK
6
CONTINUOUS
10
150.646
20
-107.106
11
150.646
21
-107.248
0
LINE
8
BLACK
6
CONTINUOUS
10
150.646
20
-107.248
11
150.503
21
-107.534
0
LINE
8
BLACK
6
CONTINUOUS
10
150.503
20
-107.534
11
150.36
21
-107.677
0
LINE
8
BLACK
6
CONTINUOUS
10
150.36
20
-107.677
11
150.074
21
-107.82
0
LINE
8
BLACK
6
CONTINUOUS
10
150.074
20
-107.82
11
149.503
21
-107.82
0
LINE
8
BLACK
6
CONTINUOUS
10
149.503
20
-107.82
11
149.217
21
-107.963
0
LINE
8
BLACK
6
CONTINUOUS
10
149.217
20
-107.963
11
149.074
21
-108.106
0
LINE
8
BLACK
6
CONTINUOUS
10
149.074
20
-108.106
11
148.931
21
-108.391
0
LINE
8
BLACK
6
CONTINUOUS
10
148.931
20
-108.391
11
148.931
21
-108.963
0
LINE
8
BLACK
6
CONTINUOUS
10
148.931
20
-108.963
11
149.074
21
-109.248
0
LINE
8
BLACK
6
CONTINUOUS
10
149.074
20
-109.248
11
149.217
21
-109.391
0
LINE
8
BLACK
6
CONTINUOUS
10
149.217
20
-109.391
11
149.503
21
-109.534
0
LINE
8
BLACK
6
CONTINUOUS
10
149.503
20
-109.534
11
150.074
21
-109.534
0
LINE
8
BLACK
6
CONTINUOUS
10
150.074
20
-109.534
11
150.36
21
-109.391
0
LINE
8
BLACK
6
CONTINUOUS
10
150.36
20
-109.391
11
150.503
21
-109.248
0
LINE
8
BLACK
6
CONTINUOUS
10
150.503
20
-109.248
11
150.646
21
-108.963
0
LINE
8
BLACK
6
CONTINUOUS
10
150.646
20
-108.963
11
150.646
21
-108.391
0
LINE
8
BLACK
6
CONTINUOUS
10
150.646
20
-108.391
11
150.503
21
-108.106
0
LINE
8
BLACK
6
CONTINUOUS
10
150.503
20
-108.106
11
150.36
21
-107.963
0
LINE
8
BLACK
6
CONTINUOUS
10
150.36
20
-107.963
11
150.074
21
-107.82
0
LINE
8
BLACK
6
CONTINUOUS
10
154.217
20
-109.534
11
154.217
21
-106.534
0
LINE
8
BLACK
6
CONTINUOUS
10
155.503
20
-109.534
11
155.503
21
-107.963
0
LINE
8
BLACK
6
CONTINUOUS
10
155.503
20
-107.963
11
155.36
21
-107.677
0
LINE
8
BLACK
6
CONTINUOUS
10
155.36
20
-107.677
11
155.074
21
-107.534
0
LINE
8
BLACK
6
CONTINUOUS
10
155.074
20
-107.534
11
154.646
21
-107.534
0
LINE
8
BLACK
6
CONTINUOUS
10
154.646
20
-107.534
11
154.36
21
-107.677
0
LINE
8
BLACK
6
CONTINUOUS
10
154.36
20
-107.677
11
154.217
21
-107.82
0
LINE
8
BLACK
6
CONTINUOUS
10
157.36
20
-109.534
11
157.074
21
-109.391
0
LINE
8
BLACK
6
CONTINUOUS
10
157.074
20
-109.391
11
156.931
21
-109.248
0
LINE
8
BLACK
6
CONTINUOUS
10
156.931
20
-109.248
11
156.788
21
-108.963
0
LINE
8
BLACK
6
CONTINUOUS
10
156.788
20
-108.963
11
156.788
21
-108.106
0
LINE
8
BLACK
6
CONTINUOUS
10
156.788
20
-108.106
11
156.931
21
-107.82
0
LINE
8
BLACK
6
CONTINUOUS
10
156.931
20
-107.82
11
157.074
21
-107.677
0
LINE
8
BLACK
6
CONTINUOUS
10
157.074
20
-107.677
11
157.36
21
-107.534
0
LINE
8
BLACK
6
CONTINUOUS
10
157.36
20
-107.534
11
157.788
21
-107.534
0
LINE
8
BLACK
6
CONTINUOUS
10
157.788
20
-107.534
11
158.074
21
-107.677
0
LINE
8
BLACK
6
CONTINUOUS
10
158.074
20
-107.677
11
158.217
21
-107.82
0
LINE
8
BLACK
6
CONTINUOUS
10
158.217
20
-107.82
11
158.36
21
-108.106
0
LINE
8
BLACK
6
CONTINUOUS
10
158.36
20
-108.106
11
158.36
21
-108.963
0
LINE
8
BLACK
6
CONTINUOUS
10
158.36
20
-108.963
11
158.217
21
-109.248
0
LINE
8
BLACK
6
CONTINUOUS
10
158.217
20
-109.248
11
158.074
21
-109.391
0
LINE
8
BLACK
6
CONTINUOUS
10
158.074
20
-109.391
11
157.788
21
-109.534
0
LINE
8
BLACK
6
CONTINUOUS
10
157.788
20
-109.534
11
157.36
21
-109.534
0
LINE
8
BLACK
6
CONTINUOUS
10
160.074
20
-109.534
11
159.788
21
-109.391
0
LINE
8
BLACK
6
CONTINUOUS
10
159.788
20
-109.391
11
159.646
21
-109.106
0
LINE
8
BLACK
6
CONTINUOUS
10
159.646
20
-109.106
11
159.646
21
-106.534
0
LINE
8
BLACK
6
CONTINUOUS
10
162.36
20
-109.391
11
162.074
21
-109.534
0
LINE
8
BLACK
6
CONTINUOUS
10
162.074
20
-109.534
11
161.503
21
-109.534
0
LINE
8
BLACK
6
CONTINUOUS
10
161.503
20
-109.534
11
161.217
21
-109.391
0
LINE
8
BLACK
6
CONTINUOUS
10
161.217
20
-109.391
11
161.074
21
-109.106
0
LINE
8
BLACK
6
CONTINUOUS
10
161.074
20
-109.106
11
161.074
21
-107.963
0
LINE
8
BLACK
6
CONTINUOUS
10
161.074
20
-107.963
11
161.217
21
-107.677
0
LINE
8
BLACK
6
CONTINUOUS
10
161.217
20
-107.677
11
161.503
21
-107.534
0
LINE
8
BLACK
6
CONTINUOUS
10
161.503
20
-107.534
11
162.074
21
-107.534
0
LINE
8
BLACK
6
CONTINUOUS
10
162.074
20
-107.534
11
162.36
21
-107.677
0
LINE
8
BLACK
6
CONTINUOUS
10
162.36
20
-107.677
11
162.503
21
-107.963
0
LINE
8
BLACK
6
CONTINUOUS
10
162.503
20
-107.963
11
162.503
21
-108.248
0
LINE
8
BLACK
6
CONTINUOUS
10
162.503
20
-108.248
11
161.074
21
-108.534
0
LINE
8
BLACK
6
CONTINUOUS
10
163.646
20
-109.391
11
163.931
21
-109.534
0
LINE
8
BLACK
6
CONTINUOUS
10
163.931
20
-109.534
11
164.503
21
-109.534
0
LINE
8
BLACK
6
CONTINUOUS
10
164.503
20
-109.534
11
164.788
21
-109.391
0
LINE
8
BLACK
6
CONTINUOUS
10
164.788
20
-109.391
11
164.931
21
-109.106
0
LINE
8
BLACK
6
CONTINUOUS
10
164.931
20
-109.106
11
164.931
21
-108.963
0
LINE
8
BLACK
6
CONTINUOUS
10
164.931
20
-108.963
11
164.788
21
-108.677
0
LINE
8
BLACK
6
CONTINUOUS
10
164.788
20
-108.677
11
164.503
21
-108.534
0
LINE
8
BLACK
6
CONTINUOUS
10
164.503
20
-108.534
11
164.074
21
-108.534
0
LINE
8
BLACK
6
CONTINUOUS
10
164.074
20
-108.534
11
163.788
21
-108.391
0
LINE
8
BLACK
6
CONTINUOUS
10
163.788
20
-108.391
11
163.646
21
-108.106
0
LINE
8
BLACK
6
CONTINUOUS
10
163.646
20
-108.106
11
163.646
21
-107.963
0
LINE
8
BLACK
6
CONTINUOUS
10
163.646
20
-107.963
11
163.788
21
-107.677
0
LINE
8
BLACK
6
CONTINUOUS
10
163.788
20
-107.677
11
164.074
21
-107.534
0
LINE
8
BLACK
6
CONTINUOUS
10
164.074
20
-107.534
11
164.503
21
-107.534
0
LINE
8
BLACK
6
CONTINUOUS
10
164.503
20
-107.534
11
164.788
21
-107.677
0
LINE
8
BLACK
6
CONTINUOUS
10
165.931
20
-110.677
11
166.074
21
-110.534
0
LINE
8
BLACK
6
CONTINUOUS
10
166.074
20
-110.534
11
166.36
21
-110.106
0
LINE
8
BLACK
6
CONTINUOUS
10
166.36
20
-110.106
11
166.503
21
-109.82
0
LINE
8
BLACK
6
CONTINUOUS
10
166.503
20
-109.82
11
166.646
21
-109.391
0
LINE
8
BLACK
6
CONTINUOUS
10
166.646
20
-109.391
11
166.788
21
-108.677
0
LINE
8
BLACK
6
CONTINUOUS
10
166.788
20
-108.677
11
166.788
21
-108.106
0
LINE
8
BLACK
6
CONTINUOUS
10
166.788
20
-108.106
11
166.646
21
-107.391
0
LINE
8
BLACK
6
CONTINUOUS
10
166.646
20
-107.391
11
166.503
21
-106.963
0
LINE
8
BLACK
6
CONTINUOUS
10
166.503
20
-106.963
11
166.36
21
-106.677
0
LINE
8
BLACK
6
CONTINUOUS
10
166.36
20
-106.677
11
166.074
21
-106.248
0
LINE
8
BLACK
6
CONTINUOUS
10
166.074
20
-106.248
11
165.931
21
-106.106
0
CIRCLE
8
BLACK
10
100.667
20
-112.137
40
0.4
0
LINE
8
BLACK
6
CONTINUOUS
10
104.503
20
-110.494
11
104.788
21
-110.494
0
LINE
8
BLACK
6
CONTINUOUS
10
104.788
20
-110.494
11
105.074
21
-110.637
0
LINE
8
BLACK
6
CONTINUOUS
10
105.074
20
-110.637
11
105.217
21
-110.78
0
LINE
8
BLACK
6
CONTINUOUS
10
105.217
20
-110.78
11
105.36
21
-111.066
0
LINE
8
BLACK
6
CONTINUOUS
10
105.36
20
-111.066
11
105.503
21
-111.637
0
LINE
8
BLACK
6
CONTINUOUS
10
105.503
20
-111.637
11
105.503
21
-112.351
0
LINE
8
BLACK
6
CONTINUOUS
10
105.503
20
-112.351
11
105.36
21
-112.923
0
LINE
8
BLACK
6
CONTINUOUS
10
105.36
20
-112.923
11
105.217
21
-113.208
0
LINE
8
BLACK
6
CONTINUOUS
10
105.217
20
-113.208
11
105.074
21
-113.351
0
LINE
8
BLACK
6
CONTINUOUS
10
105.074
20
-113.351
11
104.788
21
-113.494
0
LINE
8
BLACK
6
CONTINUOUS
10
104.788
20
-113.494
11
104.503
21
-113.494
0
LINE
8
BLACK
6
CONTINUOUS
10
104.503
20
-113.494
11
104.217
21
-113.351
0
LINE
8
BLACK
6
CONTINUOUS
10
104.217
20
-113.351
11
104.074
21
-113.208
0
LINE
8
BLACK
6
CONTINUOUS
10
104.074
20
-113.208
11
103.931
21
-112.923
0
LINE
8
BLACK
6
CONTINUOUS
10
103.931
20
-112.923
11
103.788
21
-112.351
0
LINE
8
BLACK
6
CONTINUOUS
10
103.788
20
-112.351
11
103.788
21
-111.637
0
LINE
8
BLACK
6
CONTINUOUS
10
103.788
20
-111.637
11
103.931
21
-111.066
0
LINE
8
BLACK
6
CONTINUOUS
10
103.931
20
-111.066
11
104.074
21
-110.78
0
LINE
8
BLACK
6
CONTINUOUS
10
104.074
20
-110.78
11
104.217
21
-110.637
0
LINE
8
BLACK
6
CONTINUOUS
10
104.217
20
-110.637
11
104.503
21
-110.494
0
LINE
8
BLACK
6
CONTINUOUS
10
106.788
20
-113.208
11
106.931
21
-113.351
0
LINE
8
BLACK
6
CONTINUOUS
10
106.931
20
-113.351
11
106.788
21
-113.494
0
LINE
8
BLACK
6
CONTINUOUS
10
106.788
20
-113.494
11
106.646
21
-113.351
0
LINE
8
BLACK
6
CONTINUOUS
10
106.646
20
-113.351
11
106.788
21
-113.208
0
LINE
8
BLACK
6
CONTINUOUS
10
106.788
20
-113.208
11
106.788
21
-113.494
0
LINE
8
BLACK
6
CONTINUOUS
10
108.646
20
-111.78
11
108.36
21
-111.637
0
LINE
8
BLACK
6
CONTINUOUS
10
108.36
20
-111.637
11
108.217
21
-111.494
0
LINE
8
BLACK
6
CONTINUOUS
10
108.217
20
-111.494
11
108.074
21
-111.208
0
LINE
8
BLACK
6
CONTINUOUS
10
108.074
20
-111.208
11
108.074
21
-111.066
0
LINE
8
BLACK
6
CONTINUOUS
10
108.074
20
-111.066
11
108.217
21
-110.78
0
LINE
8
BLACK
6
CONTINUOUS
10
108.217
20
-110.78
11
108.36
21
-110.637
0
LINE
8
BLACK
6
CONTINUOUS
10
108.36
20
-110.637
11
108.646
21
-110.494
0
LINE
8
BLACK
6
CONTINUOUS
10
108.646
20
-110.494
11
109.217
21
-110.494
0
LINE
8
BLACK
6
CONTINUOUS
10
109.217
20
-110.494
11
109.503
21
-110.637
0
LINE
8
BLACK
6
CONTINUOUS
10
109.503
20
-110.637
11
109.646
21
-110.78
0
LINE
8
BLACK
6
CONTINUOUS
10
109.646
20
-110.78
11
109.788
21
-111.066
0
LINE
8
BLACK
6
CONTINUOUS
10
109.788
20
-111.066
11
109.788
21
-111.208
0
LINE
8
BLACK
6
CONTINUOUS
10
109.788
20
-111.208
11
109.646
21
-111.494
0
LINE
8
BLACK
6
CONTINUOUS
10
109.646
20
-111.494
11
109.503
21
-111.637
0
LINE
8
BLACK
6
CONTINUOUS
10
109.503
20
-111.637
11
109.217
21
-111.78
0
LINE
8
BLACK
6
CONTINUOUS
10
109.217
20
-111.78
11
108.646
21
-111.78
0
LINE
8
BLACK
6
CONTINUOUS
10
108.646
20
-111.78
11
108.36
21
-111.923
0
LINE
8
BLACK
6
CONTINUOUS
10
108.36
20
-111.923
11
108.217
21
-112.066
0
LINE
8
BLACK
6
CONTINUOUS
10
108.217
20
-112.066
11
108.074
21
-112.351
0
LINE
8
BLACK
6
CONTINUOUS
10
108.074
20
-112.351
11
108.074
21
-112.923
0
LINE
8
BLACK
6
CONTINUOUS
10
108.074
20
-112.923
11
108.217
21
-113.208
0
LINE
8
BLACK
6
CONTINUOUS
10
108.217
20
-113.208
11
108.36
21
-113.351
0
LINE
8
BLACK
6
CONTINUOUS
10
108.36
20
-113.351
11
108.646
21
-113.494
0
LINE
8
BLACK
6
CONTINUOUS
10
108.646
20
-113.494
11
109.217
21
-113.494
0
LINE
8
BLACK
6
CONTINUOUS
10
109.217
20
-113.494
11
109.503
21
-113.351
0
LINE
8
BLACK
6
CONTINUOUS
10
109.503
20
-113.351
11
109.646
21
-113.208
0
LINE
8
BLACK
6
CONTINUOUS
10
109.646
20
-113.208
11
109.788
21
-112.923
0
LINE
8
BLACK
6
CONTINUOUS
10
109.788
20
-112.923
11
109.788
21
-112.351
0
LINE
8
BLACK
6
CONTINUOUS
10
109.788
20
-112.351
11
109.646
21
-112.066
0
LINE
8
BLACK
6
CONTINUOUS
10
109.646
20
-112.066
11
109.503
21
-111.923
0
LINE
8
BLACK
6
CONTINUOUS
10
109.503
20
-111.923
11
109.217
21
-111.78
0
LINE
8
BLACK
6
CONTINUOUS
10
111.646
20
-110.494
11
111.931
21
-110.494
0
LINE
8
BLACK
6
CONTINUOUS
10
111.931
20
-110.494
11
112.217
21
-110.637
0
LINE
8
BLACK
6
CONTINUOUS
10
112.217
20
-110.637
11
112.36
21
-110.78
0
LINE
8
BLACK
6
CONTINUOUS
10
112.36
20
-110.78
11
112.503
21
-111.066
0
LINE
8
BLACK
6
CONTINUOUS
10
112.503
20
-111.066
11
112.646
21
-111.637
0
LINE
8
BLACK
6
CONTINUOUS
10
112.646
20
-111.637
11
112.646
21
-112.351
0
LINE
8
BLACK
6
CONTINUOUS
10
112.646
20
-112.351
11
112.503
21
-112.923
0
LINE
8
BLACK
6
CONTINUOUS
10
112.503
20
-112.923
11
112.36
21
-113.208
0
LINE
8
BLACK
6
CONTINUOUS
10
112.36
20
-113.208
11
112.217
21
-113.351
0
LINE
8
BLACK
6
CONTINUOUS
10
112.217
20
-113.351
11
111.931
21
-113.494
0
LINE
8
BLACK
6
CONTINUOUS
10
111.931
20
-113.494
11
111.646
21
-113.494
0
LINE
8
BLACK
6
CONTINUOUS
10
111.646
20
-113.494
11
111.36
21
-113.351
0
LINE
8
BLACK
6
CONTINUOUS
10
111.36
20
-113.351
11
111.217
21
-113.208
0
LINE
8
BLACK
6
CONTINUOUS
10
111.217
20
-113.208
11
111.074
21
-112.923
0
LINE
8
BLACK
6
CONTINUOUS
10
111.074
20
-112.923
11
110.931
21
-112.351
0
LINE
8
BLACK
6
CONTINUOUS
10
110.931
20
-112.351
11
110.931
21
-111.637
0
LINE
8
BLACK
6
CONTINUOUS
10
110.931
20
-111.637
11
111.074
21
-111.066
0
LINE
8
BLACK
6
CONTINUOUS
10
111.074
20
-111.066
11
111.217
21
-110.78
0
LINE
8
BLACK
6
CONTINUOUS
10
111.217
20
-110.78
11
111.36
21
-110.637
0
LINE
8
BLACK
6
CONTINUOUS
10
111.36
20
-110.637
11
111.646
21
-110.494
0
LINE
8
BLACK
6
CONTINUOUS
10
113.931
20
-113.494
11
113.931
21
-111.494
0
LINE
8
BLACK
6
CONTINUOUS
10
113.931
20
-111.78
11
114.074
21
-111.637
0
LINE
8
BLACK
6
CONTINUOUS
10
114.074
20
-111.637
11
114.36
21
-111.494
0
LINE
8
BLACK
6
CONTINUOUS
10
114.36
20
-111.494
11
114.788
21
-111.494
0
LINE
8
BLACK
6
CONTINUOUS
10
114.788
20
-111.494
11
115.074
21
-111.637
0
LINE
8
BLACK
6
CONTINUOUS
10
115.074
20
-111.637
11
115.217
21
-111.923
0
LINE
8
BLACK
6
CONTINUOUS
10
115.217
20
-111.923
11
115.217
21
-113.494
0
LINE
8
BLACK
6
CONTINUOUS
10
115.217
20
-111.923
11
115.36
21
-111.637
0
LINE
8
BLACK
6
CONTINUOUS
10
115.36
20
-111.637
11
115.646
21
-111.494
0
LINE
8
BLACK
6
CONTINUOUS
10
115.646
20
-111.494
11
116.074
21
-111.494
0
LINE
8
BLACK
6
CONTINUOUS
10
116.074
20
-111.494
11
116.36
21
-111.637
0
LINE
8
BLACK
6
CONTINUOUS
10
116.36
20
-111.637
11
116.503
21
-111.923
0
LINE
8
BLACK
6
CONTINUOUS
10
116.503
20
-111.923
11
116.503
21
-113.494
0
LINE
8
BLACK
6
CONTINUOUS
10
117.931
20
-113.494
11
117.931
21
-111.494
0
LINE
8
BLACK
6
CONTINUOUS
10
117.931
20
-111.78
11
118.074
21
-111.637
0
LINE
8
BLACK
6
CONTINUOUS
10
118.074
20
-111.637
11
118.36
21
-111.494
0
LINE
8
BLACK
6
CONTINUOUS
10
118.36
20
-111.494
11
118.788
21
-111.494
0
LINE
8
BLACK
6
CONTINUOUS
10
118.788
20
-111.494
11
119.074
21
-111.637
0
LINE
8
BLACK
6
CONTINUOUS
10
119.074
20
-111.637
11
119.217
21
-111.923
0
LINE
8
BLACK
6
CONTINUOUS
10
119.217
20
-111.923
11
119.217
21
-113.494
0
LINE
8
BLACK
6
CONTINUOUS
10
119.217
20
-111.923
11
119.36
21
-111.637
0
LINE
8
BLACK
6
CONTINUOUS
10
119.36
20
-111.637
11
119.646
21
-111.494
0
LINE
8
BLACK
6
CONTINUOUS
10
119.646
20
-111.494
11
120.074
21
-111.494
0
LINE
8
BLACK
6
CONTINUOUS
10
120.074
20
-111.494
11
120.36
21
-111.637
0
LINE
8
BLACK
6
CONTINUOUS
10
120.36
20
-111.637
11
120.503
21
-111.923
0
LINE
8
BLACK
6
CONTINUOUS
10
120.503
20
-111.923
11
120.503
21
-113.494
0
LINE
8
BLACK
6
CONTINUOUS
10
126.36
20
-110.351
11
123.788
21
-114.208
0
LINE
8
BLACK
6
CONTINUOUS
10
130.217
20
-110.494
11
130.503
21
-110.494
0
LINE
8
BLACK
6
CONTINUOUS
10
130.503
20
-110.494
11
130.788
21
-110.637
0
LINE
8
BLACK
6
CONTINUOUS
10
130.788
20
-110.637
11
130.931
21
-110.78
0
LINE
8
BLACK
6
CONTINUOUS
10
130.931
20
-110.78
11
131.074
21
-111.066
0
LINE
8
BLACK
6
CONTINUOUS
10
131.074
20
-111.066
11
131.217
21
-111.637
0
LINE
8
BLACK
6
CONTINUOUS
10
131.217
20
-111.637
11
131.217
21
-112.351
0
LINE
8
BLACK
6
CONTINUOUS
10
131.217
20
-112.351
11
131.074
21
-112.923
0
LINE
8
BLACK
6
CONTINUOUS
10
131.074
20
-112.923
11
130.931
21
-113.208
0
LINE
8
BLACK
6
CONTINUOUS
10
130.931
20
-113.208
11
130.788
21
-113.351
0
LINE
8
BLACK
6
CONTINUOUS
10
130.788
20
-113.351
11
130.503
21
-113.494
0
LINE
8
BLACK
6
CONTINUOUS
10
130.503
20
-113.494
11
130.217
21
-113.494
0
LINE
8
BLACK
6
CONTINUOUS
10
130.217
20
-113.494
11
129.931
21
-113.351
0
LINE
8
BLACK
6
CONTINUOUS
10
129.931
20
-113.351
11
129.788
21
-113.208
0
LINE
8
BLACK
6
CONTINUOUS
10
129.788
20
-113.208
11
129.646
21
-112.923
0
LINE
8
BLACK
6
CONTINUOUS
10
129.646
20
-112.923
11
129.503
21
-112.351
0
LINE
8
BLACK
6
CONTINUOUS
10
129.503
20
-112.351
11
129.503
21
-111.637
0
LINE
8
BLACK
6
CONTINUOUS
10
129.503
20
-111.637
11
129.646
21
-111.066
0
LINE
8
BLACK
6
CONTINUOUS
10
129.646
20
-111.066
11
129.788
21
-110.78
0
LINE
8
BLACK
6
CONTINUOUS
10
129.788
20
-110.78
11
129.931
21
-110.637
0
LINE
8
BLACK
6
CONTINUOUS
10
129.931
20
-110.637
11
130.217
21
-110.494
0
LINE
8
BLACK
6
CONTINUOUS
10
132.503
20
-113.208
11
132.646
21
-113.351
0
LINE
8
BLACK
6
CONTINUOUS
10
132.646
20
-113.351
11
132.503
21
-113.494
0
LINE
8
BLACK
6
CONTINUOUS
10
132.503
20
-113.494
11
132.36
21
-113.351
0
LINE
8
BLACK
6
CONTINUOUS
10
132.36
20
-113.351
11
132.503
21
-113.208
0
LINE
8
BLACK
6
CONTINUOUS
10
132.503
20
-113.208
11
132.503
21
-113.494
0
LINE
8
BLACK
6
CONTINUOUS
10
134.503
20
-110.494
11
134.788
21
-110.494
0
LINE
8
BLACK
6
CONTINUOUS
10
134.788
20
-110.494
11
135.074
21
-110.637
0
LINE
8
BLACK
6
CONTINUOUS
10
135.074
20
-110.637
11
135.217
21
-110.78
0
LINE
8
BLACK
6
CONTINUOUS
10
135.217
20
-110.78
11
135.36
21
-111.066
0
LINE
8
BLACK
6
CONTINUOUS
10
135.36
20
-111.066
11
135.503
21
-111.637
0
LINE
8
BLACK
6
CONTINUOUS
10
135.503
20
-111.637
11
135.503
21
-112.351
0
LINE
8
BLACK
6
CONTINUOUS
10
135.503
20
-112.351
11
135.36
21
-112.923
0
LINE
8
BLACK
6
CONTINUOUS
10
135.36
20
-112.923
11
135.217
21
-113.208
0
LINE
8
BLACK
6
CONTINUOUS
10
135.217
20
-113.208
11
135.074
21
-113.351
0
LINE
8
BLACK
6
CONTINUOUS
10
135.074
20
-113.351
11
134.788
21
-113.494
0
LINE
8
BLACK
6
CONTINUOUS
10
134.788
20
-113.494
11
134.503
21
-113.494
0
LINE
8
BLACK
6
CONTINUOUS
10
134.503
20
-113.494
11
134.217
21
-113.351
0
LINE
8
BLACK
6
CONTINUOUS
10
134.217
20
-113.351
11
134.074
21
-113.208
0
LINE
8
BLACK
6
CONTINUOUS
10
134.074
20
-113.208
11
133.931
21
-112.923
0
LINE
8
BLACK
6
CONTINUOUS
10
133.931
20
-112.923
11
133.788
21
-112.351
0
LINE
8
BLACK
6
CONTINUOUS
10
133.788
20
-112.351
11
133.788
21
-111.637
0
LINE
8
BLACK
6
CONTINUOUS
10
133.788
20
-111.637
11
133.931
21
-111.066
0
LINE
8
BLACK
6
CONTINUOUS
10
133.931
20
-111.066
11
134.074
21
-110.78
0
LINE
8
BLACK
6
CONTINUOUS
10
134.074
20
-110.78
11
134.217
21
-110.637
0
LINE
8
BLACK
6
CONTINUOUS
10
134.217
20
-110.637
11
134.503
21
-110.494
0
LINE
8
BLACK
6
CONTINUOUS
10
136.503
20
-110.494
11
138.36
21
-110.494
0
LINE
8
BLACK
6
CONTINUOUS
10
138.36
20
-110.494
11
137.36
21
-111.637
0
LINE
8
BLACK
6
CONTINUOUS
10
137.36
20
-111.637
11
137.788
21
-111.637
0
LINE
8
BLACK
6
CONTINUOUS
10
137.788
20
-111.637
11
138.074
21
-111.78
0
LINE
8
BLACK
6
CONTINUOUS
10
138.074
20
-111.78
11
138.217
21
-111.923
0
LINE
8
BLACK
6
CONTINUOUS
10
138.217
20
-111.923
11
138.36
21
-112.208
0
LINE
8
BLACK
6
CONTINUOUS
10
138.36
20
-112.208
11
138.36
21
-112.923
0
LINE
8
BLACK
6
CONTINUOUS
10
138.36
20
-112.923
11
138.217
21
-113.208
0
LINE
8
BLACK
6
CONTINUOUS
10
138.217
20
-113.208
11
138.074
21
-113.351
0
LINE
8
BLACK
6
CONTINUOUS
10
138.074
20
-113.351
11
137.788
21
-113.494
0
LINE
8
BLACK
6
CONTINUOUS
10
137.788
20
-113.494
11
136.931
21
-113.494
0
LINE
8
BLACK
6
CONTINUOUS
10
136.931
20
-113.494
11
136.646
21
-113.351
0
LINE
8
BLACK
6
CONTINUOUS
10
136.646
20
-113.351
11
136.503
21
-113.208
0
LINE
8
BLACK
6
CONTINUOUS
10
141.217
20
-113.494
11
139.503
21
-113.494
0
LINE
8
BLACK
6
CONTINUOUS
10
140.36
20
-113.494
11
140.36
21
-110.494
0
LINE
8
BLACK
6
CONTINUOUS
10
140.36
20
-110.494
11
140.074
21
-110.923
0
LINE
8
BLACK
6
CONTINUOUS
10
140.074
20
-110.923
11
139.788
21
-111.208
0
LINE
8
BLACK
6
CONTINUOUS
10
139.788
20
-111.208
11
139.503
21
-111.351
0
LINE
8
BLACK
6
CONTINUOUS
10
142.36
20
-110.494
11
142.36
21
-111.066
0
LINE
8
BLACK
6
CONTINUOUS
10
143.503
20
-110.494
11
143.503
21
-111.066
0
LINE
8
BLACK
6
CONTINUOUS
10
147.931
20
-114.637
11
147.788
21
-114.494
0
LINE
8
BLACK
6
CONTINUOUS
10
147.788
20
-114.494
11
147.503
21
-114.066
0
LINE
8
BLACK
6
CONTINUOUS
10
147.503
20
-114.066
11
147.36
21
-113.78
0
LINE
8
BLACK
6
CONTINUOUS
10
147.36
20
-113.78
11
147.217
21
-113.351
0
LINE
8
BLACK
6
CONTINUOUS
10
147.217
20
-113.351
11
147.074
21
-112.637
0
LINE
8
BLACK
6
CONTINUOUS
10
147.074
20
-112.637
11
147.074
21
-112.066
0
LINE
8
BLACK
6
CONTINUOUS
10
147.074
20
-112.066
11
147.217
21
-111.351
0
LINE
8
BLACK
6
CONTINUOUS
10
147.217
20
-111.351
11
147.36
21
-110.923
0
LINE
8
BLACK
6
CONTINUOUS
10
147.36
20
-110.923
11
147.503
21
-110.637
0
LINE
8
BLACK
6
CONTINUOUS
10
147.503
20
-110.637
11
147.788
21
-110.208
0
LINE
8
BLACK
6
CONTINUOUS
10
147.788
20
-110.208
11
147.931
21
-110.066
0
LINE
8
BLACK
6
CONTINUOUS
10
148.788
20
-110.494
11
150.788
21
-110.494
0
LINE
8
BLACK
6
CONTINUOUS
10
150.788
20
-110.494
11
149.503
21
-113.494
0
LINE
8
BLACK
6
CONTINUOUS
10
153.36
20
-110.494
11
151.931
21
-110.494
0
LINE
8
BLACK
6
CONTINUOUS
10
151.931
20
-110.494
11
151.788
21
-111.923
0
LINE
8
BLACK
6
CONTINUOUS
10
151.788
20
-111.923
11
151.931
21
-111.78
0
LINE
8
BLACK
6
CONTINUOUS
10
151.931
20
-111.78
11
152.217
21
-111.637
0
LINE
8
BLACK
6
CONTINUOUS
10
152.217
20
-111.637
11
152.931
21
-111.637
0
LINE
8
BLACK
6
CONTINUOUS
10
152.931
20
-111.637
11
153.217
21
-111.78
0
LINE
8
BLACK
6
CONTINUOUS
10
153.217
20
-111.78
11
153.36
21
-111.923
0
LINE
8
BLACK
6
CONTINUOUS
10
153.36
20
-111.923
11
153.503
21
-112.208
0
LINE
8
BLACK
6
CONTINUOUS
10
153.503
20
-112.208
11
153.503
21
-112.923
0
LINE
8
BLACK
6
CONTINUOUS
10
153.503
20
-112.923
11
153.36
21
-113.208
0
LINE
8
BLACK
6
CONTINUOUS
10
153.36
20
-113.208
11
153.217
21
-113.351
0
LINE
8
BLACK
6
CONTINUOUS
10
153.217
20
-113.351
11
152.931
21
-113.494
0
LINE
8
BLACK
6
CONTINUOUS
10
152.931
20
-113.494
11
152.217
21
-113.494
0
LINE
8
BLACK
6
CONTINUOUS
10
152.217
20
-113.494
11
151.931
21
-113.351
0
LINE
8
BLACK
6
CONTINUOUS
10
151.931
20
-113.351
11
151.788
21
-113.208
0
LINE
8
BLACK
6
CONTINUOUS
10
157.074
20
-113.494
11
157.074
21
-110.494
0
LINE
8
BLACK
6
CONTINUOUS
10
158.36
20
-113.494
11
158.36
21
-111.923
0
LINE
8
BLACK
6
CONTINUOUS
10
158.36
20
-111.923
11
158.217
21
-111.637
0
LINE
8
BLACK
6
CONTINUOUS
10
158.217
20
-111.637
11
157.931
21
-111.494
0
LINE
8
BLACK
6
CONTINUOUS
10
157.931
20
-111.494
11
157.503
21
-111.494
0
LINE
8
BLACK
6
CONTINUOUS
10
157.503
20
-111.494
11
157.217
21
-111.637
0
LINE
8
BLACK
6
CONTINUOUS
10
157.217
20
-111.637
11
157.074
21
-111.78
0
LINE
8
BLACK
6
CONTINUOUS
10
160.217
20
-113.494
11
159.931
21
-113.351
0
LINE
8
BLACK
6
CONTINUOUS
10
159.931
20
-113.351
11
159.788
21
-113.208
0
LINE
8
BLACK
6
CONTINUOUS
10
159.788
20
-113.208
11
159.646
21
-112.923
0
LINE
8
BLACK
6
CONTINUOUS
10
159.646
20
-112.923
11
159.646
21
-112.066
0
LINE
8
BLACK
6
CONTINUOUS
10
159.646
20
-112.066
11
159.788
21
-111.78
0
LINE
8
BLACK
6
CONTINUOUS
10
159.788
20
-111.78
11
159.931
21
-111.637
0
LINE
8
BLACK
6
CONTINUOUS
10
159.931
20
-111.637
11
160.217
21
-111.494
0
LINE
8
BLACK
6
CONTINUOUS
10
160.217
20
-111.494
11
160.646
21
-111.494
0
LINE
8
BLACK
6
CONTINUOUS
10
160.646
20
-111.494
11
160.931
21
-111.637
0
LINE
8
BLACK
6
CONTINUOUS
10
160.931
20
-111.637
11
161.074
21
-111.78
0
LINE
8
BLACK
6
CONTINUOUS
10
161.074
20
-111.78
11
161.217
21
-112.066
0
LINE
8
BLACK
6
CONTINUOUS
10
161.217
20
-112.066
11
161.217
21
-112.923
0
LINE
8
BLACK
6
CONTINUOUS
10
161.217
20
-112.923
11
161.074
21
-113.208
0
LINE
8
BLACK
6
CONTINUOUS
10
161.074
20
-113.208
11
160.931
21
-113.351
0
LINE
8
BLACK
6
CONTINUOUS
10
160.931
20
-113.351
11
160.646
21
-113.494
0
LINE
8
BLACK
6
CONTINUOUS
10
160.646
20
-113.494
11
160.217
21
-113.494
0
LINE
8
BLACK
6
CONTINUOUS
10
162.931
20
-113.494
11
162.646
21
-113.351
0
LINE
8
BLACK
6
CONTINUOUS
10
162.646
20
-113.351
11
162.503
21
-113.066
0
LINE
8
BLACK
6
CONTINUOUS
10
162.503
20
-113.066
11
162.503
21
-110.494
0
LINE
8
BLACK
6
CONTINUOUS
10
165.217
20
-113.351
11
164.931
21
-113.494
0
LINE
8
BLACK
6
CONTINUOUS
10
164.931
20
-113.494
11
164.36
21
-113.494
0
LINE
8
BLACK
6
CONTINUOUS
10
164.36
20
-113.494
11
164.074
21
-113.351
0
LINE
8
BLACK
6
CONTINUOUS
10
164.074
20
-113.351
11
163.931
21
-113.066
0
LINE
8
BLACK
6
CONTINUOUS
10
163.931
20
-113.066
11
163.931
21
-111.923
0
LINE
8
BLACK
6
CONTINUOUS
10
163.931
20
-111.923
11
164.074
21
-111.637
0
LINE
8
BLACK
6
CONTINUOUS
10
164.074
20
-111.637
11
164.36
21
-111.494
0
LINE
8
BLACK
6
CONTINUOUS
10
164.36
20
-111.494
11
164.931
21
-111.494
0
LINE
8
BLACK
6
CONTINUOUS
10
164.931
20
-111.494
11
165.217
21
-111.637
0
LINE
8
BLACK
6
CONTINUOUS
10
165.217
20
-111.637
11
165.36
21
-111.923
0
LINE
8
BLACK
6
CONTINUOUS
10
165.36
20
-111.923
11
165.36
21
-112.208
0
LINE
8
BLACK
6
CONTINUOUS
10
165.36
20
-112.208
11
163.931
21
-112.494
0
LINE
8
BLACK
6
CONTINUOUS
10
166.503
20
-113.351
11
166.788
21
-113.494
0
LINE
8
BLACK
6
CONTINUOUS
10
166.788
20
-113.494
11
167.36
21
-113.494
0
LINE
8
BLACK
6
CONTINUOUS
10
167.36
20
-113.494
11
167.646
21
-113.351
0
LINE
8
BLACK
6
CONTINUOUS
10
167.646
20
-113.351
11
167.788
21
-113.066
0
LINE
8
BLACK
6
CONTINUOUS
10
167.788
20
-113.066
11
167.788
21
-112.923
0
LINE
8
BLACK
6
CONTINUOUS
10
167.788
20
-112.923
11
167.646
21
-112.637
0
LINE
8
BLACK
6
CONTINUOUS
10
167.646
20
-112.637
11
167.36
21
-112.494
0
LINE
8
BLACK
6
CONTINUOUS
10
167.36
20
-112.494
11
166.931
21
-112.494
0
LINE
8
BLACK
6
CONTINUOUS
10
166.931
20
-112.494
11
166.646
21
-112.351
0
LINE
8
BLACK
6
CONTINUOUS
10
166.646
20
-112.351
11
166.503
21
-112.066
0
LINE
8
BLACK
6
CONTINUOUS
10
166.503
20
-112.066
11
166.503
21
-111.923
0
LINE
8
BLACK
6
CONTINUOUS
10
166.503
20
-111.923
11
166.646
21
-111.637
0
LINE
8
BLACK
6
CONTINUOUS
10
166.646
20
-111.637
11
166.931
21
-111.494
0
LINE
8
BLACK
6
CONTINUOUS
10
166.931
20
-111.494
11
167.36
21
-111.494
0
LINE
8
BLACK
6
CONTINUOUS
10
167.36
20
-111.494
11
167.646
21
-111.637
0
LINE
8
BLACK
6
CONTINUOUS
10
168.788
20
-114.637
11
168.931
21
-114.494
0
LINE
8
BLACK
6
CONTINUOUS
10
168.931
20
-114.494
11
169.217
21
-114.066
0
LINE
8
BLACK
6
CONTINUOUS
10
169.217
20
-114.066
11
169.36
21
-113.78
0
LINE
8
BLACK
6
CONTINUOUS
10
169.36
20
-113.78
11
169.503
21
-113.351
0
LINE
8
BLACK
6
CONTINUOUS
10
169.503
20
-113.351
11
169.646
21
-112.637
0
LINE
8
BLACK
6
CONTINUOUS
10
169.646
20
-112.637
11
169.646
21
-112.066
0
LINE
8
BLACK
6
CONTINUOUS
10
169.646
20
-112.066
11
169.503
21
-111.351
0
LINE
8
BLACK
6
CONTINUOUS
10
169.503
20
-111.351
11
169.36
21
-110.923
0
LINE
8
BLACK
6
CONTINUOUS
10
169.36
20
-110.923
11
169.217
21
-110.637
0
LINE
8
BLACK
6
CONTINUOUS
10
169.217
20
-110.637
11
168.931
21
-110.208
0
LINE
8
BLACK
6
CONTINUOUS
10
168.931
20
-110.208
11
168.788
21
-110.066
0
LINE
8
BLACK
6
CONTINUOUS
10
100.617
20
-115.647
11
100.617
21
-116.547
0
LINE
8
BLACK
6
CONTINUOUS
10
100.167
20
-116.097
11
101.067
21
-116.097
0
LINE
8
BLACK
6
CONTINUOUS
10
104.503
20
-114.454
11
104.788
21
-114.454
0
LINE
8
BLACK
6
CONTINUOUS
10
104.788
20
-114.454
11
105.074
21
-114.597
0
LINE
8
BLACK
6
CONTINUOUS
10
105.074
20
-114.597
11
105.217
21
-114.74
0
LINE
8
BLACK
6
CONTINUOUS
10
105.217
20
-114.74
11
105.36
21
-115.026
0
LINE
8
BLACK
6
CONTINUOUS
10
105.36
20
-115.026
11
105.503
21
-115.597
0
LINE
8
BLACK
6
CONTINUOUS
10
105.503
20
-115.597
11
105.503
21
-116.311
0
LINE
8
BLACK
6
CONTINUOUS
10
105.503
20
-116.311
11
105.36
21
-116.883
0
LINE
8
BLACK
6
CONTINUOUS
10
105.36
20
-116.883
11
105.217
21
-117.168
0
LINE
8
BLACK
6
CONTINUOUS
10
105.217
20
-117.168
11
105.074
21
-117.311
0
LINE
8
BLACK
6
CONTINUOUS
10
105.074
20
-117.311
11
104.788
21
-117.454
0
LINE
8
BLACK
6
CONTINUOUS
10
104.788
20
-117.454
11
104.503
21
-117.454
0
LINE
8
BLACK
6
CONTINUOUS
10
104.503
20
-117.454
11
104.217
21
-117.311
0
LINE
8
BLACK
6
CONTINUOUS
10
104.217
20
-117.311
11
104.074
21
-117.168
0
LINE
8
BLACK
6
CONTINUOUS
10
104.074
20
-117.168
11
103.931
21
-116.883
0
LINE
8
BLACK
6
CONTINUOUS
10
103.931
20
-116.883
11
103.788
21
-116.311
0
LINE
8
BLACK
6
CONTINUOUS
10
103.788
20
-116.311
11
103.788
21
-115.597
0
LINE
8
BLACK
6
CONTINUOUS
10
103.788
20
-115.597
11
103.931
21
-115.026
0
LINE
8
BLACK
6
CONTINUOUS
10
103.931
20
-115.026
11
104.074
21
-114.74
0
LINE
8
BLACK
6
CONTINUOUS
10
104.074
20
-114.74
11
104.217
21
-114.597
0
LINE
8
BLACK
6
CONTINUOUS
10
104.217
20
-114.597
11
104.503
21
-114.454
0
LINE
8
BLACK
6
CONTINUOUS
10
106.788
20
-117.168
11
106.931
21
-117.311
0
LINE
8
BLACK
6
CONTINUOUS
10
106.931
20
-117.311
11
106.788
21
-117.454
0
LINE
8
BLACK
6
CONTINUOUS
10
106.788
20
-117.454
11
106.646
21
-117.311
0
LINE
8
BLACK
6
CONTINUOUS
10
106.646
20
-117.311
11
106.788
21
-117.168
0
LINE
8
BLACK
6
CONTINUOUS
10
106.788
20
-117.168
11
106.788
21
-117.454
0
LINE
8
BLACK
6
CONTINUOUS
10
108.36
20
-117.454
11
108.931
21
-117.454
0
LINE
8
BLACK
6
CONTINUOUS
10
108.931
20
-117.454
11
109.217
21
-117.311
0
LINE
8
BLACK
6
CONTINUOUS
10
109.217
20
-117.311
11
109.36
21
-117.168
0
LINE
8
BLACK
6
CONTINUOUS
10
109.36
20
-117.168
11
109.646
21
-116.74
0
LINE
8
BLACK
6
CONTINUOUS
10
109.646
20
-116.74
11
109.788
21
-116.168
0
LINE
8
BLACK
6
CONTINUOUS
10
109.788
20
-116.168
11
109.788
21
-115.026
0
LINE
8
BLACK
6
CONTINUOUS
10
109.788
20
-115.026
11
109.646
21
-114.74
0
LINE
8
BLACK
6
CONTINUOUS
10
109.646
20
-114.74
11
109.503
21
-114.597
0
LINE
8
BLACK
6
CONTINUOUS
10
109.503
20
-114.597
11
109.217
21
-114.454
0
LINE
8
BLACK
6
CONTINUOUS
10
109.217
20
-114.454
11
108.646
21
-114.454
0
LINE
8
BLACK
6
CONTINUOUS
10
108.646
20
-114.454
11
108.36
21
-114.597
0
LINE
8
BLACK
6
CONTINUOUS
10
108.36
20
-114.597
11
108.217
21
-114.74
0
LINE
8
BLACK
6
CONTINUOUS
10
108.217
20
-114.74
11
108.074
21
-115.026
0
LINE
8
BLACK
6
CONTINUOUS
10
108.074
20
-115.026
11
108.074
21
-115.74
0
LINE
8
BLACK
6
CONTINUOUS
10
108.074
20
-115.74
11
108.217
21
-116.026
0
LINE
8
BLACK
6
CONTINUOUS
10
108.217
20
-116.026
11
108.36
21
-116.168
0
LINE
8
BLACK
6
CONTINUOUS
10
108.36
20
-116.168
11
108.646
21
-116.311
0
LINE
8
BLACK
6
CONTINUOUS
10
108.646
20
-116.311
11
109.217
21
-116.311
0
LINE
8
BLACK
6
CONTINUOUS
10
109.217
20
-116.311
11
109.503
21
-116.168
0
LINE
8
BLACK
6
CONTINUOUS
10
109.503
20
-116.168
11
109.646
21
-116.026
0
LINE
8
BLACK
6
CONTINUOUS
10
109.646
20
-116.026
11
109.788
21
-115.74
0
LINE
8
BLACK
6
CONTINUOUS
10
111.646
20
-114.454
11
111.931
21
-114.454
0
LINE
8
BLACK
6
CONTINUOUS
10
111.931
20
-114.454
11
112.217
21
-114.597
0
LINE
8
BLACK
6
CONTINUOUS
10
112.217
20
-114.597
11
112.36
21
-114.74
0
LINE
8
BLACK
6
CONTINUOUS
10
112.36
20
-114.74
11
112.503
21
-115.026
0
LINE
8
BLACK
6
CONTINUOUS
10
112.503
20
-115.026
11
112.646
21
-115.597
0
LINE
8
BLACK
6
CONTINUOUS
10
112.646
20
-115.597
11
112.646
21
-116.311
0
LINE
8
BLACK
6
CONTINUOUS
10
112.646
20
-116.311
11
112.503
21
-116.883
0
LINE
8
BLACK
6
CONTINUOUS
10
112.503
20
-116.883
11
112.36
21
-117.168
0
LINE
8
BLACK
6
CONTINUOUS
10
112.36
20
-117.168
11
112.217
21
-117.311
0
LINE
8
BLACK
6
CONTINUOUS
10
112.217
20
-117.311
11
111.931
21
-117.454
0
LINE
8
BLACK
6
CONTINUOUS
10
111.931
20
-117.454
11
111.646
21
-117.454
0
LINE
8
BLACK
6
CONTINUOUS
10
111.646
20
-117.454
11
111.36
21
-117.311
0
LINE
8
BLACK
6
CONTINUOUS
10
111.36
20
-117.311
11
111.217
21
-117.168
0
LINE
8
BLACK
6
CONTINUOUS
10
111.217
20
-117.168
11
111.074
21
-116.883
0
LINE
8
BLACK
6
CONTINUOUS
10
111.074
20
-116.883
11
110.931
21
-116.311
0
LINE
8
BLACK
6
CONTINUOUS
10
110.931
20
-116.311
11
110.931
21
-115.597
0
LINE
8
BLACK
6
CONTINUOUS
10
110.931
20
-115.597
11
111.074
21
-115.026
0
LINE
8
BLACK
6
CONTINUOUS
10
111.074
20
-115.026
11
111.217
21
-114.74
0
LINE
8
BLACK
6
CONTINUOUS
10
111.217
20
-114.74
11
111.36
21
-114.597
0
LINE
8
BLACK
6
CONTINUOUS
10
111.36
20
-114.597
11
111.646
21
-114.454
0
LINE
8
BLACK
6
CONTINUOUS
10
113.931
20
-117.454
11
113.931
21
-115.454
0
LINE
8
BLACK
6
CONTINUOUS
10
113.931
20
-115.74
11
114.074
21
-115.597
0
LINE
8
BLACK
6
CONTINUOUS
10
114.074
20
-115.597
11
114.36
21
-115.454
0
LINE
8
BLACK
6
CONTINUOUS
10
114.36
20
-115.454
11
114.788
21
-115.454
0
LINE
8
BLACK
6
CONTINUOUS
10
114.788
20
-115.454
11
115.074
21
-115.597
0
LINE
8
BLACK
6
CONTINUOUS
10
115.074
20
-115.597
11
115.217
21
-115.883
0
LINE
8
BLACK
6
CONTINUOUS
10
115.217
20
-115.883
11
115.217
21
-117.454
0
LINE
8
BLACK
6
CONTINUOUS
10
115.217
20
-115.883
11
115.36
21
-115.597
0
LINE
8
BLACK
6
CONTINUOUS
10
115.36
20
-115.597
11
115.646
21
-115.454
0
LINE
8
BLACK
6
CONTINUOUS
10
115.646
20
-115.454
11
116.074
21
-115.454
0
LINE
8
BLACK
6
CONTINUOUS
10
116.074
20
-115.454
11
116.36
21
-115.597
0
LINE
8
BLACK
6
CONTINUOUS
10
116.36
20
-115.597
11
116.503
21
-115.883
0
LINE
8
BLACK
6
CONTINUOUS
10
116.503
20
-115.883
11
116.503
21
-117.454
0
LINE
8
BLACK
6
CONTINUOUS
10
117.931
20
-117.454
11
117.931
21
-115.454
0
LINE
8
BLACK
6
CONTINUOUS
10
117.931
20
-115.74
11
118.074
21
-115.597
0
LINE
8
BLACK
6
CONTINUOUS
10
118.074
20
-115.597
11
118.36
21
-115.454
0
LINE
8
BLACK
6
CONTINUOUS
10
118.36
20
-115.454
11
118.788
21
-115.454
0
LINE
8
BLACK
6
CONTINUOUS
10
118.788
20
-115.454
11
119.074
21
-115.597
0
LINE
8
BLACK
6
CONTINUOUS
10
119.074
20
-115.597
11
119.217
21
-115.883
0
LINE
8
BLACK
6
CONTINUOUS
10
119.217
20
-115.883
11
119.217
21
-117.454
0
LINE
8
BLACK
6
CONTINUOUS
10
119.217
20
-115.883
11
119.36
21
-115.597
0
LINE
8
BLACK
6
CONTINUOUS
10
119.36
20
-115.597
11
119.646
21
-115.454
0
LINE
8
BLACK
6
CONTINUOUS
10
119.646
20
-115.454
11
120.074
21
-115.454
0
LINE
8
BLACK
6
CONTINUOUS
10
120.074
20
-115.454
11
120.36
21
-115.597
0
LINE
8
BLACK
6
CONTINUOUS
10
120.36
20
-115.597
11
120.503
21
-115.883
0
LINE
8
BLACK
6
CONTINUOUS
10
120.503
20
-115.883
11
120.503
21
-117.454
0
LINE
8
BLACK
6
CONTINUOUS
10
126.36
20
-114.311
11
123.788
21
-118.168
0
LINE
8
BLACK
6
CONTINUOUS
10
130.217
20
-114.454
11
130.503
21
-114.454
0
LINE
8
BLACK
6
CONTINUOUS
10
130.503
20
-114.454
11
130.788
21
-114.597
0
LINE
8
BLACK
6
CONTINUOUS
10
130.788
20
-114.597
11
130.931
21
-114.74
0
LINE
8
BLACK
6
CONTINUOUS
10
130.931
20
-114.74
11
131.074
21
-115.026
0
LINE
8
BLACK
6
CONTINUOUS
10
131.074
20
-115.026
11
131.217
21
-115.597
0
LINE
8
BLACK
6
CONTINUOUS
10
131.217
20
-115.597
11
131.217
21
-116.311
0
LINE
8
BLACK
6
CONTINUOUS
10
131.217
20
-116.311
11
131.074
21
-116.883
0
LINE
8
BLACK
6
CONTINUOUS
10
131.074
20
-116.883
11
130.931
21
-117.168
0
LINE
8
BLACK
6
CONTINUOUS
10
130.931
20
-117.168
11
130.788
21
-117.311
0
LINE
8
BLACK
6
CONTINUOUS
10
130.788
20
-117.311
11
130.503
21
-117.454
0
LINE
8
BLACK
6
CONTINUOUS
10
130.503
20
-117.454
11
130.217
21
-117.454
0
LINE
8
BLACK
6
CONTINUOUS
10
130.217
20
-117.454
11
129.931
21
-117.311
0
LINE
8
BLACK
6
CONTINUOUS
10
129.931
20
-117.311
11
129.788
21
-117.168
0
LINE
8
BLACK
6
CONTINUOUS
10
129.788
20
-117.168
11
129.646
21
-116.883
0
LINE
8
BLACK
6
CONTINUOUS
10
129.646
20
-116.883
11
129.503
21
-116.311
0
LINE
8
BLACK
6
CONTINUOUS
10
129.503
20
-116.311
11
129.503
21
-115.597
0
LINE
8
BLACK
6
CONTINUOUS
10
129.503
20
-115.597
11
129.646
21
-115.026
0
LINE
8
BLACK
6
CONTINUOUS
10
129.646
20
-115.026
11
129.788
21
-114.74
0
LINE
8
BLACK
6
CONTINUOUS
10
129.788
20
-114.74
11
129.931
21
-114.597
0
LINE
8
BLACK
6
CONTINUOUS
10
129.931
20
-114.597
11
130.217
21
-114.454
0
LINE
8
BLACK
6
CONTINUOUS
10
132.503
20
-117.168
11
132.646
21
-117.311
0
LINE
8
BLACK
6
CONTINUOUS
10
132.646
20
-117.311
11
132.503
21
-117.454
0
LINE
8
BLACK
6
CONTINUOUS
10
132.503
20
-117.454
11
132.36
21
-117.311
0
LINE
8
BLACK
6
CONTINUOUS
10
132.36
20
-117.311
11
132.503
21
-117.168
0
LINE
8
BLACK
6
CONTINUOUS
10
132.503
20
-117.168
11
132.503
21
-117.454
0
LINE
8
BLACK
6
CONTINUOUS
10
134.503
20
-114.454
11
134.788
21
-114.454
0
LINE
8
BLACK
6
CONTINUOUS
10
134.788
20
-114.454
11
135.074
21
-114.597
0
LINE
8
BLACK
6
CONTINUOUS
10
135.074
20
-114.597
11
135.217
21
-114.74
0
LINE
8
BLACK
6
CONTINUOUS
10
135.217
20
-114.74
11
135.36
21
-115.026
0
LINE
8
BLACK
6
CONTINUOUS
10
135.36
20
-115.026
11
135.503
21
-115.597
0
LINE
8
BLACK
6
CONTINUOUS
10
135.503
20
-115.597
11
135.503
21
-116.311
0
LINE
8
BLACK
6
CONTINUOUS
10
135.503
20
-116.311
11
135.36
21
-116.883
0
LINE
8
BLACK
6
CONTINUOUS
10
135.36
20
-116.883
11
135.217
21
-117.168
0
LINE
8
BLACK
6
CONTINUOUS
10
135.217
20
-117.168
11
135.074
21
-117.311
0
LINE
8
BLACK
6
CONTINUOUS
10
135.074
20
-117.311
11
134.788
21
-117.454
0
LINE
8
BLACK
6
CONTINUOUS
10
134.788
20
-117.454
11
134.503
21
-117.454
0
LINE
8
BLACK
6
CONTINUOUS
10
134.503
20
-117.454
11
134.217
21
-117.311
0
LINE
8
BLACK
6
CONTINUOUS
10
134.217
20
-117.311
11
134.074
21
-117.168
0
LINE
8
BLACK
6
CONTINUOUS
10
134.074
20
-117.168
11
133.931
21
-116.883
0
LINE
8
BLACK
6
CONTINUOUS
10
133.931
20
-116.883
11
133.788
21
-116.311
0
LINE
8
BLACK
6
CONTINUOUS
10
133.788
20
-116.311
11
133.788
21
-115.597
0
LINE
8
BLACK
6
CONTINUOUS
10
133.788
20
-115.597
11
133.931
21
-115.026
0
LINE
8
BLACK
6
CONTINUOUS
10
133.931
20
-115.026
11
134.074
21
-114.74
0
LINE
8
BLACK
6
CONTINUOUS
10
134.074
20
-114.74
11
134.217
21
-114.597
0
LINE
8
BLACK
6
CONTINUOUS
10
134.217
20
-114.597
11
134.503
21
-114.454
0
LINE
8
BLACK
6
CONTINUOUS
10
136.503
20
-114.454
11
138.36
21
-114.454
0
LINE
8
BLACK
6
CONTINUOUS
10
138.36
20
-114.454
11
137.36
21
-115.597
0
LINE
8
BLACK
6
CONTINUOUS
10
137.36
20
-115.597
11
137.788
21
-115.597
0
LINE
8
BLACK
6
CONTINUOUS
10
137.788
20
-115.597
11
138.074
21
-115.74
0
LINE
8
BLACK
6
CONTINUOUS
10
138.074
20
-115.74
11
138.217
21
-115.883
0
LINE
8
BLACK
6
CONTINUOUS
10
138.217
20
-115.883
11
138.36
21
-116.168
0
LINE
8
BLACK
6
CONTINUOUS
10
138.36
20
-116.168
11
138.36
21
-116.883
0
LINE
8
BLACK
6
CONTINUOUS
10
138.36
20
-116.883
11
138.217
21
-117.168
0
LINE
8
BLACK
6
CONTINUOUS
10
138.217
20
-117.168
11
138.074
21
-117.311
0
LINE
8
BLACK
6
CONTINUOUS
10
138.074
20
-117.311
11
137.788
21
-117.454
0
LINE
8
BLACK
6
CONTINUOUS
10
137.788
20
-117.454
11
136.931
21
-117.454
0
LINE
8
BLACK
6
CONTINUOUS
10
136.931
20
-117.454
11
136.646
21
-117.311
0
LINE
8
BLACK
6
CONTINUOUS
10
136.646
20
-117.311
11
136.503
21
-117.168
0
LINE
8
BLACK
6
CONTINUOUS
10
141.074
20
-114.454
11
139.646
21
-114.454
0
LINE
8
BLACK
6
CONTINUOUS
10
139.646
20
-114.454
11
139.503
21
-115.883
0
LINE
8
BLACK
6
CONTINUOUS
10
139.503
20
-115.883
11
139.646
21
-115.74
0
LINE
8
BLACK
6
CONTINUOUS
10
139.646
20
-115.74
11
139.931
21
-115.597
0
LINE
8
BLACK
6
CONTINUOUS
10
139.931
20
-115.597
11
140.646
21
-115.597
0
LINE
8
BLACK
6
CONTINUOUS
10
140.646
20
-115.597
11
140.931
21
-115.74
0
LINE
8
BLACK
6
CONTINUOUS
10
140.931
20
-115.74
11
141.074
21
-115.883
0
LINE
8
BLACK
6
CONTINUOUS
10
141.074
20
-115.883
11
141.217
21
-116.168
0
LINE
8
BLACK
6
CONTINUOUS
10
141.217
20
-116.168
11
141.217
21
-116.883
0
LINE
8
BLACK
6
CONTINUOUS
10
141.217
20
-116.883
11
141.074
21
-117.168
0
LINE
8
BLACK
6
CONTINUOUS
10
141.074
20
-117.168
11
140.931
21
-117.311
0
LINE
8
BLACK
6
CONTINUOUS
10
140.931
20
-117.311
11
140.646
21
-117.454
0
LINE
8
BLACK
6
CONTINUOUS
10
140.646
20
-117.454
11
139.931
21
-117.454
0
LINE
8
BLACK
6
CONTINUOUS
10
139.931
20
-117.454
11
139.646
21
-117.311
0
LINE
8
BLACK
6
CONTINUOUS
10
139.646
20
-117.311
11
139.503
21
-117.168
0
LINE
8
BLACK
6
CONTINUOUS
10
142.36
20
-114.454
11
142.36
21
-115.026
0
LINE
8
BLACK
6
CONTINUOUS
10
143.503
20
-114.454
11
143.503
21
-115.026
0
LINE
8
BLACK
6
CONTINUOUS
10
147.931
20
-118.597
11
147.788
21
-118.454
0
LINE
8
BLACK
6
CONTINUOUS
10
147.788
20
-118.454
11
147.503
21
-118.026
0
LINE
8
BLACK
6
CONTINUOUS
10
147.503
20
-118.026
11
147.36
21
-117.74
0
LINE
8
BLACK
6
CONTINUOUS
10
147.36
20
-117.74
11
147.217
21
-117.311
0
LINE
8
BLACK
6
CONTINUOUS
10
147.217
20
-117.311
11
147.074
21
-116.597
0
LINE
8
BLACK
6
CONTINUOUS
10
147.074
20
-116.597
11
147.074
21
-116.026
0
LINE
8
BLACK
6
CONTINUOUS
10
147.074
20
-116.026
11
147.217
21
-115.311
0
LINE
8
BLACK
6
CONTINUOUS
10
147.217
20
-115.311
11
147.36
21
-114.883
0
LINE
8
BLACK
6
CONTINUOUS
10
147.36
20
-114.883
11
147.503
21
-114.597
0
LINE
8
BLACK
6
CONTINUOUS
10
147.503
20
-114.597
11
147.788
21
-114.168
0
LINE
8
BLACK
6
CONTINUOUS
10
147.788
20
-114.168
11
147.931
21
-114.026
0
LINE
8
BLACK
6
CONTINUOUS
10
150.36
20
-115.454
11
150.36
21
-117.454
0
LINE
8
BLACK
6
CONTINUOUS
10
149.646
20
-114.311
11
148.931
21
-116.454
0
LINE
8
BLACK
6
CONTINUOUS
10
148.931
20
-116.454
11
150.788
21
-116.454
0
LINE
8
BLACK
6
CONTINUOUS
10
154.217
20
-117.454
11
154.217
21
-114.454
0
LINE
8
BLACK
6
CONTINUOUS
10
155.503
20
-117.454
11
155.503
21
-115.883
0
LINE
8
BLACK
6
CONTINUOUS
10
155.503
20
-115.883
11
155.36
21
-115.597
0
LINE
8
BLACK
6
CONTINUOUS
10
155.36
20
-115.597
11
155.074
21
-115.454
0
LINE
8
BLACK
6
CONTINUOUS
10
155.074
20
-115.454
11
154.646
21
-115.454
0
LINE
8
BLACK
6
CONTINUOUS
10
154.646
20
-115.454
11
154.36
21
-115.597
0
LINE
8
BLACK
6
CONTINUOUS
10
154.36
20
-115.597
11
154.217
21
-115.74
0
LINE
8
BLACK
6
CONTINUOUS
10
157.36
20
-117.454
11
157.074
21
-117.311
0
LINE
8
BLACK
6
CONTINUOUS
10
157.074
20
-117.311
11
156.931
21
-117.168
0
LINE
8
BLACK
6
CONTINUOUS
10
156.931
20
-117.168
11
156.788
21
-116.883
0
LINE
8
BLACK
6
CONTINUOUS
10
156.788
20
-116.883
11
156.788
21
-116.026
0
LINE
8
BLACK
6
CONTINUOUS
10
156.788
20
-116.026
11
156.931
21
-115.74
0
LINE
8
BLACK
6
CONTINUOUS
10
156.931
20
-115.74
11
157.074
21
-115.597
0
LINE
8
BLACK
6
CONTINUOUS
10
157.074
20
-115.597
11
157.36
21
-115.454
0
LINE
8
BLACK
6
CONTINUOUS
10
157.36
20
-115.454
11
157.788
21
-115.454
0
LINE
8
BLACK
6
CONTINUOUS
10
157.788
20
-115.454
11
158.074
21
-115.597
0
LINE
8
BLACK
6
CONTINUOUS
10
158.074
20
-115.597
11
158.217
21
-115.74
0
LINE
8
BLACK
6
CONTINUOUS
10
158.217
20
-115.74
11
158.36
21
-116.026
0
LINE
8
BLACK
6
CONTINUOUS
10
158.36
20
-116.026
11
158.36
21
-116.883
0
LINE
8
BLACK
6
CONTINUOUS
10
158.36
20
-116.883
11
158.217
21
-117.168
0
LINE
8
BLACK
6
CONTINUOUS
10
158.217
20
-117.168
11
158.074
21
-117.311
0
LINE
8
BLACK
6
CONTINUOUS
10
158.074
20
-117.311
11
157.788
21
-117.454
0
LINE
8
BLACK
6
CONTINUOUS
10
157.788
20
-117.454
11
157.36
21
-117.454
0
LINE
8
BLACK
6
CONTINUOUS
10
160.074
20
-117.454
11
159.788
21
-117.311
0
LINE
8
BLACK
6
CONTINUOUS
10
159.788
20
-117.311
11
159.646
21
-117.026
0
LINE
8
BLACK
6
CONTINUOUS
10
159.646
20
-117.026
11
159.646
21
-114.454
0
LINE
8
BLACK
6
CONTINUOUS
10
162.36
20
-117.311
11
162.074
21
-117.454
0
LINE
8
BLACK
6
CONTINUOUS
10
162.074
20
-117.454
11
161.503
21
-117.454
0
LINE
8
BLACK
6
CONTINUOUS
10
161.503
20
-117.454
11
161.217
21
-117.311
0
LINE
8
BLACK
6
CONTINUOUS
10
161.217
20
-117.311
11
161.074
21
-117.026
0
LINE
8
BLACK
6
CONTINUOUS
10
161.074
20
-117.026
11
161.074
21
-115.883
0
LINE
8
BLACK
6
CONTINUOUS
10
161.074
20
-115.883
11
161.217
21
-115.597
0
LINE
8
BLACK
6
CONTINUOUS
10
161.217
20
-115.597
11
161.503
21
-115.454
0
LINE
8
BLACK
6
CONTINUOUS
10
161.503
20
-115.454
11
162.074
21
-115.454
0
LINE
8
BLACK
6
CONTINUOUS
10
162.074
20
-115.454
11
162.36
21
-115.597
0
LINE
8
BLACK
6
CONTINUOUS
10
162.36
20
-115.597
11
162.503
21
-115.883
0
LINE
8
BLACK
6
CONTINUOUS
10
162.503
20
-115.883
11
162.503
21
-116.168
0
LINE
8
BLACK
6
CONTINUOUS
10
162.503
20
-116.168
11
161.074
21
-116.454
0
LINE
8
BLACK
6
CONTINUOUS
10
163.646
20
-117.311
11
163.931
21
-117.454
0
LINE
8
BLACK
6
CONTINUOUS
10
163.931
20
-117.454
11
164.503
21
-117.454
0
LINE
8
BLACK
6
CONTINUOUS
10
164.503
20
-117.454
11
164.788
21
-117.311
0
LINE
8
BLACK
6
CONTINUOUS
10
164.788
20
-117.311
11
164.931
21
-117.026
0
LINE
8
BLACK
6
CONTINUOUS
10
164.931
20
-117.026
11
164.931
21
-116.883
0
LINE
8
BLACK
6
CONTINUOUS
10
164.931
20
-116.883
11
164.788
21
-116.597
0
LINE
8
BLACK
6
CONTINUOUS
10
164.788
20
-116.597
11
164.503
21
-116.454
0
LINE
8
BLACK
6
CONTINUOUS
10
164.503
20
-116.454
11
164.074
21
-116.454
0
LINE
8
BLACK
6
CONTINUOUS
10
164.074
20
-116.454
11
163.788
21
-116.311
0
LINE
8
BLACK
6
CONTINUOUS
10
163.788
20
-116.311
11
163.646
21
-116.026
0
LINE
8
BLACK
6
CONTINUOUS
10
163.646
20
-116.026
11
163.646
21
-115.883
0
LINE
8
BLACK
6
CONTINUOUS
10
163.646
20
-115.883
11
163.788
21
-115.597
0
LINE
8
BLACK
6
CONTINUOUS
10
163.788
20
-115.597
11
164.074
21
-115.454
0
LINE
8
BLACK
6
CONTINUOUS
10
164.074
20
-115.454
11
164.503
21
-115.454
0
LINE
8
BLACK
6
CONTINUOUS
10
164.503
20
-115.454
11
164.788
21
-115.597
0
LINE
8
BLACK
6
CONTINUOUS
10
165.931
20
-118.597
11
166.074
21
-118.454
0
LINE
8
BLACK
6
CONTINUOUS
10
166.074
20
-118.454
11
166.36
21
-118.026
0
LINE
8
BLACK
6
CONTINUOUS
10
166.36
20
-118.026
11
166.503
21
-117.74
0
LINE
8
BLACK
6
CONTINUOUS
10
166.503
20
-117.74
11
166.646
21
-117.311
0
LINE
8
BLACK
6
CONTINUOUS
10
166.646
20
-117.311
11
166.788
21
-116.597
0
LINE
8
BLACK
6
CONTINUOUS
10
166.788
20
-116.597
11
166.788
21
-116.026
0
LINE
8
BLACK
6
CONTINUOUS
10
166.788
20
-116.026
11
166.646
21
-115.311
0
LINE
8
BLACK
6
CONTINUOUS
10
166.646
20
-115.311
11
166.503
21
-114.883
0
LINE
8
BLACK
6
CONTINUOUS
10
166.503
20
-114.883
11
166.36
21
-114.597
0
LINE
8
BLACK
6
CONTINUOUS
10
166.36
20
-114.597
11
166.074
21
-114.168
0
LINE
8
BLACK
6
CONTINUOUS
10
166.074
20
-114.168
11
165.931
21
-114.026
0
LINE
8
BLACK
6
CONTINUOUS
10
100.921
20
-120.411
11
100.921
21
-119.703
0
LINE
8
BLACK
6
CONTINUOUS
10
100.921
20
-119.703
11
100.213
21
-119.703
0
LINE
8
BLACK
6
CONTINUOUS
10
100.213
20
-119.703
11
100.213
21
-120.411
0
LINE
8
BLACK
6
CONTINUOUS
10
100.213
20
-120.411
11
100.921
21
-120.411
0
LINE
8
BLACK
6
CONTINUOUS
10
105.503
20
-121.414
11
103.788
21
-121.414
0
LINE
8
BLACK
6
CONTINUOUS
10
104.646
20
-121.414
11
104.646
21
-118.414
0
LINE
8
BLACK
6
CONTINUOUS
10
104.646
20
-118.414
11
104.36
21
-118.843
0
LINE
8
BLACK
6
CONTINUOUS
10
104.36
20
-118.843
11
104.074
21
-119.128
0
LINE
8
BLACK
6
CONTINUOUS
10
104.074
20
-119.128
11
103.788
21
-119.271
0
LINE
8
BLACK
6
CONTINUOUS
10
106.788
20
-121.128
11
106.931
21
-121.271
0
LINE
8
BLACK
6
CONTINUOUS
10
106.931
20
-121.271
11
106.788
21
-121.414
0
LINE
8
BLACK
6
CONTINUOUS
10
106.788
20
-121.414
11
106.646
21
-121.271
0
LINE
8
BLACK
6
CONTINUOUS
10
106.646
20
-121.271
11
106.788
21
-121.128
0
LINE
8
BLACK
6
CONTINUOUS
10
106.788
20
-121.128
11
106.788
21
-121.414
0
LINE
8
BLACK
6
CONTINUOUS
10
108.788
20
-118.414
11
109.074
21
-118.414
0
LINE
8
BLACK
6
CONTINUOUS
10
109.074
20
-118.414
11
109.36
21
-118.557
0
LINE
8
BLACK
6
CONTINUOUS
10
109.36
20
-118.557
11
109.503
21
-118.7
0
LINE
8
BLACK
6
CONTINUOUS
10
109.503
20
-118.7
11
109.646
21
-118.986
0
LINE
8
BLACK
6
CONTINUOUS
10
109.646
20
-118.986
11
109.788
21
-119.557
0
LINE
8
BLACK
6
CONTINUOUS
10
109.788
20
-119.557
11
109.788
21
-120.271
0
LINE
8
BLACK
6
CONTINUOUS
10
109.788
20
-120.271
11
109.646
21
-120.843
0
LINE
8
BLACK
6
CONTINUOUS
10
109.646
20
-120.843
11
109.503
21
-121.128
0
LINE
8
BLACK
6
CONTINUOUS
10
109.503
20
-121.128
11
109.36
21
-121.271
0
LINE
8
BLACK
6
CONTINUOUS
10
109.36
20
-121.271
11
109.074
21
-121.414
0
LINE
8
BLACK
6
CONTINUOUS
10
109.074
20
-121.414
11
108.788
21
-121.414
0
LINE
8
BLACK
6
CONTINUOUS
10
108.788
20
-121.414
11
108.503
21
-121.271
0
LINE
8
BLACK
6
CONTINUOUS
10
108.503
20
-121.271
11
108.36
21
-121.128
0
LINE
8
BLACK
6
CONTINUOUS
10
108.36
20
-121.128
11
108.217
21
-120.843
0
LINE
8
BLACK
6
CONTINUOUS
10
108.217
20
-120.843
11
108.074
21
-120.271
0
LINE
8
BLACK
6
CONTINUOUS
10
108.074
20
-120.271
11
108.074
21
-119.557
0
LINE
8
BLACK
6
CONTINUOUS
10
108.074
20
-119.557
11
108.217
21
-118.986
0
LINE
8
BLACK
6
CONTINUOUS
10
108.217
20
-118.986
11
108.36
21
-118.7
0
LINE
8
BLACK
6
CONTINUOUS
10
108.36
20
-118.7
11
108.503
21
-118.557
0
LINE
8
BLACK
6
CONTINUOUS
10
108.503
20
-118.557
11
108.788
21
-118.414
0
LINE
8
BLACK
6
CONTINUOUS
10
111.646
20
-118.414
11
111.931
21
-118.414
0
LINE
8
BLACK
6
CONTINUOUS
10
111.931
20
-118.414
11
112.217
21
-118.557
0
LINE
8
BLACK
6
CONTINUOUS
10
112.217
20
-118.557
11
112.36
21
-118.7
0
LINE
8
BLACK
6
CONTINUOUS
10
112.36
20
-118.7
11
112.503
21
-118.986
0
LINE
8
BLACK
6
CONTINUOUS
10
112.503
20
-118.986
11
112.646
21
-119.557
0
LINE
8
BLACK
6
CONTINUOUS
10
112.646
20
-119.557
11
112.646
21
-120.271
0
LINE
8
BLACK
6
CONTINUOUS
10
112.646
20
-120.271
11
112.503
21
-120.843
0
LINE
8
BLACK
6
CONTINUOUS
10
112.503
20
-120.843
11
112.36
21
-121.128
0
LINE
8
BLACK
6
CONTINUOUS
10
112.36
20
-121.128
11
112.217
21
-121.271
0
LINE
8
BLACK
6
CONTINUOUS
10
112.217
20
-121.271
11
111.931
21
-121.414
0
LINE
8
BLACK
6
CONTINUOUS
10
111.931
20
-121.414
11
111.646
21
-121.414
0
LINE
8
BLACK
6
CONTINUOUS
10
111.646
20
-121.414
11
111.36
21
-121.271
0
LINE
8
BLACK
6
CONTINUOUS
10
111.36
20
-121.271
11
111.217
21
-121.128
0
LINE
8
BLACK
6
CONTINUOUS
10
111.217
20
-121.128
11
111.074
21
-120.843
0
LINE
8
BLACK
6
CONTINUOUS
10
111.074
20
-120.843
11
110.931
21
-120.271
0
LINE
8
BLACK
6
CONTINUOUS
10
110.931
20
-120.271
11
110.931
21
-119.557
0
LINE
8
BLACK
6
CONTINUOUS
10
110.931
20
-119.557
11
111.074
21
-118.986
0
LINE
8
BLACK
6
CONTINUOUS
10
111.074
20
-118.986
11
111.217
21
-118.7
0
LINE
8
BLACK
6
CONTINUOUS
10
111.217
20
-118.7
11
111.36
21
-118.557
0
LINE
8
BLACK
6
CONTINUOUS
10
111.36
20
-118.557
11
111.646
21
-118.414
0
LINE
8
BLACK
6
CONTINUOUS
10
113.931
20
-121.414
11
113.931
21
-119.414
0
LINE
8
BLACK
6
CONTINUOUS
10
113.931
20
-119.7
11
114.074
21
-119.557
0
LINE
8
BLACK
6
CONTINUOUS
10
114.074
20
-119.557
11
114.36
21
-119.414
0
LINE
8
BLACK
6
CONTINUOUS
10
114.36
20
-119.414
11
114.788
21
-119.414
0
LINE
8
BLACK
6
CONTINUOUS
10
114.788
20
-119.414
11
115.074
21
-119.557
0
LINE
8
BLACK
6
CONTINUOUS
10
115.074
20
-119.557
11
115.217
21
-119.843
0
LINE
8
BLACK
6
CONTINUOUS
10
115.217
20
-119.843
11
115.217
21
-121.414
0
LINE
8
BLACK
6
CONTINUOUS
10
115.217
20
-119.843
11
115.36
21
-119.557
0
LINE
8
BLACK
6
CONTINUOUS
10
115.36
20
-119.557
11
115.646
21
-119.414
0
LINE
8
BLACK
6
CONTINUOUS
10
115.646
20
-119.414
11
116.074
21
-119.414
0
LINE
8
BLACK
6
CONTINUOUS
10
116.074
20
-119.414
11
116.36
21
-119.557
0
LINE
8
BLACK
6
CONTINUOUS
10
116.36
20
-119.557
11
116.503
21
-119.843
0
LINE
8
BLACK
6
CONTINUOUS
10
116.503
20
-119.843
11
116.503
21
-121.414
0
LINE
8
BLACK
6
CONTINUOUS
10
117.931
20
-121.414
11
117.931
21
-119.414
0
LINE
8
BLACK
6
CONTINUOUS
10
117.931
20
-119.7
11
118.074
21
-119.557
0
LINE
8
BLACK
6
CONTINUOUS
10
118.074
20
-119.557
11
118.36
21
-119.414
0
LINE
8
BLACK
6
CONTINUOUS
10
118.36
20
-119.414
11
118.788
21
-119.414
0
LINE
8
BLACK
6
CONTINUOUS
10
118.788
20
-119.414
11
119.074
21
-119.557
0
LINE
8
BLACK
6
CONTINUOUS
10
119.074
20
-119.557
11
119.217
21
-119.843
0
LINE
8
BLACK
6
CONTINUOUS
10
119.217
20
-119.843
11
119.217
21
-121.414
0
LINE
8
BLACK
6
CONTINUOUS
10
119.217
20
-119.843
11
119.36
21
-119.557
0
LINE
8
BLACK
6
CONTINUOUS
10
119.36
20
-119.557
11
119.646
21
-119.414
0
LINE
8
BLACK
6
CONTINUOUS
10
119.646
20
-119.414
11
120.074
21
-119.414
0
LINE
8
BLACK
6
CONTINUOUS
10
120.074
20
-119.414
11
120.36
21
-119.557
0
LINE
8
BLACK
6
CONTINUOUS
10
120.36
20
-119.557
11
120.503
21
-119.843
0
LINE
8
BLACK
6
CONTINUOUS
10
120.503
20
-119.843
11
120.503
21
-121.414
0
LINE
8
BLACK
6
CONTINUOUS
10
126.36
20
-118.271
11
123.788
21
-122.128
0
LINE
8
BLACK
6
CONTINUOUS
10
130.217
20
-118.414
11
130.503
21
-118.414
0
LINE
8
BLACK
6
CONTINUOUS
10
130.503
20
-118.414
11
130.788
21
-118.557
0
LINE
8
BLACK
6
CONTINUOUS
10
130.788
20
-118.557
11
130.931
21
-118.7
0
LINE
8
BLACK
6
CONTINUOUS
10
130.931
20
-118.7
11
131.074
21
-118.986
0
LINE
8
BLACK
6
CONTINUOUS
10
131.074
20
-118.986
11
131.217
21
-119.557
0
LINE
8
BLACK
6
CONTINUOUS
10
131.217
20
-119.557
11
131.217
21
-120.271
0
LINE
8
BLACK
6
CONTINUOUS
10
131.217
20
-120.271
11
131.074
21
-120.843
0
LINE
8
BLACK
6
CONTINUOUS
10
131.074
20
-120.843
11
130.931
21
-121.128
0
LINE
8
BLACK
6
CONTINUOUS
10
130.931
20
-121.128
11
130.788
21
-121.271
0
LINE
8
BLACK
6
CONTINUOUS
10
130.788
20
-121.271
11
130.503
21
-121.414
0
LINE
8
BLACK
6
CONTINUOUS
10
130.503
20
-121.414
11
130.217
21
-121.414
0
LINE
8
BLACK
6
CONTINUOUS
10
130.217
20
-121.414
11
129.931
21
-121.271
0
LINE
8
BLACK
6
CONTINUOUS
10
129.931
20
-121.271
11
129.788
21
-121.128
0
LINE
8
BLACK
6
CONTINUOUS
10
129.788
20
-121.128
11
129.646
21
-120.843
0
LINE
8
BLACK
6
CONTINUOUS
10
129.646
20
-120.843
11
129.503
21
-120.271
0
LINE
8
BLACK
6
CONTINUOUS
10
129.503
20
-120.271
11
129.503
21
-119.557
0
LINE
8
BLACK
6
CONTINUOUS
10
129.503
20
-119.557
11
129.646
21
-118.986
0
LINE
8
BLACK
6
CONTINUOUS
10
129.646
20
-118.986
11
129.788
21
-118.7
0
LINE
8
BLACK
6
CONTINUOUS
10
129.788
20
-118.7
11
129.931
21
-118.557
0
LINE
8
BLACK
6
CONTINUOUS
10
129.931
20
-118.557
11
130.217
21
-118.414
0
LINE
8
BLACK
6
CONTINUOUS
10
132.503
20
-121.128
11
132.646
21
-121.271
0
LINE
8
BLACK
6
CONTINUOUS
10
132.646
20
-121.271
11
132.503
21
-121.414
0
LINE
8
BLACK
6
CONTINUOUS
10
132.503
20
-121.414
11
132.36
21
-121.271
0
LINE
8
BLACK
6
CONTINUOUS
10
132.36
20
-121.271
11
132.503
21
-121.128
0
LINE
8
BLACK
6
CONTINUOUS
10
132.503
20
-121.128
11
132.503
21
-121.414
0
LINE
8
BLACK
6
CONTINUOUS
10
134.503
20
-118.414
11
134.788
21
-118.414
0
LINE
8
BLACK
6
CONTINUOUS
10
134.788
20
-118.414
11
135.074
21
-118.557
0
LINE
8
BLACK
6
CONTINUOUS
10
135.074
20
-118.557
11
135.217
21
-118.7
0
LINE
8
BLACK
6
CONTINUOUS
10
135.217
20
-118.7
11
135.36
21
-118.986
0
LINE
8
BLACK
6
CONTINUOUS
10
135.36
20
-118.986
11
135.503
21
-119.557
0
LINE
8
BLACK
6
CONTINUOUS
10
135.503
20
-119.557
11
135.503
21
-120.271
0
LINE
8
BLACK
6
CONTINUOUS
10
135.503
20
-120.271
11
135.36
21
-120.843
0
LINE
8
BLACK
6
CONTINUOUS
10
135.36
20
-120.843
11
135.217
21
-121.128
0
LINE
8
BLACK
6
CONTINUOUS
10
135.217
20
-121.128
11
135.074
21
-121.271
0
LINE
8
BLACK
6
CONTINUOUS
10
135.074
20
-121.271
11
134.788
21
-121.414
0
LINE
8
BLACK
6
CONTINUOUS
10
134.788
20
-121.414
11
134.503
21
-121.414
0
LINE
8
BLACK
6
CONTINUOUS
10
134.503
20
-121.414
11
134.217
21
-121.271
0
LINE
8
BLACK
6
CONTINUOUS
10
134.217
20
-121.271
11
134.074
21
-121.128
0
LINE
8
BLACK
6
CONTINUOUS
10
134.074
20
-121.128
11
133.931
21
-120.843
0
LINE
8
BLACK
6
CONTINUOUS
10
133.931
20
-120.843
11
133.788
21
-120.271
0
LINE
8
BLACK
6
CONTINUOUS
10
133.788
20
-120.271
11
133.788
21
-119.557
0
LINE
8
BLACK
6
CONTINUOUS
10
133.788
20
-119.557
11
133.931
21
-118.986
0
LINE
8
BLACK
6
CONTINUOUS
10
133.931
20
-118.986
11
134.074
21
-118.7
0
LINE
8
BLACK
6
CONTINUOUS
10
134.074
20
-118.7
11
134.217
21
-118.557
0
LINE
8
BLACK
6
CONTINUOUS
10
134.217
20
-118.557
11
134.503
21
-118.414
0
LINE
8
BLACK
6
CONTINUOUS
10
136.503
20
-118.414
11
138.36
21
-118.414
0
LINE
8
BLACK
6
CONTINUOUS
10
138.36
20
-118.414
11
137.36
21
-119.557
0
LINE
8
BLACK
6
CONTINUOUS
10
137.36
20
-119.557
11
137.788
21
-119.557
0
LINE
8
BLACK
6
CONTINUOUS
10
137.788
20
-119.557
11
138.074
21
-119.7
0
LINE
8
BLACK
6
CONTINUOUS
10
138.074
20
-119.7
11
138.217
21
-119.843
0
LINE
8
BLACK
6
CONTINUOUS
10
138.217
20
-119.843
11
138.36
21
-120.128
0
LINE
8
BLACK
6
CONTINUOUS
10
138.36
20
-120.128
11
138.36
21
-120.843
0
LINE
8
BLACK
6
CONTINUOUS
10
138.36
20
-120.843
11
138.217
21
-121.128
0
LINE
8
BLACK
6
CONTINUOUS
10
138.217
20
-121.128
11
138.074
21
-121.271
0
LINE
8
BLACK
6
CONTINUOUS
10
138.074
20
-121.271
11
137.788
21
-121.414
0
LINE
8
BLACK
6
CONTINUOUS
10
137.788
20
-121.414
11
136.931
21
-121.414
0
LINE
8
BLACK
6
CONTINUOUS
10
136.931
20
-121.414
11
136.646
21
-121.271
0
LINE
8
BLACK
6
CONTINUOUS
10
136.646
20
-121.271
11
136.503
21
-121.128
0
LINE
8
BLACK
6
CONTINUOUS
10
139.788
20
-121.414
11
140.36
21
-121.414
0
LINE
8
BLACK
6
CONTINUOUS
10
140.36
20
-121.414
11
140.646
21
-121.271
0
LINE
8
BLACK
6
CONTINUOUS
10
140.646
20
-121.271
11
140.788
21
-121.128
0
LINE
8
BLACK
6
CONTINUOUS
10
140.788
20
-121.128
11
141.074
21
-120.7
0
LINE
8
BLACK
6
CONTINUOUS
10
141.074
20
-120.7
11
141.217
21
-120.128
0
LINE
8
BLACK
6
CONTINUOUS
10
141.217
20
-120.128
11
141.217
21
-118.986
0
LINE
8
BLACK
6
CONTINUOUS
10
141.217
20
-118.986
11
141.074
21
-118.7
0
LINE
8
BLACK
6
CONTINUOUS
10
141.074
20
-118.7
11
140.931
21
-118.557
0
LINE
8
BLACK
6
CONTINUOUS
10
140.931
20
-118.557
11
140.646
21
-118.414
0
LINE
8
BLACK
6
CONTINUOUS
10
140.646
20
-118.414
11
140.074
21
-118.414
0
LINE
8
BLACK
6
CONTINUOUS
10
140.074
20
-118.414
11
139.788
21
-118.557
0
LINE
8
BLACK
6
CONTINUOUS
10
139.788
20
-118.557
11
139.646
21
-118.7
0
LINE
8
BLACK
6
CONTINUOUS
10
139.646
20
-118.7
11
139.503
21
-118.986
0
LINE
8
BLACK
6
CONTINUOUS
10
139.503
20
-118.986
11
139.503
21
-119.7
0
LINE
8
BLACK
6
CONTINUOUS
10
139.503
20
-119.7
11
139.646
21
-119.986
0
LINE
8
BLACK
6
CONTINUOUS
10
139.646
20
-119.986
11
139.788
21
-120.128
0
LINE
8
BLACK
6
CONTINUOUS
10
139.788
20
-120.128
11
140.074
21
-120.271
0
LINE
8
BLACK
6
CONTINUOUS
10
140.074
20
-120.271
11
140.646
21
-120.271
0
LINE
8
BLACK
6
CONTINUOUS
10
140.646
20
-120.271
11
140.931
21
-120.128
0
LINE
8
BLACK
6
CONTINUOUS
10
140.931
20
-120.128
11
141.074
21
-119.986
0
LINE
8
BLACK
6
CONTINUOUS
10
141.074
20
-119.986
11
141.217
21
-119.7
0
LINE
8
BLACK
6
CONTINUOUS
10
142.36
20
-118.414
11
142.36
21
-118.986
0
LINE
8
BLACK
6
CONTINUOUS
10
143.503
20
-118.414
11
143.503
21
-118.986
0
LINE
8
BLACK
6
CONTINUOUS
10
147.931
20
-122.557
11
147.788
21
-122.414
0
LINE
8
BLACK
6
CONTINUOUS
10
147.788
20
-122.414
11
147.503
21
-121.986
0
LINE
8
BLACK
6
CONTINUOUS
10
147.503
20
-121.986
11
147.36
21
-121.7
0
LINE
8
BLACK
6
CONTINUOUS
10
147.36
20
-121.7
11
147.217
21
-121.271
0
LINE
8
BLACK
6
CONTINUOUS
10
147.217
20
-121.271
11
147.074
21
-120.557
0
LINE
8
BLACK
6
CONTINUOUS
10
147.074
20
-120.557
11
147.074
21
-119.986
0
LINE
8
BLACK
6
CONTINUOUS
10
147.074
20
-119.986
11
147.217
21
-119.271
0
LINE
8
BLACK
6
CONTINUOUS
10
147.217
20
-119.271
11
147.36
21
-118.843
0
LINE
8
BLACK
6
CONTINUOUS
10
147.36
20
-118.843
11
147.503
21
-118.557
0
LINE
8
BLACK
6
CONTINUOUS
10
147.503
20
-118.557
11
147.788
21
-118.128
0
LINE
8
BLACK
6
CONTINUOUS
10
147.788
20
-118.128
11
147.931
21
-117.986
0
LINE
8
BLACK
6
CONTINUOUS
10
149.217
20
-121.414
11
149.788
21
-121.414
0
LINE
8
BLACK
6
CONTINUOUS
10
149.788
20
-121.414
11
150.074
21
-121.271
0
LINE
8
BLACK
6
CONTINUOUS
10
150.074
20
-121.271
11
150.217
21
-121.128
0
LINE
8
BLACK
6
CONTINUOUS
10
150.217
20
-121.128
11
150.503
21
-120.7
0
LINE
8
BLACK
6
CONTINUOUS
10
150.503
20
-120.7
11
150.646
21
-120.128
0
LINE
8
BLACK
6
CONTINUOUS
10
150.646
20
-120.128
11
150.646
21
-118.986
0
LINE
8
BLACK
6
CONTINUOUS
10
150.646
20
-118.986
11
150.503
21
-118.7
0
LINE
8
BLACK
6
CONTINUOUS
10
150.503
20
-118.7
11
150.36
21
-118.557
0
LINE
8
BLACK
6
CONTINUOUS
10
150.36
20
-118.557
11
150.074
21
-118.414
0
LINE
8
BLACK
6
CONTINUOUS
10
150.074
20
-118.414
11
149.503
21
-118.414
0
LINE
8
BLACK
6
CONTINUOUS
10
149.503
20
-118.414
11
149.217
21
-118.557
0
LINE
8
BLACK
6
CONTINUOUS
10
149.217
20
-118.557
11
149.074
21
-118.7
0
LINE
8
BLACK
6
CONTINUOUS
10
149.074
20
-118.7
11
148.931
21
-118.986
0
LINE
8
BLACK
6
CONTINUOUS
10
148.931
20
-118.986
11
148.931
21
-119.7
0
LINE
8
BLACK
6
CONTINUOUS
10
148.931
20
-119.7
11
149.074
21
-119.986
0
LINE
8
BLACK
6
CONTINUOUS
10
149.074
20
-119.986
11
149.217
21
-120.128
0
LINE
8
BLACK
6
CONTINUOUS
10
149.217
20
-120.128
11
149.503
21
-120.271
0
LINE
8
BLACK
6
CONTINUOUS
10
149.503
20
-120.271
11
150.074
21
-120.271
0
LINE
8
BLACK
6
CONTINUOUS
10
150.074
20
-120.271
11
150.36
21
-120.128
0
LINE
8
BLACK
6
CONTINUOUS
10
150.36
20
-120.128
11
150.503
21
-119.986
0
LINE
8
BLACK
6
CONTINUOUS
10
150.503
20
-119.986
11
150.646
21
-119.7
0
LINE
8
BLACK
6
CONTINUOUS
10
154.217
20
-121.414
11
154.217
21
-118.414
0
LINE
8
BLACK
6
CONTINUOUS
10
155.503
20
-121.414
11
155.503
21
-119.843
0
LINE
8
BLACK
6
CONTINUOUS
10
155.503
20
-119.843
11
155.36
21
-119.557
0
LINE
8
BLACK
6
CONTINUOUS
10
155.36
20
-119.557
11
155.074
21
-119.414
0
LINE
8
BLACK
6
CONTINUOUS
10
155.074
20
-119.414
11
154.646
21
-119.414
0
LINE
8
BLACK
6
CONTINUOUS
10
154.646
20
-119.414
11
154.36
21
-119.557
0
LINE
8
BLACK
6
CONTINUOUS
10
154.36
20
-119.557
11
154.217
21
-119.7
0
LINE
8
BLACK
6
CONTINUOUS
10
157.36
20
-121.414
11
157.074
21
-121.271
0
LINE
8
BLACK
6
CONTINUOUS
10
157.074
20
-121.271
11
156.931
21
-121.128
0
LINE
8
BLACK
6
CONTINUOUS
10
156.931
20
-121.128
11
156.788
21
-120.843
0
LINE
8
BLACK
6
CONTINUOUS
10
156.788
20
-120.843
11
156.788
21
-119.986
0
LINE
8
BLACK
6
CONTINUOUS
10
156.788
20
-119.986
11
156.931
21
-119.7
0
LINE
8
BLACK
6
CONTINUOUS
10
156.931
20
-119.7
11
157.074
21
-119.557
0
LINE
8
BLACK
6
CONTINUOUS
10
157.074
20
-119.557
11
157.36
21
-119.414
0
LINE
8
BLACK
6
CONTINUOUS
10
157.36
20
-119.414
11
157.788
21
-119.414
0
LINE
8
BLACK
6
CONTINUOUS
10
157.788
20
-119.414
11
158.074
21
-119.557
0
LINE
8
BLACK
6
CONTINUOUS
10
158.074
20
-119.557
11
158.217
21
-119.7
0
LINE
8
BLACK
6
CONTINUOUS
10
158.217
20
-119.7
11
158.36
21
-119.986
0
LINE
8
BLACK
6
CONTINUOUS
10
158.36
20
-119.986
11
158.36
21
-120.843
0
LINE
8
BLACK
6
CONTINUOUS
10
158.36
20
-120.843
11
158.217
21
-121.128
0
LINE
8
BLACK
6
CONTINUOUS
10
158.217
20
-121.128
11
158.074
21
-121.271
0
LINE
8
BLACK
6
CONTINUOUS
10
158.074
20
-121.271
11
157.788
21
-121.414
0
LINE
8
BLACK
6
CONTINUOUS
10
157.788
20
-121.414
11
157.36
21
-121.414
0
LINE
8
BLACK
6
CONTINUOUS
10
160.074
20
-121.414
11
159.788
21
-121.271
0
LINE
8
BLACK
6
CONTINUOUS
10
159.788
20
-121.271
11
159.646
21
-120.986
0
LINE
8
BLACK
6
CONTINUOUS
10
159.646
20
-120.986
11
159.646
21
-118.414
0
LINE
8
BLACK
6
CONTINUOUS
10
162.36
20
-121.271
11
162.074
21
-121.414
0
LINE
8
BLACK
6
CONTINUOUS
10
162.074
20
-121.414
11
161.503
21
-121.414
0
LINE
8
BLACK
6
CONTINUOUS
10
161.503
20
-121.414
11
161.217
21
-121.271
0
LINE
8
BLACK
6
CONTINUOUS
10
161.217
20
-121.271
11
161.074
21
-120.986
0
LINE
8
BLACK
6
CONTINUOUS
10
161.074
20
-120.986
11
161.074
21
-119.843
0
LINE
8
BLACK
6
CONTINUOUS
10
161.074
20
-119.843
11
161.217
21
-119.557
0
LINE
8
BLACK
6
CONTINUOUS
10
161.217
20
-119.557
11
161.503
21
-119.414
0
LINE
8
BLACK
6
CONTINUOUS
10
161.503
20
-119.414
11
162.074
21
-119.414
0
LINE
8
BLACK
6
CONTINUOUS
10
162.074
20
-119.414
11
162.36
21
-119.557
0
LINE
8
BLACK
6
CONTINUOUS
10
162.36
20
-119.557
11
162.503
21
-119.843
0
LINE
8
BLACK
6
CONTINUOUS
10
162.503
20
-119.843
11
162.503
21
-120.128
0
LINE
8
BLACK
6
CONTINUOUS
10
162.503
20
-120.128
11
161.074
21
-120.414
0
LINE
8
BLACK
6
CONTINUOUS
10
163.646
20
-121.271
11
163.931
21
-121.414
0
LINE
8
BLACK
6
CONTINUOUS
10
163.931
20
-121.414
11
164.503
21
-121.414
0
LINE
8
BLACK
6
CONTINUOUS
10
164.503
20
-121.414
11
164.788
21
-121.271
0
LINE
8
BLACK
6
CONTINUOUS
10
164.788
20
-121.271
11
164.931
21
-120.986
0
LINE
8
BLACK
6
CONTINUOUS
10
164.931
20
-120.986
11
164.931
21
-120.843
0
LINE
8
BLACK
6
CONTINUOUS
10
164.931
20
-120.843
11
164.788
21
-120.557
0
LINE
8
BLACK
6
CONTINUOUS
10
164.788
20
-120.557
11
164.503
21
-120.414
0
LINE
8
BLACK
6
CONTINUOUS
10
164.503
20
-120.414
11
164.074
21
-120.414
0
LINE
8
BLACK
6
CONTINUOUS
10
164.074
20
-120.414
11
163.788
21
-120.271
0
LINE
8
BLACK
6
CONTINUOUS
10
163.788
20
-120.271
11
163.646
21
-119.986
0
LINE
8
BLACK
6
CONTINUOUS
10
163.646
20
-119.986
11
163.646
21
-119.843
0
LINE
8
BLACK
6
CONTINUOUS
10
163.646
20
-119.843
11
163.788
21
-119.557
0
LINE
8
BLACK
6
CONTINUOUS
10
163.788
20
-119.557
11
164.074
21
-119.414
0
LINE
8
BLACK
6
CONTINUOUS
10
164.074
20
-119.414
11
164.503
21
-119.414
0
LINE
8
BLACK
6
CONTINUOUS
10
164.503
20
-119.414
11
164.788
21
-119.557
0
LINE
8
BLACK
6
CONTINUOUS
10
165.931
20
-122.557
11
166.074
21
-122.414
0
LINE
8
BLACK
6
CONTINUOUS
10
166.074
20
-122.414
11
166.36
21
-121.986
0
LINE
8
BLACK
6
CONTINUOUS
10
166.36
20
-121.986
11
166.503
21
-121.7
0
LINE
8
BLACK
6
CONTINUOUS
10
166.503
20
-121.7
11
166.646
21
-121.271
0
LINE
8
BLACK
6
CONTINUOUS
10
166.646
20
-121.271
11
166.788
21
-120.557
0
LINE
8
BLACK
6
CONTINUOUS
10
166.788
20
-120.557
11
166.788
21
-119.986
0
LINE
8
BLACK
6
CONTINUOUS
10
166.788
20
-119.986
11
166.646
21
-119.271
0
LINE
8
BLACK
6
CONTINUOUS
10
166.646
20
-119.271
11
166.503
21
-118.843
0
LINE
8
BLACK
6
CONTINUOUS
10
166.503
20
-118.843
11
166.36
21
-118.557
0
LINE
8
BLACK
6
CONTINUOUS
10
166.36
20
-118.557
11
166.074
21
-118.128
0
LINE
8
BLACK
6
CONTINUOUS
10
166.074
20
-118.128
11
165.931
21
-117.986
0
LINE
8
BLACK
6
CONTINUOUS
10
100.559
20
-124.525
11
101.067
21
-124.017
0
LINE
8
BLACK
6
CONTINUOUS
10
101.067
20
-124.017
11
100.559
21
-123.509
0
LINE
8
BLACK
6
CONTINUOUS
10
100.559
20
-123.509
11
100.051
21
-124.017
0
LINE
8
BLACK
6
CONTINUOUS
10
100.051
20
-124.017
11
100.559
21
-124.525
0
LINE
8
BLACK
6
CONTINUOUS
10
105.503
20
-125.374
11
103.788
21
-125.374
0
LINE
8
BLACK
6
CONTINUOUS
10
104.646
20
-125.374
11
104.646
21
-122.374
0
LINE
8
BLACK
6
CONTINUOUS
10
104.646
20
-122.374
11
104.36
21
-122.803
0
LINE
8
BLACK
6
CONTINUOUS
10
104.36
20
-122.803
11
104.074
21
-123.088
0
LINE
8
BLACK
6
CONTINUOUS
10
104.074
20
-123.088
11
103.788
21
-123.231
0
LINE
8
BLACK
6
CONTINUOUS
10
106.788
20
-125.088
11
106.931
21
-125.231
0
LINE
8
BLACK
6
CONTINUOUS
10
106.931
20
-125.231
11
106.788
21
-125.374
0
LINE
8
BLACK
6
CONTINUOUS
10
106.788
20
-125.374
11
106.646
21
-125.231
0
LINE
8
BLACK
6
CONTINUOUS
10
106.646
20
-125.231
11
106.788
21
-125.088
0
LINE
8
BLACK
6
CONTINUOUS
10
106.788
20
-125.088
11
106.788
21
-125.374
0
LINE
8
BLACK
6
CONTINUOUS
10
108.788
20
-122.374
11
109.074
21
-122.374
0
LINE
8
BLACK
6
CONTINUOUS
10
109.074
20
-122.374
11
109.36
21
-122.517
0
LINE
8
BLACK
6
CONTINUOUS
10
109.36
20
-122.517
11
109.503
21
-122.66
0
LINE
8
BLACK
6
CONTINUOUS
10
109.503
20
-122.66
11
109.646
21
-122.946
0
LINE
8
BLACK
6
CONTINUOUS
10
109.646
20
-122.946
11
109.788
21
-123.517
0
LINE
8
BLACK
6
CONTINUOUS
10
109.788
20
-123.517
11
109.788
21
-124.231
0
LINE
8
BLACK
6
CONTINUOUS
10
109.788
20
-124.231
11
109.646
21
-124.803
0
LINE
8
BLACK
6
CONTINUOUS
10
109.646
20
-124.803
11
109.503
21
-125.088
0
LINE
8
BLACK
6
CONTINUOUS
10
109.503
20
-125.088
11
109.36
21
-125.231
0
LINE
8
BLACK
6
CONTINUOUS
10
109.36
20
-125.231
11
109.074
21
-125.374
0
LINE
8
BLACK
6
CONTINUOUS
10
109.074
20
-125.374
11
108.788
21
-125.374
0
LINE
8
BLACK
6
CONTINUOUS
10
108.788
20
-125.374
11
108.503
21
-125.231
0
LINE
8
BLACK
6
CONTINUOUS
10
108.503
20
-125.231
11
108.36
21
-125.088
0
LINE
8
BLACK
6
CONTINUOUS
10
108.36
20
-125.088
11
108.217
21
-124.803
0
LINE
8
BLACK
6
CONTINUOUS
10
108.217
20
-124.803
11
108.074
21
-124.231
0
LINE
8
BLACK
6
CONTINUOUS
10
108.074
20
-124.231
11
108.074
21
-123.517
0
LINE
8
BLACK
6
CONTINUOUS
10
108.074
20
-123.517
11
108.217
21
-122.946
0
LINE
8
BLACK
6
CONTINUOUS
10
108.217
20
-122.946
11
108.36
21
-122.66
0
LINE
8
BLACK
6
CONTINUOUS
10
108.36
20
-122.66
11
108.503
21
-122.517
0
LINE
8
BLACK
6
CONTINUOUS
10
108.503
20
-122.517
11
108.788
21
-122.374
0
LINE
8
BLACK
6
CONTINUOUS
10
110.931
20
-122.66
11
111.074
21
-122.517
0
LINE
8
BLACK
6
CONTINUOUS
10
111.074
20
-122.517
11
111.36
21
-122.374
0
LINE
8
BLACK
6
CONTINUOUS
10
111.36
20
-122.374
11
112.074
21
-122.374
0
LINE
8
BLACK
6
CONTINUOUS
10
112.074
20
-122.374
11
112.36
21
-122.517
0
LINE
8
BLACK
6
CONTINUOUS
10
112.36
20
-122.517
11
112.503
21
-122.66
0
LINE
8
BLACK
6
CONTINUOUS
10
112.503
20
-122.66
11
112.646
21
-122.946
0
LINE
8
BLACK
6
CONTINUOUS
10
112.646
20
-122.946
11
112.646
21
-123.231
0
LINE
8
BLACK
6
CONTINUOUS
10
112.646
20
-123.231
11
112.503
21
-123.66
0
LINE
8
BLACK
6
CONTINUOUS
10
112.503
20
-123.66
11
110.788
21
-125.374
0
LINE
8
BLACK
6
CONTINUOUS
10
110.788
20
-125.374
11
112.646
21
-125.374
0
LINE
8
BLACK
6
CONTINUOUS
10
113.931
20
-125.374
11
113.931
21
-123.374
0
LINE
8
BLACK
6
CONTINUOUS
10
113.931
20
-123.66
11
114.074
21
-123.517
0
LINE
8
BLACK
6
CONTINUOUS
10
114.074
20
-123.517
11
114.36
21
-123.374
0
LINE
8
BLACK
6
CONTINUOUS
10
114.36
20
-123.374
11
114.788
21
-123.374
0
LINE
8
BLACK
6
CONTINUOUS
10
114.788
20
-123.374
11
115.074
21
-123.517
0
LINE
8
BLACK
6
CONTINUOUS
10
115.074
20
-123.517
11
115.217
21
-123.803
0
LINE
8
BLACK
6
CONTINUOUS
10
115.217
20
-123.803
11
115.217
21
-125.374
0
LINE
8
BLACK
6
CONTINUOUS
10
115.217
20
-123.803
11
115.36
21
-123.517
0
LINE
8
BLACK
6
CONTINUOUS
10
115.36
20
-123.517
11
115.646
21
-123.374
0
LINE
8
BLACK
6
CONTINUOUS
10
115.646
20
-123.374
11
116.074
21
-123.374
0
LINE
8
BLACK
6
CONTINUOUS
10
116.074
20
-123.374
11
116.36
21
-123.517
0
LINE
8
BLACK
6
CONTINUOUS
10
116.36
20
-123.517
11
116.503
21
-123.803
0
LINE
8
BLACK
6
CONTINUOUS
10
116.503
20
-123.803
11
116.503
21
-125.374
0
LINE
8
BLACK
6
CONTINUOUS
10
117.931
20
-125.374
11
117.931
21
-123.374
0
LINE
8
BLACK
6
CONTINUOUS
10
117.931
20
-123.66
11
118.074
21
-123.517
0
LINE
8
BLACK
6
CONTINUOUS
10
118.074
20
-123.517
11
118.36
21
-123.374
0
LINE
8
BLACK
6
CONTINUOUS
10
118.36
20
-123.374
11
118.788
21
-123.374
0
LINE
8
BLACK
6
CONTINUOUS
10
118.788
20
-123.374
11
119.074
21
-123.517
0
LINE
8
BLACK
6
CONTINUOUS
10
119.074
20
-123.517
11
119.217
21
-123.803
0
LINE
8
BLACK
6
CONTINUOUS
10
119.217
20
-123.803
11
119.217
21
-125.374
0
LINE
8
BLACK
6
CONTINUOUS
10
119.217
20
-123.803
11
119.36
21
-123.517
0
LINE
8
BLACK
6
CONTINUOUS
10
119.36
20
-123.517
11
119.646
21
-123.374
0
LINE
8
BLACK
6
CONTINUOUS
10
119.646
20
-123.374
11
120.074
21
-123.374
0
LINE
8
BLACK
6
CONTINUOUS
10
120.074
20
-123.374
11
120.36
21
-123.517
0
LINE
8
BLACK
6
CONTINUOUS
10
120.36
20
-123.517
11
120.503
21
-123.803
0
LINE
8
BLACK
6
CONTINUOUS
10
120.503
20
-123.803
11
120.503
21
-125.374
0
LINE
8
BLACK
6
CONTINUOUS
10
126.36
20
-122.231
11
123.788
21
-126.088
0
LINE
8
BLACK
6
CONTINUOUS
10
130.217
20
-122.374
11
130.503
21
-122.374
0
LINE
8
BLACK
6
CONTINUOUS
10
130.503
20
-122.374
11
130.788
21
-122.517
0
LINE
8
BLACK
6
CONTINUOUS
10
130.788
20
-122.517
11
130.931
21
-122.66
0
LINE
8
BLACK
6
CONTINUOUS
10
130.931
20
-122.66
11
131.074
21
-122.946
0
LINE
8
BLACK
6
CONTINUOUS
10
131.074
20
-122.946
11
131.217
21
-123.517
0
LINE
8
BLACK
6
CONTINUOUS
10
131.217
20
-123.517
11
131.217
21
-124.231
0
LINE
8
BLACK
6
CONTINUOUS
10
131.217
20
-124.231
11
131.074
21
-124.803
0
LINE
8
BLACK
6
CONTINUOUS
10
131.074
20
-124.803
11
130.931
21
-125.088
0
LINE
8
BLACK
6
CONTINUOUS
10
130.931
20
-125.088
11
130.788
21
-125.231
0
LINE
8
BLACK
6
CONTINUOUS
10
130.788
20
-125.231
11
130.503
21
-125.374
0
LINE
8
BLACK
6
CONTINUOUS
10
130.503
20
-125.374
11
130.217
21
-125.374
0
LINE
8
BLACK
6
CONTINUOUS
10
130.217
20
-125.374
11
129.931
21
-125.231
0
LINE
8
BLACK
6
CONTINUOUS
10
129.931
20
-125.231
11
129.788
21
-125.088
0
LINE
8
BLACK
6
CONTINUOUS
10
129.788
20
-125.088
11
129.646
21
-124.803
0
LINE
8
BLACK
6
CONTINUOUS
10
129.646
20
-124.803
11
129.503
21
-124.231
0
LINE
8
BLACK
6
CONTINUOUS
10
129.503
20
-124.231
11
129.503
21
-123.517
0
LINE
8
BLACK
6
CONTINUOUS
10
129.503
20
-123.517
11
129.646
21
-122.946
0
LINE
8
BLACK
6
CONTINUOUS
10
129.646
20
-122.946
11
129.788
21
-122.66
0
LINE
8
BLACK
6
CONTINUOUS
10
129.788
20
-122.66
11
129.931
21
-122.517
0
LINE
8
BLACK
6
CONTINUOUS
10
129.931
20
-122.517
11
130.217
21
-122.374
0
LINE
8
BLACK
6
CONTINUOUS
10
132.503
20
-125.088
11
132.646
21
-125.231
0
LINE
8
BLACK
6
CONTINUOUS
10
132.646
20
-125.231
11
132.503
21
-125.374
0
LINE
8
BLACK
6
CONTINUOUS
10
132.503
20
-125.374
11
132.36
21
-125.231
0
LINE
8
BLACK
6
CONTINUOUS
10
132.36
20
-125.231
11
132.503
21
-125.088
0
LINE
8
BLACK
6
CONTINUOUS
10
132.503
20
-125.088
11
132.503
21
-125.374
0
LINE
8
BLACK
6
CONTINUOUS
10
134.503
20
-122.374
11
134.788
21
-122.374
0
LINE
8
BLACK
6
CONTINUOUS
10
134.788
20
-122.374
11
135.074
21
-122.517
0
LINE
8
BLACK
6
CONTINUOUS
10
135.074
20
-122.517
11
135.217
21
-122.66
0
LINE
8
BLACK
6
CONTINUOUS
10
135.217
20
-122.66
11
135.36
21
-122.946
0
LINE
8
BLACK
6
CONTINUOUS
10
135.36
20
-122.946
11
135.503
21
-123.517
0
LINE
8
BLACK
6
CONTINUOUS
10
135.503
20
-123.517
11
135.503
21
-124.231
0
LINE
8
BLACK
6
CONTINUOUS
10
135.503
20
-124.231
11
135.36
21
-124.803
0
LINE
8
BLACK
6
CONTINUOUS
10
135.36
20
-124.803
11
135.217
21
-125.088
0
LINE
8
BLACK
6
CONTINUOUS
10
135.217
20
-125.088
11
135.074
21
-125.231
0
LINE
8
BLACK
6
CONTINUOUS
10
135.074
20
-125.231
11
134.788
21
-125.374
0
LINE
8
BLACK
6
CONTINUOUS
10
134.788
20
-125.374
11
134.503
21
-125.374
0
LINE
8
BLACK
6
CONTINUOUS
10
134.503
20
-125.374
11
134.217
21
-125.231
0
LINE
8
BLACK
6
CONTINUOUS
10
134.217
20
-125.231
11
134.074
21
-125.088
0
LINE
8
BLACK
6
CONTINUOUS
10
134.074
20
-125.088
11
133.931
21
-124.803
0
LINE
8
BLACK
6
CONTINUOUS
10
133.931
20
-124.803
11
133.788
21
-124.231
0
LINE
8
BLACK
6
CONTINUOUS
10
133.788
20
-124.231
11
133.788
21
-123.517
0
LINE
8
BLACK
6
CONTINUOUS
10
133.788
20
-123.517
11
133.931
21
-122.946
0
LINE
8
BLACK
6
CONTINUOUS
10
133.931
20
-122.946
11
134.074
21
-122.66
0
LINE
8
BLACK
6
CONTINUOUS
10
134.074
20
-122.66
11
134.217
21
-122.517
0
LINE
8
BLACK
6
CONTINUOUS
10
134.217
20
-122.517
11
134.503
21
-122.374
0
LINE
8
BLACK
6
CONTINUOUS
10
138.074
20
-123.374
11
138.074
21
-125.374
0
LINE
8
BLACK
6
CONTINUOUS
10
137.36
20
-122.231
11
136.646
21
-124.374
0
LINE
8
BLACK
6
CONTINUOUS
10
136.646
20
-124.374
11
138.503
21
-124.374
0
LINE
8
BLACK
6
CONTINUOUS
10
140.217
20
-122.374
11
140.503
21
-122.374
0
LINE
8
BLACK
6
CONTINUOUS
10
140.503
20
-122.374
11
140.788
21
-122.517
0
LINE
8
BLACK
6
CONTINUOUS
10
140.788
20
-122.517
11
140.931
21
-122.66
0
LINE
8
BLACK
6
CONTINUOUS
10
140.931
20
-122.66
11
141.074
21
-122.946
0
LINE
8
BLACK
6
CONTINUOUS
10
141.074
20
-122.946
11
141.217
21
-123.517
0
LINE
8
BLACK
6
CONTINUOUS
10
141.217
20
-123.517
11
141.217
21
-124.231
0
LINE
8
BLACK
6
CONTINUOUS
10
141.217
20
-124.231
11
141.074
21
-124.803
0
LINE
8
BLACK
6
CONTINUOUS
10
141.074
20
-124.803
11
140.931
21
-125.088
0
LINE
8
BLACK
6
CONTINUOUS
10
140.931
20
-125.088
11
140.788
21
-125.231
0
LINE
8
BLACK
6
CONTINUOUS
10
140.788
20
-125.231
11
140.503
21
-125.374
0
LINE
8
BLACK
6
CONTINUOUS
10
140.503
20
-125.374
11
140.217
21
-125.374
0
LINE
8
BLACK
6
CONTINUOUS
10
140.217
20
-125.374
11
139.931
21
-125.231
0
LINE
8
BLACK
6
CONTINUOUS
10
139.931
20
-125.231
11
139.788
21
-125.088
0
LINE
8
BLACK
6
CONTINUOUS
10
139.788
20
-125.088
11
139.646
21
-124.803
0
LINE
8
BLACK
6
CONTINUOUS
10
139.646
20
-124.803
11
139.503
21
-124.231
0
LINE
8
BLACK
6
CONTINUOUS
10
139.503
20
-124.231
11
139.503
21
-123.517
0
LINE
8
BLACK
6
CONTINUOUS
10
139.503
20
-123.517
11
139.646
21
-122.946
0
LINE
8
BLACK
6
CONTINUOUS
10
139.646
20
-122.946
11
139.788
21
-122.66
0
LINE
8
BLACK
6
CONTINUOUS
10
139.788
20
-122.66
11
139.931
21
-122.517
0
LINE
8
BLACK
6
CONTINUOUS
10
139.931
20
-122.517
11
140.217
21
-122.374
0
LINE
8
BLACK
6
CONTINUOUS
10
142.36
20
-122.374
11
142.36
21
-122.946
0
LINE
8
BLACK
6
CONTINUOUS
10
143.503
20
-122.374
11
143.503
21
-122.946
0
LINE
8
BLACK
6
CONTINUOUS
10
147.931
20
-126.517
11
147.788
21
-126.374
0
LINE
8
BLACK
6
CONTINUOUS
10
147.788
20
-126.374
11
147.503
21
-125.946
0
LINE
8
BLACK
6
CONTINUOUS
10
147.503
20
-125.946
11
147.36
21
-125.66
0
LINE
8
BLACK
6
CONTINUOUS
10
147.36
20
-125.66
11
147.217
21
-125.231
0
LINE
8
BLACK
6
CONTINUOUS
10
147.217
20
-125.231
11
147.074
21
-124.517
0
LINE
8
BLACK
6
CONTINUOUS
10
147.074
20
-124.517
11
147.074
21
-123.946
0
LINE
8
BLACK
6
CONTINUOUS
10
147.074
20
-123.946
11
147.217
21
-123.231
0
LINE
8
BLACK
6
CONTINUOUS
10
147.217
20
-123.231
11
147.36
21
-122.803
0
LINE
8
BLACK
6
CONTINUOUS
10
147.36
20
-122.803
11
147.503
21
-122.517
0
LINE
8
BLACK
6
CONTINUOUS
10
147.503
20
-122.517
11
147.788
21
-122.088
0
LINE
8
BLACK
6
CONTINUOUS
10
147.788
20
-122.088
11
147.931
21
-121.946
0
LINE
8
BLACK
6
CONTINUOUS
10
150.36
20
-122.374
11
149.788
21
-122.374
0
LINE
8
BLACK
6
CONTINUOUS
10
149.788
20
-122.374
11
149.503
21
-122.517
0
LINE
8
BLACK
6
CONTINUOUS
10
149.503
20
-122.517
11
149.36
21
-122.66
0
LINE
8
BLACK
6
CONTINUOUS
10
149.36
20
-122.66
11
149.074
21
-123.088
0
LINE
8
BLACK
6
CONTINUOUS
10
149.074
20
-123.088
11
148.931
21
-123.66
0
LINE
8
BLACK
6
CONTINUOUS
10
148.931
20
-123.66
11
148.931
21
-124.803
0
LINE
8
BLACK
6
CONTINUOUS
10
148.931
20
-124.803
11
149.074
21
-125.088
0
LINE
8
BLACK
6
CONTINUOUS
10
149.074
20
-125.088
11
149.217
21
-125.231
0
LINE
8
BLACK
6
CONTINUOUS
10
149.217
20
-125.231
11
149.503
21
-125.374
0
LINE
8
BLACK
6
CONTINUOUS
10
149.503
20
-125.374
11
150.074
21
-125.374
0
LINE
8
BLACK
6
CONTINUOUS
10
150.074
20
-125.374
11
150.36
21
-125.231
0
LINE
8
BLACK
6
CONTINUOUS
10
150.36
20
-125.231
11
150.503
21
-125.088
0
LINE
8
BLACK
6
CONTINUOUS
10
150.503
20
-125.088
11
150.646
21
-124.803
0
LINE
8
BLACK
6
CONTINUOUS
10
150.646
20
-124.803
11
150.646
21
-124.088
0
LINE
8
BLACK
6
CONTINUOUS
10
150.646
20
-124.088
11
150.503
21
-123.803
0
LINE
8
BLACK
6
CONTINUOUS
10
150.503
20
-123.803
11
150.36
21
-123.66
0
LINE
8
BLACK
6
CONTINUOUS
10
150.36
20
-123.66
11
150.074
21
-123.517
0
LINE
8
BLACK
6
CONTINUOUS
10
150.074
20
-123.517
11
149.503
21
-123.517
0
LINE
8
BLACK
6
CONTINUOUS
10
149.503
20
-123.517
11
149.217
21
-123.66
0
LINE
8
BLACK
6
CONTINUOUS
10
149.217
20
-123.66
11
149.074
21
-123.803
0
LINE
8
BLACK
6
CONTINUOUS
10
149.074
20
-123.803
11
148.931
21
-124.088
0
LINE
8
BLACK
6
CONTINUOUS
10
154.217
20
-125.374
11
154.217
21
-122.374
0
LINE
8
BLACK
6
CONTINUOUS
10
155.503
20
-125.374
11
155.503
21
-123.803
0
LINE
8
BLACK
6
CONTINUOUS
10
155.503
20
-123.803
11
155.36
21
-123.517
0
LINE
8
BLACK
6
CONTINUOUS
10
155.36
20
-123.517
11
155.074
21
-123.374
0
LINE
8
BLACK
6
CONTINUOUS
10
155.074
20
-123.374
11
154.646
21
-123.374
0
LINE
8
BLACK
6
CONTINUOUS
10
154.646
20
-123.374
11
154.36
21
-123.517
0
LINE
8
BLACK
6
CONTINUOUS
10
154.36
20
-123.517
11
154.217
21
-123.66
0
LINE
8
BLACK
6
CONTINUOUS
10
157.36
20
-125.374
11
157.074
21
-125.231
0
LINE
8
BLACK
6
CONTINUOUS
10
157.074
20
-125.231
11
156.931
21
-125.088
0
LINE
8
BLACK
6
CONTINUOUS
10
156.931
20
-125.088
11
156.788
21
-124.803
0
LINE
8
BLACK
6
CONTINUOUS
10
156.788
20
-124.803
11
156.788
21
-123.946
0
LINE
8
BLACK
6
CONTINUOUS
10
156.788
20
-123.946
11
156.931
21
-123.66
0
LINE
8
BLACK
6
CONTINUOUS
10
156.931
20
-123.66
11
157.074
21
-123.517
0
LINE
8
BLACK
6
CONTINUOUS
10
157.074
20
-123.517
11
157.36
21
-123.374
0
LINE
8
BLACK
6
CONTINUOUS
10
157.36
20
-123.374
11
157.788
21
-123.374
0
LINE
8
BLACK
6
CONTINUOUS
10
157.788
20
-123.374
11
158.074
21
-123.517
0
LINE
8
BLACK
6
CONTINUOUS
10
158.074
20
-123.517
11
158.217
21
-123.66
0
LINE
8
BLACK
6
CONTINUOUS
10
158.217
20
-123.66
11
158.36
21
-123.946
0
LINE
8
BLACK
6
CONTINUOUS
10
158.36
20
-123.946
11
158.36
21
-124.803
0
LINE
8
BLACK
6
CONTINUOUS
10
158.36
20
-124.803
11
158.217
21
-125.088
0
LINE
8
BLACK
6
CONTINUOUS
10
158.217
20
-125.088
11
158.074
21
-125.231
0
LINE
8
BLACK
6
CONTINUOUS
10
158.074
20
-125.231
11
157.788
21
-125.374
0
LINE
8
BLACK
6
CONTINUOUS
10
157.788
20
-125.374
11
157.36
21
-125.374
0
LINE
8
BLACK
6
CONTINUOUS
10
160.074
20
-125.374
11
159.788
21
-125.231
0
LINE
8
BLACK
6
CONTINUOUS
10
159.788
20
-125.231
11
159.646
21
-124.946
0
LINE
8
BLACK
6
CONTINUOUS
10
159.646
20
-124.946
11
159.646
21
-122.374
0
LINE
8
BLACK
6
CONTINUOUS
10
162.36
20
-125.231
11
162.074
21
-125.374
0
LINE
8
BLACK
6
CONTINUOUS
10
162.074
20
-125.374
11
161.503
21
-125.374
0
LINE
8
BLACK
6
CONTINUOUS
10
161.503
20
-125.374
11
161.217
21
-125.231
0
LINE
8
BLACK
6
CONTINUOUS
10
161.217
20
-125.231
11
161.074
21
-124.946
0
LINE
8
BLACK
6
CONTINUOUS
10
161.074
20
-124.946
11
161.074
21
-123.803
0
LINE
8
BLACK
6
CONTINUOUS
10
161.074
20
-123.803
11
161.217
21
-123.517
0
LINE
8
BLACK
6
CONTINUOUS
10
161.217
20
-123.517
11
161.503
21
-123.374
0
LINE
8
BLACK
6
CONTINUOUS
10
161.503
20
-123.374
11
162.074
21
-123.374
0
LINE
8
BLACK
6
CONTINUOUS
10
162.074
20
-123.374
11
162.36
21
-123.517
0
LINE
8
BLACK
6
CONTINUOUS
10
162.36
20
-123.517
11
162.503
21
-123.803
0
LINE
8
BLACK
6
CONTINUOUS
10
162.503
20
-123.803
11
162.503
21
-124.088
0
LINE
8
BLACK
6
CONTINUOUS
10
162.503
20
-124.088
11
161.074
21
-124.374
0
LINE
8
BLACK
6
CONTINUOUS
10
163.646
20
-125.231
11
163.931
21
-125.374
0
LINE
8
BLACK
6
CONTINUOUS
10
163.931
20
-125.374
11
164.503
21
-125.374
0
LINE
8
BLACK
6
CONTINUOUS
10
164.503
20
-125.374
11
164.788
21
-125.231
0
LINE
8
BLACK
6
CONTINUOUS
10
164.788
20
-125.231
11
164.931
21
-124.946
0
LINE
8
BLACK
6
CONTINUOUS
10
164.931
20
-124.946
11
164.931
21
-124.803
0
LINE
8
BLACK
6
CONTINUOUS
10
164.931
20
-124.803
11
164.788
21
-124.517
0
LINE
8
BLACK
6
CONTINUOUS
10
164.788
20
-124.517
11
164.503
21
-124.374
0
LINE
8
BLACK
6
CONTINUOUS
10
164.503
20
-124.374
11
164.074
21
-124.374
0
LINE
8
BLACK
6
CONTINUOUS
10
164.074
20
-124.374
11
163.788
21
-124.231
0
LINE
8
BLACK
6
CONTINUOUS
10
163.788
20
-124.231
11
163.646
21
-123.946
0
LINE
8
BLACK
6
CONTINUOUS
10
163.646
20
-123.946
11
163.646
21
-123.803
0
LINE
8
BLACK
6
CONTINUOUS
10
163.646
20
-123.803
11
163.788
21
-123.517
0
LINE
8
BLACK
6
CONTINUOUS
10
163.788
20
-123.517
11
164.074
21
-123.374
0
LINE
8
BLACK
6
CONTINUOUS
10
164.074
20
-123.374
11
164.503
21
-123.374
0
LINE
8
BLACK
6
CONTINUOUS
10
164.503
20
-123.374
11
164.788
21
-123.517
0
LINE
8
BLACK
6
CONTINUOUS
10
165.931
20
-126.517
11
166.074
21
-126.374
0
LINE
8
BLACK
6
CONTINUOUS
10
166.074
20
-126.374
11
166.36
21
-125.946
0
LINE
8
BLACK
6
CONTINUOUS
10
166.36
20
-125.946
11
166.503
21
-125.66
0
LINE
8
BLACK
6
CONTINUOUS
10
166.503
20
-125.66
11
166.646
21
-125.231
0
LINE
8
BLACK
6
CONTINUOUS
10
166.646
20
-125.231
11
166.788
21
-124.517
0
LINE
8
BLACK
6
CONTINUOUS
10
166.788
20
-124.517
11
166.788
21
-123.946
0
LINE
8
BLACK
6
CONTINUOUS
10
166.788
20
-123.946
11
166.646
21
-123.231
0
LINE
8
BLACK
6
CONTINUOUS
10
166.646
20
-123.231
11
166.503
21
-122.803
0
LINE
8
BLACK
6
CONTINUOUS
10
166.503
20
-122.803
11
166.36
21
-122.517
0
LINE
8
BLACK
6
CONTINUOUS
10
166.36
20
-122.517
11
166.074
21
-122.088
0
LINE
8
BLACK
6
CONTINUOUS
10
166.074
20
-122.088
11
165.931
21
-121.946
0
LINE
8
BLACK
6
CONTINUOUS
10
99.967
20
-127.427
11
101.067
21
-128.527
0
LINE
8
BLACK
6
CONTINUOUS
10
101.067
20
-127.427
11
99.967
21
-128.527
0
CIRCLE
8
BLACK
10
100.517
20
-127.977
40
0.55
0
LINE
8
BLACK
6
CONTINUOUS
10
105.503
20
-129.334
11
103.788
21
-129.334
0
LINE
8
BLACK
6
CONTINUOUS
10
104.646
20
-129.334
11
104.646
21
-126.334
0
LINE
8
BLACK
6
CONTINUOUS
10
104.646
20
-126.334
11
104.36
21
-126.763
0
LINE
8
BLACK
6
CONTINUOUS
10
104.36
20
-126.763
11
104.074
21
-127.048
0
LINE
8
BLACK
6
CONTINUOUS
10
104.074
20
-127.048
11
103.788
21
-127.191
0
LINE
8
BLACK
6
CONTINUOUS
10
106.788
20
-129.048
11
106.931
21
-129.191
0
LINE
8
BLACK
6
CONTINUOUS
10
106.931
20
-129.191
11
106.788
21
-129.334
0
LINE
8
BLACK
6
CONTINUOUS
10
106.788
20
-129.334
11
106.646
21
-129.191
0
LINE
8
BLACK
6
CONTINUOUS
10
106.646
20
-129.191
11
106.788
21
-129.048
0
LINE
8
BLACK
6
CONTINUOUS
10
106.788
20
-129.048
11
106.788
21
-129.334
0
LINE
8
BLACK
6
CONTINUOUS
10
109.788
20
-129.334
11
108.074
21
-129.334
0
LINE
8
BLACK
6
CONTINUOUS
10
108.931
20
-129.334
11
108.931
21
-126.334
0
LINE
8
BLACK
6
CONTINUOUS
10
108.931
20
-126.334
11
108.646
21
-126.763
0
LINE
8
BLACK
6
CONTINUOUS
10
108.646
20
-126.763
11
108.36
21
-127.048
0
LINE
8
BLACK
6
CONTINUOUS
10
108.36
20
-127.048
11
108.074
21
-127.191
0
LINE
8
BLACK
6
CONTINUOUS
10
111.646
20
-126.334
11
111.931
21
-126.334
0
LINE
8
BLACK
6
CONTINUOUS
10
111.931
20
-126.334
11
112.217
21
-126.477
0
LINE
8
BLACK
6
CONTINUOUS
10
112.217
20
-126.477
11
112.36
21
-126.62
0
LINE
8
BLACK
6
CONTINUOUS
10
112.36
20
-126.62
11
112.503
21
-126.906
0
LINE
8
BLACK
6
CONTINUOUS
10
112.503
20
-126.906
11
112.646
21
-127.477
0
LINE
8
BLACK
6
CONTINUOUS
10
112.646
20
-127.477
11
112.646
21
-128.191
0
LINE
8
BLACK
6
CONTINUOUS
10
112.646
20
-128.191
11
112.503
21
-128.763
0
LINE
8
BLACK
6
CONTINUOUS
10
112.503
20
-128.763
11
112.36
21
-129.048
0
LINE
8
BLACK
6
CONTINUOUS
10
112.36
20
-129.048
11
112.217
21
-129.191
0
LINE
8
BLACK
6
CONTINUOUS
10
112.217
20
-129.191
11
111.931
21
-129.334
0
LINE
8
BLACK
6
CONTINUOUS
10
111.931
20
-129.334
11
111.646
21
-129.334
0
LINE
8
BLACK
6
CONTINUOUS
10
111.646
20
-129.334
11
111.36
21
-129.191
0
LINE
8
BLACK
6
CONTINUOUS
10
111.36
20
-129.191
11
111.217
21
-129.048
0
LINE
8
BLACK
6
CONTINUOUS
10
111.217
20
-129.048
11
111.074
21
-128.763
0
LINE
8
BLACK
6
CONTINUOUS
10
111.074
20
-128.763
11
110.931
21
-128.191
0
LINE
8
BLACK
6
CONTINUOUS
10
110.931
20
-128.191
11
110.931
21
-127.477
0
LINE
8
BLACK
6
CONTINUOUS
10
110.931
20
-127.477
11
111.074
21
-126.906
0
LINE
8
BLACK
6
CONTINUOUS
10
111.074
20
-126.906
11
111.217
21
-126.62
0
LINE
8
BLACK
6
CONTINUOUS
10
111.217
20
-126.62
11
111.36
21
-126.477
0
LINE
8
BLACK
6
CONTINUOUS
10
111.36
20
-126.477
11
111.646
21
-126.334
0
LINE
8
BLACK
6
CONTINUOUS
10
113.931
20
-129.334
11
113.931
21
-127.334
0
LINE
8
BLACK
6
CONTINUOUS
10
113.931
20
-127.62
11
114.074
21
-127.477
0
LINE
8
BLACK
6
CONTINUOUS
10
114.074
20
-127.477
11
114.36
21
-127.334
0
LINE
8
BLACK
6
CONTINUOUS
10
114.36
20
-127.334
11
114.788
21
-127.334
0
LINE
8
BLACK
6
CONTINUOUS
10
114.788
20
-127.334
11
115.074
21
-127.477
0
LINE
8
BLACK
6
CONTINUOUS
10
115.074
20
-127.477
11
115.217
21
-127.763
0
LINE
8
BLACK
6
CONTINUOUS
10
115.217
20
-127.763
11
115.217
21
-129.334
0
LINE
8
BLACK
6
CONTINUOUS
10
115.217
20
-127.763
11
115.36
21
-127.477
0
LINE
8
BLACK
6
CONTINUOUS
10
115.36
20
-127.477
11
115.646
21
-127.334
0
LINE
8
BLACK
6
CONTINUOUS
10
115.646
20
-127.334
11
116.074
21
-127.334
0
LINE
8
BLACK
6
CONTINUOUS
10
116.074
20
-127.334
11
116.36
21
-127.477
0
LINE
8
BLACK
6
CONTINUOUS
10
116.36
20
-127.477
11
116.503
21
-127.763
0
LINE
8
BLACK
6
CONTINUOUS
10
116.503
20
-127.763
11
116.503
21
-129.334
0
LINE
8
BLACK
6
CONTINUOUS
10
117.931
20
-129.334
11
117.931
21
-127.334
0
LINE
8
BLACK
6
CONTINUOUS
10
117.931
20
-127.62
11
118.074
21
-127.477
0
LINE
8
BLACK
6
CONTINUOUS
10
118.074
20
-127.477
11
118.36
21
-127.334
0
LINE
8
BLACK
6
CONTINUOUS
10
118.36
20
-127.334
11
118.788
21
-127.334
0
LINE
8
BLACK
6
CONTINUOUS
10
118.788
20
-127.334
11
119.074
21
-127.477
0
LINE
8
BLACK
6
CONTINUOUS
10
119.074
20
-127.477
11
119.217
21
-127.763
0
LINE
8
BLACK
6
CONTINUOUS
10
119.217
20
-127.763
11
119.217
21
-129.334
0
LINE
8
BLACK
6
CONTINUOUS
10
119.217
20
-127.763
11
119.36
21
-127.477
0
LINE
8
BLACK
6
CONTINUOUS
10
119.36
20
-127.477
11
119.646
21
-127.334
0
LINE
8
BLACK
6
CONTINUOUS
10
119.646
20
-127.334
11
120.074
21
-127.334
0
LINE
8
BLACK
6
CONTINUOUS
10
120.074
20
-127.334
11
120.36
21
-127.477
0
LINE
8
BLACK
6
CONTINUOUS
10
120.36
20
-127.477
11
120.503
21
-127.763
0
LINE
8
BLACK
6
CONTINUOUS
10
120.503
20
-127.763
11
120.503
21
-129.334
0
LINE
8
BLACK
6
CONTINUOUS
10
126.36
20
-126.191
11
123.788
21
-130.048
0
LINE
8
BLACK
6
CONTINUOUS
10
130.217
20
-126.334
11
130.503
21
-126.334
0
LINE
8
BLACK
6
CONTINUOUS
10
130.503
20
-126.334
11
130.788
21
-126.477
0
LINE
8
BLACK
6
CONTINUOUS
10
130.788
20
-126.477
11
130.931
21
-126.62
0
LINE
8
BLACK
6
CONTINUOUS
10
130.931
20
-126.62
11
131.074
21
-126.906
0
LINE
8
BLACK
6
CONTINUOUS
10
131.074
20
-126.906
11
131.217
21
-127.477
0
LINE
8
BLACK
6
CONTINUOUS
10
131.217
20
-127.477
11
131.217
21
-128.191
0
LINE
8
BLACK
6
CONTINUOUS
10
131.217
20
-128.191
11
131.074
21
-128.763
0
LINE
8
BLACK
6
CONTINUOUS
10
131.074
20
-128.763
11
130.931
21
-129.048
0
LINE
8
BLACK
6
CONTINUOUS
10
130.931
20
-129.048
11
130.788
21
-129.191
0
LINE
8
BLACK
6
CONTINUOUS
10
130.788
20
-129.191
11
130.503
21
-129.334
0
LINE
8
BLACK
6
CONTINUOUS
10
130.503
20
-129.334
11
130.217
21
-129.334
0
LINE
8
BLACK
6
CONTINUOUS
10
130.217
20
-129.334
11
129.931
21
-129.191
0
LINE
8
BLACK
6
CONTINUOUS
10
129.931
20
-129.191
11
129.788
21
-129.048
0
LINE
8
BLACK
6
CONTINUOUS
10
129.788
20
-129.048
11
129.646
21
-128.763
0
LINE
8
BLACK
6
CONTINUOUS
10
129.646
20
-128.763
11
129.503
21
-128.191
0
LINE
8
BLACK
6
CONTINUOUS
10
129.503
20
-128.191
11
129.503
21
-127.477
0
LINE
8
BLACK
6
CONTINUOUS
10
129.503
20
-127.477
11
129.646
21
-126.906
0
LINE
8
BLACK
6
CONTINUOUS
10
129.646
20
-126.906
11
129.788
21
-126.62
0
LINE
8
BLACK
6
CONTINUOUS
10
129.788
20
-126.62
11
129.931
21
-126.477
0
LINE
8
BLACK
6
CONTINUOUS
10
129.931
20
-126.477
11
130.217
21
-126.334
0
LINE
8
BLACK
6
CONTINUOUS
10
132.503
20
-129.048
11
132.646
21
-129.191
0
LINE
8
BLACK
6
CONTINUOUS
10
132.646
20
-129.191
11
132.503
21
-129.334
0
LINE
8
BLACK
6
CONTINUOUS
10
132.503
20
-129.334
11
132.36
21
-129.191
0
LINE
8
BLACK
6
CONTINUOUS
10
132.36
20
-129.191
11
132.503
21
-129.048
0
LINE
8
BLACK
6
CONTINUOUS
10
132.503
20
-129.048
11
132.503
21
-129.334
0
LINE
8
BLACK
6
CONTINUOUS
10
134.503
20
-126.334
11
134.788
21
-126.334
0
LINE
8
BLACK
6
CONTINUOUS
10
134.788
20
-126.334
11
135.074
21
-126.477
0
LINE
8
BLACK
6
CONTINUOUS
10
135.074
20
-126.477
11
135.217
21
-126.62
0
LINE
8
BLACK
6
CONTINUOUS
10
135.217
20
-126.62
11
135.36
21
-126.906
0
LINE
8
BLACK
6
CONTINUOUS
10
135.36
20
-126.906
11
135.503
21
-127.477
0
LINE
8
BLACK
6
CONTINUOUS
10
135.503
20
-127.477
11
135.503
21
-128.191
0
LINE
8
BLACK
6
CONTINUOUS
10
135.503
20
-128.191
11
135.36
21
-128.763
0
LINE
8
BLACK
6
CONTINUOUS
10
135.36
20
-128.763
11
135.217
21
-129.048
0
LINE
8
BLACK
6
CONTINUOUS
10
135.217
20
-129.048
11
135.074
21
-129.191
0
LINE
8
BLACK
6
CONTINUOUS
10
135.074
20
-129.191
11
134.788
21
-129.334
0
LINE
8
BLACK
6
CONTINUOUS
10
134.788
20
-129.334
11
134.503
21
-129.334
0
LINE
8
BLACK
6
CONTINUOUS
10
134.503
20
-129.334
11
134.217
21
-129.191
0
LINE
8
BLACK
6
CONTINUOUS
10
134.217
20
-129.191
11
134.074
21
-129.048
0
LINE
8
BLACK
6
CONTINUOUS
10
134.074
20
-129.048
11
133.931
21
-128.763
0
LINE
8
BLACK
6
CONTINUOUS
10
133.931
20
-128.763
11
133.788
21
-128.191
0
LINE
8
BLACK
6
CONTINUOUS
10
133.788
20
-128.191
11
133.788
21
-127.477
0
LINE
8
BLACK
6
CONTINUOUS
10
133.788
20
-127.477
11
133.931
21
-126.906
0
LINE
8
BLACK
6
CONTINUOUS
10
133.931
20
-126.906
11
134.074
21
-126.62
0
LINE
8
BLACK
6
CONTINUOUS
10
134.074
20
-126.62
11
134.217
21
-126.477
0
LINE
8
BLACK
6
CONTINUOUS
10
134.217
20
-126.477
11
134.503
21
-126.334
0
LINE
8
BLACK
6
CONTINUOUS
10
138.074
20
-127.334
11
138.074
21
-129.334
0
LINE
8
BLACK
6
CONTINUOUS
10
137.36
20
-126.191
11
136.646
21
-128.334
0
LINE
8
BLACK
6
CONTINUOUS
10
136.646
20
-128.334
11
138.503
21
-128.334
0
LINE
8
BLACK
6
CONTINUOUS
10
139.36
20
-126.334
11
141.217
21
-126.334
0
LINE
8
BLACK
6
CONTINUOUS
10
141.217
20
-126.334
11
140.217
21
-127.477
0
LINE
8
BLACK
6
CONTINUOUS
10
140.217
20
-127.477
11
140.646
21
-127.477
0
LINE
8
BLACK
6
CONTINUOUS
10
140.646
20
-127.477
11
140.931
21
-127.62
0
LINE
8
BLACK
6
CONTINUOUS
10
140.931
20
-127.62
11
141.074
21
-127.763
0
LINE
8
BLACK
6
CONTINUOUS
10
141.074
20
-127.763
11
141.217
21
-128.048
0
LINE
8
BLACK
6
CONTINUOUS
10
141.217
20
-128.048
11
141.217
21
-128.763
0
LINE
8
BLACK
6
CONTINUOUS
10
141.217
20
-128.763
11
141.074
21
-129.048
0
LINE
8
BLACK
6
CONTINUOUS
10
141.074
20
-129.048
11
140.931
21
-129.191
0
LINE
8
BLACK
6
CONTINUOUS
10
140.931
20
-129.191
11
140.646
21
-129.334
0
LINE
8
BLACK
6
CONTINUOUS
10
140.646
20
-129.334
11
139.788
21
-129.334
0
LINE
8
BLACK
6
CONTINUOUS
10
139.788
20
-129.334
11
139.503
21
-129.191
0
LINE
8
BLACK
6
CONTINUOUS
10
139.503
20
-129.191
11
139.36
21
-129.048
0
LINE
8
BLACK
6
CONTINUOUS
10
142.36
20
-126.334
11
142.36
21
-126.906
0
LINE
8
BLACK
6
CONTINUOUS
10
143.503
20
-126.334
11
143.503
21
-126.906
0
LINE
8
BLACK
6
CONTINUOUS
10
147.931
20
-130.477
11
147.788
21
-130.334
0
LINE
8
BLACK
6
CONTINUOUS
10
147.788
20
-130.334
11
147.503
21
-129.906
0
LINE
8
BLACK
6
CONTINUOUS
10
147.503
20
-129.906
11
147.36
21
-129.62
0
LINE
8
BLACK
6
CONTINUOUS
10
147.36
20
-129.62
11
147.217
21
-129.191
0
LINE
8
BLACK
6
CONTINUOUS
10
147.217
20
-129.191
11
147.074
21
-128.477
0
LINE
8
BLACK
6
CONTINUOUS
10
147.074
20
-128.477
11
147.074
21
-127.906
0
LINE
8
BLACK
6
CONTINUOUS
10
147.074
20
-127.906
11
147.217
21
-127.191
0
LINE
8
BLACK
6
CONTINUOUS
10
147.217
20
-127.191
11
147.36
21
-126.763
0
LINE
8
BLACK
6
CONTINUOUS
10
147.36
20
-126.763
11
147.503
21
-126.477
0
LINE
8
BLACK
6
CONTINUOUS
10
147.503
20
-126.477
11
147.788
21
-126.048
0
LINE
8
BLACK
6
CONTINUOUS
10
147.788
20
-126.048
11
147.931
21
-125.906
0
LINE
8
BLACK
6
CONTINUOUS
10
149.217
20
-129.334
11
149.788
21
-129.334
0
LINE
8
BLACK
6
CONTINUOUS
10
149.788
20
-129.334
11
150.074
21
-129.191
0
LINE
8
BLACK
6
CONTINUOUS
10
150.074
20
-129.191
11
150.217
21
-129.048
0
LINE
8
BLACK
6
CONTINUOUS
10
150.217
20
-129.048
11
150.503
21
-128.62
0
LINE
8
BLACK
6
CONTINUOUS
10
150.503
20
-128.62
11
150.646
21
-128.048
0
LINE
8
BLACK
6
CONTINUOUS
10
150.646
20
-128.048
11
150.646
21
-126.906
0
LINE
8
BLACK
6
CONTINUOUS
10
150.646
20
-126.906
11
150.503
21
-126.62
0
LINE
8
BLACK
6
CONTINUOUS
10
150.503
20
-126.62
11
150.36
21
-126.477
0
LINE
8
BLACK
6
CONTINUOUS
10
150.36
20
-126.477
11
150.074
21
-126.334
0
LINE
8
BLACK
6
CONTINUOUS
10
150.074
20
-126.334
11
149.503
21
-126.334
0
LINE
8
BLACK
6
CONTINUOUS
10
149.503
20
-126.334
11
149.217
21
-126.477
0
LINE
8
BLACK
6
CONTINUOUS
10
149.217
20
-126.477
11
149.074
21
-126.62
0
LINE
8
BLACK
6
CONTINUOUS
10
149.074
20
-126.62
11
148.931
21
-126.906
0
LINE
8
BLACK
6
CONTINUOUS
10
148.931
20
-126.906
11
148.931
21
-127.62
0
LINE
8
BLACK
6
CONTINUOUS
10
148.931
20
-127.62
11
149.074
21
-127.906
0
LINE
8
BLACK
6
CONTINUOUS
10
149.074
20
-127.906
11
149.217
21
-128.048
0
LINE
8
BLACK
6
CONTINUOUS
10
149.217
20
-128.048
11
149.503
21
-128.191
0
LINE
8
BLACK
6
CONTINUOUS
10
149.503
20
-128.191
11
150.074
21
-128.191
0
LINE
8
BLACK
6
CONTINUOUS
10
150.074
20
-128.191
11
150.36
21
-128.048
0
LINE
8
BLACK
6
CONTINUOUS
10
150.36
20
-128.048
11
150.503
21
-127.906
0
LINE
8
BLACK
6
CONTINUOUS
10
150.503
20
-127.906
11
150.646
21
-127.62
0
LINE
8
BLACK
6
CONTINUOUS
10
154.217
20
-129.334
11
154.217
21
-126.334
0
LINE
8
BLACK
6
CONTINUOUS
10
155.503
20
-129.334
11
155.503
21
-127.763
0
LINE
8
BLACK
6
CONTINUOUS
10
155.503
20
-127.763
11
155.36
21
-127.477
0
LINE
8
BLACK
6
CONTINUOUS
10
155.36
20
-127.477
11
155.074
21
-127.334
0
LINE
8
BLACK
6
CONTINUOUS
10
155.074
20
-127.334
11
154.646
21
-127.334
0
LINE
8
BLACK
6
CONTINUOUS
10
154.646
20
-127.334
11
154.36
21
-127.477
0
LINE
8
BLACK
6
CONTINUOUS
10
154.36
20
-127.477
11
154.217
21
-127.62
0
LINE
8
BLACK
6
CONTINUOUS
10
157.36
20
-129.334
11
157.074
21
-129.191
0
LINE
8
BLACK
6
CONTINUOUS
10
157.074
20
-129.191
11
156.931
21
-129.048
0
LINE
8
BLACK
6
CONTINUOUS
10
156.931
20
-129.048
11
156.788
21
-128.763
0
LINE
8
BLACK
6
CONTINUOUS
10
156.788
20
-128.763
11
156.788
21
-127.906
0
LINE
8
BLACK
6
CONTINUOUS
10
156.788
20
-127.906
11
156.931
21
-127.62
0
LINE
8
BLACK
6
CONTINUOUS
10
156.931
20
-127.62
11
157.074
21
-127.477
0
LINE
8
BLACK
6
CONTINUOUS
10
157.074
20
-127.477
11
157.36
21
-127.334
0
LINE
8
BLACK
6
CONTINUOUS
10
157.36
20
-127.334
11
157.788
21
-127.334
0
LINE
8
BLACK
6
CONTINUOUS
10
157.788
20
-127.334
11
158.074
21
-127.477
0
LINE
8
BLACK
6
CONTINUOUS
10
158.074
20
-127.477
11
158.217
21
-127.62
0
LINE
8
BLACK
6
CONTINUOUS
10
158.217
20
-127.62
11
158.36
21
-127.906
0
LINE
8
BLACK
6
CONTINUOUS
10
158.36
20
-127.906
11
158.36
21
-128.763
0
LINE
8
BLACK
6
CONTINUOUS
10
158.36
20
-128.763
11
158.217
21
-129.048
0
LINE
8
BLACK
6
CONTINUOUS
10
158.217
20
-129.048
11
158.074
21
-129.191
0
LINE
8
BLACK
6
CONTINUOUS
10
158.074
20
-129.191
11
157.788
21
-129.334
0
LINE
8
BLACK
6
CONTINUOUS
10
157.788
20
-129.334
11
157.36
21
-129.334
0
LINE
8
BLACK
6
CONTINUOUS
10
160.074
20
-129.334
11
159.788
21
-129.191
0
LINE
8
BLACK
6
CONTINUOUS
10
159.788
20
-129.191
11
159.646
21
-128.906
0
LINE
8
BLACK
6
CONTINUOUS
10
159.646
20
-128.906
11
159.646
21
-126.334
0
LINE
8
BLACK
6
CONTINUOUS
10
162.36
20
-129.191
11
162.074
21
-129.334
0
LINE
8
BLACK
6
CONTINUOUS
10
162.074
20
-129.334
11
161.503
21
-129.334
0
LINE
8
BLACK
6
CONTINUOUS
10
161.503
20
-129.334
11
161.217
21
-129.191
0
LINE
8
BLACK
6
CONTINUOUS
10
161.217
20
-129.191
11
161.074
21
-128.906
0
LINE
8
BLACK
6
CONTINUOUS
10
161.074
20
-128.906
11
161.074
21
-127.763
0
LINE
8
BLACK
6
CONTINUOUS
10
161.074
20
-127.763
11
161.217
21
-127.477
0
LINE
8
BLACK
6
CONTINUOUS
10
161.217
20
-127.477
11
161.503
21
-127.334
0
LINE
8
BLACK
6
CONTINUOUS
10
161.503
20
-127.334
11
162.074
21
-127.334
0
LINE
8
BLACK
6
CONTINUOUS
10
162.074
20
-127.334
11
162.36
21
-127.477
0
LINE
8
BLACK
6
CONTINUOUS
10
162.36
20
-127.477
11
162.503
21
-127.763
0
LINE
8
BLACK
6
CONTINUOUS
10
162.503
20
-127.763
11
162.503
21
-128.048
0
LINE
8
BLACK
6
CONTINUOUS
10
162.503
20
-128.048
11
161.074
21
-128.334
0
LINE
8
BLACK
6
CONTINUOUS
10
163.646
20
-129.191
11
163.931
21
-129.334
0
LINE
8
BLACK
6
CONTINUOUS
10
163.931
20
-129.334
11
164.503
21
-129.334
0
LINE
8
BLACK
6
CONTINUOUS
10
164.503
20
-129.334
11
164.788
21
-129.191
0
LINE
8
BLACK
6
CONTINUOUS
10
164.788
20
-129.191
11
164.931
21
-128.906
0
LINE
8
BLACK
6
CONTINUOUS
10
164.931
20
-128.906
11
164.931
21
-128.763
0
LINE
8
BLACK
6
CONTINUOUS
10
164.931
20
-128.763
11
164.788
21
-128.477
0
LINE
8
BLACK
6
CONTINUOUS
10
164.788
20
-128.477
11
164.503
21
-128.334
0
LINE
8
BLACK
6
CONTINUOUS
10
164.503
20
-128.334
11
164.074
21
-128.334
0
LINE
8
BLACK
6
CONTINUOUS
10
164.074
20
-128.334
11
163.788
21
-128.191
0
LINE
8
BLACK
6
CONTINUOUS
10
163.788
20
-128.191
11
163.646
21
-127.906
0
LINE
8
BLACK
6
CONTINUOUS
10
163.646
20
-127.906
11
163.646
21
-127.763
0
LINE
8
BLACK
6
CONTINUOUS
10
163.646
20
-127.763
11
163.788
21
-127.477
0
LINE
8
BLACK
6
CONTINUOUS
10
163.788
20
-127.477
11
164.074
21
-127.334
0
LINE
8
BLACK
6
CONTINUOUS
10
164.074
20
-127.334
11
164.503
21
-127.334
0
LINE
8
BLACK
6
CONTINUOUS
10
164.503
20
-127.334
11
164.788
21
-127.477
0
LINE
8
BLACK
6
CONTINUOUS
10
165.931
20
-130.477
11
166.074
21
-130.334
0
LINE
8
BLACK
6
CONTINUOUS
10
166.074
20
-130.334
11
166.36
21
-129.906
0
LINE
8
BLACK
6
CONTINUOUS
10
166.36
20
-129.906
11
166.503
21
-129.62
0
LINE
8
BLACK
6
CONTINUOUS
10
166.503
20
-129.62
11
166.646
21
-129.191
0
LINE
8
BLACK
6
CONTINUOUS
10
166.646
20
-129.191
11
166.788
21
-128.477
0
LINE
8
BLACK
6
CONTINUOUS
10
166.788
20
-128.477
11
166.788
21
-127.906
0
LINE
8
BLACK
6
CONTINUOUS
10
166.788
20
-127.906
11
166.646
21
-127.191
0
LINE
8
BLACK
6
CONTINUOUS
10
166.646
20
-127.191
11
166.503
21
-126.763
0
LINE
8
BLACK
6
CONTINUOUS
10
166.503
20
-126.763
11
166.36
21
-126.477
0
LINE
8
BLACK
6
CONTINUOUS
10
166.36
20
-126.477
11
166.074
21
-126.048
0
LINE
8
BLACK
6
CONTINUOUS
10
166.074
20
-126.048
11
165.931
21
-125.906
0
LINE
8
BLACK
6
CONTINUOUS
10
99.547
20
-131.177
11
101.067
21
-132.697
0
LINE
8
BLACK
6
CONTINUOUS
10
101.067
20
-131.177
11
99.547
21
-132.697
0
LINE
8
BLACK
6
CONTINUOUS
10
100.307
20
-131.177
11
100.307
21
-132.697
0
LINE
8
BLACK
6
CONTINUOUS
10
99.547
20
-131.937
11
101.067
21
-131.937
0
LINE
8
BLACK
6
CONTINUOUS
10
105.503
20
-133.294
11
103.788
21
-133.294
0
LINE
8
BLACK
6
CONTINUOUS
10
104.646
20
-133.294
11
104.646
21
-130.294
0
LINE
8
BLACK
6
CONTINUOUS
10
104.646
20
-130.294
11
104.36
21
-130.723
0
LINE
8
BLACK
6
CONTINUOUS
10
104.36
20
-130.723
11
104.074
21
-131.008
0
LINE
8
BLACK
6
CONTINUOUS
10
104.074
20
-131.008
11
103.788
21
-131.151
0
LINE
8
BLACK
6
CONTINUOUS
10
106.788
20
-133.008
11
106.931
21
-133.151
0
LINE
8
BLACK
6
CONTINUOUS
10
106.931
20
-133.151
11
106.788
21
-133.294
0
LINE
8
BLACK
6
CONTINUOUS
10
106.788
20
-133.294
11
106.646
21
-133.151
0
LINE
8
BLACK
6
CONTINUOUS
10
106.646
20
-133.151
11
106.788
21
-133.008
0
LINE
8
BLACK
6
CONTINUOUS
10
106.788
20
-133.008
11
106.788
21
-133.294
0
LINE
8
BLACK
6
CONTINUOUS
10
109.646
20
-130.294
11
108.217
21
-130.294
0
LINE
8
BLACK
6
CONTINUOUS
10
108.217
20
-130.294
11
108.074
21
-131.723
0
LINE
8
BLACK
6
CONTINUOUS
10
108.074
20
-131.723
11
108.217
21
-131.58
0
LINE
8
BLACK
6
CONTINUOUS
10
108.217
20
-131.58
11
108.503
21
-131.437
0
LINE
8
BLACK
6
CONTINUOUS
10
108.503
20
-131.437
11
109.217
21
-131.437
0
LINE
8
BLACK
6
CONTINUOUS
10
109.217
20
-131.437
11
109.503
21
-131.58
0
LINE
8
BLACK
6
CONTINUOUS
10
109.503
20
-131.58
11
109.646
21
-131.723
0
LINE
8
BLACK
6
CONTINUOUS
10
109.646
20
-131.723
11
109.788
21
-132.008
0
LINE
8
BLACK
6
CONTINUOUS
10
109.788
20
-132.008
11
109.788
21
-132.723
0
LINE
8
BLACK
6
CONTINUOUS
10
109.788
20
-132.723
11
109.646
21
-133.008
0
LINE
8
BLACK
6
CONTINUOUS
10
109.646
20
-133.008
11
109.503
21
-133.151
0
LINE
8
BLACK
6
CONTINUOUS
10
109.503
20
-133.151
11
109.217
21
-133.294
0
LINE
8
BLACK
6
CONTINUOUS
10
109.217
20
-133.294
11
108.503
21
-133.294
0
LINE
8
BLACK
6
CONTINUOUS
10
108.503
20
-133.294
11
108.217
21
-133.151
0
LINE
8
BLACK
6
CONTINUOUS
10
108.217
20
-133.151
11
108.074
21
-133.008
0
LINE
8
BLACK
6
CONTINUOUS
10
110.931
20
-130.58
11
111.074
21
-130.437
0
LINE
8
BLACK
6
CONTINUOUS
10
111.074
20
-130.437
11
111.36
21
-130.294
0
LINE
8
BLACK
6
CONTINUOUS
10
111.36
20
-130.294
11
112.074
21
-130.294
0
LINE
8
BLACK
6
CONTINUOUS
10
112.074
20
-130.294
11
112.36
21
-130.437
0
LINE
8
BLACK
6
CONTINUOUS
10
112.36
20
-130.437
11
112.503
21
-130.58
0
LINE
8
BLACK
6
CONTINUOUS
10
112.503
20
-130.58
11
112.646
21
-130.866
0
LINE
8
BLACK
6
CONTINUOUS
10
112.646
20
-130.866
11
112.646
21
-131.151
0
LINE
8
BLACK
6
CONTINUOUS
10
112.646
20
-131.151
11
112.503
21
-131.58
0
LINE
8
BLACK
6
CONTINUOUS
10
112.503
20
-131.58
11
110.788
21
-133.294
0
LINE
8
BLACK
6
CONTINUOUS
10
110.788
20
-133.294
11
112.646
21
-133.294
0
LINE
8
BLACK
6
CONTINUOUS
10
113.931
20
-133.294
11
113.931
21
-131.294
0
LINE
8
BLACK
6
CONTINUOUS
10
113.931
20
-131.58
11
114.074
21
-131.437
0
LINE
8
BLACK
6
CONTINUOUS
10
114.074
20
-131.437
11
114.36
21
-131.294
0
LINE
8
BLACK
6
CONTINUOUS
10
114.36
20
-131.294
11
114.788
21
-131.294
0
LINE
8
BLACK
6
CONTINUOUS
10
114.788
20
-131.294
11
115.074
21
-131.437
0
LINE
8
BLACK
6
CONTINUOUS
10
115.074
20
-131.437
11
115.217
21
-131.723
0
LINE
8
BLACK
6
CONTINUOUS
10
115.217
20
-131.723
11
115.217
21
-133.294
0
LINE
8
BLACK
6
CONTINUOUS
10
115.217
20
-131.723
11
115.36
21
-131.437
0
LINE
8
BLACK
6
CONTINUOUS
10
115.36
20
-131.437
11
115.646
21
-131.294
0
LINE
8
BLACK
6
CONTINUOUS
10
115.646
20
-131.294
11
116.074
21
-131.294
0
LINE
8
BLACK
6
CONTINUOUS
10
116.074
20
-131.294
11
116.36
21
-131.437
0
LINE
8
BLACK
6
CONTINUOUS
10
116.36
20
-131.437
11
116.503
21
-131.723
0
LINE
8
BLACK
6
CONTINUOUS
10
116.503
20
-131.723
11
116.503
21
-133.294
0
LINE
8
BLACK
6
CONTINUOUS
10
117.931
20
-133.294
11
117.931
21
-131.294
0
LINE
8
BLACK
6
CONTINUOUS
10
117.931
20
-131.58
11
118.074
21
-131.437
0
LINE
8
BLACK
6
CONTINUOUS
10
118.074
20
-131.437
11
118.36
21
-131.294
0
LINE
8
BLACK
6
CONTINUOUS
10
118.36
20
-131.294
11
118.788
21
-131.294
0
LINE
8
BLACK
6
CONTINUOUS
10
118.788
20
-131.294
11
119.074
21
-131.437
0
LINE
8
BLACK
6
CONTINUOUS
10
119.074
20
-131.437
11
119.217
21
-131.723
0
LINE
8
BLACK
6
CONTINUOUS
10
119.217
20
-131.723
11
119.217
21
-133.294
0
LINE
8
BLACK
6
CONTINUOUS
10
119.217
20
-131.723
11
119.36
21
-131.437
0
LINE
8
BLACK
6
CONTINUOUS
10
119.36
20
-131.437
11
119.646
21
-131.294
0
LINE
8
BLACK
6
CONTINUOUS
10
119.646
20
-131.294
11
120.074
21
-131.294
0
LINE
8
BLACK
6
CONTINUOUS
10
120.074
20
-131.294
11
120.36
21
-131.437
0
LINE
8
BLACK
6
CONTINUOUS
10
120.36
20
-131.437
11
120.503
21
-131.723
0
LINE
8
BLACK
6
CONTINUOUS
10
120.503
20
-131.723
11
120.503
21
-133.294
0
LINE
8
BLACK
6
CONTINUOUS
10
126.36
20
-130.151
11
123.788
21
-134.008
0
LINE
8
BLACK
6
CONTINUOUS
10
130.217
20
-130.294
11
130.503
21
-130.294
0
LINE
8
BLACK
6
CONTINUOUS
10
130.503
20
-130.294
11
130.788
21
-130.437
0
LINE
8
BLACK
6
CONTINUOUS
10
130.788
20
-130.437
11
130.931
21
-130.58
0
LINE
8
BLACK
6
CONTINUOUS
10
130.931
20
-130.58
11
131.074
21
-130.866
0
LINE
8
BLACK
6
CONTINUOUS
10
131.074
20
-130.866
11
131.217
21
-131.437
0
LINE
8
BLACK
6
CONTINUOUS
10
131.217
20
-131.437
11
131.217
21
-132.151
0
LINE
8
BLACK
6
CONTINUOUS
10
131.217
20
-132.151
11
131.074
21
-132.723
0
LINE
8
BLACK
6
CONTINUOUS
10
131.074
20
-132.723
11
130.931
21
-133.008
0
LINE
8
BLACK
6
CONTINUOUS
10
130.931
20
-133.008
11
130.788
21
-133.151
0
LINE
8
BLACK
6
CONTINUOUS
10
130.788
20
-133.151
11
130.503
21
-133.294
0
LINE
8
BLACK
6
CONTINUOUS
10
130.503
20
-133.294
11
130.217
21
-133.294
0
LINE
8
BLACK
6
CONTINUOUS
10
130.217
20
-133.294
11
129.931
21
-133.151
0
LINE
8
BLACK
6
CONTINUOUS
10
129.931
20
-133.151
11
129.788
21
-133.008
0
LINE
8
BLACK
6
CONTINUOUS
10
129.788
20
-133.008
11
129.646
21
-132.723
0
LINE
8
BLACK
6
CONTINUOUS
10
129.646
20
-132.723
11
129.503
21
-132.151
0
LINE
8
BLACK
6
CONTINUOUS
10
129.503
20
-132.151
11
129.503
21
-131.437
0
LINE
8
BLACK
6
CONTINUOUS
10
129.503
20
-131.437
11
129.646
21
-130.866
0
LINE
8
BLACK
6
CONTINUOUS
10
129.646
20
-130.866
11
129.788
21
-130.58
0
LINE
8
BLACK
6
CONTINUOUS
10
129.788
20
-130.58
11
129.931
21
-130.437
0
LINE
8
BLACK
6
CONTINUOUS
10
129.931
20
-130.437
11
130.217
21
-130.294
0
LINE
8
BLACK
6
CONTINUOUS
10
132.503
20
-133.008
11
132.646
21
-133.151
0
LINE
8
BLACK
6
CONTINUOUS
10
132.646
20
-133.151
11
132.503
21
-133.294
0
LINE
8
BLACK
6
CONTINUOUS
10
132.503
20
-133.294
11
132.36
21
-133.151
0
LINE
8
BLACK
6
CONTINUOUS
10
132.36
20
-133.151
11
132.503
21
-133.008
0
LINE
8
BLACK
6
CONTINUOUS
10
132.503
20
-133.008
11
132.503
21
-133.294
0
LINE
8
BLACK
6
CONTINUOUS
10
134.503
20
-130.294
11
134.788
21
-130.294
0
LINE
8
BLACK
6
CONTINUOUS
10
134.788
20
-130.294
11
135.074
21
-130.437
0
LINE
8
BLACK
6
CONTINUOUS
10
135.074
20
-130.437
11
135.217
21
-130.58
0
LINE
8
BLACK
6
CONTINUOUS
10
135.217
20
-130.58
11
135.36
21
-130.866
0
LINE
8
BLACK
6
CONTINUOUS
10
135.36
20
-130.866
11
135.503
21
-131.437
0
LINE
8
BLACK
6
CONTINUOUS
10
135.503
20
-131.437
11
135.503
21
-132.151
0
LINE
8
BLACK
6
CONTINUOUS
10
135.503
20
-132.151
11
135.36
21
-132.723
0
LINE
8
BLACK
6
CONTINUOUS
10
135.36
20
-132.723
11
135.217
21
-133.008
0
LINE
8
BLACK
6
CONTINUOUS
10
135.217
20
-133.008
11
135.074
21
-133.151
0
LINE
8
BLACK
6
CONTINUOUS
10
135.074
20
-133.151
11
134.788
21
-133.294
0
LINE
8
BLACK
6
CONTINUOUS
10
134.788
20
-133.294
11
134.503
21
-133.294
0
LINE
8
BLACK
6
CONTINUOUS
10
134.503
20
-133.294
11
134.217
21
-133.151
0
LINE
8
BLACK
6
CONTINUOUS
10
134.217
20
-133.151
11
134.074
21
-133.008
0
LINE
8
BLACK
6
CONTINUOUS
10
134.074
20
-133.008
11
133.931
21
-132.723
0
LINE
8
BLACK
6
CONTINUOUS
10
133.931
20
-132.723
11
133.788
21
-132.151
0
LINE
8
BLACK
6
CONTINUOUS
10
133.788
20
-132.151
11
133.788
21
-131.437
0
LINE
8
BLACK
6
CONTINUOUS
10
133.788
20
-131.437
11
133.931
21
-130.866
0
LINE
8
BLACK
6
CONTINUOUS
10
133.931
20
-130.866
11
134.074
21
-130.58
0
LINE
8
BLACK
6
CONTINUOUS
10
134.074
20
-130.58
11
134.217
21
-130.437
0
LINE
8
BLACK
6
CONTINUOUS
10
134.217
20
-130.437
11
134.503
21
-130.294
0
LINE
8
BLACK
6
CONTINUOUS
10
138.074
20
-130.294
11
137.503
21
-130.294
0
LINE
8
BLACK
6
CONTINUOUS
10
137.503
20
-130.294
11
137.217
21
-130.437
0
LINE
8
BLACK
6
CONTINUOUS
10
137.217
20
-130.437
11
137.074
21
-130.58
0
LINE
8
BLACK
6
CONTINUOUS
10
137.074
20
-130.58
11
136.788
21
-131.008
0
LINE
8
BLACK
6
CONTINUOUS
10
136.788
20
-131.008
11
136.646
21
-131.58
0
LINE
8
BLACK
6
CONTINUOUS
10
136.646
20
-131.58
11
136.646
21
-132.723
0
LINE
8
BLACK
6
CONTINUOUS
10
136.646
20
-132.723
11
136.788
21
-133.008
0
LINE
8
BLACK
6
CONTINUOUS
10
136.788
20
-133.008
11
136.931
21
-133.151
0
LINE
8
BLACK
6
CONTINUOUS
10
136.931
20
-133.151
11
137.217
21
-133.294
0
LINE
8
BLACK
6
CONTINUOUS
10
137.217
20
-133.294
11
137.788
21
-133.294
0
LINE
8
BLACK
6
CONTINUOUS
10
137.788
20
-133.294
11
138.074
21
-133.151
0
LINE
8
BLACK
6
CONTINUOUS
10
138.074
20
-133.151
11
138.217
21
-133.008
0
LINE
8
BLACK
6
CONTINUOUS
10
138.217
20
-133.008
11
138.36
21
-132.723
0
LINE
8
BLACK
6
CONTINUOUS
10
138.36
20
-132.723
11
138.36
21
-132.008
0
LINE
8
BLACK
6
CONTINUOUS
10
138.36
20
-132.008
11
138.217
21
-131.723
0
LINE
8
BLACK
6
CONTINUOUS
10
138.217
20
-131.723
11
138.074
21
-131.58
0
LINE
8
BLACK
6
CONTINUOUS
10
138.074
20
-131.58
11
137.788
21
-131.437
0
LINE
8
BLACK
6
CONTINUOUS
10
137.788
20
-131.437
11
137.217
21
-131.437
0
LINE
8
BLACK
6
CONTINUOUS
10
137.217
20
-131.437
11
136.931
21
-131.58
0
LINE
8
BLACK
6
CONTINUOUS
10
136.931
20
-131.58
11
136.788
21
-131.723
0
LINE
8
BLACK
6
CONTINUOUS
10
136.788
20
-131.723
11
136.646
21
-132.008
0
LINE
8
BLACK
6
CONTINUOUS
10
140.217
20
-130.294
11
140.503
21
-130.294
0
LINE
8
BLACK
6
CONTINUOUS
10
140.503
20
-130.294
11
140.788
21
-130.437
0
LINE
8
BLACK
6
CONTINUOUS
10
140.788
20
-130.437
11
140.931
21
-130.58
0
LINE
8
BLACK
6
CONTINUOUS
10
140.931
20
-130.58
11
141.074
21
-130.866
0
LINE
8
BLACK
6
CONTINUOUS
10
141.074
20
-130.866
11
141.217
21
-131.437
0
LINE
8
BLACK
6
CONTINUOUS
10
141.217
20
-131.437
11
141.217
21
-132.151
0
LINE
8
BLACK
6
CONTINUOUS
10
141.217
20
-132.151
11
141.074
21
-132.723
0
LINE
8
BLACK
6
CONTINUOUS
10
141.074
20
-132.723
11
140.931
21
-133.008
0
LINE
8
BLACK
6
CONTINUOUS
10
140.931
20
-133.008
11
140.788
21
-133.151
0
LINE
8
BLACK
6
CONTINUOUS
10
140.788
20
-133.151
11
140.503
21
-133.294
0
LINE
8
BLACK
6
CONTINUOUS
10
140.503
20
-133.294
11
140.217
21
-133.294
0
LINE
8
BLACK
6
CONTINUOUS
10
140.217
20
-133.294
11
139.931
21
-133.151
0
LINE
8
BLACK
6
CONTINUOUS
10
139.931
20
-133.151
11
139.788
21
-133.008
0
LINE
8
BLACK
6
CONTINUOUS
10
139.788
20
-133.008
11
139.646
21
-132.723
0
LINE
8
BLACK
6
CONTINUOUS
10
139.646
20
-132.723
11
139.503
21
-132.151
0
LINE
8
BLACK
6
CONTINUOUS
10
139.503
20
-132.151
11
139.503
21
-131.437
0
LINE
8
BLACK
6
CONTINUOUS
10
139.503
20
-131.437
11
139.646
21
-130.866
0
LINE
8
BLACK
6
CONTINUOUS
10
139.646
20
-130.866
11
139.788
21
-130.58
0
LINE
8
BLACK
6
CONTINUOUS
10
139.788
20
-130.58
11
139.931
21
-130.437
0
LINE
8
BLACK
6
CONTINUOUS
10
139.931
20
-130.437
11
140.217
21
-130.294
0
LINE
8
BLACK
6
CONTINUOUS
10
142.36
20
-130.294
11
142.36
21
-130.866
0
LINE
8
BLACK
6
CONTINUOUS
10
143.503
20
-130.294
11
143.503
21
-130.866
0
LINE
8
BLACK
6
CONTINUOUS
10
147.931
20
-134.437
11
147.788
21
-134.294
0
LINE
8
BLACK
6
CONTINUOUS
10
147.788
20
-134.294
11
147.503
21
-133.866
0
LINE
8
BLACK
6
CONTINUOUS
10
147.503
20
-133.866
11
147.36
21
-133.58
0
LINE
8
BLACK
6
CONTINUOUS
10
147.36
20
-133.58
11
147.217
21
-133.151
0
LINE
8
BLACK
6
CONTINUOUS
10
147.217
20
-133.151
11
147.074
21
-132.437
0
LINE
8
BLACK
6
CONTINUOUS
10
147.074
20
-132.437
11
147.074
21
-131.866
0
LINE
8
BLACK
6
CONTINUOUS
10
147.074
20
-131.866
11
147.217
21
-131.151
0
LINE
8
BLACK
6
CONTINUOUS
10
147.217
20
-131.151
11
147.36
21
-130.723
0
LINE
8
BLACK
6
CONTINUOUS
10
147.36
20
-130.723
11
147.503
21
-130.437
0
LINE
8
BLACK
6
CONTINUOUS
10
147.503
20
-130.437
11
147.788
21
-130.008
0
LINE
8
BLACK
6
CONTINUOUS
10
147.788
20
-130.008
11
147.931
21
-129.866
0
LINE
8
BLACK
6
CONTINUOUS
10
148.931
20
-130.58
11
149.074
21
-130.437
0
LINE
8
BLACK
6
CONTINUOUS
10
149.074
20
-130.437
11
149.36
21
-130.294
0
LINE
8
BLACK
6
CONTINUOUS
10
149.36
20
-130.294
11
150.074
21
-130.294
0
LINE
8
BLACK
6
CONTINUOUS
10
150.074
20
-130.294
11
150.36
21
-130.437
0
LINE
8
BLACK
6
CONTINUOUS
10
150.36
20
-130.437
11
150.503
21
-130.58
0
LINE
8
BLACK
6
CONTINUOUS
10
150.503
20
-130.58
11
150.646
21
-130.866
0
LINE
8
BLACK
6
CONTINUOUS
10
150.646
20
-130.866
11
150.646
21
-131.151
0
LINE
8
BLACK
6
CONTINUOUS
10
150.646
20
-131.151
11
150.503
21
-131.58
0
LINE
8
BLACK
6
CONTINUOUS
10
150.503
20
-131.58
11
148.788
21
-133.294
0
LINE
8
BLACK
6
CONTINUOUS
10
148.788
20
-133.294
11
150.646
21
-133.294
0
LINE
8
BLACK
6
CONTINUOUS
10
154.217
20
-133.294
11
154.217
21
-130.294
0
LINE
8
BLACK
6
CONTINUOUS
10
155.503
20
-133.294
11
155.503
21
-131.723
0
LINE
8
BLACK
6
CONTINUOUS
10
155.503
20
-131.723
11
155.36
21
-131.437
0
LINE
8
BLACK
6
CONTINUOUS
10
155.36
20
-131.437
11
155.074
21
-131.294
0
LINE
8
BLACK
6
CONTINUOUS
10
155.074
20
-131.294
11
154.646
21
-131.294
0
LINE
8
BLACK
6
CONTINUOUS
10
154.646
20
-131.294
11
154.36
21
-131.437
0
LINE
8
BLACK
6
CONTINUOUS
10
154.36
20
-131.437
11
154.217
21
-131.58
0
LINE
8
BLACK
6
CONTINUOUS
10
157.36
20
-133.294
11
157.074
21
-133.151
0
LINE
8
BLACK
6
CONTINUOUS
10
157.074
20
-133.151
11
156.931
21
-133.008
0
LINE
8
BLACK
6
CONTINUOUS
10
156.931
20
-133.008
11
156.788
21
-132.723
0
LINE
8
BLACK
6
CONTINUOUS
10
156.788
20
-132.723
11
156.788
21
-131.866
0
LINE
8
BLACK
6
CONTINUOUS
10
156.788
20
-131.866
11
156.931
21
-131.58
0
LINE
8
BLACK
6
CONTINUOUS
10
156.931
20
-131.58
11
157.074
21
-131.437
0
LINE
8
BLACK
6
CONTINUOUS
10
157.074
20
-131.437
11
157.36
21
-131.294
0
LINE
8
BLACK
6
CONTINUOUS
10
157.36
20
-131.294
11
157.788
21
-131.294
0
LINE
8
BLACK
6
CONTINUOUS
10
157.788
20
-131.294
11
158.074
21
-131.437
0
LINE
8
BLACK
6
CONTINUOUS
10
158.074
20
-131.437
11
158.217
21
-131.58
0
LINE
8
BLACK
6
CONTINUOUS
10
158.217
20
-131.58
11
158.36
21
-131.866
0
LINE
8
BLACK
6
CONTINUOUS
10
158.36
20
-131.866
11
158.36
21
-132.723
0
LINE
8
BLACK
6
CONTINUOUS
10
158.36
20
-132.723
11
158.217
21
-133.008
0
LINE
8
BLACK
6
CONTINUOUS
10
158.217
20
-133.008
11
158.074
21
-133.151
0
LINE
8
BLACK
6
CONTINUOUS
10
158.074
20
-133.151
11
157.788
21
-133.294
0
LINE
8
BLACK
6
CONTINUOUS
10
157.788
20
-133.294
11
157.36
21
-133.294
0
LINE
8
BLACK
6
CONTINUOUS
10
160.074
20
-133.294
11
159.788
21
-133.151
0
LINE
8
BLACK
6
CONTINUOUS
10
159.788
20
-133.151
11
159.646
21
-132.866
0
LINE
8
BLACK
6
CONTINUOUS
10
159.646
20
-132.866
11
159.646
21
-130.294
0
LINE
8
BLACK
6
CONTINUOUS
10
162.36
20
-133.151
11
162.074
21
-133.294
0
LINE
8
BLACK
6
CONTINUOUS
10
162.074
20
-133.294
11
161.503
21
-133.294
0
LINE
8
BLACK
6
CONTINUOUS
10
161.503
20
-133.294
11
161.217
21
-133.151
0
LINE
8
BLACK
6
CONTINUOUS
10
161.217
20
-133.151
11
161.074
21
-132.866
0
LINE
8
BLACK
6
CONTINUOUS
10
161.074
20
-132.866
11
161.074
21
-131.723
0
LINE
8
BLACK
6
CONTINUOUS
10
161.074
20
-131.723
11
161.217
21
-131.437
0
LINE
8
BLACK
6
CONTINUOUS
10
161.217
20
-131.437
11
161.503
21
-131.294
0
LINE
8
BLACK
6
CONTINUOUS
10
161.503
20
-131.294
11
162.074
21
-131.294
0
LINE
8
BLACK
6
CONTINUOUS
10
162.074
20
-131.294
11
162.36
21
-131.437
0
LINE
8
BLACK
6
CONTINUOUS
10
162.36
20
-131.437
11
162.503
21
-131.723
0
LINE
8
BLACK
6
CONTINUOUS
10
162.503
20
-131.723
11
162.503
21
-132.008
0
LINE
8
BLACK
6
CONTINUOUS
10
162.503
20
-132.008
11
161.074
21
-132.294
0
LINE
8
BLACK
6
CONTINUOUS
10
163.646
20
-133.151
11
163.931
21
-133.294
0
LINE
8
BLACK
6
CONTINUOUS
10
163.931
20
-133.294
11
164.503
21
-133.294
0
LINE
8
BLACK
6
CONTINUOUS
10
164.503
20
-133.294
11
164.788
21
-133.151
0
LINE
8
BLACK
6
CONTINUOUS
10
164.788
20
-133.151
11
164.931
21
-132.866
0
LINE
8
BLACK
6
CONTINUOUS
10
164.931
20
-132.866
11
164.931
21
-132.723
0
LINE
8
BLACK
6
CONTINUOUS
10
164.931
20
-132.723
11
164.788
21
-132.437
0
LINE
8
BLACK
6
CONTINUOUS
10
164.788
20
-132.437
11
164.503
21
-132.294
0
LINE
8
BLACK
6
CONTINUOUS
10
164.503
20
-132.294
11
164.074
21
-132.294
0
LINE
8
BLACK
6
CONTINUOUS
10
164.074
20
-132.294
11
163.788
21
-132.151
0
LINE
8
BLACK
6
CONTINUOUS
10
163.788
20
-132.151
11
163.646
21
-131.866
0
LINE
8
BLACK
6
CONTINUOUS
10
163.646
20
-131.866
11
163.646
21
-131.723
0
LINE
8
BLACK
6
CONTINUOUS
10
163.646
20
-131.723
11
163.788
21
-131.437
0
LINE
8
BLACK
6
CONTINUOUS
10
163.788
20
-131.437
11
164.074
21
-131.294
0
LINE
8
BLACK
6
CONTINUOUS
10
164.074
20
-131.294
11
164.503
21
-131.294
0
LINE
8
BLACK
6
CONTINUOUS
10
164.503
20
-131.294
11
164.788
21
-131.437
0
LINE
8
BLACK
6
CONTINUOUS
10
165.931
20
-134.437
11
166.074
21
-134.294
0
LINE
8
BLACK
6
CONTINUOUS
10
166.074
20
-134.294
11
166.36
21
-133.866
0
LINE
8
BLACK
6
CONTINUOUS
10
166.36
20
-133.866
11
166.503
21
-133.58
0
LINE
8
BLACK
6
CONTINUOUS
10
166.503
20
-133.58
11
166.646
21
-133.151
0
LINE
8
BLACK
6
CONTINUOUS
10
166.646
20
-133.151
11
166.788
21
-132.437
0
LINE
8
BLACK
6
CONTINUOUS
10
166.788
20
-132.437
11
166.788
21
-131.866
0
LINE
8
BLACK
6
CONTINUOUS
10
166.788
20
-131.866
11
166.646
21
-131.151
0
LINE
8
BLACK
6
CONTINUOUS
10
166.646
20
-131.151
11
166.503
21
-130.723
0
LINE
8
BLACK
6
CONTINUOUS
10
166.503
20
-130.723
11
166.36
21
-130.437
0
LINE
8
BLACK
6
CONTINUOUS
10
166.36
20
-130.437
11
166.074
21
-130.008
0
LINE
8
BLACK
6
CONTINUOUS
10
166.074
20
-130.008
11
165.931
21
-129.866
  0
ENDSEC
  0
EOF
