  0
SECTION
  2
HEADER
  9
$ANGBASE
  50
0.0
  9
$ANGDIR
  70
1
  9
$MEASUREMENT
  70
1
  0
ENDSEC
  0
SECTION
  2
TABLES
  0
TABLE
  2
LTYPE
  70
4
  0
LTYPE
  5
40F
  2
CONTINUOUS
  70
0
  3
Solid line
  72
65
  73
0
  40
0.0
  0
LTYPE
  5
410
  2
DASHDOT
 70
0
  3
Dash Dot ____ _ ____ _
 72
65
 73
4
 40
2.0
 49
1.25
 49
-0.25
 49
0.25
 49
-0.25
  0
LTYPE
  5
411
  2
DASHED
 70
0
  3
Dashed __ __ __ __ __
 72
65
 73
2
 40
0.75
 49
0.5
 49
-0.25
  0
LTYPE
  5
43B
  2
DOTTED
 70
0
  3
Dotted .  .  .  .
 72
65
 73
2
 40
0.2
 49
0.0
 49
-0.2
  0
ENDTAB
  0
TABLE
  2
STYLE
  70
4
  0
STYLE
  2
KICAD
  70
0
  40
0
  41
1
  42
1
  50
0
  71
0
  3
isocp.shx
  0
STYLE
  2
KICADB
  70
0
  40
0
  41
1
  42
1
  50
0
  71
0
  3
isocp.shx
  0
STYLE
  2
KICADI
  70
0
  40
0
  41
1
  42
1
  50
15
  71
0
  3
isocp.shx
  0
STYLE
  2
KICADBI
  70
0
  40
0
  41
1
  42
1
  50
15
  71
0
  3
isocp.shx
  0
ENDTAB
  0
TABLE
  2
LAYER
  70
1
  0
LAYER
  2
BLACK
  70
0
  62
7
  6
CONTINUOUS
  0
ENDTAB
  0
ENDSEC
  0
SECTION
  2
ENTITIES
0
LINE
8
BLACK
6
CONTINUOUS
10
162.052
20
-98.552
11
101.092
21
-98.552
0
LINE
8
BLACK
6
CONTINUOUS
10
101.092
20
-98.552
11
101.092
21
-17.272
0
LINE
8
BLACK
6
CONTINUOUS
10
162.052
20
-17.272
11
162.052
21
-98.552
0
LINE
8
BLACK
6
CONTINUOUS
10
101.092
20
-17.272
11
162.052
21
-17.272
0
LINE
8
BLACK
6
CONTINUOUS
10
156.642
20
-92.888
11
159.842
21
-96.088
0
LINE
8
BLACK
6
CONTINUOUS
10
159.842
20
-92.888
11
156.642
21
-96.088
0
LINE
8
BLACK
6
CONTINUOUS
10
156.388
20
-19.482
11
159.588
21
-22.682
0
LINE
8
BLACK
6
CONTINUOUS
10
159.588
20
-19.482
11
156.388
21
-22.682
0
LINE
8
BLACK
6
CONTINUOUS
10
103.556
20
-92.888
11
106.756
21
-96.088
0
LINE
8
BLACK
6
CONTINUOUS
10
106.756
20
-92.888
11
103.556
21
-96.088
0
LINE
8
BLACK
6
CONTINUOUS
10
103.556
20
-19.482
11
106.756
21
-22.682
0
LINE
8
BLACK
6
CONTINUOUS
10
106.756
20
-19.482
11
103.556
21
-22.682
0
LINE
8
BLACK
6
CONTINUOUS
10
103.931
20
-103.234
11
103.931
21
-100.234
0
LINE
8
BLACK
6
CONTINUOUS
10
103.931
20
-100.234
11
104.646
21
-100.234
0
LINE
8
BLACK
6
CONTINUOUS
10
104.646
20
-100.234
11
105.074
21
-100.377
0
LINE
8
BLACK
6
CONTINUOUS
10
105.074
20
-100.377
11
105.36
21
-100.663
0
LINE
8
BLACK
6
CONTINUOUS
10
105.36
20
-100.663
11
105.503
21
-100.948
0
LINE
8
BLACK
6
CONTINUOUS
10
105.503
20
-100.948
11
105.646
21
-101.52
0
LINE
8
BLACK
6
CONTINUOUS
10
105.646
20
-101.52
11
105.646
21
-101.948
0
LINE
8
BLACK
6
CONTINUOUS
10
105.646
20
-101.948
11
105.503
21
-102.52
0
LINE
8
BLACK
6
CONTINUOUS
10
105.503
20
-102.52
11
105.36
21
-102.806
0
LINE
8
BLACK
6
CONTINUOUS
10
105.36
20
-102.806
11
105.074
21
-103.091
0
LINE
8
BLACK
6
CONTINUOUS
10
105.074
20
-103.091
11
104.646
21
-103.234
0
LINE
8
BLACK
6
CONTINUOUS
10
104.646
20
-103.234
11
103.931
21
-103.234
0
LINE
8
BLACK
6
CONTINUOUS
10
106.931
20
-103.234
11
106.931
21
-101.234
0
LINE
8
BLACK
6
CONTINUOUS
10
106.931
20
-101.806
11
107.074
21
-101.52
0
LINE
8
BLACK
6
CONTINUOUS
10
107.074
20
-101.52
11
107.217
21
-101.377
0
LINE
8
BLACK
6
CONTINUOUS
10
107.217
20
-101.377
11
107.503
21
-101.234
0
LINE
8
BLACK
6
CONTINUOUS
10
107.503
20
-101.234
11
107.788
21
-101.234
0
LINE
8
BLACK
6
CONTINUOUS
10
108.788
20
-103.234
11
108.788
21
-101.234
0
LINE
8
BLACK
6
CONTINUOUS
10
108.788
20
-100.234
11
108.646
21
-100.377
0
LINE
8
BLACK
6
CONTINUOUS
10
108.646
20
-100.377
11
108.788
21
-100.52
0
LINE
8
BLACK
6
CONTINUOUS
10
108.788
20
-100.52
11
108.931
21
-100.377
0
LINE
8
BLACK
6
CONTINUOUS
10
108.931
20
-100.377
11
108.788
21
-100.234
0
LINE
8
BLACK
6
CONTINUOUS
10
108.788
20
-100.234
11
108.788
21
-100.52
0
LINE
8
BLACK
6
CONTINUOUS
10
110.646
20
-103.234
11
110.36
21
-103.091
0
LINE
8
BLACK
6
CONTINUOUS
10
110.36
20
-103.091
11
110.217
21
-102.806
0
LINE
8
BLACK
6
CONTINUOUS
10
110.217
20
-102.806
11
110.217
21
-100.234
0
LINE
8
BLACK
6
CONTINUOUS
10
112.217
20
-103.234
11
111.931
21
-103.091
0
LINE
8
BLACK
6
CONTINUOUS
10
111.931
20
-103.091
11
111.788
21
-102.806
0
LINE
8
BLACK
6
CONTINUOUS
10
111.788
20
-102.806
11
111.788
21
-100.234
0
LINE
8
BLACK
6
CONTINUOUS
10
115.646
20
-103.234
11
115.646
21
-100.234
0
LINE
8
BLACK
6
CONTINUOUS
10
115.646
20
-100.234
11
116.646
21
-102.377
0
LINE
8
BLACK
6
CONTINUOUS
10
116.646
20
-102.377
11
117.646
21
-100.234
0
LINE
8
BLACK
6
CONTINUOUS
10
117.646
20
-100.234
11
117.646
21
-103.234
0
LINE
8
BLACK
6
CONTINUOUS
10
120.36
20
-103.234
11
120.36
21
-101.663
0
LINE
8
BLACK
6
CONTINUOUS
10
120.36
20
-101.663
11
120.217
21
-101.377
0
LINE
8
BLACK
6
CONTINUOUS
10
120.217
20
-101.377
11
119.931
21
-101.234
0
LINE
8
BLACK
6
CONTINUOUS
10
119.931
20
-101.234
11
119.36
21
-101.234
0
LINE
8
BLACK
6
CONTINUOUS
10
119.36
20
-101.234
11
119.074
21
-101.377
0
LINE
8
BLACK
6
CONTINUOUS
10
120.36
20
-103.091
11
120.074
21
-103.234
0
LINE
8
BLACK
6
CONTINUOUS
10
120.074
20
-103.234
11
119.36
21
-103.234
0
LINE
8
BLACK
6
CONTINUOUS
10
119.36
20
-103.234
11
119.074
21
-103.091
0
LINE
8
BLACK
6
CONTINUOUS
10
119.074
20
-103.091
11
118.931
21
-102.806
0
LINE
8
BLACK
6
CONTINUOUS
10
118.931
20
-102.806
11
118.931
21
-102.52
0
LINE
8
BLACK
6
CONTINUOUS
10
118.931
20
-102.52
11
119.074
21
-102.234
0
LINE
8
BLACK
6
CONTINUOUS
10
119.074
20
-102.234
11
119.36
21
-102.091
0
LINE
8
BLACK
6
CONTINUOUS
10
119.36
20
-102.091
11
120.074
21
-102.091
0
LINE
8
BLACK
6
CONTINUOUS
10
120.074
20
-102.091
11
120.36
21
-101.948
0
LINE
8
BLACK
6
CONTINUOUS
10
121.788
20
-101.234
11
121.788
21
-104.234
0
LINE
8
BLACK
6
CONTINUOUS
10
121.788
20
-101.377
11
122.074
21
-101.234
0
LINE
8
BLACK
6
CONTINUOUS
10
122.074
20
-101.234
11
122.646
21
-101.234
0
LINE
8
BLACK
6
CONTINUOUS
10
122.646
20
-101.234
11
122.931
21
-101.377
0
LINE
8
BLACK
6
CONTINUOUS
10
122.931
20
-101.377
11
123.074
21
-101.52
0
LINE
8
BLACK
6
CONTINUOUS
10
123.074
20
-101.52
11
123.217
21
-101.806
0
LINE
8
BLACK
6
CONTINUOUS
10
123.217
20
-101.806
11
123.217
21
-102.663
0
LINE
8
BLACK
6
CONTINUOUS
10
123.217
20
-102.663
11
123.074
21
-102.948
0
LINE
8
BLACK
6
CONTINUOUS
10
123.074
20
-102.948
11
122.931
21
-103.091
0
LINE
8
BLACK
6
CONTINUOUS
10
122.931
20
-103.091
11
122.646
21
-103.234
0
LINE
8
BLACK
6
CONTINUOUS
10
122.646
20
-103.234
11
122.074
21
-103.234
0
LINE
8
BLACK
6
CONTINUOUS
10
122.074
20
-103.234
11
121.788
21
-103.091
0
LINE
8
BLACK
6
CONTINUOUS
10
124.503
20
-102.948
11
124.646
21
-103.091
0
LINE
8
BLACK
6
CONTINUOUS
10
124.646
20
-103.091
11
124.503
21
-103.234
0
LINE
8
BLACK
6
CONTINUOUS
10
124.503
20
-103.234
11
124.36
21
-103.091
0
LINE
8
BLACK
6
CONTINUOUS
10
124.36
20
-103.091
11
124.503
21
-102.948
0
LINE
8
BLACK
6
CONTINUOUS
10
124.503
20
-102.948
11
124.503
21
-103.234
0
LINE
8
BLACK
6
CONTINUOUS
10
124.503
20
-101.377
11
124.646
21
-101.52
0
LINE
8
BLACK
6
CONTINUOUS
10
124.646
20
-101.52
11
124.503
21
-101.663
0
LINE
8
BLACK
6
CONTINUOUS
10
124.503
20
-101.663
11
124.36
21
-101.52
0
LINE
8
BLACK
6
CONTINUOUS
10
124.36
20
-101.52
11
124.503
21
-101.377
0
LINE
8
BLACK
6
CONTINUOUS
10
124.503
20
-101.377
11
124.503
21
-101.663
0
LINE
8
BLACK
6
CONTINUOUS
10
97.867
20
-106.577
11
101.067
21
-109.777
0
LINE
8
BLACK
6
CONTINUOUS
10
101.067
20
-106.577
11
97.867
21
-109.777
0
LINE
8
BLACK
6
CONTINUOUS
10
103.646
20
-106.534
11
105.503
21
-106.534
0
LINE
8
BLACK
6
CONTINUOUS
10
105.503
20
-106.534
11
104.503
21
-107.677
0
LINE
8
BLACK
6
CONTINUOUS
10
104.503
20
-107.677
11
104.931
21
-107.677
0
LINE
8
BLACK
6
CONTINUOUS
10
104.931
20
-107.677
11
105.217
21
-107.82
0
LINE
8
BLACK
6
CONTINUOUS
10
105.217
20
-107.82
11
105.36
21
-107.963
0
LINE
8
BLACK
6
CONTINUOUS
10
105.36
20
-107.963
11
105.503
21
-108.248
0
LINE
8
BLACK
6
CONTINUOUS
10
105.503
20
-108.248
11
105.503
21
-108.963
0
LINE
8
BLACK
6
CONTINUOUS
10
105.503
20
-108.963
11
105.36
21
-109.248
0
LINE
8
BLACK
6
CONTINUOUS
10
105.36
20
-109.248
11
105.217
21
-109.391
0
LINE
8
BLACK
6
CONTINUOUS
10
105.217
20
-109.391
11
104.931
21
-109.534
0
LINE
8
BLACK
6
CONTINUOUS
10
104.931
20
-109.534
11
104.074
21
-109.534
0
LINE
8
BLACK
6
CONTINUOUS
10
104.074
20
-109.534
11
103.788
21
-109.391
0
LINE
8
BLACK
6
CONTINUOUS
10
103.788
20
-109.391
11
103.646
21
-109.248
0
LINE
8
BLACK
6
CONTINUOUS
10
106.788
20
-109.248
11
106.931
21
-109.391
0
LINE
8
BLACK
6
CONTINUOUS
10
106.931
20
-109.391
11
106.788
21
-109.534
0
LINE
8
BLACK
6
CONTINUOUS
10
106.788
20
-109.534
11
106.646
21
-109.391
0
LINE
8
BLACK
6
CONTINUOUS
10
106.646
20
-109.391
11
106.788
21
-109.248
0
LINE
8
BLACK
6
CONTINUOUS
10
106.788
20
-109.248
11
106.788
21
-109.534
0
LINE
8
BLACK
6
CONTINUOUS
10
108.074
20
-106.82
11
108.217
21
-106.677
0
LINE
8
BLACK
6
CONTINUOUS
10
108.217
20
-106.677
11
108.503
21
-106.534
0
LINE
8
BLACK
6
CONTINUOUS
10
108.503
20
-106.534
11
109.217
21
-106.534
0
LINE
8
BLACK
6
CONTINUOUS
10
109.217
20
-106.534
11
109.503
21
-106.677
0
LINE
8
BLACK
6
CONTINUOUS
10
109.503
20
-106.677
11
109.646
21
-106.82
0
LINE
8
BLACK
6
CONTINUOUS
10
109.646
20
-106.82
11
109.788
21
-107.106
0
LINE
8
BLACK
6
CONTINUOUS
10
109.788
20
-107.106
11
109.788
21
-107.391
0
LINE
8
BLACK
6
CONTINUOUS
10
109.788
20
-107.391
11
109.646
21
-107.82
0
LINE
8
BLACK
6
CONTINUOUS
10
109.646
20
-107.82
11
107.931
21
-109.534
0
LINE
8
BLACK
6
CONTINUOUS
10
107.931
20
-109.534
11
109.788
21
-109.534
0
LINE
8
BLACK
6
CONTINUOUS
10
111.646
20
-106.534
11
111.931
21
-106.534
0
LINE
8
BLACK
6
CONTINUOUS
10
111.931
20
-106.534
11
112.217
21
-106.677
0
LINE
8
BLACK
6
CONTINUOUS
10
112.217
20
-106.677
11
112.36
21
-106.82
0
LINE
8
BLACK
6
CONTINUOUS
10
112.36
20
-106.82
11
112.503
21
-107.106
0
LINE
8
BLACK
6
CONTINUOUS
10
112.503
20
-107.106
11
112.646
21
-107.677
0
LINE
8
BLACK
6
CONTINUOUS
10
112.646
20
-107.677
11
112.646
21
-108.391
0
LINE
8
BLACK
6
CONTINUOUS
10
112.646
20
-108.391
11
112.503
21
-108.963
0
LINE
8
BLACK
6
CONTINUOUS
10
112.503
20
-108.963
11
112.36
21
-109.248
0
LINE
8
BLACK
6
CONTINUOUS
10
112.36
20
-109.248
11
112.217
21
-109.391
0
LINE
8
BLACK
6
CONTINUOUS
10
112.217
20
-109.391
11
111.931
21
-109.534
0
LINE
8
BLACK
6
CONTINUOUS
10
111.931
20
-109.534
11
111.646
21
-109.534
0
LINE
8
BLACK
6
CONTINUOUS
10
111.646
20
-109.534
11
111.36
21
-109.391
0
LINE
8
BLACK
6
CONTINUOUS
10
111.36
20
-109.391
11
111.217
21
-109.248
0
LINE
8
BLACK
6
CONTINUOUS
10
111.217
20
-109.248
11
111.074
21
-108.963
0
LINE
8
BLACK
6
CONTINUOUS
10
111.074
20
-108.963
11
110.931
21
-108.391
0
LINE
8
BLACK
6
CONTINUOUS
10
110.931
20
-108.391
11
110.931
21
-107.677
0
LINE
8
BLACK
6
CONTINUOUS
10
110.931
20
-107.677
11
111.074
21
-107.106
0
LINE
8
BLACK
6
CONTINUOUS
10
111.074
20
-107.106
11
111.217
21
-106.82
0
LINE
8
BLACK
6
CONTINUOUS
10
111.217
20
-106.82
11
111.36
21
-106.677
0
LINE
8
BLACK
6
CONTINUOUS
10
111.36
20
-106.677
11
111.646
21
-106.534
0
LINE
8
BLACK
6
CONTINUOUS
10
113.931
20
-109.534
11
113.931
21
-107.534
0
LINE
8
BLACK
6
CONTINUOUS
10
113.931
20
-107.82
11
114.074
21
-107.677
0
LINE
8
BLACK
6
CONTINUOUS
10
114.074
20
-107.677
11
114.36
21
-107.534
0
LINE
8
BLACK
6
CONTINUOUS
10
114.36
20
-107.534
11
114.788
21
-107.534
0
LINE
8
BLACK
6
CONTINUOUS
10
114.788
20
-107.534
11
115.074
21
-107.677
0
LINE
8
BLACK
6
CONTINUOUS
10
115.074
20
-107.677
11
115.217
21
-107.963
0
LINE
8
BLACK
6
CONTINUOUS
10
115.217
20
-107.963
11
115.217
21
-109.534
0
LINE
8
BLACK
6
CONTINUOUS
10
115.217
20
-107.963
11
115.36
21
-107.677
0
LINE
8
BLACK
6
CONTINUOUS
10
115.36
20
-107.677
11
115.646
21
-107.534
0
LINE
8
BLACK
6
CONTINUOUS
10
115.646
20
-107.534
11
116.074
21
-107.534
0
LINE
8
BLACK
6
CONTINUOUS
10
116.074
20
-107.534
11
116.36
21
-107.677
0
LINE
8
BLACK
6
CONTINUOUS
10
116.36
20
-107.677
11
116.503
21
-107.963
0
LINE
8
BLACK
6
CONTINUOUS
10
116.503
20
-107.963
11
116.503
21
-109.534
0
LINE
8
BLACK
6
CONTINUOUS
10
117.931
20
-109.534
11
117.931
21
-107.534
0
LINE
8
BLACK
6
CONTINUOUS
10
117.931
20
-107.82
11
118.074
21
-107.677
0
LINE
8
BLACK
6
CONTINUOUS
10
118.074
20
-107.677
11
118.36
21
-107.534
0
LINE
8
BLACK
6
CONTINUOUS
10
118.36
20
-107.534
11
118.788
21
-107.534
0
LINE
8
BLACK
6
CONTINUOUS
10
118.788
20
-107.534
11
119.074
21
-107.677
0
LINE
8
BLACK
6
CONTINUOUS
10
119.074
20
-107.677
11
119.217
21
-107.963
0
LINE
8
BLACK
6
CONTINUOUS
10
119.217
20
-107.963
11
119.217
21
-109.534
0
LINE
8
BLACK
6
CONTINUOUS
10
119.217
20
-107.963
11
119.36
21
-107.677
0
LINE
8
BLACK
6
CONTINUOUS
10
119.36
20
-107.677
11
119.646
21
-107.534
0
LINE
8
BLACK
6
CONTINUOUS
10
119.646
20
-107.534
11
120.074
21
-107.534
0
LINE
8
BLACK
6
CONTINUOUS
10
120.074
20
-107.534
11
120.36
21
-107.677
0
LINE
8
BLACK
6
CONTINUOUS
10
120.36
20
-107.677
11
120.503
21
-107.963
0
LINE
8
BLACK
6
CONTINUOUS
10
120.503
20
-107.963
11
120.503
21
-109.534
0
LINE
8
BLACK
6
CONTINUOUS
10
126.36
20
-106.391
11
123.788
21
-110.248
0
LINE
8
BLACK
6
CONTINUOUS
10
130.217
20
-106.534
11
130.503
21
-106.534
0
LINE
8
BLACK
6
CONTINUOUS
10
130.503
20
-106.534
11
130.788
21
-106.677
0
LINE
8
BLACK
6
CONTINUOUS
10
130.788
20
-106.677
11
130.931
21
-106.82
0
LINE
8
BLACK
6
CONTINUOUS
10
130.931
20
-106.82
11
131.074
21
-107.106
0
LINE
8
BLACK
6
CONTINUOUS
10
131.074
20
-107.106
11
131.217
21
-107.677
0
LINE
8
BLACK
6
CONTINUOUS
10
131.217
20
-107.677
11
131.217
21
-108.391
0
LINE
8
BLACK
6
CONTINUOUS
10
131.217
20
-108.391
11
131.074
21
-108.963
0
LINE
8
BLACK
6
CONTINUOUS
10
131.074
20
-108.963
11
130.931
21
-109.248
0
LINE
8
BLACK
6
CONTINUOUS
10
130.931
20
-109.248
11
130.788
21
-109.391
0
LINE
8
BLACK
6
CONTINUOUS
10
130.788
20
-109.391
11
130.503
21
-109.534
0
LINE
8
BLACK
6
CONTINUOUS
10
130.503
20
-109.534
11
130.217
21
-109.534
0
LINE
8
BLACK
6
CONTINUOUS
10
130.217
20
-109.534
11
129.931
21
-109.391
0
LINE
8
BLACK
6
CONTINUOUS
10
129.931
20
-109.391
11
129.788
21
-109.248
0
LINE
8
BLACK
6
CONTINUOUS
10
129.788
20
-109.248
11
129.646
21
-108.963
0
LINE
8
BLACK
6
CONTINUOUS
10
129.646
20
-108.963
11
129.503
21
-108.391
0
LINE
8
BLACK
6
CONTINUOUS
10
129.503
20
-108.391
11
129.503
21
-107.677
0
LINE
8
BLACK
6
CONTINUOUS
10
129.503
20
-107.677
11
129.646
21
-107.106
0
LINE
8
BLACK
6
CONTINUOUS
10
129.646
20
-107.106
11
129.788
21
-106.82
0
LINE
8
BLACK
6
CONTINUOUS
10
129.788
20
-106.82
11
129.931
21
-106.677
0
LINE
8
BLACK
6
CONTINUOUS
10
129.931
20
-106.677
11
130.217
21
-106.534
0
LINE
8
BLACK
6
CONTINUOUS
10
132.503
20
-109.248
11
132.646
21
-109.391
0
LINE
8
BLACK
6
CONTINUOUS
10
132.646
20
-109.391
11
132.503
21
-109.534
0
LINE
8
BLACK
6
CONTINUOUS
10
132.503
20
-109.534
11
132.36
21
-109.391
0
LINE
8
BLACK
6
CONTINUOUS
10
132.36
20
-109.391
11
132.503
21
-109.248
0
LINE
8
BLACK
6
CONTINUOUS
10
132.503
20
-109.248
11
132.503
21
-109.534
0
LINE
8
BLACK
6
CONTINUOUS
10
135.503
20
-109.534
11
133.788
21
-109.534
0
LINE
8
BLACK
6
CONTINUOUS
10
134.646
20
-109.534
11
134.646
21
-106.534
0
LINE
8
BLACK
6
CONTINUOUS
10
134.646
20
-106.534
11
134.36
21
-106.963
0
LINE
8
BLACK
6
CONTINUOUS
10
134.36
20
-106.963
11
134.074
21
-107.248
0
LINE
8
BLACK
6
CONTINUOUS
10
134.074
20
-107.248
11
133.788
21
-107.391
0
LINE
8
BLACK
6
CONTINUOUS
10
136.646
20
-106.82
11
136.788
21
-106.677
0
LINE
8
BLACK
6
CONTINUOUS
10
136.788
20
-106.677
11
137.074
21
-106.534
0
LINE
8
BLACK
6
CONTINUOUS
10
137.074
20
-106.534
11
137.788
21
-106.534
0
LINE
8
BLACK
6
CONTINUOUS
10
137.788
20
-106.534
11
138.074
21
-106.677
0
LINE
8
BLACK
6
CONTINUOUS
10
138.074
20
-106.677
11
138.217
21
-106.82
0
LINE
8
BLACK
6
CONTINUOUS
10
138.217
20
-106.82
11
138.36
21
-107.106
0
LINE
8
BLACK
6
CONTINUOUS
10
138.36
20
-107.106
11
138.36
21
-107.391
0
LINE
8
BLACK
6
CONTINUOUS
10
138.36
20
-107.391
11
138.217
21
-107.82
0
LINE
8
BLACK
6
CONTINUOUS
10
138.217
20
-107.82
11
136.503
21
-109.534
0
LINE
8
BLACK
6
CONTINUOUS
10
136.503
20
-109.534
11
138.36
21
-109.534
0
LINE
8
BLACK
6
CONTINUOUS
10
140.931
20
-106.534
11
140.36
21
-106.534
0
LINE
8
BLACK
6
CONTINUOUS
10
140.36
20
-106.534
11
140.074
21
-106.677
0
LINE
8
BLACK
6
CONTINUOUS
10
140.074
20
-106.677
11
139.931
21
-106.82
0
LINE
8
BLACK
6
CONTINUOUS
10
139.931
20
-106.82
11
139.646
21
-107.248
0
LINE
8
BLACK
6
CONTINUOUS
10
139.646
20
-107.248
11
139.503
21
-107.82
0
LINE
8
BLACK
6
CONTINUOUS
10
139.503
20
-107.82
11
139.503
21
-108.963
0
LINE
8
BLACK
6
CONTINUOUS
10
139.503
20
-108.963
11
139.646
21
-109.248
0
LINE
8
BLACK
6
CONTINUOUS
10
139.646
20
-109.248
11
139.788
21
-109.391
0
LINE
8
BLACK
6
CONTINUOUS
10
139.788
20
-109.391
11
140.074
21
-109.534
0
LINE
8
BLACK
6
CONTINUOUS
10
140.074
20
-109.534
11
140.646
21
-109.534
0
LINE
8
BLACK
6
CONTINUOUS
10
140.646
20
-109.534
11
140.931
21
-109.391
0
LINE
8
BLACK
6
CONTINUOUS
10
140.931
20
-109.391
11
141.074
21
-109.248
0
LINE
8
BLACK
6
CONTINUOUS
10
141.074
20
-109.248
11
141.217
21
-108.963
0
LINE
8
BLACK
6
CONTINUOUS
10
141.217
20
-108.963
11
141.217
21
-108.248
0
LINE
8
BLACK
6
CONTINUOUS
10
141.217
20
-108.248
11
141.074
21
-107.963
0
LINE
8
BLACK
6
CONTINUOUS
10
141.074
20
-107.963
11
140.931
21
-107.82
0
LINE
8
BLACK
6
CONTINUOUS
10
140.931
20
-107.82
11
140.646
21
-107.677
0
LINE
8
BLACK
6
CONTINUOUS
10
140.646
20
-107.677
11
140.074
21
-107.677
0
LINE
8
BLACK
6
CONTINUOUS
10
140.074
20
-107.677
11
139.788
21
-107.82
0
LINE
8
BLACK
6
CONTINUOUS
10
139.788
20
-107.82
11
139.646
21
-107.963
0
LINE
8
BLACK
6
CONTINUOUS
10
139.646
20
-107.963
11
139.503
21
-108.248
0
LINE
8
BLACK
6
CONTINUOUS
10
142.36
20
-106.534
11
142.36
21
-107.106
0
LINE
8
BLACK
6
CONTINUOUS
10
143.503
20
-106.534
11
143.503
21
-107.106
0
LINE
8
BLACK
6
CONTINUOUS
10
147.931
20
-110.677
11
147.788
21
-110.534
0
LINE
8
BLACK
6
CONTINUOUS
10
147.788
20
-110.534
11
147.503
21
-110.106
0
LINE
8
BLACK
6
CONTINUOUS
10
147.503
20
-110.106
11
147.36
21
-109.82
0
LINE
8
BLACK
6
CONTINUOUS
10
147.36
20
-109.82
11
147.217
21
-109.391
0
LINE
8
BLACK
6
CONTINUOUS
10
147.217
20
-109.391
11
147.074
21
-108.677
0
LINE
8
BLACK
6
CONTINUOUS
10
147.074
20
-108.677
11
147.074
21
-108.106
0
LINE
8
BLACK
6
CONTINUOUS
10
147.074
20
-108.106
11
147.217
21
-107.391
0
LINE
8
BLACK
6
CONTINUOUS
10
147.217
20
-107.391
11
147.36
21
-106.963
0
LINE
8
BLACK
6
CONTINUOUS
10
147.36
20
-106.963
11
147.503
21
-106.677
0
LINE
8
BLACK
6
CONTINUOUS
10
147.503
20
-106.677
11
147.788
21
-106.248
0
LINE
8
BLACK
6
CONTINUOUS
10
147.788
20
-106.248
11
147.931
21
-106.106
0
LINE
8
BLACK
6
CONTINUOUS
10
150.36
20
-107.534
11
150.36
21
-109.534
0
LINE
8
BLACK
6
CONTINUOUS
10
149.646
20
-106.391
11
148.931
21
-108.534
0
LINE
8
BLACK
6
CONTINUOUS
10
148.931
20
-108.534
11
150.788
21
-108.534
0
LINE
8
BLACK
6
CONTINUOUS
10
154.217
20
-109.534
11
154.217
21
-106.534
0
LINE
8
BLACK
6
CONTINUOUS
10
155.503
20
-109.534
11
155.503
21
-107.963
0
LINE
8
BLACK
6
CONTINUOUS
10
155.503
20
-107.963
11
155.36
21
-107.677
0
LINE
8
BLACK
6
CONTINUOUS
10
155.36
20
-107.677
11
155.074
21
-107.534
0
LINE
8
BLACK
6
CONTINUOUS
10
155.074
20
-107.534
11
154.646
21
-107.534
0
LINE
8
BLACK
6
CONTINUOUS
10
154.646
20
-107.534
11
154.36
21
-107.677
0
LINE
8
BLACK
6
CONTINUOUS
10
154.36
20
-107.677
11
154.217
21
-107.82
0
LINE
8
BLACK
6
CONTINUOUS
10
157.36
20
-109.534
11
157.074
21
-109.391
0
LINE
8
BLACK
6
CONTINUOUS
10
157.074
20
-109.391
11
156.931
21
-109.248
0
LINE
8
BLACK
6
CONTINUOUS
10
156.931
20
-109.248
11
156.788
21
-108.963
0
LINE
8
BLACK
6
CONTINUOUS
10
156.788
20
-108.963
11
156.788
21
-108.106
0
LINE
8
BLACK
6
CONTINUOUS
10
156.788
20
-108.106
11
156.931
21
-107.82
0
LINE
8
BLACK
6
CONTINUOUS
10
156.931
20
-107.82
11
157.074
21
-107.677
0
LINE
8
BLACK
6
CONTINUOUS
10
157.074
20
-107.677
11
157.36
21
-107.534
0
LINE
8
BLACK
6
CONTINUOUS
10
157.36
20
-107.534
11
157.788
21
-107.534
0
LINE
8
BLACK
6
CONTINUOUS
10
157.788
20
-107.534
11
158.074
21
-107.677
0
LINE
8
BLACK
6
CONTINUOUS
10
158.074
20
-107.677
11
158.217
21
-107.82
0
LINE
8
BLACK
6
CONTINUOUS
10
158.217
20
-107.82
11
158.36
21
-108.106
0
LINE
8
BLACK
6
CONTINUOUS
10
158.36
20
-108.106
11
158.36
21
-108.963
0
LINE
8
BLACK
6
CONTINUOUS
10
158.36
20
-108.963
11
158.217
21
-109.248
0
LINE
8
BLACK
6
CONTINUOUS
10
158.217
20
-109.248
11
158.074
21
-109.391
0
LINE
8
BLACK
6
CONTINUOUS
10
158.074
20
-109.391
11
157.788
21
-109.534
0
LINE
8
BLACK
6
CONTINUOUS
10
157.788
20
-109.534
11
157.36
21
-109.534
0
LINE
8
BLACK
6
CONTINUOUS
10
160.074
20
-109.534
11
159.788
21
-109.391
0
LINE
8
BLACK
6
CONTINUOUS
10
159.788
20
-109.391
11
159.646
21
-109.106
0
LINE
8
BLACK
6
CONTINUOUS
10
159.646
20
-109.106
11
159.646
21
-106.534
0
LINE
8
BLACK
6
CONTINUOUS
10
162.36
20
-109.391
11
162.074
21
-109.534
0
LINE
8
BLACK
6
CONTINUOUS
10
162.074
20
-109.534
11
161.503
21
-109.534
0
LINE
8
BLACK
6
CONTINUOUS
10
161.503
20
-109.534
11
161.217
21
-109.391
0
LINE
8
BLACK
6
CONTINUOUS
10
161.217
20
-109.391
11
161.074
21
-109.106
0
LINE
8
BLACK
6
CONTINUOUS
10
161.074
20
-109.106
11
161.074
21
-107.963
0
LINE
8
BLACK
6
CONTINUOUS
10
161.074
20
-107.963
11
161.217
21
-107.677
0
LINE
8
BLACK
6
CONTINUOUS
10
161.217
20
-107.677
11
161.503
21
-107.534
0
LINE
8
BLACK
6
CONTINUOUS
10
161.503
20
-107.534
11
162.074
21
-107.534
0
LINE
8
BLACK
6
CONTINUOUS
10
162.074
20
-107.534
11
162.36
21
-107.677
0
LINE
8
BLACK
6
CONTINUOUS
10
162.36
20
-107.677
11
162.503
21
-107.963
0
LINE
8
BLACK
6
CONTINUOUS
10
162.503
20
-107.963
11
162.503
21
-108.248
0
LINE
8
BLACK
6
CONTINUOUS
10
162.503
20
-108.248
11
161.074
21
-108.534
0
LINE
8
BLACK
6
CONTINUOUS
10
163.646
20
-109.391
11
163.931
21
-109.534
0
LINE
8
BLACK
6
CONTINUOUS
10
163.931
20
-109.534
11
164.503
21
-109.534
0
LINE
8
BLACK
6
CONTINUOUS
10
164.503
20
-109.534
11
164.788
21
-109.391
0
LINE
8
BLACK
6
CONTINUOUS
10
164.788
20
-109.391
11
164.931
21
-109.106
0
LINE
8
BLACK
6
CONTINUOUS
10
164.931
20
-109.106
11
164.931
21
-108.963
0
LINE
8
BLACK
6
CONTINUOUS
10
164.931
20
-108.963
11
164.788
21
-108.677
0
LINE
8
BLACK
6
CONTINUOUS
10
164.788
20
-108.677
11
164.503
21
-108.534
0
LINE
8
BLACK
6
CONTINUOUS
10
164.503
20
-108.534
11
164.074
21
-108.534
0
LINE
8
BLACK
6
CONTINUOUS
10
164.074
20
-108.534
11
163.788
21
-108.391
0
LINE
8
BLACK
6
CONTINUOUS
10
163.788
20
-108.391
11
163.646
21
-108.106
0
LINE
8
BLACK
6
CONTINUOUS
10
163.646
20
-108.106
11
163.646
21
-107.963
0
LINE
8
BLACK
6
CONTINUOUS
10
163.646
20
-107.963
11
163.788
21
-107.677
0
LINE
8
BLACK
6
CONTINUOUS
10
163.788
20
-107.677
11
164.074
21
-107.534
0
LINE
8
BLACK
6
CONTINUOUS
10
164.074
20
-107.534
11
164.503
21
-107.534
0
LINE
8
BLACK
6
CONTINUOUS
10
164.503
20
-107.534
11
164.788
21
-107.677
0
LINE
8
BLACK
6
CONTINUOUS
10
165.931
20
-110.677
11
166.074
21
-110.534
0
LINE
8
BLACK
6
CONTINUOUS
10
166.074
20
-110.534
11
166.36
21
-110.106
0
LINE
8
BLACK
6
CONTINUOUS
10
166.36
20
-110.106
11
166.503
21
-109.82
0
LINE
8
BLACK
6
CONTINUOUS
10
166.503
20
-109.82
11
166.646
21
-109.391
0
LINE
8
BLACK
6
CONTINUOUS
10
166.646
20
-109.391
11
166.788
21
-108.677
0
LINE
8
BLACK
6
CONTINUOUS
10
166.788
20
-108.677
11
166.788
21
-108.106
0
LINE
8
BLACK
6
CONTINUOUS
10
166.788
20
-108.106
11
166.646
21
-107.391
0
LINE
8
BLACK
6
CONTINUOUS
10
166.646
20
-107.391
11
166.503
21
-106.963
0
LINE
8
BLACK
6
CONTINUOUS
10
166.503
20
-106.963
11
166.36
21
-106.677
0
LINE
8
BLACK
6
CONTINUOUS
10
166.36
20
-106.677
11
166.074
21
-106.248
0
LINE
8
BLACK
6
CONTINUOUS
10
166.074
20
-106.248
11
165.931
21
-106.106
0
LINE
8
BLACK
6
CONTINUOUS
10
171.36
20
-110.677
11
171.217
21
-110.534
0
LINE
8
BLACK
6
CONTINUOUS
10
171.217
20
-110.534
11
170.931
21
-110.106
0
LINE
8
BLACK
6
CONTINUOUS
10
170.931
20
-110.106
11
170.788
21
-109.82
0
LINE
8
BLACK
6
CONTINUOUS
10
170.788
20
-109.82
11
170.646
21
-109.391
0
LINE
8
BLACK
6
CONTINUOUS
10
170.646
20
-109.391
11
170.503
21
-108.677
0
LINE
8
BLACK
6
CONTINUOUS
10
170.503
20
-108.677
11
170.503
21
-108.106
0
LINE
8
BLACK
6
CONTINUOUS
10
170.503
20
-108.106
11
170.646
21
-107.391
0
LINE
8
BLACK
6
CONTINUOUS
10
170.646
20
-107.391
11
170.788
21
-106.963
0
LINE
8
BLACK
6
CONTINUOUS
10
170.788
20
-106.963
11
170.931
21
-106.677
0
LINE
8
BLACK
6
CONTINUOUS
10
170.931
20
-106.677
11
171.217
21
-106.248
0
LINE
8
BLACK
6
CONTINUOUS
10
171.217
20
-106.248
11
171.36
21
-106.106
0
LINE
8
BLACK
6
CONTINUOUS
10
172.503
20
-107.534
11
172.503
21
-109.534
0
LINE
8
BLACK
6
CONTINUOUS
10
172.503
20
-107.82
11
172.646
21
-107.677
0
LINE
8
BLACK
6
CONTINUOUS
10
172.646
20
-107.677
11
172.931
21
-107.534
0
LINE
8
BLACK
6
CONTINUOUS
10
172.931
20
-107.534
11
173.36
21
-107.534
0
LINE
8
BLACK
6
CONTINUOUS
10
173.36
20
-107.534
11
173.646
21
-107.677
0
LINE
8
BLACK
6
CONTINUOUS
10
173.646
20
-107.677
11
173.788
21
-107.963
0
LINE
8
BLACK
6
CONTINUOUS
10
173.788
20
-107.963
11
173.788
21
-109.534
0
LINE
8
BLACK
6
CONTINUOUS
10
175.646
20
-109.534
11
175.36
21
-109.391
0
LINE
8
BLACK
6
CONTINUOUS
10
175.36
20
-109.391
11
175.217
21
-109.248
0
LINE
8
BLACK
6
CONTINUOUS
10
175.217
20
-109.248
11
175.074
21
-108.963
0
LINE
8
BLACK
6
CONTINUOUS
10
175.074
20
-108.963
11
175.074
21
-108.106
0
LINE
8
BLACK
6
CONTINUOUS
10
175.074
20
-108.106
11
175.217
21
-107.82
0
LINE
8
BLACK
6
CONTINUOUS
10
175.217
20
-107.82
11
175.36
21
-107.677
0
LINE
8
BLACK
6
CONTINUOUS
10
175.36
20
-107.677
11
175.646
21
-107.534
0
LINE
8
BLACK
6
CONTINUOUS
10
175.646
20
-107.534
11
176.074
21
-107.534
0
LINE
8
BLACK
6
CONTINUOUS
10
176.074
20
-107.534
11
176.36
21
-107.677
0
LINE
8
BLACK
6
CONTINUOUS
10
176.36
20
-107.677
11
176.503
21
-107.82
0
LINE
8
BLACK
6
CONTINUOUS
10
176.503
20
-107.82
11
176.646
21
-108.106
0
LINE
8
BLACK
6
CONTINUOUS
10
176.646
20
-108.106
11
176.646
21
-108.963
0
LINE
8
BLACK
6
CONTINUOUS
10
176.646
20
-108.963
11
176.503
21
-109.248
0
LINE
8
BLACK
6
CONTINUOUS
10
176.503
20
-109.248
11
176.36
21
-109.391
0
LINE
8
BLACK
6
CONTINUOUS
10
176.36
20
-109.391
11
176.074
21
-109.534
0
LINE
8
BLACK
6
CONTINUOUS
10
176.074
20
-109.534
11
175.646
21
-109.534
0
LINE
8
BLACK
6
CONTINUOUS
10
177.503
20
-107.534
11
178.646
21
-107.534
0
LINE
8
BLACK
6
CONTINUOUS
10
177.931
20
-106.534
11
177.931
21
-109.106
0
LINE
8
BLACK
6
CONTINUOUS
10
177.931
20
-109.106
11
178.074
21
-109.391
0
LINE
8
BLACK
6
CONTINUOUS
10
178.074
20
-109.391
11
178.36
21
-109.534
0
LINE
8
BLACK
6
CONTINUOUS
10
178.36
20
-109.534
11
178.646
21
-109.534
0
LINE
8
BLACK
6
CONTINUOUS
10
181.931
20
-107.534
11
181.931
21
-110.534
0
LINE
8
BLACK
6
CONTINUOUS
10
181.931
20
-107.677
11
182.217
21
-107.534
0
LINE
8
BLACK
6
CONTINUOUS
10
182.217
20
-107.534
11
182.788
21
-107.534
0
LINE
8
BLACK
6
CONTINUOUS
10
182.788
20
-107.534
11
183.074
21
-107.677
0
LINE
8
BLACK
6
CONTINUOUS
10
183.074
20
-107.677
11
183.217
21
-107.82
0
LINE
8
BLACK
6
CONTINUOUS
10
183.217
20
-107.82
11
183.36
21
-108.106
0
LINE
8
BLACK
6
CONTINUOUS
10
183.36
20
-108.106
11
183.36
21
-108.963
0
LINE
8
BLACK
6
CONTINUOUS
10
183.36
20
-108.963
11
183.217
21
-109.248
0
LINE
8
BLACK
6
CONTINUOUS
10
183.217
20
-109.248
11
183.074
21
-109.391
0
LINE
8
BLACK
6
CONTINUOUS
10
183.074
20
-109.391
11
182.788
21
-109.534
0
LINE
8
BLACK
6
CONTINUOUS
10
182.788
20
-109.534
11
182.217
21
-109.534
0
LINE
8
BLACK
6
CONTINUOUS
10
182.217
20
-109.534
11
181.931
21
-109.391
0
LINE
8
BLACK
6
CONTINUOUS
10
185.074
20
-109.534
11
184.788
21
-109.391
0
LINE
8
BLACK
6
CONTINUOUS
10
184.788
20
-109.391
11
184.646
21
-109.106
0
LINE
8
BLACK
6
CONTINUOUS
10
184.646
20
-109.106
11
184.646
21
-106.534
0
LINE
8
BLACK
6
CONTINUOUS
10
187.503
20
-109.534
11
187.503
21
-107.963
0
LINE
8
BLACK
6
CONTINUOUS
10
187.503
20
-107.963
11
187.36
21
-107.677
0
LINE
8
BLACK
6
CONTINUOUS
10
187.36
20
-107.677
11
187.074
21
-107.534
0
LINE
8
BLACK
6
CONTINUOUS
10
187.074
20
-107.534
11
186.503
21
-107.534
0
LINE
8
BLACK
6
CONTINUOUS
10
186.503
20
-107.534
11
186.217
21
-107.677
0
LINE
8
BLACK
6
CONTINUOUS
10
187.503
20
-109.391
11
187.217
21
-109.534
0
LINE
8
BLACK
6
CONTINUOUS
10
187.217
20
-109.534
11
186.503
21
-109.534
0
LINE
8
BLACK
6
CONTINUOUS
10
186.503
20
-109.534
11
186.217
21
-109.391
0
LINE
8
BLACK
6
CONTINUOUS
10
186.217
20
-109.391
11
186.074
21
-109.106
0
LINE
8
BLACK
6
CONTINUOUS
10
186.074
20
-109.106
11
186.074
21
-108.82
0
LINE
8
BLACK
6
CONTINUOUS
10
186.074
20
-108.82
11
186.217
21
-108.534
0
LINE
8
BLACK
6
CONTINUOUS
10
186.217
20
-108.534
11
186.503
21
-108.391
0
LINE
8
BLACK
6
CONTINUOUS
10
186.503
20
-108.391
11
187.217
21
-108.391
0
LINE
8
BLACK
6
CONTINUOUS
10
187.217
20
-108.391
11
187.503
21
-108.248
0
LINE
8
BLACK
6
CONTINUOUS
10
188.503
20
-107.534
11
189.646
21
-107.534
0
LINE
8
BLACK
6
CONTINUOUS
10
188.931
20
-106.534
11
188.931
21
-109.106
0
LINE
8
BLACK
6
CONTINUOUS
10
188.931
20
-109.106
11
189.074
21
-109.391
0
LINE
8
BLACK
6
CONTINUOUS
10
189.074
20
-109.391
11
189.36
21
-109.534
0
LINE
8
BLACK
6
CONTINUOUS
10
189.36
20
-109.534
11
189.646
21
-109.534
0
LINE
8
BLACK
6
CONTINUOUS
10
191.788
20
-109.391
11
191.503
21
-109.534
0
LINE
8
BLACK
6
CONTINUOUS
10
191.503
20
-109.534
11
190.931
21
-109.534
0
LINE
8
BLACK
6
CONTINUOUS
10
190.931
20
-109.534
11
190.646
21
-109.391
0
LINE
8
BLACK
6
CONTINUOUS
10
190.646
20
-109.391
11
190.503
21
-109.106
0
LINE
8
BLACK
6
CONTINUOUS
10
190.503
20
-109.106
11
190.503
21
-107.963
0
LINE
8
BLACK
6
CONTINUOUS
10
190.503
20
-107.963
11
190.646
21
-107.677
0
LINE
8
BLACK
6
CONTINUOUS
10
190.646
20
-107.677
11
190.931
21
-107.534
0
LINE
8
BLACK
6
CONTINUOUS
10
190.931
20
-107.534
11
191.503
21
-107.534
0
LINE
8
BLACK
6
CONTINUOUS
10
191.503
20
-107.534
11
191.788
21
-107.677
0
LINE
8
BLACK
6
CONTINUOUS
10
191.788
20
-107.677
11
191.931
21
-107.963
0
LINE
8
BLACK
6
CONTINUOUS
10
191.931
20
-107.963
11
191.931
21
-108.248
0
LINE
8
BLACK
6
CONTINUOUS
10
191.931
20
-108.248
11
190.503
21
-108.534
0
LINE
8
BLACK
6
CONTINUOUS
10
194.503
20
-109.534
11
194.503
21
-106.534
0
LINE
8
BLACK
6
CONTINUOUS
10
194.503
20
-109.391
11
194.217
21
-109.534
0
LINE
8
BLACK
6
CONTINUOUS
10
194.217
20
-109.534
11
193.646
21
-109.534
0
LINE
8
BLACK
6
CONTINUOUS
10
193.646
20
-109.534
11
193.36
21
-109.391
0
LINE
8
BLACK
6
CONTINUOUS
10
193.36
20
-109.391
11
193.217
21
-109.248
0
LINE
8
BLACK
6
CONTINUOUS
10
193.217
20
-109.248
11
193.074
21
-108.963
0
LINE
8
BLACK
6
CONTINUOUS
10
193.074
20
-108.963
11
193.074
21
-108.106
0
LINE
8
BLACK
6
CONTINUOUS
10
193.074
20
-108.106
11
193.217
21
-107.82
0
LINE
8
BLACK
6
CONTINUOUS
10
193.217
20
-107.82
11
193.36
21
-107.677
0
LINE
8
BLACK
6
CONTINUOUS
10
193.36
20
-107.677
11
193.646
21
-107.534
0
LINE
8
BLACK
6
CONTINUOUS
10
193.646
20
-107.534
11
194.217
21
-107.534
0
LINE
8
BLACK
6
CONTINUOUS
10
194.217
20
-107.534
11
194.503
21
-107.677
0
LINE
8
BLACK
6
CONTINUOUS
10
195.646
20
-110.677
11
195.788
21
-110.534
0
LINE
8
BLACK
6
CONTINUOUS
10
195.788
20
-110.534
11
196.074
21
-110.106
0
LINE
8
BLACK
6
CONTINUOUS
10
196.074
20
-110.106
11
196.217
21
-109.82
0
LINE
8
BLACK
6
CONTINUOUS
10
196.217
20
-109.82
11
196.36
21
-109.391
0
LINE
8
BLACK
6
CONTINUOUS
10
196.36
20
-109.391
11
196.503
21
-108.677
0
LINE
8
BLACK
6
CONTINUOUS
10
196.503
20
-108.677
11
196.503
21
-108.106
0
LINE
8
BLACK
6
CONTINUOUS
10
196.503
20
-108.106
11
196.36
21
-107.391
0
LINE
8
BLACK
6
CONTINUOUS
10
196.36
20
-107.391
11
196.217
21
-106.963
0
LINE
8
BLACK
6
CONTINUOUS
10
196.217
20
-106.963
11
196.074
21
-106.677
0
LINE
8
BLACK
6
CONTINUOUS
10
196.074
20
-106.677
11
195.788
21
-106.248
0
LINE
8
BLACK
6
CONTINUOUS
10
195.788
20
-106.248
11
195.646
21
-106.106
  0
ENDSEC
  0
EOF
