M48
; DRILL file {KiCad (5.1.5)-3} date 8.04.2020 00:48:28
; FORMAT={-:-/ absolute / metric / decimal}
; #@! TF.CreationDate,2020-04-08T00:48:28+03:00
; #@! TF.GenerationSoftware,Kicad,Pcbnew,(5.1.5)-3
; #@! TF.FileFunction,Plated,1,2,PTH
FMAT,2
METRIC
T1C0.762
T2C0.800
T3C0.900
T4C1.000
T5C1.016
T6C1.100
T7C1.520
%
G90
G05
T1
X111.252Y-50.8
X111.252Y-53.34
X113.792Y-50.8
X113.792Y-53.34
X116.332Y-50.8
X116.332Y-53.34
X118.872Y-50.8
X118.872Y-53.34
T2
X111.252Y-47.244
X111.252Y-56.642
X112.776Y-67.31
X117.348Y-67.564
X118.364Y-48.006
X121.412Y-48.26
X125.984Y-69.596
X128.524Y-48.26
X133.35Y-27.94
X135.636Y-52.832
X138.176Y-38.608
X143.002Y-25.908
X143.51Y-80.772
X149.86Y-85.09
X150.876Y-62.992
X151.384Y-53.594
X151.892Y-45.212
X157.734Y-45.212
X120.904Y-81.788
X120.904Y-84.288
X110.744Y-35.56
X110.744Y-43.18
X113.284Y-35.56
X113.284Y-43.18
X115.824Y-35.56
X115.824Y-43.18
X118.364Y-35.56
X118.364Y-43.18
X120.904Y-35.56
X120.904Y-43.18
X123.444Y-35.56
X123.444Y-43.18
X125.984Y-35.56
X125.984Y-43.18
X128.524Y-35.56
X128.524Y-43.18
X131.064Y-35.56
X131.064Y-43.18
X133.604Y-35.56
X133.604Y-43.18
X136.144Y-35.56
X136.144Y-43.18
X138.684Y-35.56
X138.684Y-43.18
X141.224Y-35.56
X141.224Y-43.18
X143.764Y-35.56
X143.764Y-43.18
X139.272Y-67.056
X144.272Y-67.056
X142.24Y-74.168
X144.74Y-74.168
X118.364Y-30.988
X125.984Y-30.988
X118.912Y-73.152
X121.412Y-73.152
X136.144Y-30.988
X143.764Y-30.988
X119.58Y-26.416
X124.46Y-26.416
X114.3Y-25.4
X114.3Y-27.9
X109.728Y-75.692
X111.728Y-75.692
X113.728Y-75.692
X109.808Y-70.612
X114.808Y-70.612
X128.016Y-59.436
X135.636Y-59.436
X124.46Y-89.916
X132.08Y-89.916
X129.032Y-81.828
X129.032Y-84.328
X129.54Y-25.4
X129.54Y-27.9
T3
X128.016Y-53.34
X130.556Y-53.34
X118.364Y-89.916
X120.904Y-89.916
T4
X144.272Y-49.784
X146.812Y-49.784
X149.352Y-49.784
X151.892Y-49.784
X141.732Y-57.404
X144.272Y-57.404
X146.812Y-57.404
X149.352Y-57.404
X151.892Y-57.404
T5
X114.3Y-61.976
X114.3Y-64.516
X116.84Y-61.976
X116.84Y-64.516
X119.38Y-61.976
X119.38Y-64.516
T6
X135.128Y-86.868
X125.476Y-74.676
X135.636Y-74.676
X147.932Y-31.06
X147.932Y-35.56
X154.432Y-31.06
X154.432Y-35.56
X135.128Y-81.788
X135.128Y-84.328
T7
X111.252Y-82.804
X111.252Y-87.884
T0
M30
