  0
SECTION
  2
HEADER
  9
$ANGBASE
  50
0.0
  9
$ANGDIR
  70
1
  9
$MEASUREMENT
  70
1
  0
ENDSEC
  0
SECTION
  2
TABLES
  0
TABLE
  2
LTYPE
  70
4
  0
LTYPE
  5
40F
  2
CONTINUOUS
  70
0
  3
Solid line
  72
65
  73
0
  40
0.0
  0
LTYPE
  5
410
  2
DASHDOT
 70
0
  3
Dash Dot ____ _ ____ _
 72
65
 73
4
 40
2.0
 49
1.25
 49
-0.25
 49
0.25
 49
-0.25
  0
LTYPE
  5
411
  2
DASHED
 70
0
  3
Dashed __ __ __ __ __
 72
65
 73
2
 40
0.75
 49
0.5
 49
-0.25
  0
LTYPE
  5
43B
  2
DOTTED
 70
0
  3
Dotted .  .  .  .
 72
65
 73
2
 40
0.2
 49
0.0
 49
-0.2
  0
ENDTAB
  0
TABLE
  2
STYLE
  70
4
  0
STYLE
  2
KICAD
  70
0
  40
0
  41
1
  42
1
  50
0
  71
0
  3
isocp.shx
  0
STYLE
  2
KICADB
  70
0
  40
0
  41
1
  42
1
  50
0
  71
0
  3
isocp.shx
  0
STYLE
  2
KICADI
  70
0
  40
0
  41
1
  42
1
  50
15
  71
0
  3
isocp.shx
  0
STYLE
  2
KICADBI
  70
0
  40
0
  41
1
  42
1
  50
15
  71
0
  3
isocp.shx
  0
ENDTAB
  0
TABLE
  2
LAYER
  70
1
  0
LAYER
  2
BLACK
  70
0
  62
7
  6
CONTINUOUS
  0
ENDTAB
  0
ENDSEC
  0
SECTION
  2
ENTITIES
0
LINE
8
BLACK
6
CONTINUOUS
10
162.053
20
-17.247
11
162.053
21
-17.247
0
LINE
8
BLACK
6
CONTINUOUS
10
162.053
20
-17.247
11
162.057
21
-17.2474
0
LINE
8
BLACK
6
CONTINUOUS
10
162.057
20
-17.2474
11
162.062
21
-17.2488
0
LINE
8
BLACK
6
CONTINUOUS
10
162.062
20
-17.2488
11
162.066
21
-17.2511
0
LINE
8
BLACK
6
CONTINUOUS
10
162.066
20
-17.2511
11
162.07
21
-17.2542
0
LINE
8
BLACK
6
CONTINUOUS
10
162.07
20
-17.2542
11
162.073
21
-17.258
0
LINE
8
BLACK
6
CONTINUOUS
10
162.073
20
-17.258
11
162.075
21
-17.2624
0
LINE
8
BLACK
6
CONTINUOUS
10
162.075
20
-17.2624
11
162.077
21
-17.2671
0
LINE
8
BLACK
6
CONTINUOUS
10
162.077
20
-17.2671
11
162.077
21
-17.272
0
LINE
8
BLACK
6
CONTINUOUS
10
162.077
20
-17.272
11
162.077
21
-17.2732
0
LINE
8
BLACK
6
CONTINUOUS
10
162.077
20
-17.2732
11
162.077
21
-98.5508
0
LINE
8
BLACK
6
CONTINUOUS
10
162.077
20
-98.5508
11
162.077
21
-98.552
0
LINE
8
BLACK
6
CONTINUOUS
10
162.077
20
-98.552
11
162.077
21
-98.5532
0
LINE
8
BLACK
6
CONTINUOUS
10
162.077
20
-98.5532
11
162.077
21
-98.5532
0
LINE
8
BLACK
6
CONTINUOUS
10
162.077
20
-98.5532
11
162.077
21
-98.5569
0
LINE
8
BLACK
6
CONTINUOUS
10
162.077
20
-98.5569
11
162.075
21
-98.5616
0
LINE
8
BLACK
6
CONTINUOUS
10
162.075
20
-98.5616
11
162.073
21
-98.566
0
LINE
8
BLACK
6
CONTINUOUS
10
162.073
20
-98.566
11
162.07
21
-98.5698
0
LINE
8
BLACK
6
CONTINUOUS
10
162.07
20
-98.5698
11
162.066
21
-98.5729
0
LINE
8
BLACK
6
CONTINUOUS
10
162.066
20
-98.5729
11
162.062
21
-98.5752
0
LINE
8
BLACK
6
CONTINUOUS
10
162.062
20
-98.5752
11
162.057
21
-98.5766
0
LINE
8
BLACK
6
CONTINUOUS
10
162.057
20
-98.5766
11
162.052
21
-98.5771
0
LINE
8
BLACK
6
CONTINUOUS
10
162.052
20
-98.5771
11
162.051
21
-98.577
0
LINE
8
BLACK
6
CONTINUOUS
10
162.051
20
-98.577
11
101.093
21
-98.577
0
LINE
8
BLACK
6
CONTINUOUS
10
101.093
20
-98.577
11
101.092
21
-98.5771
0
LINE
8
BLACK
6
CONTINUOUS
10
101.092
20
-98.5771
11
101.087
21
-98.5766
0
LINE
8
BLACK
6
CONTINUOUS
10
101.087
20
-98.5766
11
101.082
21
-98.5752
0
LINE
8
BLACK
6
CONTINUOUS
10
101.082
20
-98.5752
11
101.078
21
-98.5729
0
LINE
8
BLACK
6
CONTINUOUS
10
101.078
20
-98.5729
11
101.074
21
-98.5698
0
LINE
8
BLACK
6
CONTINUOUS
10
101.074
20
-98.5698
11
101.071
21
-98.566
0
LINE
8
BLACK
6
CONTINUOUS
10
101.071
20
-98.566
11
101.069
21
-98.5616
0
LINE
8
BLACK
6
CONTINUOUS
10
101.069
20
-98.5616
11
101.067
21
-98.5569
0
LINE
8
BLACK
6
CONTINUOUS
10
101.067
20
-98.5569
11
101.067
21
-98.552
0
LINE
8
BLACK
6
CONTINUOUS
10
101.067
20
-98.552
11
101.067
21
-98.5508
0
LINE
8
BLACK
6
CONTINUOUS
10
101.067
20
-98.5508
11
101.067
21
-17.2732
0
LINE
8
BLACK
6
CONTINUOUS
10
101.067
20
-17.2732
11
101.067
21
-17.272
0
LINE
8
BLACK
6
CONTINUOUS
10
101.067
20
-17.272
11
101.067
21
-17.2671
0
LINE
8
BLACK
6
CONTINUOUS
10
101.067
20
-17.2671
11
101.069
21
-17.2624
0
LINE
8
BLACK
6
CONTINUOUS
10
101.069
20
-17.2624
11
101.071
21
-17.258
0
LINE
8
BLACK
6
CONTINUOUS
10
101.071
20
-17.258
11
101.074
21
-17.2542
0
LINE
8
BLACK
6
CONTINUOUS
10
101.074
20
-17.2542
11
101.078
21
-17.2511
0
LINE
8
BLACK
6
CONTINUOUS
10
101.078
20
-17.2511
11
101.082
21
-17.2488
0
LINE
8
BLACK
6
CONTINUOUS
10
101.082
20
-17.2488
11
101.087
21
-17.2474
0
LINE
8
BLACK
6
CONTINUOUS
10
101.087
20
-17.2474
11
101.091
21
-17.247
0
LINE
8
BLACK
6
CONTINUOUS
10
101.091
20
-17.247
11
101.091
21
-17.247
0
LINE
8
BLACK
6
CONTINUOUS
10
101.091
20
-17.247
11
101.092
21
-17.2469
0
LINE
8
BLACK
6
CONTINUOUS
10
101.092
20
-17.2469
11
101.093
21
-17.247
0
LINE
8
BLACK
6
CONTINUOUS
10
101.093
20
-17.247
11
162.051
21
-17.247
0
LINE
8
BLACK
6
CONTINUOUS
10
162.051
20
-17.247
11
162.052
21
-17.2469
0
LINE
8
BLACK
6
CONTINUOUS
10
162.052
20
-17.2469
11
162.053
21
-17.247
0
LINE
8
BLACK
6
CONTINUOUS
10
101.117
20
-17.297
11
101.117
21
-98.527
0
LINE
8
BLACK
6
CONTINUOUS
10
101.117
20
-98.527
11
162.027
21
-98.527
0
LINE
8
BLACK
6
CONTINUOUS
10
162.027
20
-98.527
11
162.027
21
-17.297
0
LINE
8
BLACK
6
CONTINUOUS
10
162.027
20
-17.297
11
101.117
21
-17.297
  0
ENDSEC
  0
EOF
