G04 #@! TF.GenerationSoftware,KiCad,Pcbnew,(5.1.5)-3*
G04 #@! TF.CreationDate,2020-11-04T23:21:00+03:00*
G04 #@! TF.ProjectId,dark dedector adjusted,6461726b-2064-4656-9465-63746f722061,rev?*
G04 #@! TF.SameCoordinates,Original*
G04 #@! TF.FileFunction,Copper,L2,Bot*
G04 #@! TF.FilePolarity,Positive*
%FSLAX46Y46*%
G04 Gerber Fmt 4.6, Leading zero omitted, Abs format (unit mm)*
G04 Created by KiCad (PCBNEW (5.1.5)-3) date 2020-11-04 23:21:00*
%MOMM*%
%LPD*%
G04 APERTURE LIST*
%ADD10C,1.550000*%
%ADD11R,1.550000X1.550000*%
%ADD12R,3.000000X3.000000*%
%ADD13C,3.000000*%
%ADD14R,1.800000X1.800000*%
%ADD15C,1.800000*%
%ADD16O,1.500000X1.050000*%
%ADD17R,1.500000X1.050000*%
%ADD18C,1.600000*%
%ADD19C,1.400000*%
%ADD20O,1.400000X1.400000*%
%ADD21C,0.400000*%
%ADD22C,0.254000*%
G04 APERTURE END LIST*
D10*
X143500000Y-86200000D03*
D11*
X148500000Y-83700000D03*
D10*
X148500000Y-88700000D03*
D12*
X159400000Y-81400000D03*
D13*
X159400000Y-86480000D03*
D14*
X158100000Y-93700000D03*
D15*
X160640000Y-93700000D03*
D16*
X152100000Y-94370000D03*
X152100000Y-95640000D03*
D17*
X152100000Y-93100000D03*
D18*
X145000000Y-92800000D03*
X145000000Y-95800000D03*
D19*
X152800000Y-81900000D03*
D20*
X152800000Y-89520000D03*
D21*
X153300000Y-81400000D02*
X152800000Y-81900000D01*
X159400000Y-81400000D02*
X153300000Y-81400000D01*
X151000000Y-83700000D02*
X148500000Y-83700000D01*
X152800000Y-81900000D02*
X151000000Y-83700000D01*
X157500000Y-93100000D02*
X158100000Y-93700000D01*
X152100000Y-93100000D02*
X157500000Y-93100000D01*
X153789949Y-89520000D02*
X152800000Y-89520000D01*
X157732792Y-89520000D02*
X153789949Y-89520000D01*
X160640000Y-92427208D02*
X157732792Y-89520000D01*
X160640000Y-93700000D02*
X160640000Y-92427208D01*
X146000000Y-88700000D02*
X148500000Y-88700000D01*
X145000000Y-89600000D02*
X145900000Y-88700000D01*
X145000000Y-92800000D02*
X145000000Y-89600000D01*
X143500000Y-86200000D02*
X145900000Y-88700000D01*
X145900000Y-88700000D02*
X146000000Y-88700000D01*
X150950000Y-94370000D02*
X152100000Y-94370000D01*
X148500000Y-91920000D02*
X150950000Y-94370000D01*
X148500000Y-88700000D02*
X148500000Y-91920000D01*
D22*
G36*
X163340001Y-97340000D02*
G01*
X141660000Y-97340000D01*
X141660000Y-96792702D01*
X144186903Y-96792702D01*
X144258486Y-97036671D01*
X144513996Y-97157571D01*
X144788184Y-97226300D01*
X145070512Y-97240217D01*
X145350130Y-97198787D01*
X145616292Y-97103603D01*
X145741514Y-97036671D01*
X145813097Y-96792702D01*
X145000000Y-95979605D01*
X144186903Y-96792702D01*
X141660000Y-96792702D01*
X141660000Y-95870512D01*
X143559783Y-95870512D01*
X143601213Y-96150130D01*
X143696397Y-96416292D01*
X143763329Y-96541514D01*
X144007298Y-96613097D01*
X144820395Y-95800000D01*
X145179605Y-95800000D01*
X145992702Y-96613097D01*
X146236671Y-96541514D01*
X146357571Y-96286004D01*
X146426300Y-96011816D01*
X146429553Y-95945810D01*
X150756036Y-95945810D01*
X150764728Y-96007337D01*
X150857725Y-96216882D01*
X150989816Y-96404258D01*
X151155924Y-96562264D01*
X151349666Y-96684828D01*
X151563596Y-96767239D01*
X151789493Y-96806331D01*
X151973000Y-96646598D01*
X151973000Y-95767000D01*
X152227000Y-95767000D01*
X152227000Y-96646598D01*
X152410507Y-96806331D01*
X152636404Y-96767239D01*
X152850334Y-96684828D01*
X153044076Y-96562264D01*
X153210184Y-96404258D01*
X153342275Y-96216882D01*
X153435272Y-96007337D01*
X153443964Y-95945810D01*
X153318163Y-95767000D01*
X152227000Y-95767000D01*
X151973000Y-95767000D01*
X150881837Y-95767000D01*
X150756036Y-95945810D01*
X146429553Y-95945810D01*
X146440217Y-95729488D01*
X146398787Y-95449870D01*
X146303603Y-95183708D01*
X146236671Y-95058486D01*
X145992702Y-94986903D01*
X145179605Y-95800000D01*
X144820395Y-95800000D01*
X144007298Y-94986903D01*
X143763329Y-95058486D01*
X143642429Y-95313996D01*
X143573700Y-95588184D01*
X143559783Y-95870512D01*
X141660000Y-95870512D01*
X141660000Y-94807298D01*
X144186903Y-94807298D01*
X145000000Y-95620395D01*
X145813097Y-94807298D01*
X145741514Y-94563329D01*
X145486004Y-94442429D01*
X145211816Y-94373700D01*
X144929488Y-94359783D01*
X144649870Y-94401213D01*
X144383708Y-94496397D01*
X144258486Y-94563329D01*
X144186903Y-94807298D01*
X141660000Y-94807298D01*
X141660000Y-86061127D01*
X142090000Y-86061127D01*
X142090000Y-86338873D01*
X142144186Y-86611282D01*
X142250475Y-86867885D01*
X142404782Y-87098822D01*
X142601178Y-87295218D01*
X142832115Y-87449525D01*
X143088718Y-87555814D01*
X143361127Y-87610000D01*
X143638873Y-87610000D01*
X143686932Y-87600440D01*
X144731059Y-88688074D01*
X144438574Y-88980559D01*
X144406710Y-89006709D01*
X144325907Y-89105168D01*
X144302364Y-89133855D01*
X144224828Y-89278914D01*
X144177082Y-89436312D01*
X144160960Y-89600000D01*
X144165001Y-89641028D01*
X144165000Y-91632070D01*
X144085241Y-91685363D01*
X143885363Y-91885241D01*
X143728320Y-92120273D01*
X143620147Y-92381426D01*
X143565000Y-92658665D01*
X143565000Y-92941335D01*
X143620147Y-93218574D01*
X143728320Y-93479727D01*
X143885363Y-93714759D01*
X144085241Y-93914637D01*
X144320273Y-94071680D01*
X144581426Y-94179853D01*
X144858665Y-94235000D01*
X145141335Y-94235000D01*
X145418574Y-94179853D01*
X145679727Y-94071680D01*
X145914759Y-93914637D01*
X146114637Y-93714759D01*
X146271680Y-93479727D01*
X146379853Y-93218574D01*
X146435000Y-92941335D01*
X146435000Y-92658665D01*
X146379853Y-92381426D01*
X146271680Y-92120273D01*
X146114637Y-91885241D01*
X145914759Y-91685363D01*
X145835000Y-91632070D01*
X145835000Y-89945867D01*
X146245868Y-89535000D01*
X147362138Y-89535000D01*
X147404782Y-89598822D01*
X147601178Y-89795218D01*
X147665000Y-89837863D01*
X147665001Y-91878972D01*
X147660960Y-91920000D01*
X147677082Y-92083688D01*
X147724828Y-92241086D01*
X147782411Y-92348815D01*
X147802365Y-92386146D01*
X147906710Y-92513291D01*
X147938574Y-92539441D01*
X150330559Y-94931427D01*
X150356709Y-94963291D01*
X150483854Y-95067636D01*
X150628913Y-95145172D01*
X150786311Y-95192918D01*
X150799541Y-95194221D01*
X150764728Y-95272663D01*
X150756036Y-95334190D01*
X150881837Y-95513000D01*
X151646891Y-95513000D01*
X151647600Y-95513215D01*
X151818021Y-95530000D01*
X152381979Y-95530000D01*
X152552400Y-95513215D01*
X152553109Y-95513000D01*
X153318163Y-95513000D01*
X153443964Y-95334190D01*
X153435272Y-95272663D01*
X153342275Y-95063118D01*
X153301071Y-95004669D01*
X153401885Y-94816060D01*
X153468215Y-94597400D01*
X153490612Y-94370000D01*
X153468215Y-94142600D01*
X153405240Y-93935000D01*
X156561928Y-93935000D01*
X156561928Y-94600000D01*
X156574188Y-94724482D01*
X156610498Y-94844180D01*
X156669463Y-94954494D01*
X156748815Y-95051185D01*
X156845506Y-95130537D01*
X156955820Y-95189502D01*
X157075518Y-95225812D01*
X157200000Y-95238072D01*
X159000000Y-95238072D01*
X159124482Y-95225812D01*
X159244180Y-95189502D01*
X159354494Y-95130537D01*
X159451185Y-95051185D01*
X159530537Y-94954494D01*
X159589502Y-94844180D01*
X159595056Y-94825873D01*
X159661495Y-94892312D01*
X159912905Y-95060299D01*
X160192257Y-95176011D01*
X160488816Y-95235000D01*
X160791184Y-95235000D01*
X161087743Y-95176011D01*
X161367095Y-95060299D01*
X161618505Y-94892312D01*
X161832312Y-94678505D01*
X162000299Y-94427095D01*
X162116011Y-94147743D01*
X162175000Y-93851184D01*
X162175000Y-93548816D01*
X162116011Y-93252257D01*
X162000299Y-92972905D01*
X161832312Y-92721495D01*
X161618505Y-92507688D01*
X161477700Y-92413605D01*
X161462918Y-92263519D01*
X161415172Y-92106121D01*
X161337636Y-91961062D01*
X161275411Y-91885241D01*
X161233291Y-91833917D01*
X161201427Y-91807767D01*
X158352238Y-88958579D01*
X158326083Y-88926709D01*
X158198938Y-88822364D01*
X158053879Y-88744828D01*
X157896481Y-88697082D01*
X157773811Y-88685000D01*
X157773810Y-88685000D01*
X157732792Y-88680960D01*
X157691774Y-88685000D01*
X153847661Y-88685000D01*
X153836962Y-88668987D01*
X153651013Y-88483038D01*
X153432359Y-88336939D01*
X153189405Y-88236304D01*
X152931486Y-88185000D01*
X152668514Y-88185000D01*
X152410595Y-88236304D01*
X152167641Y-88336939D01*
X151948987Y-88483038D01*
X151763038Y-88668987D01*
X151616939Y-88887641D01*
X151516304Y-89130595D01*
X151465000Y-89388514D01*
X151465000Y-89651486D01*
X151516304Y-89909405D01*
X151616939Y-90152359D01*
X151763038Y-90371013D01*
X151948987Y-90556962D01*
X152167641Y-90703061D01*
X152410595Y-90803696D01*
X152668514Y-90855000D01*
X152931486Y-90855000D01*
X153189405Y-90803696D01*
X153432359Y-90703061D01*
X153651013Y-90556962D01*
X153836962Y-90371013D01*
X153847661Y-90355000D01*
X157386925Y-90355000D01*
X159241657Y-92209733D01*
X159124482Y-92174188D01*
X159000000Y-92161928D01*
X157200000Y-92161928D01*
X157075518Y-92174188D01*
X156955820Y-92210498D01*
X156853856Y-92265000D01*
X153404320Y-92265000D01*
X153380537Y-92220506D01*
X153301185Y-92123815D01*
X153204494Y-92044463D01*
X153094180Y-91985498D01*
X152974482Y-91949188D01*
X152850000Y-91936928D01*
X151350000Y-91936928D01*
X151225518Y-91949188D01*
X151105820Y-91985498D01*
X150995506Y-92044463D01*
X150898815Y-92123815D01*
X150819463Y-92220506D01*
X150760498Y-92330820D01*
X150724188Y-92450518D01*
X150711928Y-92575000D01*
X150711928Y-92951060D01*
X149335000Y-91574133D01*
X149335000Y-89837862D01*
X149398822Y-89795218D01*
X149595218Y-89598822D01*
X149749525Y-89367885D01*
X149855814Y-89111282D01*
X149910000Y-88838873D01*
X149910000Y-88561127D01*
X149855814Y-88288718D01*
X149749525Y-88032115D01*
X149709126Y-87971653D01*
X158087952Y-87971653D01*
X158243962Y-88287214D01*
X158618745Y-88478020D01*
X159023551Y-88592044D01*
X159442824Y-88624902D01*
X159860451Y-88575334D01*
X160260383Y-88445243D01*
X160556038Y-88287214D01*
X160712048Y-87971653D01*
X159400000Y-86659605D01*
X158087952Y-87971653D01*
X149709126Y-87971653D01*
X149595218Y-87801178D01*
X149398822Y-87604782D01*
X149167885Y-87450475D01*
X148911282Y-87344186D01*
X148638873Y-87290000D01*
X148361127Y-87290000D01*
X148088718Y-87344186D01*
X147832115Y-87450475D01*
X147601178Y-87604782D01*
X147404782Y-87801178D01*
X147362138Y-87865000D01*
X146255892Y-87865000D01*
X144967402Y-86522824D01*
X157255098Y-86522824D01*
X157304666Y-86940451D01*
X157434757Y-87340383D01*
X157592786Y-87636038D01*
X157908347Y-87792048D01*
X159220395Y-86480000D01*
X159579605Y-86480000D01*
X160891653Y-87792048D01*
X161207214Y-87636038D01*
X161398020Y-87261255D01*
X161512044Y-86856449D01*
X161544902Y-86437176D01*
X161495334Y-86019549D01*
X161365243Y-85619617D01*
X161207214Y-85323962D01*
X160891653Y-85167952D01*
X159579605Y-86480000D01*
X159220395Y-86480000D01*
X157908347Y-85167952D01*
X157592786Y-85323962D01*
X157401980Y-85698745D01*
X157287956Y-86103551D01*
X157255098Y-86522824D01*
X144967402Y-86522824D01*
X144889542Y-86441720D01*
X144910000Y-86338873D01*
X144910000Y-86061127D01*
X144855814Y-85788718D01*
X144749525Y-85532115D01*
X144595218Y-85301178D01*
X144398822Y-85104782D01*
X144167885Y-84950475D01*
X143911282Y-84844186D01*
X143638873Y-84790000D01*
X143361127Y-84790000D01*
X143088718Y-84844186D01*
X142832115Y-84950475D01*
X142601178Y-85104782D01*
X142404782Y-85301178D01*
X142250475Y-85532115D01*
X142144186Y-85788718D01*
X142090000Y-86061127D01*
X141660000Y-86061127D01*
X141660000Y-82925000D01*
X147086928Y-82925000D01*
X147086928Y-84475000D01*
X147099188Y-84599482D01*
X147135498Y-84719180D01*
X147194463Y-84829494D01*
X147273815Y-84926185D01*
X147370506Y-85005537D01*
X147480820Y-85064502D01*
X147600518Y-85100812D01*
X147725000Y-85113072D01*
X149275000Y-85113072D01*
X149399482Y-85100812D01*
X149519180Y-85064502D01*
X149629494Y-85005537D01*
X149650440Y-84988347D01*
X158087952Y-84988347D01*
X159400000Y-86300395D01*
X160712048Y-84988347D01*
X160556038Y-84672786D01*
X160181255Y-84481980D01*
X159776449Y-84367956D01*
X159357176Y-84335098D01*
X158939549Y-84384666D01*
X158539617Y-84514757D01*
X158243962Y-84672786D01*
X158087952Y-84988347D01*
X149650440Y-84988347D01*
X149726185Y-84926185D01*
X149805537Y-84829494D01*
X149864502Y-84719180D01*
X149900812Y-84599482D01*
X149907163Y-84535000D01*
X150958982Y-84535000D01*
X151000000Y-84539040D01*
X151041018Y-84535000D01*
X151041019Y-84535000D01*
X151163689Y-84522918D01*
X151321087Y-84475172D01*
X151466146Y-84397636D01*
X151593291Y-84293291D01*
X151619446Y-84261421D01*
X152649625Y-83231243D01*
X152668514Y-83235000D01*
X152931486Y-83235000D01*
X153189405Y-83183696D01*
X153432359Y-83083061D01*
X153651013Y-82936962D01*
X153836962Y-82751013D01*
X153983061Y-82532359D01*
X154083696Y-82289405D01*
X154094518Y-82235000D01*
X157261928Y-82235000D01*
X157261928Y-82900000D01*
X157274188Y-83024482D01*
X157310498Y-83144180D01*
X157369463Y-83254494D01*
X157448815Y-83351185D01*
X157545506Y-83430537D01*
X157655820Y-83489502D01*
X157775518Y-83525812D01*
X157900000Y-83538072D01*
X160900000Y-83538072D01*
X161024482Y-83525812D01*
X161144180Y-83489502D01*
X161254494Y-83430537D01*
X161351185Y-83351185D01*
X161430537Y-83254494D01*
X161489502Y-83144180D01*
X161525812Y-83024482D01*
X161538072Y-82900000D01*
X161538072Y-79900000D01*
X161525812Y-79775518D01*
X161489502Y-79655820D01*
X161430537Y-79545506D01*
X161351185Y-79448815D01*
X161254494Y-79369463D01*
X161144180Y-79310498D01*
X161024482Y-79274188D01*
X160900000Y-79261928D01*
X157900000Y-79261928D01*
X157775518Y-79274188D01*
X157655820Y-79310498D01*
X157545506Y-79369463D01*
X157448815Y-79448815D01*
X157369463Y-79545506D01*
X157310498Y-79655820D01*
X157274188Y-79775518D01*
X157261928Y-79900000D01*
X157261928Y-80565000D01*
X153341018Y-80565000D01*
X153300000Y-80560960D01*
X153258982Y-80565000D01*
X153258981Y-80565000D01*
X153136311Y-80577082D01*
X153079247Y-80594392D01*
X152931486Y-80565000D01*
X152668514Y-80565000D01*
X152410595Y-80616304D01*
X152167641Y-80716939D01*
X151948987Y-80863038D01*
X151763038Y-81048987D01*
X151616939Y-81267641D01*
X151516304Y-81510595D01*
X151465000Y-81768514D01*
X151465000Y-82031486D01*
X151468757Y-82050375D01*
X150654133Y-82865000D01*
X149907163Y-82865000D01*
X149900812Y-82800518D01*
X149864502Y-82680820D01*
X149805537Y-82570506D01*
X149726185Y-82473815D01*
X149629494Y-82394463D01*
X149519180Y-82335498D01*
X149399482Y-82299188D01*
X149275000Y-82286928D01*
X147725000Y-82286928D01*
X147600518Y-82299188D01*
X147480820Y-82335498D01*
X147370506Y-82394463D01*
X147273815Y-82473815D01*
X147194463Y-82570506D01*
X147135498Y-82680820D01*
X147099188Y-82800518D01*
X147086928Y-82925000D01*
X141660000Y-82925000D01*
X141660000Y-78660000D01*
X163340000Y-78660000D01*
X163340001Y-97340000D01*
G37*
X163340001Y-97340000D02*
X141660000Y-97340000D01*
X141660000Y-96792702D01*
X144186903Y-96792702D01*
X144258486Y-97036671D01*
X144513996Y-97157571D01*
X144788184Y-97226300D01*
X145070512Y-97240217D01*
X145350130Y-97198787D01*
X145616292Y-97103603D01*
X145741514Y-97036671D01*
X145813097Y-96792702D01*
X145000000Y-95979605D01*
X144186903Y-96792702D01*
X141660000Y-96792702D01*
X141660000Y-95870512D01*
X143559783Y-95870512D01*
X143601213Y-96150130D01*
X143696397Y-96416292D01*
X143763329Y-96541514D01*
X144007298Y-96613097D01*
X144820395Y-95800000D01*
X145179605Y-95800000D01*
X145992702Y-96613097D01*
X146236671Y-96541514D01*
X146357571Y-96286004D01*
X146426300Y-96011816D01*
X146429553Y-95945810D01*
X150756036Y-95945810D01*
X150764728Y-96007337D01*
X150857725Y-96216882D01*
X150989816Y-96404258D01*
X151155924Y-96562264D01*
X151349666Y-96684828D01*
X151563596Y-96767239D01*
X151789493Y-96806331D01*
X151973000Y-96646598D01*
X151973000Y-95767000D01*
X152227000Y-95767000D01*
X152227000Y-96646598D01*
X152410507Y-96806331D01*
X152636404Y-96767239D01*
X152850334Y-96684828D01*
X153044076Y-96562264D01*
X153210184Y-96404258D01*
X153342275Y-96216882D01*
X153435272Y-96007337D01*
X153443964Y-95945810D01*
X153318163Y-95767000D01*
X152227000Y-95767000D01*
X151973000Y-95767000D01*
X150881837Y-95767000D01*
X150756036Y-95945810D01*
X146429553Y-95945810D01*
X146440217Y-95729488D01*
X146398787Y-95449870D01*
X146303603Y-95183708D01*
X146236671Y-95058486D01*
X145992702Y-94986903D01*
X145179605Y-95800000D01*
X144820395Y-95800000D01*
X144007298Y-94986903D01*
X143763329Y-95058486D01*
X143642429Y-95313996D01*
X143573700Y-95588184D01*
X143559783Y-95870512D01*
X141660000Y-95870512D01*
X141660000Y-94807298D01*
X144186903Y-94807298D01*
X145000000Y-95620395D01*
X145813097Y-94807298D01*
X145741514Y-94563329D01*
X145486004Y-94442429D01*
X145211816Y-94373700D01*
X144929488Y-94359783D01*
X144649870Y-94401213D01*
X144383708Y-94496397D01*
X144258486Y-94563329D01*
X144186903Y-94807298D01*
X141660000Y-94807298D01*
X141660000Y-86061127D01*
X142090000Y-86061127D01*
X142090000Y-86338873D01*
X142144186Y-86611282D01*
X142250475Y-86867885D01*
X142404782Y-87098822D01*
X142601178Y-87295218D01*
X142832115Y-87449525D01*
X143088718Y-87555814D01*
X143361127Y-87610000D01*
X143638873Y-87610000D01*
X143686932Y-87600440D01*
X144731059Y-88688074D01*
X144438574Y-88980559D01*
X144406710Y-89006709D01*
X144325907Y-89105168D01*
X144302364Y-89133855D01*
X144224828Y-89278914D01*
X144177082Y-89436312D01*
X144160960Y-89600000D01*
X144165001Y-89641028D01*
X144165000Y-91632070D01*
X144085241Y-91685363D01*
X143885363Y-91885241D01*
X143728320Y-92120273D01*
X143620147Y-92381426D01*
X143565000Y-92658665D01*
X143565000Y-92941335D01*
X143620147Y-93218574D01*
X143728320Y-93479727D01*
X143885363Y-93714759D01*
X144085241Y-93914637D01*
X144320273Y-94071680D01*
X144581426Y-94179853D01*
X144858665Y-94235000D01*
X145141335Y-94235000D01*
X145418574Y-94179853D01*
X145679727Y-94071680D01*
X145914759Y-93914637D01*
X146114637Y-93714759D01*
X146271680Y-93479727D01*
X146379853Y-93218574D01*
X146435000Y-92941335D01*
X146435000Y-92658665D01*
X146379853Y-92381426D01*
X146271680Y-92120273D01*
X146114637Y-91885241D01*
X145914759Y-91685363D01*
X145835000Y-91632070D01*
X145835000Y-89945867D01*
X146245868Y-89535000D01*
X147362138Y-89535000D01*
X147404782Y-89598822D01*
X147601178Y-89795218D01*
X147665000Y-89837863D01*
X147665001Y-91878972D01*
X147660960Y-91920000D01*
X147677082Y-92083688D01*
X147724828Y-92241086D01*
X147782411Y-92348815D01*
X147802365Y-92386146D01*
X147906710Y-92513291D01*
X147938574Y-92539441D01*
X150330559Y-94931427D01*
X150356709Y-94963291D01*
X150483854Y-95067636D01*
X150628913Y-95145172D01*
X150786311Y-95192918D01*
X150799541Y-95194221D01*
X150764728Y-95272663D01*
X150756036Y-95334190D01*
X150881837Y-95513000D01*
X151646891Y-95513000D01*
X151647600Y-95513215D01*
X151818021Y-95530000D01*
X152381979Y-95530000D01*
X152552400Y-95513215D01*
X152553109Y-95513000D01*
X153318163Y-95513000D01*
X153443964Y-95334190D01*
X153435272Y-95272663D01*
X153342275Y-95063118D01*
X153301071Y-95004669D01*
X153401885Y-94816060D01*
X153468215Y-94597400D01*
X153490612Y-94370000D01*
X153468215Y-94142600D01*
X153405240Y-93935000D01*
X156561928Y-93935000D01*
X156561928Y-94600000D01*
X156574188Y-94724482D01*
X156610498Y-94844180D01*
X156669463Y-94954494D01*
X156748815Y-95051185D01*
X156845506Y-95130537D01*
X156955820Y-95189502D01*
X157075518Y-95225812D01*
X157200000Y-95238072D01*
X159000000Y-95238072D01*
X159124482Y-95225812D01*
X159244180Y-95189502D01*
X159354494Y-95130537D01*
X159451185Y-95051185D01*
X159530537Y-94954494D01*
X159589502Y-94844180D01*
X159595056Y-94825873D01*
X159661495Y-94892312D01*
X159912905Y-95060299D01*
X160192257Y-95176011D01*
X160488816Y-95235000D01*
X160791184Y-95235000D01*
X161087743Y-95176011D01*
X161367095Y-95060299D01*
X161618505Y-94892312D01*
X161832312Y-94678505D01*
X162000299Y-94427095D01*
X162116011Y-94147743D01*
X162175000Y-93851184D01*
X162175000Y-93548816D01*
X162116011Y-93252257D01*
X162000299Y-92972905D01*
X161832312Y-92721495D01*
X161618505Y-92507688D01*
X161477700Y-92413605D01*
X161462918Y-92263519D01*
X161415172Y-92106121D01*
X161337636Y-91961062D01*
X161275411Y-91885241D01*
X161233291Y-91833917D01*
X161201427Y-91807767D01*
X158352238Y-88958579D01*
X158326083Y-88926709D01*
X158198938Y-88822364D01*
X158053879Y-88744828D01*
X157896481Y-88697082D01*
X157773811Y-88685000D01*
X157773810Y-88685000D01*
X157732792Y-88680960D01*
X157691774Y-88685000D01*
X153847661Y-88685000D01*
X153836962Y-88668987D01*
X153651013Y-88483038D01*
X153432359Y-88336939D01*
X153189405Y-88236304D01*
X152931486Y-88185000D01*
X152668514Y-88185000D01*
X152410595Y-88236304D01*
X152167641Y-88336939D01*
X151948987Y-88483038D01*
X151763038Y-88668987D01*
X151616939Y-88887641D01*
X151516304Y-89130595D01*
X151465000Y-89388514D01*
X151465000Y-89651486D01*
X151516304Y-89909405D01*
X151616939Y-90152359D01*
X151763038Y-90371013D01*
X151948987Y-90556962D01*
X152167641Y-90703061D01*
X152410595Y-90803696D01*
X152668514Y-90855000D01*
X152931486Y-90855000D01*
X153189405Y-90803696D01*
X153432359Y-90703061D01*
X153651013Y-90556962D01*
X153836962Y-90371013D01*
X153847661Y-90355000D01*
X157386925Y-90355000D01*
X159241657Y-92209733D01*
X159124482Y-92174188D01*
X159000000Y-92161928D01*
X157200000Y-92161928D01*
X157075518Y-92174188D01*
X156955820Y-92210498D01*
X156853856Y-92265000D01*
X153404320Y-92265000D01*
X153380537Y-92220506D01*
X153301185Y-92123815D01*
X153204494Y-92044463D01*
X153094180Y-91985498D01*
X152974482Y-91949188D01*
X152850000Y-91936928D01*
X151350000Y-91936928D01*
X151225518Y-91949188D01*
X151105820Y-91985498D01*
X150995506Y-92044463D01*
X150898815Y-92123815D01*
X150819463Y-92220506D01*
X150760498Y-92330820D01*
X150724188Y-92450518D01*
X150711928Y-92575000D01*
X150711928Y-92951060D01*
X149335000Y-91574133D01*
X149335000Y-89837862D01*
X149398822Y-89795218D01*
X149595218Y-89598822D01*
X149749525Y-89367885D01*
X149855814Y-89111282D01*
X149910000Y-88838873D01*
X149910000Y-88561127D01*
X149855814Y-88288718D01*
X149749525Y-88032115D01*
X149709126Y-87971653D01*
X158087952Y-87971653D01*
X158243962Y-88287214D01*
X158618745Y-88478020D01*
X159023551Y-88592044D01*
X159442824Y-88624902D01*
X159860451Y-88575334D01*
X160260383Y-88445243D01*
X160556038Y-88287214D01*
X160712048Y-87971653D01*
X159400000Y-86659605D01*
X158087952Y-87971653D01*
X149709126Y-87971653D01*
X149595218Y-87801178D01*
X149398822Y-87604782D01*
X149167885Y-87450475D01*
X148911282Y-87344186D01*
X148638873Y-87290000D01*
X148361127Y-87290000D01*
X148088718Y-87344186D01*
X147832115Y-87450475D01*
X147601178Y-87604782D01*
X147404782Y-87801178D01*
X147362138Y-87865000D01*
X146255892Y-87865000D01*
X144967402Y-86522824D01*
X157255098Y-86522824D01*
X157304666Y-86940451D01*
X157434757Y-87340383D01*
X157592786Y-87636038D01*
X157908347Y-87792048D01*
X159220395Y-86480000D01*
X159579605Y-86480000D01*
X160891653Y-87792048D01*
X161207214Y-87636038D01*
X161398020Y-87261255D01*
X161512044Y-86856449D01*
X161544902Y-86437176D01*
X161495334Y-86019549D01*
X161365243Y-85619617D01*
X161207214Y-85323962D01*
X160891653Y-85167952D01*
X159579605Y-86480000D01*
X159220395Y-86480000D01*
X157908347Y-85167952D01*
X157592786Y-85323962D01*
X157401980Y-85698745D01*
X157287956Y-86103551D01*
X157255098Y-86522824D01*
X144967402Y-86522824D01*
X144889542Y-86441720D01*
X144910000Y-86338873D01*
X144910000Y-86061127D01*
X144855814Y-85788718D01*
X144749525Y-85532115D01*
X144595218Y-85301178D01*
X144398822Y-85104782D01*
X144167885Y-84950475D01*
X143911282Y-84844186D01*
X143638873Y-84790000D01*
X143361127Y-84790000D01*
X143088718Y-84844186D01*
X142832115Y-84950475D01*
X142601178Y-85104782D01*
X142404782Y-85301178D01*
X142250475Y-85532115D01*
X142144186Y-85788718D01*
X142090000Y-86061127D01*
X141660000Y-86061127D01*
X141660000Y-82925000D01*
X147086928Y-82925000D01*
X147086928Y-84475000D01*
X147099188Y-84599482D01*
X147135498Y-84719180D01*
X147194463Y-84829494D01*
X147273815Y-84926185D01*
X147370506Y-85005537D01*
X147480820Y-85064502D01*
X147600518Y-85100812D01*
X147725000Y-85113072D01*
X149275000Y-85113072D01*
X149399482Y-85100812D01*
X149519180Y-85064502D01*
X149629494Y-85005537D01*
X149650440Y-84988347D01*
X158087952Y-84988347D01*
X159400000Y-86300395D01*
X160712048Y-84988347D01*
X160556038Y-84672786D01*
X160181255Y-84481980D01*
X159776449Y-84367956D01*
X159357176Y-84335098D01*
X158939549Y-84384666D01*
X158539617Y-84514757D01*
X158243962Y-84672786D01*
X158087952Y-84988347D01*
X149650440Y-84988347D01*
X149726185Y-84926185D01*
X149805537Y-84829494D01*
X149864502Y-84719180D01*
X149900812Y-84599482D01*
X149907163Y-84535000D01*
X150958982Y-84535000D01*
X151000000Y-84539040D01*
X151041018Y-84535000D01*
X151041019Y-84535000D01*
X151163689Y-84522918D01*
X151321087Y-84475172D01*
X151466146Y-84397636D01*
X151593291Y-84293291D01*
X151619446Y-84261421D01*
X152649625Y-83231243D01*
X152668514Y-83235000D01*
X152931486Y-83235000D01*
X153189405Y-83183696D01*
X153432359Y-83083061D01*
X153651013Y-82936962D01*
X153836962Y-82751013D01*
X153983061Y-82532359D01*
X154083696Y-82289405D01*
X154094518Y-82235000D01*
X157261928Y-82235000D01*
X157261928Y-82900000D01*
X157274188Y-83024482D01*
X157310498Y-83144180D01*
X157369463Y-83254494D01*
X157448815Y-83351185D01*
X157545506Y-83430537D01*
X157655820Y-83489502D01*
X157775518Y-83525812D01*
X157900000Y-83538072D01*
X160900000Y-83538072D01*
X161024482Y-83525812D01*
X161144180Y-83489502D01*
X161254494Y-83430537D01*
X161351185Y-83351185D01*
X161430537Y-83254494D01*
X161489502Y-83144180D01*
X161525812Y-83024482D01*
X161538072Y-82900000D01*
X161538072Y-79900000D01*
X161525812Y-79775518D01*
X161489502Y-79655820D01*
X161430537Y-79545506D01*
X161351185Y-79448815D01*
X161254494Y-79369463D01*
X161144180Y-79310498D01*
X161024482Y-79274188D01*
X160900000Y-79261928D01*
X157900000Y-79261928D01*
X157775518Y-79274188D01*
X157655820Y-79310498D01*
X157545506Y-79369463D01*
X157448815Y-79448815D01*
X157369463Y-79545506D01*
X157310498Y-79655820D01*
X157274188Y-79775518D01*
X157261928Y-79900000D01*
X157261928Y-80565000D01*
X153341018Y-80565000D01*
X153300000Y-80560960D01*
X153258982Y-80565000D01*
X153258981Y-80565000D01*
X153136311Y-80577082D01*
X153079247Y-80594392D01*
X152931486Y-80565000D01*
X152668514Y-80565000D01*
X152410595Y-80616304D01*
X152167641Y-80716939D01*
X151948987Y-80863038D01*
X151763038Y-81048987D01*
X151616939Y-81267641D01*
X151516304Y-81510595D01*
X151465000Y-81768514D01*
X151465000Y-82031486D01*
X151468757Y-82050375D01*
X150654133Y-82865000D01*
X149907163Y-82865000D01*
X149900812Y-82800518D01*
X149864502Y-82680820D01*
X149805537Y-82570506D01*
X149726185Y-82473815D01*
X149629494Y-82394463D01*
X149519180Y-82335498D01*
X149399482Y-82299188D01*
X149275000Y-82286928D01*
X147725000Y-82286928D01*
X147600518Y-82299188D01*
X147480820Y-82335498D01*
X147370506Y-82394463D01*
X147273815Y-82473815D01*
X147194463Y-82570506D01*
X147135498Y-82680820D01*
X147099188Y-82800518D01*
X147086928Y-82925000D01*
X141660000Y-82925000D01*
X141660000Y-78660000D01*
X163340000Y-78660000D01*
X163340001Y-97340000D01*
M02*
