G04 #@! TF.GenerationSoftware,KiCad,Pcbnew,(5.1.5)-3*
G04 #@! TF.CreationDate,2020-04-25T22:11:23+03:00*
G04 #@! TF.ProjectId,ATtiny85_NeoPixel_SKRv.1.3,41547469-6e79-4383-955f-4e656f506978,v.1.0*
G04 #@! TF.SameCoordinates,Original*
G04 #@! TF.FileFunction,Soldermask,Top*
G04 #@! TF.FilePolarity,Negative*
%FSLAX46Y46*%
G04 Gerber Fmt 4.6, Leading zero omitted, Abs format (unit mm)*
G04 Created by KiCad (PCBNEW (5.1.5)-3) date 2020-04-25 22:11:23*
%MOMM*%
%LPD*%
G04 APERTURE LIST*
%ADD10C,0.100000*%
G04 APERTURE END LIST*
D10*
G36*
X51499072Y-87493930D02*
G01*
X51808452Y-87622079D01*
X52086887Y-87808123D01*
X52323677Y-88044913D01*
X52509721Y-88323348D01*
X52637870Y-88632728D01*
X52703200Y-88961165D01*
X52703200Y-89296035D01*
X52637870Y-89624472D01*
X52509721Y-89933852D01*
X52323677Y-90212287D01*
X52086887Y-90449077D01*
X51808452Y-90635121D01*
X51499072Y-90763270D01*
X51170635Y-90828600D01*
X50835765Y-90828600D01*
X50507328Y-90763270D01*
X50197948Y-90635121D01*
X49919513Y-90449077D01*
X49682723Y-90212287D01*
X49496679Y-89933852D01*
X49368530Y-89624472D01*
X49303200Y-89296035D01*
X49303200Y-88961165D01*
X49368530Y-88632728D01*
X49496679Y-88323348D01*
X49682723Y-88044913D01*
X49919513Y-87808123D01*
X50197948Y-87622079D01*
X50507328Y-87493930D01*
X50835765Y-87428600D01*
X51170635Y-87428600D01*
X51499072Y-87493930D01*
G37*
G36*
X112052672Y-87341530D02*
G01*
X112362052Y-87469679D01*
X112640487Y-87655723D01*
X112877277Y-87892513D01*
X113063321Y-88170948D01*
X113191470Y-88480328D01*
X113256800Y-88808765D01*
X113256800Y-89143635D01*
X113191470Y-89472072D01*
X113063321Y-89781452D01*
X112877277Y-90059887D01*
X112640487Y-90296677D01*
X112362052Y-90482721D01*
X112052672Y-90610870D01*
X111724235Y-90676200D01*
X111389365Y-90676200D01*
X111060928Y-90610870D01*
X110751548Y-90482721D01*
X110473113Y-90296677D01*
X110236323Y-90059887D01*
X110050279Y-89781452D01*
X109922130Y-89472072D01*
X109856800Y-89143635D01*
X109856800Y-88808765D01*
X109922130Y-88480328D01*
X110050279Y-88170948D01*
X110236323Y-87892513D01*
X110473113Y-87655723D01*
X110751548Y-87469679D01*
X111060928Y-87341530D01*
X111389365Y-87276200D01*
X111724235Y-87276200D01*
X112052672Y-87341530D01*
G37*
G36*
X59407800Y-82014400D02*
G01*
X55247800Y-82014400D01*
X55247800Y-79834400D01*
X59407800Y-79834400D01*
X59407800Y-82014400D01*
G37*
G36*
X81669520Y-79855786D02*
G01*
X81833310Y-79923630D01*
X81980717Y-80022124D01*
X82106076Y-80147483D01*
X82204570Y-80294890D01*
X82204571Y-80294893D01*
X82215062Y-80320220D01*
X82261267Y-80406663D01*
X82323449Y-80482431D01*
X82399217Y-80544612D01*
X82485660Y-80590817D01*
X82579457Y-80619269D01*
X82677002Y-80628876D01*
X82774547Y-80619268D01*
X82868343Y-80590815D01*
X82954786Y-80544610D01*
X83030554Y-80482428D01*
X83092735Y-80406660D01*
X83138938Y-80320220D01*
X83149429Y-80294893D01*
X83149430Y-80294890D01*
X83247924Y-80147483D01*
X83373283Y-80022124D01*
X83520690Y-79923630D01*
X83684480Y-79855786D01*
X83858358Y-79821200D01*
X84035642Y-79821200D01*
X84209520Y-79855786D01*
X84373310Y-79923630D01*
X84520717Y-80022124D01*
X84646076Y-80147483D01*
X84744570Y-80294890D01*
X84812414Y-80458680D01*
X84847000Y-80632558D01*
X84847000Y-80809842D01*
X84812414Y-80983720D01*
X84744570Y-81147510D01*
X84646076Y-81294917D01*
X84520717Y-81420276D01*
X84373310Y-81518770D01*
X84209520Y-81586614D01*
X84035642Y-81621200D01*
X83858358Y-81621200D01*
X83684480Y-81586614D01*
X83520690Y-81518770D01*
X83373283Y-81420276D01*
X83247924Y-81294917D01*
X83149430Y-81147510D01*
X83138938Y-81122180D01*
X83092733Y-81035737D01*
X83030551Y-80959969D01*
X82954783Y-80897788D01*
X82868340Y-80851583D01*
X82774543Y-80823131D01*
X82676998Y-80813524D01*
X82579453Y-80823132D01*
X82485657Y-80851585D01*
X82399214Y-80897790D01*
X82323446Y-80959972D01*
X82261265Y-81035740D01*
X82215062Y-81122180D01*
X82204570Y-81147510D01*
X82106076Y-81294917D01*
X81980717Y-81420276D01*
X81833310Y-81518770D01*
X81669520Y-81586614D01*
X81495642Y-81621200D01*
X81318358Y-81621200D01*
X81144480Y-81586614D01*
X80980690Y-81518770D01*
X80833283Y-81420276D01*
X80707924Y-81294917D01*
X80609430Y-81147510D01*
X80541586Y-80983720D01*
X80507000Y-80809842D01*
X80507000Y-80632558D01*
X80541586Y-80458680D01*
X80609430Y-80294890D01*
X80707924Y-80147483D01*
X80833283Y-80022124D01*
X80980690Y-79923630D01*
X81144480Y-79855786D01*
X81318358Y-79821200D01*
X81495642Y-79821200D01*
X81669520Y-79855786D01*
G37*
G36*
X90408800Y-81620400D02*
G01*
X88508800Y-81620400D01*
X88508800Y-79720400D01*
X90408800Y-79720400D01*
X90408800Y-81620400D01*
G37*
G36*
X106736813Y-79305086D02*
G01*
X106816877Y-79312971D01*
X107022343Y-79375299D01*
X107211702Y-79476513D01*
X107377676Y-79612724D01*
X107513887Y-79778698D01*
X107615101Y-79968057D01*
X107677429Y-80173523D01*
X107698474Y-80387200D01*
X107677429Y-80600877D01*
X107615101Y-80806343D01*
X107513887Y-80995702D01*
X107377676Y-81161676D01*
X107211702Y-81297887D01*
X107022343Y-81399101D01*
X106816877Y-81461429D01*
X106736813Y-81469314D01*
X106656750Y-81477200D01*
X104569650Y-81477200D01*
X104489587Y-81469314D01*
X104409523Y-81461429D01*
X104204057Y-81399101D01*
X104014698Y-81297887D01*
X103848724Y-81161676D01*
X103712513Y-80995702D01*
X103611299Y-80806343D01*
X103548971Y-80600877D01*
X103527926Y-80387200D01*
X103548971Y-80173523D01*
X103611299Y-79968057D01*
X103712513Y-79778698D01*
X103848724Y-79612724D01*
X104014698Y-79476513D01*
X104204057Y-79375299D01*
X104409523Y-79312971D01*
X104489587Y-79305086D01*
X104569650Y-79297200D01*
X106656750Y-79297200D01*
X106736813Y-79305086D01*
G37*
G36*
X77275320Y-70889586D02*
G01*
X77439110Y-70957430D01*
X77586517Y-71055924D01*
X77711876Y-71181283D01*
X77810370Y-71328690D01*
X77878214Y-71492480D01*
X77912800Y-71666358D01*
X77912800Y-71843642D01*
X77878214Y-72017520D01*
X77810370Y-72181310D01*
X77711876Y-72328717D01*
X77586517Y-72454076D01*
X77439110Y-72552570D01*
X77413780Y-72563062D01*
X77327337Y-72609267D01*
X77251569Y-72671449D01*
X77189388Y-72747217D01*
X77143183Y-72833660D01*
X77114731Y-72927457D01*
X77105124Y-73025002D01*
X77114732Y-73122547D01*
X77143185Y-73216343D01*
X77189390Y-73302786D01*
X77251572Y-73378554D01*
X77327340Y-73440735D01*
X77413780Y-73486938D01*
X77439110Y-73497430D01*
X77586517Y-73595924D01*
X77711876Y-73721283D01*
X77810370Y-73868690D01*
X77878214Y-74032480D01*
X77912800Y-74206358D01*
X77912800Y-74383642D01*
X77878214Y-74557520D01*
X77810370Y-74721310D01*
X77711876Y-74868717D01*
X77586517Y-74994076D01*
X77439110Y-75092570D01*
X77413780Y-75103062D01*
X77327337Y-75149267D01*
X77251569Y-75211449D01*
X77189388Y-75287217D01*
X77143183Y-75373660D01*
X77114731Y-75467457D01*
X77105124Y-75565002D01*
X77114732Y-75662547D01*
X77143185Y-75756343D01*
X77189390Y-75842786D01*
X77251572Y-75918554D01*
X77327340Y-75980735D01*
X77413780Y-76026938D01*
X77439110Y-76037430D01*
X77586517Y-76135924D01*
X77711876Y-76261283D01*
X77810370Y-76408690D01*
X77878214Y-76572480D01*
X77912800Y-76746358D01*
X77912800Y-76923642D01*
X77878214Y-77097520D01*
X77810370Y-77261310D01*
X77711876Y-77408717D01*
X77586517Y-77534076D01*
X77439110Y-77632570D01*
X77413780Y-77643062D01*
X77327337Y-77689267D01*
X77251569Y-77751449D01*
X77189388Y-77827217D01*
X77143183Y-77913660D01*
X77114731Y-78007457D01*
X77105124Y-78105002D01*
X77114732Y-78202547D01*
X77143185Y-78296343D01*
X77189390Y-78382786D01*
X77251572Y-78458554D01*
X77327340Y-78520735D01*
X77413780Y-78566938D01*
X77439110Y-78577430D01*
X77586517Y-78675924D01*
X77711876Y-78801283D01*
X77810370Y-78948690D01*
X77878214Y-79112480D01*
X77912800Y-79286358D01*
X77912800Y-79463642D01*
X77878214Y-79637520D01*
X77810370Y-79801310D01*
X77711876Y-79948717D01*
X77586517Y-80074076D01*
X77439110Y-80172570D01*
X77275320Y-80240414D01*
X77101442Y-80275000D01*
X76924158Y-80275000D01*
X76750280Y-80240414D01*
X76586490Y-80172570D01*
X76439083Y-80074076D01*
X76313724Y-79948717D01*
X76215230Y-79801310D01*
X76147386Y-79637520D01*
X76112800Y-79463642D01*
X76112800Y-79286358D01*
X76147386Y-79112480D01*
X76215230Y-78948690D01*
X76313724Y-78801283D01*
X76439083Y-78675924D01*
X76586490Y-78577430D01*
X76611820Y-78566938D01*
X76698263Y-78520733D01*
X76774031Y-78458551D01*
X76836212Y-78382783D01*
X76882417Y-78296340D01*
X76910869Y-78202543D01*
X76920476Y-78104998D01*
X76910868Y-78007453D01*
X76882415Y-77913657D01*
X76836210Y-77827214D01*
X76774028Y-77751446D01*
X76698260Y-77689265D01*
X76611820Y-77643062D01*
X76586490Y-77632570D01*
X76439083Y-77534076D01*
X76313724Y-77408717D01*
X76215230Y-77261310D01*
X76147386Y-77097520D01*
X76112800Y-76923642D01*
X76112800Y-76746358D01*
X76147386Y-76572480D01*
X76215230Y-76408690D01*
X76313724Y-76261283D01*
X76439083Y-76135924D01*
X76586490Y-76037430D01*
X76611820Y-76026938D01*
X76698263Y-75980733D01*
X76774031Y-75918551D01*
X76836212Y-75842783D01*
X76882417Y-75756340D01*
X76910869Y-75662543D01*
X76920476Y-75564998D01*
X76910868Y-75467453D01*
X76882415Y-75373657D01*
X76836210Y-75287214D01*
X76774028Y-75211446D01*
X76698260Y-75149265D01*
X76611820Y-75103062D01*
X76586490Y-75092570D01*
X76439083Y-74994076D01*
X76313724Y-74868717D01*
X76215230Y-74721310D01*
X76147386Y-74557520D01*
X76112800Y-74383642D01*
X76112800Y-74206358D01*
X76147386Y-74032480D01*
X76215230Y-73868690D01*
X76313724Y-73721283D01*
X76439083Y-73595924D01*
X76586490Y-73497430D01*
X76611820Y-73486938D01*
X76698263Y-73440733D01*
X76774031Y-73378551D01*
X76836212Y-73302783D01*
X76882417Y-73216340D01*
X76910869Y-73122543D01*
X76920476Y-73024998D01*
X76910868Y-72927453D01*
X76882415Y-72833657D01*
X76836210Y-72747214D01*
X76774028Y-72671446D01*
X76698260Y-72609265D01*
X76611820Y-72563062D01*
X76586490Y-72552570D01*
X76439083Y-72454076D01*
X76313724Y-72328717D01*
X76215230Y-72181310D01*
X76147386Y-72017520D01*
X76112800Y-71843642D01*
X76112800Y-71666358D01*
X76147386Y-71492480D01*
X76215230Y-71328690D01*
X76313724Y-71181283D01*
X76439083Y-71055924D01*
X76586490Y-70957430D01*
X76750280Y-70889586D01*
X76924158Y-70855000D01*
X77101442Y-70855000D01*
X77275320Y-70889586D01*
G37*
G36*
X70292800Y-72655000D02*
G01*
X70206599Y-72655000D01*
X70109054Y-72664607D01*
X70015258Y-72693060D01*
X69928814Y-72739265D01*
X69853046Y-72801446D01*
X69790865Y-72877214D01*
X69744660Y-72963658D01*
X69716207Y-73057454D01*
X69706600Y-73154999D01*
X69716207Y-73252544D01*
X69744660Y-73346340D01*
X69790865Y-73432784D01*
X69853046Y-73508552D01*
X69928806Y-73570726D01*
X69966517Y-73595924D01*
X70091876Y-73721283D01*
X70190370Y-73868690D01*
X70258214Y-74032480D01*
X70292800Y-74206358D01*
X70292800Y-74383642D01*
X70258214Y-74557520D01*
X70190370Y-74721310D01*
X70091876Y-74868717D01*
X69966517Y-74994076D01*
X69819110Y-75092570D01*
X69793780Y-75103062D01*
X69707337Y-75149267D01*
X69631569Y-75211449D01*
X69569388Y-75287217D01*
X69523183Y-75373660D01*
X69494731Y-75467457D01*
X69485124Y-75565002D01*
X69494732Y-75662547D01*
X69523185Y-75756343D01*
X69569390Y-75842786D01*
X69631572Y-75918554D01*
X69707340Y-75980735D01*
X69793780Y-76026938D01*
X69819110Y-76037430D01*
X69966517Y-76135924D01*
X70091876Y-76261283D01*
X70190370Y-76408690D01*
X70258214Y-76572480D01*
X70292800Y-76746358D01*
X70292800Y-76923642D01*
X70258214Y-77097520D01*
X70190370Y-77261310D01*
X70091876Y-77408717D01*
X69966517Y-77534076D01*
X69819110Y-77632570D01*
X69793780Y-77643062D01*
X69707337Y-77689267D01*
X69631569Y-77751449D01*
X69569388Y-77827217D01*
X69523183Y-77913660D01*
X69494731Y-78007457D01*
X69485124Y-78105002D01*
X69494732Y-78202547D01*
X69523185Y-78296343D01*
X69569390Y-78382786D01*
X69631572Y-78458554D01*
X69707340Y-78520735D01*
X69793780Y-78566938D01*
X69819110Y-78577430D01*
X69966517Y-78675924D01*
X70091876Y-78801283D01*
X70190370Y-78948690D01*
X70258214Y-79112480D01*
X70292800Y-79286358D01*
X70292800Y-79463642D01*
X70258214Y-79637520D01*
X70190370Y-79801310D01*
X70091876Y-79948717D01*
X69966517Y-80074076D01*
X69819110Y-80172570D01*
X69655320Y-80240414D01*
X69481442Y-80275000D01*
X69304158Y-80275000D01*
X69130280Y-80240414D01*
X68966490Y-80172570D01*
X68819083Y-80074076D01*
X68693724Y-79948717D01*
X68595230Y-79801310D01*
X68527386Y-79637520D01*
X68492800Y-79463642D01*
X68492800Y-79286358D01*
X68527386Y-79112480D01*
X68595230Y-78948690D01*
X68693724Y-78801283D01*
X68819083Y-78675924D01*
X68966490Y-78577430D01*
X68991820Y-78566938D01*
X69078263Y-78520733D01*
X69154031Y-78458551D01*
X69216212Y-78382783D01*
X69262417Y-78296340D01*
X69290869Y-78202543D01*
X69300476Y-78104998D01*
X69290868Y-78007453D01*
X69262415Y-77913657D01*
X69216210Y-77827214D01*
X69154028Y-77751446D01*
X69078260Y-77689265D01*
X68991820Y-77643062D01*
X68966490Y-77632570D01*
X68819083Y-77534076D01*
X68693724Y-77408717D01*
X68595230Y-77261310D01*
X68527386Y-77097520D01*
X68492800Y-76923642D01*
X68492800Y-76746358D01*
X68527386Y-76572480D01*
X68595230Y-76408690D01*
X68693724Y-76261283D01*
X68819083Y-76135924D01*
X68966490Y-76037430D01*
X68991820Y-76026938D01*
X69078263Y-75980733D01*
X69154031Y-75918551D01*
X69216212Y-75842783D01*
X69262417Y-75756340D01*
X69290869Y-75662543D01*
X69300476Y-75564998D01*
X69290868Y-75467453D01*
X69262415Y-75373657D01*
X69216210Y-75287214D01*
X69154028Y-75211446D01*
X69078260Y-75149265D01*
X68991820Y-75103062D01*
X68966490Y-75092570D01*
X68819083Y-74994076D01*
X68693724Y-74868717D01*
X68595230Y-74721310D01*
X68527386Y-74557520D01*
X68492800Y-74383642D01*
X68492800Y-74206358D01*
X68527386Y-74032480D01*
X68595230Y-73868690D01*
X68693724Y-73721283D01*
X68819083Y-73595924D01*
X68856794Y-73570726D01*
X68932554Y-73508551D01*
X68994735Y-73432783D01*
X69040940Y-73346340D01*
X69069393Y-73252544D01*
X69079000Y-73154999D01*
X69069393Y-73057454D01*
X69040940Y-72963657D01*
X68994735Y-72877214D01*
X68932553Y-72801446D01*
X68856785Y-72739265D01*
X68770342Y-72693060D01*
X68676546Y-72664607D01*
X68579001Y-72655000D01*
X68492800Y-72655000D01*
X68492800Y-70855000D01*
X70292800Y-70855000D01*
X70292800Y-72655000D01*
G37*
G36*
X81669520Y-75944186D02*
G01*
X81833310Y-76012030D01*
X81980717Y-76110524D01*
X82106076Y-76235883D01*
X82204570Y-76383290D01*
X82204571Y-76383293D01*
X82215062Y-76408620D01*
X82261267Y-76495063D01*
X82323449Y-76570831D01*
X82399217Y-76633012D01*
X82485660Y-76679217D01*
X82579457Y-76707669D01*
X82677002Y-76717276D01*
X82774547Y-76707668D01*
X82868343Y-76679215D01*
X82954786Y-76633010D01*
X83030554Y-76570828D01*
X83092735Y-76495060D01*
X83138938Y-76408620D01*
X83149429Y-76383293D01*
X83149430Y-76383290D01*
X83247924Y-76235883D01*
X83373283Y-76110524D01*
X83520690Y-76012030D01*
X83684480Y-75944186D01*
X83858358Y-75909600D01*
X84035642Y-75909600D01*
X84209520Y-75944186D01*
X84373310Y-76012030D01*
X84520717Y-76110524D01*
X84646076Y-76235883D01*
X84744570Y-76383290D01*
X84812414Y-76547080D01*
X84847000Y-76720958D01*
X84847000Y-76898242D01*
X84812414Y-77072120D01*
X84744570Y-77235910D01*
X84646076Y-77383317D01*
X84520717Y-77508676D01*
X84373310Y-77607170D01*
X84209520Y-77675014D01*
X84035642Y-77709600D01*
X83858358Y-77709600D01*
X83684480Y-77675014D01*
X83520690Y-77607170D01*
X83373283Y-77508676D01*
X83247924Y-77383317D01*
X83149430Y-77235910D01*
X83138938Y-77210580D01*
X83092733Y-77124137D01*
X83030551Y-77048369D01*
X82954783Y-76986188D01*
X82868340Y-76939983D01*
X82774543Y-76911531D01*
X82676998Y-76901924D01*
X82579453Y-76911532D01*
X82485657Y-76939985D01*
X82399214Y-76986190D01*
X82323446Y-77048372D01*
X82261265Y-77124140D01*
X82215062Y-77210580D01*
X82204570Y-77235910D01*
X82106076Y-77383317D01*
X81980717Y-77508676D01*
X81833310Y-77607170D01*
X81669520Y-77675014D01*
X81495642Y-77709600D01*
X81318358Y-77709600D01*
X81144480Y-77675014D01*
X80980690Y-77607170D01*
X80833283Y-77508676D01*
X80707924Y-77383317D01*
X80609430Y-77235910D01*
X80541586Y-77072120D01*
X80507000Y-76898242D01*
X80507000Y-76720958D01*
X80541586Y-76547080D01*
X80609430Y-76383290D01*
X80707924Y-76235883D01*
X80833283Y-76110524D01*
X80980690Y-76012030D01*
X81144480Y-75944186D01*
X81318358Y-75909600D01*
X81495642Y-75909600D01*
X81669520Y-75944186D01*
G37*
G36*
X58451413Y-74842286D02*
G01*
X58531477Y-74850171D01*
X58736943Y-74912499D01*
X58926302Y-75013713D01*
X59092276Y-75149924D01*
X59228487Y-75315898D01*
X59329701Y-75505257D01*
X59392029Y-75710723D01*
X59413074Y-75924400D01*
X59392029Y-76138077D01*
X59329701Y-76343543D01*
X59228487Y-76532902D01*
X59092276Y-76698876D01*
X58926302Y-76835087D01*
X58736943Y-76936301D01*
X58531477Y-76998629D01*
X58451413Y-77006515D01*
X58371350Y-77014400D01*
X56284250Y-77014400D01*
X56204187Y-77006515D01*
X56124123Y-76998629D01*
X55918657Y-76936301D01*
X55729298Y-76835087D01*
X55563324Y-76698876D01*
X55427113Y-76532902D01*
X55325899Y-76343543D01*
X55263571Y-76138077D01*
X55242526Y-75924400D01*
X55263571Y-75710723D01*
X55325899Y-75505257D01*
X55427113Y-75315898D01*
X55563324Y-75149924D01*
X55729298Y-75013713D01*
X55918657Y-74912499D01*
X56124123Y-74850171D01*
X56204187Y-74842286D01*
X56284250Y-74834400D01*
X58371350Y-74834400D01*
X58451413Y-74842286D01*
G37*
G36*
X107693200Y-76477200D02*
G01*
X103533200Y-76477200D01*
X103533200Y-74297200D01*
X107693200Y-74297200D01*
X107693200Y-76477200D01*
G37*
G36*
X87790920Y-71448386D02*
G01*
X87954710Y-71516230D01*
X88102117Y-71614724D01*
X88227476Y-71740083D01*
X88325970Y-71887490D01*
X88393814Y-72051280D01*
X88428400Y-72225158D01*
X88428400Y-72402442D01*
X88393814Y-72576320D01*
X88325970Y-72740110D01*
X88227476Y-72887517D01*
X88102117Y-73012876D01*
X87954710Y-73111370D01*
X87929380Y-73121862D01*
X87842937Y-73168067D01*
X87767169Y-73230249D01*
X87704988Y-73306017D01*
X87658783Y-73392460D01*
X87630331Y-73486257D01*
X87620724Y-73583802D01*
X87630332Y-73681347D01*
X87658785Y-73775143D01*
X87704990Y-73861586D01*
X87767172Y-73937354D01*
X87842940Y-73999535D01*
X87929380Y-74045738D01*
X87954710Y-74056230D01*
X88102117Y-74154724D01*
X88227476Y-74280083D01*
X88325970Y-74427490D01*
X88393814Y-74591280D01*
X88428400Y-74765158D01*
X88428400Y-74942442D01*
X88393814Y-75116320D01*
X88325970Y-75280110D01*
X88227476Y-75427517D01*
X88102117Y-75552876D01*
X87954710Y-75651370D01*
X87790920Y-75719214D01*
X87617042Y-75753800D01*
X87439758Y-75753800D01*
X87265880Y-75719214D01*
X87102090Y-75651370D01*
X86954683Y-75552876D01*
X86829324Y-75427517D01*
X86730830Y-75280110D01*
X86662986Y-75116320D01*
X86628400Y-74942442D01*
X86628400Y-74765158D01*
X86662986Y-74591280D01*
X86730830Y-74427490D01*
X86829324Y-74280083D01*
X86954683Y-74154724D01*
X87102090Y-74056230D01*
X87127420Y-74045738D01*
X87213863Y-73999533D01*
X87289631Y-73937351D01*
X87351812Y-73861583D01*
X87398017Y-73775140D01*
X87426469Y-73681343D01*
X87436076Y-73583798D01*
X87426468Y-73486253D01*
X87398015Y-73392457D01*
X87351810Y-73306014D01*
X87289628Y-73230246D01*
X87213860Y-73168065D01*
X87127420Y-73121862D01*
X87102090Y-73111370D01*
X86954683Y-73012876D01*
X86829324Y-72887517D01*
X86730830Y-72740110D01*
X86662986Y-72576320D01*
X86628400Y-72402442D01*
X86628400Y-72225158D01*
X86662986Y-72051280D01*
X86730830Y-71887490D01*
X86829324Y-71740083D01*
X86954683Y-71614724D01*
X87102090Y-71516230D01*
X87265880Y-71448386D01*
X87439758Y-71413800D01*
X87617042Y-71413800D01*
X87790920Y-71448386D01*
G37*
G36*
X95410920Y-71448386D02*
G01*
X95574710Y-71516230D01*
X95722117Y-71614724D01*
X95847476Y-71740083D01*
X95945970Y-71887490D01*
X96013814Y-72051280D01*
X96048400Y-72225158D01*
X96048400Y-72402442D01*
X96013814Y-72576320D01*
X95945970Y-72740110D01*
X95847476Y-72887517D01*
X95722117Y-73012876D01*
X95684406Y-73038074D01*
X95608646Y-73100249D01*
X95546465Y-73176017D01*
X95500260Y-73262460D01*
X95471807Y-73356256D01*
X95462200Y-73453801D01*
X95471807Y-73551346D01*
X95500260Y-73645143D01*
X95546465Y-73731586D01*
X95608647Y-73807354D01*
X95684415Y-73869535D01*
X95770858Y-73915740D01*
X95864654Y-73944193D01*
X95962199Y-73953800D01*
X96048400Y-73953800D01*
X96048400Y-75753800D01*
X94248400Y-75753800D01*
X94248400Y-73953800D01*
X94334601Y-73953800D01*
X94432146Y-73944193D01*
X94525942Y-73915740D01*
X94612386Y-73869535D01*
X94688154Y-73807354D01*
X94750335Y-73731586D01*
X94796540Y-73645142D01*
X94824993Y-73551346D01*
X94834600Y-73453801D01*
X94824993Y-73356256D01*
X94796540Y-73262460D01*
X94750335Y-73176016D01*
X94688154Y-73100248D01*
X94612394Y-73038074D01*
X94574683Y-73012876D01*
X94449324Y-72887517D01*
X94350830Y-72740110D01*
X94282986Y-72576320D01*
X94248400Y-72402442D01*
X94248400Y-72225158D01*
X94282986Y-72051280D01*
X94350830Y-71887490D01*
X94449324Y-71740083D01*
X94574683Y-71614724D01*
X94722090Y-71516230D01*
X94885880Y-71448386D01*
X95059758Y-71413800D01*
X95237042Y-71413800D01*
X95410920Y-71448386D01*
G37*
G36*
X81694920Y-72261186D02*
G01*
X81858710Y-72329030D01*
X82006117Y-72427524D01*
X82131476Y-72552883D01*
X82229970Y-72700290D01*
X82229971Y-72700293D01*
X82240462Y-72725620D01*
X82286667Y-72812063D01*
X82348849Y-72887831D01*
X82424617Y-72950012D01*
X82511060Y-72996217D01*
X82604857Y-73024669D01*
X82702402Y-73034276D01*
X82799947Y-73024668D01*
X82893743Y-72996215D01*
X82980186Y-72950010D01*
X83055954Y-72887828D01*
X83118135Y-72812060D01*
X83164338Y-72725620D01*
X83174829Y-72700293D01*
X83174830Y-72700290D01*
X83273324Y-72552883D01*
X83398683Y-72427524D01*
X83546090Y-72329030D01*
X83709880Y-72261186D01*
X83883758Y-72226600D01*
X84061042Y-72226600D01*
X84234920Y-72261186D01*
X84398710Y-72329030D01*
X84546117Y-72427524D01*
X84671476Y-72552883D01*
X84769970Y-72700290D01*
X84837814Y-72864080D01*
X84872400Y-73037958D01*
X84872400Y-73215242D01*
X84837814Y-73389120D01*
X84769970Y-73552910D01*
X84671476Y-73700317D01*
X84546117Y-73825676D01*
X84398710Y-73924170D01*
X84234920Y-73992014D01*
X84061042Y-74026600D01*
X83883758Y-74026600D01*
X83709880Y-73992014D01*
X83546090Y-73924170D01*
X83398683Y-73825676D01*
X83273324Y-73700317D01*
X83174830Y-73552910D01*
X83164338Y-73527580D01*
X83118133Y-73441137D01*
X83055951Y-73365369D01*
X82980183Y-73303188D01*
X82893740Y-73256983D01*
X82799943Y-73228531D01*
X82702398Y-73218924D01*
X82604853Y-73228532D01*
X82511057Y-73256985D01*
X82424614Y-73303190D01*
X82348846Y-73365372D01*
X82286665Y-73441140D01*
X82240462Y-73527580D01*
X82229970Y-73552910D01*
X82131476Y-73700317D01*
X82006117Y-73825676D01*
X81858710Y-73924170D01*
X81694920Y-73992014D01*
X81521042Y-74026600D01*
X81343758Y-74026600D01*
X81169880Y-73992014D01*
X81006090Y-73924170D01*
X80858683Y-73825676D01*
X80733324Y-73700317D01*
X80634830Y-73552910D01*
X80566986Y-73389120D01*
X80532400Y-73215242D01*
X80532400Y-73037958D01*
X80566986Y-72864080D01*
X80634830Y-72700290D01*
X80733324Y-72552883D01*
X80858683Y-72427524D01*
X81006090Y-72329030D01*
X81169880Y-72261186D01*
X81343758Y-72226600D01*
X81521042Y-72226600D01*
X81694920Y-72261186D01*
G37*
G36*
X59407800Y-67917400D02*
G01*
X55247800Y-67917400D01*
X55247800Y-65737400D01*
X59407800Y-65737400D01*
X59407800Y-67917400D01*
G37*
G36*
X106940013Y-65284286D02*
G01*
X107020077Y-65292171D01*
X107178548Y-65340243D01*
X107225115Y-65354369D01*
X107225543Y-65354499D01*
X107414902Y-65455713D01*
X107580876Y-65591924D01*
X107717087Y-65757898D01*
X107818301Y-65947257D01*
X107880629Y-66152723D01*
X107901674Y-66366400D01*
X107880629Y-66580077D01*
X107818301Y-66785543D01*
X107717087Y-66974902D01*
X107580876Y-67140876D01*
X107414902Y-67277087D01*
X107225543Y-67378301D01*
X107020077Y-67440629D01*
X106940013Y-67448514D01*
X106859950Y-67456400D01*
X104772850Y-67456400D01*
X104692787Y-67448514D01*
X104612723Y-67440629D01*
X104407257Y-67378301D01*
X104217898Y-67277087D01*
X104051924Y-67140876D01*
X103915713Y-66974902D01*
X103814499Y-66785543D01*
X103752171Y-66580077D01*
X103731126Y-66366400D01*
X103752171Y-66152723D01*
X103814499Y-65947257D01*
X103915713Y-65757898D01*
X104051924Y-65591924D01*
X104217898Y-65455713D01*
X104407257Y-65354499D01*
X104407686Y-65354369D01*
X104454252Y-65340243D01*
X104612723Y-65292171D01*
X104692787Y-65284286D01*
X104772850Y-65276400D01*
X106859950Y-65276400D01*
X106940013Y-65284286D01*
G37*
G36*
X95410920Y-63015586D02*
G01*
X95574710Y-63083430D01*
X95722117Y-63181924D01*
X95847476Y-63307283D01*
X95945970Y-63454690D01*
X96013814Y-63618480D01*
X96048400Y-63792358D01*
X96048400Y-63969642D01*
X96013814Y-64143520D01*
X95945970Y-64307310D01*
X95847476Y-64454717D01*
X95722117Y-64580076D01*
X95684406Y-64605274D01*
X95608646Y-64667449D01*
X95546465Y-64743217D01*
X95500260Y-64829660D01*
X95471807Y-64923456D01*
X95462200Y-65021001D01*
X95471807Y-65118546D01*
X95500260Y-65212343D01*
X95546465Y-65298786D01*
X95608647Y-65374554D01*
X95684415Y-65436735D01*
X95770858Y-65482940D01*
X95864654Y-65511393D01*
X95962199Y-65521000D01*
X96048400Y-65521000D01*
X96048400Y-67321000D01*
X94248400Y-67321000D01*
X94248400Y-65521000D01*
X94334601Y-65521000D01*
X94432146Y-65511393D01*
X94525942Y-65482940D01*
X94612386Y-65436735D01*
X94688154Y-65374554D01*
X94750335Y-65298786D01*
X94796540Y-65212342D01*
X94824993Y-65118546D01*
X94834600Y-65021001D01*
X94824993Y-64923456D01*
X94796540Y-64829660D01*
X94750335Y-64743216D01*
X94688154Y-64667448D01*
X94612394Y-64605274D01*
X94574683Y-64580076D01*
X94449324Y-64454717D01*
X94350830Y-64307310D01*
X94282986Y-64143520D01*
X94248400Y-63969642D01*
X94248400Y-63792358D01*
X94282986Y-63618480D01*
X94350830Y-63454690D01*
X94449324Y-63307283D01*
X94574683Y-63181924D01*
X94722090Y-63083430D01*
X94885880Y-63015586D01*
X95059758Y-62981000D01*
X95237042Y-62981000D01*
X95410920Y-63015586D01*
G37*
G36*
X87790920Y-63015586D02*
G01*
X87954710Y-63083430D01*
X88102117Y-63181924D01*
X88227476Y-63307283D01*
X88325970Y-63454690D01*
X88393814Y-63618480D01*
X88428400Y-63792358D01*
X88428400Y-63969642D01*
X88393814Y-64143520D01*
X88325970Y-64307310D01*
X88227476Y-64454717D01*
X88102117Y-64580076D01*
X87954710Y-64678570D01*
X87929380Y-64689062D01*
X87842937Y-64735267D01*
X87767169Y-64797449D01*
X87704988Y-64873217D01*
X87658783Y-64959660D01*
X87630331Y-65053457D01*
X87620724Y-65151002D01*
X87630332Y-65248547D01*
X87658785Y-65342343D01*
X87704990Y-65428786D01*
X87767172Y-65504554D01*
X87842940Y-65566735D01*
X87929380Y-65612938D01*
X87954710Y-65623430D01*
X88102117Y-65721924D01*
X88227476Y-65847283D01*
X88325970Y-65994690D01*
X88393814Y-66158480D01*
X88428400Y-66332358D01*
X88428400Y-66509642D01*
X88393814Y-66683520D01*
X88325970Y-66847310D01*
X88227476Y-66994717D01*
X88102117Y-67120076D01*
X87954710Y-67218570D01*
X87790920Y-67286414D01*
X87617042Y-67321000D01*
X87439758Y-67321000D01*
X87265880Y-67286414D01*
X87102090Y-67218570D01*
X86954683Y-67120076D01*
X86829324Y-66994717D01*
X86730830Y-66847310D01*
X86662986Y-66683520D01*
X86628400Y-66509642D01*
X86628400Y-66332358D01*
X86662986Y-66158480D01*
X86730830Y-65994690D01*
X86829324Y-65847283D01*
X86954683Y-65721924D01*
X87102090Y-65623430D01*
X87127420Y-65612938D01*
X87213863Y-65566733D01*
X87289631Y-65504551D01*
X87351812Y-65428783D01*
X87398017Y-65342340D01*
X87426469Y-65248543D01*
X87436076Y-65150998D01*
X87426468Y-65053453D01*
X87398015Y-64959657D01*
X87351810Y-64873214D01*
X87289628Y-64797446D01*
X87213860Y-64735265D01*
X87127420Y-64689062D01*
X87102090Y-64678570D01*
X86954683Y-64580076D01*
X86829324Y-64454717D01*
X86730830Y-64307310D01*
X86662986Y-64143520D01*
X86628400Y-63969642D01*
X86628400Y-63792358D01*
X86662986Y-63618480D01*
X86730830Y-63454690D01*
X86829324Y-63307283D01*
X86954683Y-63181924D01*
X87102090Y-63083430D01*
X87265880Y-63015586D01*
X87439758Y-62981000D01*
X87617042Y-62981000D01*
X87790920Y-63015586D01*
G37*
G36*
X71966720Y-63691386D02*
G01*
X72130510Y-63759230D01*
X72277917Y-63857724D01*
X72403276Y-63983083D01*
X72501770Y-64130490D01*
X72569614Y-64294280D01*
X72604200Y-64468158D01*
X72604200Y-64645442D01*
X72569614Y-64819320D01*
X72501770Y-64983110D01*
X72403276Y-65130517D01*
X72277917Y-65255876D01*
X72130510Y-65354370D01*
X71966720Y-65422214D01*
X71792842Y-65456800D01*
X71615558Y-65456800D01*
X71441680Y-65422214D01*
X71277890Y-65354370D01*
X71130483Y-65255876D01*
X71005124Y-65130517D01*
X70906630Y-64983110D01*
X70838786Y-64819320D01*
X70804200Y-64645442D01*
X70804200Y-64468158D01*
X70838786Y-64294280D01*
X70906630Y-64130490D01*
X71005124Y-63983083D01*
X71130483Y-63857724D01*
X71277890Y-63759230D01*
X71441680Y-63691386D01*
X71615558Y-63656800D01*
X71792842Y-63656800D01*
X71966720Y-63691386D01*
G37*
G36*
X58451413Y-60745285D02*
G01*
X58531477Y-60753171D01*
X58736943Y-60815499D01*
X58926302Y-60916713D01*
X59092276Y-61052924D01*
X59228487Y-61218898D01*
X59329701Y-61408257D01*
X59392029Y-61613723D01*
X59413074Y-61827400D01*
X59392029Y-62041077D01*
X59329701Y-62246543D01*
X59228487Y-62435902D01*
X59092276Y-62601876D01*
X58926302Y-62738087D01*
X58736943Y-62839301D01*
X58531477Y-62901629D01*
X58451413Y-62909514D01*
X58371350Y-62917400D01*
X56284250Y-62917400D01*
X56204187Y-62909514D01*
X56124123Y-62901629D01*
X55918657Y-62839301D01*
X55729298Y-62738087D01*
X55563324Y-62601876D01*
X55427113Y-62435902D01*
X55325899Y-62246543D01*
X55263571Y-62041077D01*
X55242526Y-61827400D01*
X55263571Y-61613723D01*
X55325899Y-61408257D01*
X55427113Y-61218898D01*
X55563324Y-61052924D01*
X55729298Y-60916713D01*
X55918657Y-60815499D01*
X56124123Y-60753171D01*
X56204187Y-60745285D01*
X56284250Y-60737400D01*
X58371350Y-60737400D01*
X58451413Y-60745285D01*
G37*
G36*
X107896400Y-62456400D02*
G01*
X103736400Y-62456400D01*
X103736400Y-60276400D01*
X107896400Y-60276400D01*
X107896400Y-62456400D01*
G37*
G36*
X72604200Y-61656800D02*
G01*
X70804200Y-61656800D01*
X70804200Y-59856800D01*
X72604200Y-59856800D01*
X72604200Y-61656800D01*
G37*
G36*
X111951072Y-52060930D02*
G01*
X112260452Y-52189079D01*
X112538887Y-52375123D01*
X112775677Y-52611913D01*
X112961721Y-52890348D01*
X113089870Y-53199728D01*
X113155200Y-53528165D01*
X113155200Y-53863035D01*
X113089870Y-54191472D01*
X112961721Y-54500852D01*
X112775677Y-54779287D01*
X112538887Y-55016077D01*
X112260452Y-55202121D01*
X111951072Y-55330270D01*
X111622635Y-55395600D01*
X111287765Y-55395600D01*
X110959328Y-55330270D01*
X110649948Y-55202121D01*
X110371513Y-55016077D01*
X110134723Y-54779287D01*
X109948679Y-54500852D01*
X109820530Y-54191472D01*
X109755200Y-53863035D01*
X109755200Y-53528165D01*
X109820530Y-53199728D01*
X109948679Y-52890348D01*
X110134723Y-52611913D01*
X110371513Y-52375123D01*
X110649948Y-52189079D01*
X110959328Y-52060930D01*
X111287765Y-51995600D01*
X111622635Y-51995600D01*
X111951072Y-52060930D01*
G37*
G36*
X51372072Y-51578330D02*
G01*
X51681452Y-51706479D01*
X51959887Y-51892523D01*
X52196677Y-52129313D01*
X52382721Y-52407748D01*
X52510870Y-52717128D01*
X52576200Y-53045565D01*
X52576200Y-53380435D01*
X52510870Y-53708872D01*
X52382721Y-54018252D01*
X52196677Y-54296687D01*
X51959887Y-54533477D01*
X51681452Y-54719521D01*
X51372072Y-54847670D01*
X51043635Y-54913000D01*
X50708765Y-54913000D01*
X50380328Y-54847670D01*
X50070948Y-54719521D01*
X49792513Y-54533477D01*
X49555723Y-54296687D01*
X49369679Y-54018252D01*
X49241530Y-53708872D01*
X49176200Y-53380435D01*
X49176200Y-53045565D01*
X49241530Y-52717128D01*
X49369679Y-52407748D01*
X49555723Y-52129313D01*
X49792513Y-51892523D01*
X50070948Y-51706479D01*
X50380328Y-51578330D01*
X50708765Y-51513000D01*
X51043635Y-51513000D01*
X51372072Y-51578330D01*
G37*
M02*
