M48
; DRILL file {KiCad (5.1.5)-3} date 25.04.2020 22:11:27
; FORMAT={-:-/ absolute / metric / decimal}
; #@! TF.CreationDate,2020-04-25T22:11:27+03:00
; #@! TF.GenerationSoftware,Kicad,Pcbnew,(5.1.5)-3
; #@! TF.FileFunction,Plated,1,2,PTH
FMAT,2
METRIC
T1C0.800
T2C1.000
T3C1.320
%
G90
G05
T1
X69.393Y-71.755
X69.393Y-74.295
X69.393Y-76.835
X69.393Y-79.375
X77.013Y-71.755
X77.013Y-74.295
X77.013Y-76.835
X77.013Y-79.375
X81.432Y-73.127
X83.972Y-73.127
X87.528Y-63.881
X87.528Y-66.421
X95.148Y-63.881
X95.148Y-66.421
X81.407Y-76.81
X83.947Y-76.81
X71.704Y-60.757
X71.704Y-64.557
X87.528Y-72.314
X87.528Y-74.854
X95.148Y-72.314
X95.148Y-74.854
X81.407Y-80.721
X83.947Y-80.721
T2
X89.459Y-80.67
T3
X105.613Y-75.387
X105.613Y-80.387
X105.816Y-61.366
X105.816Y-66.366
X57.328Y-61.827
X57.328Y-66.827
X57.328Y-75.924
X57.328Y-80.924
T0
M30
