G04 #@! TF.GenerationSoftware,KiCad,Pcbnew,(5.1.5)-3*
G04 #@! TF.CreationDate,2020-11-04T23:24:00+03:00*
G04 #@! TF.ProjectId,dark dedector,6461726b-2064-4656-9465-63746f722e6b,rev?*
G04 #@! TF.SameCoordinates,Original*
G04 #@! TF.FileFunction,Copper,L2,Bot*
G04 #@! TF.FilePolarity,Positive*
%FSLAX46Y46*%
G04 Gerber Fmt 4.6, Leading zero omitted, Abs format (unit mm)*
G04 Created by KiCad (PCBNEW (5.1.5)-3) date 2020-11-04 23:24:00*
%MOMM*%
%LPD*%
G04 APERTURE LIST*
%ADD10O,1.600000X1.600000*%
%ADD11C,1.600000*%
%ADD12R,3.000000X3.000000*%
%ADD13C,3.000000*%
%ADD14R,1.800000X1.800000*%
%ADD15C,1.800000*%
%ADD16O,1.500000X1.050000*%
%ADD17R,1.500000X1.050000*%
%ADD18C,0.400000*%
%ADD19C,0.254000*%
G04 APERTURE END LIST*
D10*
X90000000Y-83160000D03*
D11*
X90000000Y-73000000D03*
D10*
X83500000Y-83160000D03*
D11*
X83500000Y-73000000D03*
D12*
X98500000Y-74000000D03*
D13*
X98500000Y-79080000D03*
D14*
X99200000Y-87200000D03*
D15*
X99200000Y-84660000D03*
D16*
X91300000Y-87330000D03*
X91300000Y-86060000D03*
D17*
X91300000Y-88600000D03*
D11*
X83400000Y-87800000D03*
X85940000Y-87800000D03*
D18*
X91000000Y-74000000D02*
X90000000Y-73000000D01*
X98500000Y-74000000D02*
X91000000Y-74000000D01*
X90000000Y-73000000D02*
X83500000Y-73000000D01*
X91300000Y-88600000D02*
X97100000Y-88600000D01*
X97100000Y-88600000D02*
X97900000Y-87800000D01*
X98600000Y-87800000D02*
X99200000Y-87200000D01*
X97900000Y-87800000D02*
X98600000Y-87800000D01*
X97700000Y-83160000D02*
X99200000Y-84660000D01*
X90000000Y-83160000D02*
X97700000Y-83160000D01*
X83500000Y-87700000D02*
X83400000Y-87800000D01*
X83500000Y-83160000D02*
X83500000Y-87700000D01*
X83400000Y-88931370D02*
X83968630Y-89500000D01*
X83400000Y-87800000D02*
X83400000Y-88931370D01*
X83968630Y-89500000D02*
X87200000Y-89500000D01*
X89370000Y-87330000D02*
X91300000Y-87330000D01*
X87200000Y-89500000D02*
X89370000Y-87330000D01*
D19*
G36*
X102340001Y-90340000D02*
G01*
X81660000Y-90340000D01*
X81660000Y-87658665D01*
X81965000Y-87658665D01*
X81965000Y-87941335D01*
X82020147Y-88218574D01*
X82128320Y-88479727D01*
X82285363Y-88714759D01*
X82485241Y-88914637D01*
X82564530Y-88967616D01*
X82577082Y-89095058D01*
X82624828Y-89252456D01*
X82702364Y-89397515D01*
X82702365Y-89397516D01*
X82806710Y-89524661D01*
X82838574Y-89550811D01*
X83349188Y-90061426D01*
X83375339Y-90093291D01*
X83502484Y-90197636D01*
X83647543Y-90275172D01*
X83804941Y-90322918D01*
X83927611Y-90335000D01*
X83927621Y-90335000D01*
X83968629Y-90339039D01*
X84009637Y-90335000D01*
X87158982Y-90335000D01*
X87200000Y-90339040D01*
X87241018Y-90335000D01*
X87241019Y-90335000D01*
X87363689Y-90322918D01*
X87521087Y-90275172D01*
X87666146Y-90197636D01*
X87793291Y-90093291D01*
X87819446Y-90061421D01*
X89715868Y-88165000D01*
X89911928Y-88165000D01*
X89911928Y-89125000D01*
X89924188Y-89249482D01*
X89960498Y-89369180D01*
X90019463Y-89479494D01*
X90098815Y-89576185D01*
X90195506Y-89655537D01*
X90305820Y-89714502D01*
X90425518Y-89750812D01*
X90550000Y-89763072D01*
X92050000Y-89763072D01*
X92174482Y-89750812D01*
X92294180Y-89714502D01*
X92404494Y-89655537D01*
X92501185Y-89576185D01*
X92580537Y-89479494D01*
X92604320Y-89435000D01*
X97058982Y-89435000D01*
X97100000Y-89439040D01*
X97141018Y-89435000D01*
X97141019Y-89435000D01*
X97263689Y-89422918D01*
X97421087Y-89375172D01*
X97566146Y-89297636D01*
X97693291Y-89193291D01*
X97719445Y-89161422D01*
X98159819Y-88721050D01*
X98175518Y-88725812D01*
X98300000Y-88738072D01*
X100100000Y-88738072D01*
X100224482Y-88725812D01*
X100344180Y-88689502D01*
X100454494Y-88630537D01*
X100551185Y-88551185D01*
X100630537Y-88454494D01*
X100689502Y-88344180D01*
X100725812Y-88224482D01*
X100738072Y-88100000D01*
X100738072Y-86300000D01*
X100725812Y-86175518D01*
X100689502Y-86055820D01*
X100630537Y-85945506D01*
X100551185Y-85848815D01*
X100454494Y-85769463D01*
X100344180Y-85710498D01*
X100325873Y-85704944D01*
X100392312Y-85638505D01*
X100560299Y-85387095D01*
X100676011Y-85107743D01*
X100735000Y-84811184D01*
X100735000Y-84508816D01*
X100676011Y-84212257D01*
X100560299Y-83932905D01*
X100392312Y-83681495D01*
X100178505Y-83467688D01*
X99927095Y-83299701D01*
X99647743Y-83183989D01*
X99351184Y-83125000D01*
X99048816Y-83125000D01*
X98879539Y-83158671D01*
X98319446Y-82598579D01*
X98293291Y-82566709D01*
X98166146Y-82462364D01*
X98021087Y-82384828D01*
X97863689Y-82337082D01*
X97741019Y-82325000D01*
X97741018Y-82325000D01*
X97700000Y-82320960D01*
X97658982Y-82325000D01*
X91167930Y-82325000D01*
X91114637Y-82245241D01*
X90914759Y-82045363D01*
X90679727Y-81888320D01*
X90418574Y-81780147D01*
X90141335Y-81725000D01*
X89858665Y-81725000D01*
X89581426Y-81780147D01*
X89320273Y-81888320D01*
X89085241Y-82045363D01*
X88885363Y-82245241D01*
X88728320Y-82480273D01*
X88620147Y-82741426D01*
X88565000Y-83018665D01*
X88565000Y-83301335D01*
X88620147Y-83578574D01*
X88728320Y-83839727D01*
X88885363Y-84074759D01*
X89085241Y-84274637D01*
X89320273Y-84431680D01*
X89581426Y-84539853D01*
X89858665Y-84595000D01*
X90141335Y-84595000D01*
X90418574Y-84539853D01*
X90679727Y-84431680D01*
X90914759Y-84274637D01*
X91114637Y-84074759D01*
X91167930Y-83995000D01*
X97354133Y-83995000D01*
X97698671Y-84339539D01*
X97665000Y-84508816D01*
X97665000Y-84811184D01*
X97723989Y-85107743D01*
X97839701Y-85387095D01*
X98007688Y-85638505D01*
X98074127Y-85704944D01*
X98055820Y-85710498D01*
X97945506Y-85769463D01*
X97848815Y-85848815D01*
X97769463Y-85945506D01*
X97710498Y-86055820D01*
X97674188Y-86175518D01*
X97661928Y-86300000D01*
X97661928Y-86999646D01*
X97578913Y-87024828D01*
X97433854Y-87102364D01*
X97355932Y-87166313D01*
X97306709Y-87206709D01*
X97280563Y-87238568D01*
X96754132Y-87765000D01*
X92605240Y-87765000D01*
X92668215Y-87557400D01*
X92690612Y-87330000D01*
X92668215Y-87102600D01*
X92601885Y-86883940D01*
X92501071Y-86695331D01*
X92542275Y-86636882D01*
X92635272Y-86427337D01*
X92643964Y-86365810D01*
X92518163Y-86187000D01*
X91753109Y-86187000D01*
X91752400Y-86186785D01*
X91581979Y-86170000D01*
X91018021Y-86170000D01*
X90847600Y-86186785D01*
X90846891Y-86187000D01*
X90081837Y-86187000D01*
X89956036Y-86365810D01*
X89964728Y-86427337D01*
X89994757Y-86495000D01*
X89411007Y-86495000D01*
X89369999Y-86490961D01*
X89328991Y-86495000D01*
X89328981Y-86495000D01*
X89206311Y-86507082D01*
X89048913Y-86554828D01*
X88903854Y-86632364D01*
X88776709Y-86736709D01*
X88750559Y-86768573D01*
X87319128Y-88200005D01*
X87366300Y-88011816D01*
X87380217Y-87729488D01*
X87338787Y-87449870D01*
X87243603Y-87183708D01*
X87176671Y-87058486D01*
X86932702Y-86986903D01*
X86119605Y-87800000D01*
X86133748Y-87814143D01*
X85954143Y-87993748D01*
X85940000Y-87979605D01*
X85925858Y-87993748D01*
X85746253Y-87814143D01*
X85760395Y-87800000D01*
X84947298Y-86986903D01*
X84703329Y-87058486D01*
X84672806Y-87122992D01*
X84671680Y-87120273D01*
X84514637Y-86885241D01*
X84436694Y-86807298D01*
X85126903Y-86807298D01*
X85940000Y-87620395D01*
X86753097Y-86807298D01*
X86681514Y-86563329D01*
X86426004Y-86442429D01*
X86151816Y-86373700D01*
X85869488Y-86359783D01*
X85589870Y-86401213D01*
X85323708Y-86496397D01*
X85198486Y-86563329D01*
X85126903Y-86807298D01*
X84436694Y-86807298D01*
X84335000Y-86705604D01*
X84335000Y-85754190D01*
X89956036Y-85754190D01*
X90081837Y-85933000D01*
X91173000Y-85933000D01*
X91173000Y-85053402D01*
X91427000Y-85053402D01*
X91427000Y-85933000D01*
X92518163Y-85933000D01*
X92643964Y-85754190D01*
X92635272Y-85692663D01*
X92542275Y-85483118D01*
X92410184Y-85295742D01*
X92244076Y-85137736D01*
X92050334Y-85015172D01*
X91836404Y-84932761D01*
X91610507Y-84893669D01*
X91427000Y-85053402D01*
X91173000Y-85053402D01*
X90989493Y-84893669D01*
X90763596Y-84932761D01*
X90549666Y-85015172D01*
X90355924Y-85137736D01*
X90189816Y-85295742D01*
X90057725Y-85483118D01*
X89964728Y-85692663D01*
X89956036Y-85754190D01*
X84335000Y-85754190D01*
X84335000Y-84327930D01*
X84414759Y-84274637D01*
X84614637Y-84074759D01*
X84771680Y-83839727D01*
X84879853Y-83578574D01*
X84935000Y-83301335D01*
X84935000Y-83018665D01*
X84879853Y-82741426D01*
X84771680Y-82480273D01*
X84614637Y-82245241D01*
X84414759Y-82045363D01*
X84179727Y-81888320D01*
X83918574Y-81780147D01*
X83641335Y-81725000D01*
X83358665Y-81725000D01*
X83081426Y-81780147D01*
X82820273Y-81888320D01*
X82585241Y-82045363D01*
X82385363Y-82245241D01*
X82228320Y-82480273D01*
X82120147Y-82741426D01*
X82065000Y-83018665D01*
X82065000Y-83301335D01*
X82120147Y-83578574D01*
X82228320Y-83839727D01*
X82385363Y-84074759D01*
X82585241Y-84274637D01*
X82665000Y-84327930D01*
X82665001Y-86565252D01*
X82485241Y-86685363D01*
X82285363Y-86885241D01*
X82128320Y-87120273D01*
X82020147Y-87381426D01*
X81965000Y-87658665D01*
X81660000Y-87658665D01*
X81660000Y-80571653D01*
X97187952Y-80571653D01*
X97343962Y-80887214D01*
X97718745Y-81078020D01*
X98123551Y-81192044D01*
X98542824Y-81224902D01*
X98960451Y-81175334D01*
X99360383Y-81045243D01*
X99656038Y-80887214D01*
X99812048Y-80571653D01*
X98500000Y-79259605D01*
X97187952Y-80571653D01*
X81660000Y-80571653D01*
X81660000Y-79122824D01*
X96355098Y-79122824D01*
X96404666Y-79540451D01*
X96534757Y-79940383D01*
X96692786Y-80236038D01*
X97008347Y-80392048D01*
X98320395Y-79080000D01*
X98679605Y-79080000D01*
X99991653Y-80392048D01*
X100307214Y-80236038D01*
X100498020Y-79861255D01*
X100612044Y-79456449D01*
X100644902Y-79037176D01*
X100595334Y-78619549D01*
X100465243Y-78219617D01*
X100307214Y-77923962D01*
X99991653Y-77767952D01*
X98679605Y-79080000D01*
X98320395Y-79080000D01*
X97008347Y-77767952D01*
X96692786Y-77923962D01*
X96501980Y-78298745D01*
X96387956Y-78703551D01*
X96355098Y-79122824D01*
X81660000Y-79122824D01*
X81660000Y-77588347D01*
X97187952Y-77588347D01*
X98500000Y-78900395D01*
X99812048Y-77588347D01*
X99656038Y-77272786D01*
X99281255Y-77081980D01*
X98876449Y-76967956D01*
X98457176Y-76935098D01*
X98039549Y-76984666D01*
X97639617Y-77114757D01*
X97343962Y-77272786D01*
X97187952Y-77588347D01*
X81660000Y-77588347D01*
X81660000Y-72858665D01*
X82065000Y-72858665D01*
X82065000Y-73141335D01*
X82120147Y-73418574D01*
X82228320Y-73679727D01*
X82385363Y-73914759D01*
X82585241Y-74114637D01*
X82820273Y-74271680D01*
X83081426Y-74379853D01*
X83358665Y-74435000D01*
X83641335Y-74435000D01*
X83918574Y-74379853D01*
X84179727Y-74271680D01*
X84414759Y-74114637D01*
X84614637Y-73914759D01*
X84667930Y-73835000D01*
X88832070Y-73835000D01*
X88885363Y-73914759D01*
X89085241Y-74114637D01*
X89320273Y-74271680D01*
X89581426Y-74379853D01*
X89858665Y-74435000D01*
X90141335Y-74435000D01*
X90235417Y-74416286D01*
X90380563Y-74561432D01*
X90406709Y-74593291D01*
X90533854Y-74697636D01*
X90678913Y-74775172D01*
X90836311Y-74822918D01*
X90958981Y-74835000D01*
X90958982Y-74835000D01*
X91000000Y-74839040D01*
X91041018Y-74835000D01*
X96361928Y-74835000D01*
X96361928Y-75500000D01*
X96374188Y-75624482D01*
X96410498Y-75744180D01*
X96469463Y-75854494D01*
X96548815Y-75951185D01*
X96645506Y-76030537D01*
X96755820Y-76089502D01*
X96875518Y-76125812D01*
X97000000Y-76138072D01*
X100000000Y-76138072D01*
X100124482Y-76125812D01*
X100244180Y-76089502D01*
X100354494Y-76030537D01*
X100451185Y-75951185D01*
X100530537Y-75854494D01*
X100589502Y-75744180D01*
X100625812Y-75624482D01*
X100638072Y-75500000D01*
X100638072Y-72500000D01*
X100625812Y-72375518D01*
X100589502Y-72255820D01*
X100530537Y-72145506D01*
X100451185Y-72048815D01*
X100354494Y-71969463D01*
X100244180Y-71910498D01*
X100124482Y-71874188D01*
X100000000Y-71861928D01*
X97000000Y-71861928D01*
X96875518Y-71874188D01*
X96755820Y-71910498D01*
X96645506Y-71969463D01*
X96548815Y-72048815D01*
X96469463Y-72145506D01*
X96410498Y-72255820D01*
X96374188Y-72375518D01*
X96361928Y-72500000D01*
X96361928Y-73165000D01*
X91430293Y-73165000D01*
X91435000Y-73141335D01*
X91435000Y-72858665D01*
X91379853Y-72581426D01*
X91271680Y-72320273D01*
X91114637Y-72085241D01*
X90914759Y-71885363D01*
X90679727Y-71728320D01*
X90418574Y-71620147D01*
X90141335Y-71565000D01*
X89858665Y-71565000D01*
X89581426Y-71620147D01*
X89320273Y-71728320D01*
X89085241Y-71885363D01*
X88885363Y-72085241D01*
X88832070Y-72165000D01*
X84667930Y-72165000D01*
X84614637Y-72085241D01*
X84414759Y-71885363D01*
X84179727Y-71728320D01*
X83918574Y-71620147D01*
X83641335Y-71565000D01*
X83358665Y-71565000D01*
X83081426Y-71620147D01*
X82820273Y-71728320D01*
X82585241Y-71885363D01*
X82385363Y-72085241D01*
X82228320Y-72320273D01*
X82120147Y-72581426D01*
X82065000Y-72858665D01*
X81660000Y-72858665D01*
X81660000Y-70660000D01*
X102340000Y-70660000D01*
X102340001Y-90340000D01*
G37*
X102340001Y-90340000D02*
X81660000Y-90340000D01*
X81660000Y-87658665D01*
X81965000Y-87658665D01*
X81965000Y-87941335D01*
X82020147Y-88218574D01*
X82128320Y-88479727D01*
X82285363Y-88714759D01*
X82485241Y-88914637D01*
X82564530Y-88967616D01*
X82577082Y-89095058D01*
X82624828Y-89252456D01*
X82702364Y-89397515D01*
X82702365Y-89397516D01*
X82806710Y-89524661D01*
X82838574Y-89550811D01*
X83349188Y-90061426D01*
X83375339Y-90093291D01*
X83502484Y-90197636D01*
X83647543Y-90275172D01*
X83804941Y-90322918D01*
X83927611Y-90335000D01*
X83927621Y-90335000D01*
X83968629Y-90339039D01*
X84009637Y-90335000D01*
X87158982Y-90335000D01*
X87200000Y-90339040D01*
X87241018Y-90335000D01*
X87241019Y-90335000D01*
X87363689Y-90322918D01*
X87521087Y-90275172D01*
X87666146Y-90197636D01*
X87793291Y-90093291D01*
X87819446Y-90061421D01*
X89715868Y-88165000D01*
X89911928Y-88165000D01*
X89911928Y-89125000D01*
X89924188Y-89249482D01*
X89960498Y-89369180D01*
X90019463Y-89479494D01*
X90098815Y-89576185D01*
X90195506Y-89655537D01*
X90305820Y-89714502D01*
X90425518Y-89750812D01*
X90550000Y-89763072D01*
X92050000Y-89763072D01*
X92174482Y-89750812D01*
X92294180Y-89714502D01*
X92404494Y-89655537D01*
X92501185Y-89576185D01*
X92580537Y-89479494D01*
X92604320Y-89435000D01*
X97058982Y-89435000D01*
X97100000Y-89439040D01*
X97141018Y-89435000D01*
X97141019Y-89435000D01*
X97263689Y-89422918D01*
X97421087Y-89375172D01*
X97566146Y-89297636D01*
X97693291Y-89193291D01*
X97719445Y-89161422D01*
X98159819Y-88721050D01*
X98175518Y-88725812D01*
X98300000Y-88738072D01*
X100100000Y-88738072D01*
X100224482Y-88725812D01*
X100344180Y-88689502D01*
X100454494Y-88630537D01*
X100551185Y-88551185D01*
X100630537Y-88454494D01*
X100689502Y-88344180D01*
X100725812Y-88224482D01*
X100738072Y-88100000D01*
X100738072Y-86300000D01*
X100725812Y-86175518D01*
X100689502Y-86055820D01*
X100630537Y-85945506D01*
X100551185Y-85848815D01*
X100454494Y-85769463D01*
X100344180Y-85710498D01*
X100325873Y-85704944D01*
X100392312Y-85638505D01*
X100560299Y-85387095D01*
X100676011Y-85107743D01*
X100735000Y-84811184D01*
X100735000Y-84508816D01*
X100676011Y-84212257D01*
X100560299Y-83932905D01*
X100392312Y-83681495D01*
X100178505Y-83467688D01*
X99927095Y-83299701D01*
X99647743Y-83183989D01*
X99351184Y-83125000D01*
X99048816Y-83125000D01*
X98879539Y-83158671D01*
X98319446Y-82598579D01*
X98293291Y-82566709D01*
X98166146Y-82462364D01*
X98021087Y-82384828D01*
X97863689Y-82337082D01*
X97741019Y-82325000D01*
X97741018Y-82325000D01*
X97700000Y-82320960D01*
X97658982Y-82325000D01*
X91167930Y-82325000D01*
X91114637Y-82245241D01*
X90914759Y-82045363D01*
X90679727Y-81888320D01*
X90418574Y-81780147D01*
X90141335Y-81725000D01*
X89858665Y-81725000D01*
X89581426Y-81780147D01*
X89320273Y-81888320D01*
X89085241Y-82045363D01*
X88885363Y-82245241D01*
X88728320Y-82480273D01*
X88620147Y-82741426D01*
X88565000Y-83018665D01*
X88565000Y-83301335D01*
X88620147Y-83578574D01*
X88728320Y-83839727D01*
X88885363Y-84074759D01*
X89085241Y-84274637D01*
X89320273Y-84431680D01*
X89581426Y-84539853D01*
X89858665Y-84595000D01*
X90141335Y-84595000D01*
X90418574Y-84539853D01*
X90679727Y-84431680D01*
X90914759Y-84274637D01*
X91114637Y-84074759D01*
X91167930Y-83995000D01*
X97354133Y-83995000D01*
X97698671Y-84339539D01*
X97665000Y-84508816D01*
X97665000Y-84811184D01*
X97723989Y-85107743D01*
X97839701Y-85387095D01*
X98007688Y-85638505D01*
X98074127Y-85704944D01*
X98055820Y-85710498D01*
X97945506Y-85769463D01*
X97848815Y-85848815D01*
X97769463Y-85945506D01*
X97710498Y-86055820D01*
X97674188Y-86175518D01*
X97661928Y-86300000D01*
X97661928Y-86999646D01*
X97578913Y-87024828D01*
X97433854Y-87102364D01*
X97355932Y-87166313D01*
X97306709Y-87206709D01*
X97280563Y-87238568D01*
X96754132Y-87765000D01*
X92605240Y-87765000D01*
X92668215Y-87557400D01*
X92690612Y-87330000D01*
X92668215Y-87102600D01*
X92601885Y-86883940D01*
X92501071Y-86695331D01*
X92542275Y-86636882D01*
X92635272Y-86427337D01*
X92643964Y-86365810D01*
X92518163Y-86187000D01*
X91753109Y-86187000D01*
X91752400Y-86186785D01*
X91581979Y-86170000D01*
X91018021Y-86170000D01*
X90847600Y-86186785D01*
X90846891Y-86187000D01*
X90081837Y-86187000D01*
X89956036Y-86365810D01*
X89964728Y-86427337D01*
X89994757Y-86495000D01*
X89411007Y-86495000D01*
X89369999Y-86490961D01*
X89328991Y-86495000D01*
X89328981Y-86495000D01*
X89206311Y-86507082D01*
X89048913Y-86554828D01*
X88903854Y-86632364D01*
X88776709Y-86736709D01*
X88750559Y-86768573D01*
X87319128Y-88200005D01*
X87366300Y-88011816D01*
X87380217Y-87729488D01*
X87338787Y-87449870D01*
X87243603Y-87183708D01*
X87176671Y-87058486D01*
X86932702Y-86986903D01*
X86119605Y-87800000D01*
X86133748Y-87814143D01*
X85954143Y-87993748D01*
X85940000Y-87979605D01*
X85925858Y-87993748D01*
X85746253Y-87814143D01*
X85760395Y-87800000D01*
X84947298Y-86986903D01*
X84703329Y-87058486D01*
X84672806Y-87122992D01*
X84671680Y-87120273D01*
X84514637Y-86885241D01*
X84436694Y-86807298D01*
X85126903Y-86807298D01*
X85940000Y-87620395D01*
X86753097Y-86807298D01*
X86681514Y-86563329D01*
X86426004Y-86442429D01*
X86151816Y-86373700D01*
X85869488Y-86359783D01*
X85589870Y-86401213D01*
X85323708Y-86496397D01*
X85198486Y-86563329D01*
X85126903Y-86807298D01*
X84436694Y-86807298D01*
X84335000Y-86705604D01*
X84335000Y-85754190D01*
X89956036Y-85754190D01*
X90081837Y-85933000D01*
X91173000Y-85933000D01*
X91173000Y-85053402D01*
X91427000Y-85053402D01*
X91427000Y-85933000D01*
X92518163Y-85933000D01*
X92643964Y-85754190D01*
X92635272Y-85692663D01*
X92542275Y-85483118D01*
X92410184Y-85295742D01*
X92244076Y-85137736D01*
X92050334Y-85015172D01*
X91836404Y-84932761D01*
X91610507Y-84893669D01*
X91427000Y-85053402D01*
X91173000Y-85053402D01*
X90989493Y-84893669D01*
X90763596Y-84932761D01*
X90549666Y-85015172D01*
X90355924Y-85137736D01*
X90189816Y-85295742D01*
X90057725Y-85483118D01*
X89964728Y-85692663D01*
X89956036Y-85754190D01*
X84335000Y-85754190D01*
X84335000Y-84327930D01*
X84414759Y-84274637D01*
X84614637Y-84074759D01*
X84771680Y-83839727D01*
X84879853Y-83578574D01*
X84935000Y-83301335D01*
X84935000Y-83018665D01*
X84879853Y-82741426D01*
X84771680Y-82480273D01*
X84614637Y-82245241D01*
X84414759Y-82045363D01*
X84179727Y-81888320D01*
X83918574Y-81780147D01*
X83641335Y-81725000D01*
X83358665Y-81725000D01*
X83081426Y-81780147D01*
X82820273Y-81888320D01*
X82585241Y-82045363D01*
X82385363Y-82245241D01*
X82228320Y-82480273D01*
X82120147Y-82741426D01*
X82065000Y-83018665D01*
X82065000Y-83301335D01*
X82120147Y-83578574D01*
X82228320Y-83839727D01*
X82385363Y-84074759D01*
X82585241Y-84274637D01*
X82665000Y-84327930D01*
X82665001Y-86565252D01*
X82485241Y-86685363D01*
X82285363Y-86885241D01*
X82128320Y-87120273D01*
X82020147Y-87381426D01*
X81965000Y-87658665D01*
X81660000Y-87658665D01*
X81660000Y-80571653D01*
X97187952Y-80571653D01*
X97343962Y-80887214D01*
X97718745Y-81078020D01*
X98123551Y-81192044D01*
X98542824Y-81224902D01*
X98960451Y-81175334D01*
X99360383Y-81045243D01*
X99656038Y-80887214D01*
X99812048Y-80571653D01*
X98500000Y-79259605D01*
X97187952Y-80571653D01*
X81660000Y-80571653D01*
X81660000Y-79122824D01*
X96355098Y-79122824D01*
X96404666Y-79540451D01*
X96534757Y-79940383D01*
X96692786Y-80236038D01*
X97008347Y-80392048D01*
X98320395Y-79080000D01*
X98679605Y-79080000D01*
X99991653Y-80392048D01*
X100307214Y-80236038D01*
X100498020Y-79861255D01*
X100612044Y-79456449D01*
X100644902Y-79037176D01*
X100595334Y-78619549D01*
X100465243Y-78219617D01*
X100307214Y-77923962D01*
X99991653Y-77767952D01*
X98679605Y-79080000D01*
X98320395Y-79080000D01*
X97008347Y-77767952D01*
X96692786Y-77923962D01*
X96501980Y-78298745D01*
X96387956Y-78703551D01*
X96355098Y-79122824D01*
X81660000Y-79122824D01*
X81660000Y-77588347D01*
X97187952Y-77588347D01*
X98500000Y-78900395D01*
X99812048Y-77588347D01*
X99656038Y-77272786D01*
X99281255Y-77081980D01*
X98876449Y-76967956D01*
X98457176Y-76935098D01*
X98039549Y-76984666D01*
X97639617Y-77114757D01*
X97343962Y-77272786D01*
X97187952Y-77588347D01*
X81660000Y-77588347D01*
X81660000Y-72858665D01*
X82065000Y-72858665D01*
X82065000Y-73141335D01*
X82120147Y-73418574D01*
X82228320Y-73679727D01*
X82385363Y-73914759D01*
X82585241Y-74114637D01*
X82820273Y-74271680D01*
X83081426Y-74379853D01*
X83358665Y-74435000D01*
X83641335Y-74435000D01*
X83918574Y-74379853D01*
X84179727Y-74271680D01*
X84414759Y-74114637D01*
X84614637Y-73914759D01*
X84667930Y-73835000D01*
X88832070Y-73835000D01*
X88885363Y-73914759D01*
X89085241Y-74114637D01*
X89320273Y-74271680D01*
X89581426Y-74379853D01*
X89858665Y-74435000D01*
X90141335Y-74435000D01*
X90235417Y-74416286D01*
X90380563Y-74561432D01*
X90406709Y-74593291D01*
X90533854Y-74697636D01*
X90678913Y-74775172D01*
X90836311Y-74822918D01*
X90958981Y-74835000D01*
X90958982Y-74835000D01*
X91000000Y-74839040D01*
X91041018Y-74835000D01*
X96361928Y-74835000D01*
X96361928Y-75500000D01*
X96374188Y-75624482D01*
X96410498Y-75744180D01*
X96469463Y-75854494D01*
X96548815Y-75951185D01*
X96645506Y-76030537D01*
X96755820Y-76089502D01*
X96875518Y-76125812D01*
X97000000Y-76138072D01*
X100000000Y-76138072D01*
X100124482Y-76125812D01*
X100244180Y-76089502D01*
X100354494Y-76030537D01*
X100451185Y-75951185D01*
X100530537Y-75854494D01*
X100589502Y-75744180D01*
X100625812Y-75624482D01*
X100638072Y-75500000D01*
X100638072Y-72500000D01*
X100625812Y-72375518D01*
X100589502Y-72255820D01*
X100530537Y-72145506D01*
X100451185Y-72048815D01*
X100354494Y-71969463D01*
X100244180Y-71910498D01*
X100124482Y-71874188D01*
X100000000Y-71861928D01*
X97000000Y-71861928D01*
X96875518Y-71874188D01*
X96755820Y-71910498D01*
X96645506Y-71969463D01*
X96548815Y-72048815D01*
X96469463Y-72145506D01*
X96410498Y-72255820D01*
X96374188Y-72375518D01*
X96361928Y-72500000D01*
X96361928Y-73165000D01*
X91430293Y-73165000D01*
X91435000Y-73141335D01*
X91435000Y-72858665D01*
X91379853Y-72581426D01*
X91271680Y-72320273D01*
X91114637Y-72085241D01*
X90914759Y-71885363D01*
X90679727Y-71728320D01*
X90418574Y-71620147D01*
X90141335Y-71565000D01*
X89858665Y-71565000D01*
X89581426Y-71620147D01*
X89320273Y-71728320D01*
X89085241Y-71885363D01*
X88885363Y-72085241D01*
X88832070Y-72165000D01*
X84667930Y-72165000D01*
X84614637Y-72085241D01*
X84414759Y-71885363D01*
X84179727Y-71728320D01*
X83918574Y-71620147D01*
X83641335Y-71565000D01*
X83358665Y-71565000D01*
X83081426Y-71620147D01*
X82820273Y-71728320D01*
X82585241Y-71885363D01*
X82385363Y-72085241D01*
X82228320Y-72320273D01*
X82120147Y-72581426D01*
X82065000Y-72858665D01*
X81660000Y-72858665D01*
X81660000Y-70660000D01*
X102340000Y-70660000D01*
X102340001Y-90340000D01*
M02*
